<svg fill="none" xmlns="http://www.w3.org/2000/svg" viewBox="0 0 501 1800">
  <path d="M243 416c-4 10-4 20-5 30s-5 21-14 26c-4 3-10 4-13 7-2 3-3 7-3 10 0 12 8 22 18 28s21 10 31 15 19 12 28 18c16 10 34 16 52 14s36-15 39-33c1-7 0-13 2-19 2-11 11-20 15-30 2-8 3-17 2-25-1-12-4-24-11-34-5-7-12-13-19-19-15-11-33-20-51-22-15-1-30 2-42 11-10 7-25 11-29 23Z" fill="#DDD5FF"/>
  <path fill-rule="evenodd" clip-rule="evenodd" d="M287 386c7-6 15-6 24-5h4c4 0 7 0 10 2l3 3h1c-5 0-10 1-14 3h-1c-6 0-11 1-17 3-3-3-6-5-10-6Zm45-2 4 3 7 2 3 3 1 2 1 1v1c2 2 7 3 10 4 9 2 19 4 23 14 2 3 3 7 3 11l1 7c1 4 4 6 6 8l6 6a27 27 0 0 1 3 15c5 9 4 18 3 27l-1 9c0 7-4 12-10 15 3 6 3 14 1 20-3 8-8 9-15 9l-1 4v3l-4 5c-3 4-7 7-12 8-4 2-8 2-13 2l-6-3-9-2-6 4-8 4c-4 0-8 0-12-2-10-3-14-12-14-21l-2 1-5 2-15 3c-9 1-22-1-26-10l-1-7v-1c0-6-1-7-6-9l-6-3-10-4c-10-7-12-17-10-29 1-11 7-20 16-28l8-4c-8-6-8-16-2-23 3-5 3-9 4-14v-7c1-4 3-8 6-11 4-3 8-4 13-6 3 0 5-2 7-3l6-4c5-2 9-2 14-1 6-5 15-8 23-8l5 1h8l6 1 6 5Zm59 125c6-1 6-9 6-15l1-5v-1l1-16-3 8-5 7c-3 2-5 5-6 9l-1 5 1 2 6 6Zm5-48v1c-1 10-5 19-10 25l-2 3c-2 2-4 4-4 9l-1 3v2c0 5-1 9-4 13-5 8-12 12-20 14a19 19 0 0 1-9 1l-4-1-6-1-5 1-5 1c-4 0-6-2-9-4l-3-3 2 1c8 0 15-4 19-11 2-4 2-8 2-13l6 2c7 2 13-1 18-5 3-3 6-4 10-5 4-2 9-3 12-8 5-5 7-18-1-23l-8-2a939 939 0 0 1-3 0c-3 0-7-1-9-4l2-6 1-2c2-8-1-14-9-17l-15-3-7 1h-1c-4 1-4 1-5-3-1-7-2-12-10-12-6 0-10 2-15 5l-7 4-2 1h-1c-3-4 3-16 5-19 4-6 11-12 19-15 6-3 20-4 25 3l2 3c1 2 1 3 4 5l8 1 10 2c7 3 11 8 13 16l1 7c0 3 0 6 2 9l5 6 5 4c3 5 4 9 4 14Zm-7 65c0-7 0-14-5-19l-2 6a40 40 0 0 1-35 22l-1 1-1 3-4 5-11 4c-7 0-14 0-20-2l-6-3-2-4-4 1v1c0 8 2 16 10 20 4 2 10 3 15 1l5-3 4-3 7-2 2 2 2 1c5 3 10 4 15 3 6-2 13-7 15-13v-6l3-2 4-1c2 1 4 1 6-1s3-8 3-11Zm-47 9h1-7l-11-1c-5 1-9-2-13-4l-4-5-2-2-2-1-4-3-3-3c-4-2-8 0-13 3l-9 3c-7 1-16-2-19-9s0-15 5-20l4-3 6-6c5-7 0-11-6-15-7-5-10-11-7-20 3-8 9-14 17-17l7-3 8-2h-1c-2-3-1-8 0-12v-1c2-6 6-11 10-15l10-7c-8 1-16 4-23 7h-1c-7 3-13 6-17 12-4 5-6 12-8 18l-4 12c-3 6-9 10-15 13l-7 4c-11 7-17 18-18 31s5 22 17 27l5 2c5 1 10 3 11 9v4c0 5 0 8 5 12 7 5 16 4 23 3 6-1 12-4 17-6l3-2h1l6-2 2 1c4 8 13 8 21 8s12-2 15-9v-1Zm-107-90 5 7 8-6c4-4 6-10 7-15l2-8c4-10 9-18 19-22l17-8c-7-4-13-7-22-4l-5 3-5 3-5 2c-6 2-12 4-13 14v6c0 5 0 9-3 12-5 5-7 9-5 16Zm75 76-4-3-2-2-3-3-1-1-2-1c-4 0-8 2-11 4l-4 2c-19 8-31-10-18-24l4-3c4-3 7-5 8-10 2-6-2-9-6-12l-4-3c-12-10-2-26 9-31l8-2 7-3a43 43 0 0 0 6-3l-2 4c-4 6-6 20 1 26l-6 6c-2 5 0 10 3 14 2 3 4 5 7 6h3c2 1 2 1 4 6v3c0 1 0 3 2 4l8 5c6 1 10-1 13-5l1 1v2h1c2 3 0 14-1 16-3 6-10 10-17 9l-4-2Zm18-30v1c-3 5-9 7-14 2-2-2-2-4-2-7l-1-5-2-2h-1l-4-1-6-4-4-7c0-3 0-5 2-8l3-3c2 0 3-1 3-2l1-1c2 0 4 3 5 5l1 3c3 4 6 4 10 4-3 4-3 6 0 12l1 2c2 2 3 6 6 8v1l2 2Zm6 0 2 3 6 7c6 3 10 0 14-3l4-3 6-2 5-1c8-4 12-10 11-19-1-8-6-9-13-10h-2c-4 0-8 0-9-5-1-2 0-4 1-7l2-4c1-6-2-10-8-13-7-2-13-2-20-1h-8l-1-3-1-3v-4c-3-8-13-5-17-1-6 4-10 11-10 18l1 10c6-7 20-9 26-3 3 1 4 4 4 7l1 3c0 4 0 7 6 9l5 1c5 1 11 2 13 6 7 9-9 17-18 18Zm0-4h2l6-1c7-3 9-10 2-14l-8-3-4-1c-3-1-6-1-7-3-6 6-3 10 1 15v1l1 1 2 3 1 1h5l-1 1Zm-10-24h-2c-3 0-5 0-8-2l-2-4-1-4c-2-2-6-3-9-2l-2 2c2-5 10-7 15-6 7 1 7 7 8 13l1 3Z" fill="#52525B"/>
  <path d="M87 348c-1-8 0-15 1-23 4-22 11-43 21-63l16 25c11 16 22 34 18 53-2 13-13 34-27 38-17 5-27-17-29-30Z" fill="#DDD5FF"/>
  <path d="M31 263h-5l-4 3v6c0 2 2 3 3 4l5 1 4-3 1-5-1-2-3-4Zm9-30-1-1h-5c-2 0-4 1-4 3a7 7 0 0 0 2 9 1934 1934 0 0 0 7 1l4-3a7 7 0 0 0-3-9Zm32 10c-9 2-5 15 3 13 8-3 5-15-3-13Zm56-35c-2-1-4-2-5-1l-4 3c-1 2-2 3-1 5v2l3 4h5c2 0 4-1 5-3v-6l-3-4Zm59 44c-8 2-5 15 4 12 8-2 4-15-4-12Z" fill="#F5E38D"/>
  <path fill-rule="evenodd" clip-rule="evenodd" d="M87 321c-6-8-14-11-22-15a460 460 0 0 1-24-7l-4-1c-6-2-12-3-18-2-1 0-4 1-3 2l10 14 14 19 6 14c3 8 6 15 12 22 14 16 36 19 56 16 0 17 4 35 7 52v1c3 17 8 37 20 51 1 1 5-1 3-2-10-13-16-34-19-50v-1c-3-17-6-33-7-50 8 0 18-4 25-7h1a74 74 0 0 0 43-55l2-11c1-14 3-27 17-35 2-1 1-3-1-2-17 3-32 10-46 20-5 4-9 9-13 15-3 3-5 7-6 11h-1l4-12c2-11 6-27 10-35h1c4-2 7-5 6-11-1-5-4-9-9-6s-9 14-3 18l-5 15a297 297 0 0 0-7 25 83 83 0 0 0-19-38l-8-11v-3l-2-1-2-6c0-1-4 0-4 2 1 10-2 22-5 33a438 438 0 0 0-6 23 184 184 0 0 0-4-17c-1-5-3-11-7-12l-2-6c-3-6-5-13-12-13-5 0-6 4-6 9 2 8 6 12 13 13l3 1c2 0 3 0 4 3l2 7 1 3 5 20Zm-13-37v-2l-1-3c-1-3-8-15-9-6-1 6 5 11 10 11Zm35 97c-15-6-23-28-23-43l1-9-1-1c-5-11-14-15-25-20-6-3-13-4-20-6l-5-1-15-3 9 11 11 14c4 6 7 13 9 20l5 10c10 22 32 30 54 28Zm29-57v-2l1-1v1l-1 2Zm17-57h1c1-3 1-5-1-7-3-1-5 0-5 3-1 2 0 4 3 5l2-1Zm-38 108h-1c-4-3-6-8-8-12l-2-4c-5-10-6-19-6-29l4-30a821 821 0 0 0 2-5 216 216 0 0 1 5 43l1 16 5 15 3 8-1 1v-2l-2-1Zm-8-88 1 2a96 96 0 0 1 16 62v2l-3 20-2-6a69 69 0 0 1-6-32l-1-15a348 348 0 0 0-5-33Zm-5 79c3 5 5 9 10 13-11-4-19-16-21-25-3-10-2-22-1-32l6-27 2-6 1-4 2-10v3c0 8-2 15-3 23-2 12-5 24-4 36 0 10 2 16 6 25l2 4Zm16 15h1l2-1 2-3 3-2 7-12v-1c5-11 5-22 4-34 2-1 3-4 4-6l1-2c2-6 6-12 10-17 12-13 29-22 46-26-6 5-10 10-12 17-3 7-3 14-4 20s-1 11-3 16c-4 16-14 30-28 39-1 0-27 12-33 12Zm9-19-1 5c10-15 9-36 4-53-4-11-9-22-15-32l-5-6-2-3a31 31 0 0 0 6 17l4 7c6 10 7 22 9 33 2 10 2 21 0 31v1Z" fill="#52525B"/>
  <path d="M412 98c-7 6-8 16-6 25s7 17 12 25c-11-7-23-11-36-11-8 1-17 4-19 12-2 6 2 12 7 16 5 3 11 4 17 4 7 0 14-1 18-6-6 4-9 12-9 20 0 6 2 12 6 16s11 6 17 3c4-2 6-8 8-12 3-10 4-20 4-30-1 10 0 22 8 30 8 7 23 7 28-3 2-6 1-12-2-17s-8-8-13-11l-16-8c11 4 30-3 33-15 4-17-25-21-30-8 6-16-7-50-27-30Z" fill="#F5E38D"/>
  <path fill-rule="evenodd" clip-rule="evenodd" d="m424 145 2-1 8-10c3-4 5-9 5-14 0-8-3-19-9-24-8-7-16 0-21 7-3 5-5 9-4 15 1 9 3 19 10 25h2v-12l1-6v-21l4-1v29l-1 11 3 2Zm-12 12-2-3a22 22 0 0 1-9 8c-4 5-7 12-9 18-3 9-2 23 10 25 12 1 15-20 16-29l-3-16-5 16c-2 7-5 13-10 17-1 1-6 0-4-1 7-5 9-13 11-21l3-9 2-5Zm7 1h1-1Zm1 0h2-2Zm-20-11 8 1 1-1c-3-9-11-13-20-14-6-1-11-2-16 1-5 2-8 8-8 13-1 10 12 16 20 16 5 1 9 0 13-2l8-8 1-3h-8a64 64 0 0 1-13-5l-4-2c-3-1 1-3 2-2 3 0 5 1 8 3l8 3Zm23 16v-1 5l1 6c1 6 2 12 6 17 7 9 26 16 31 2 2-5 3-10 2-15-2-6-8-11-13-14a53 53 0 0 0-18-6l-7-2 1 1v1c1 5 3 8 6 12 6 6 13 15 22 18 2 0-2 2-3 2-8-2-15-10-20-15l-8-11Zm4-14v1c7 4 20 3 28 2 12-2 25-7 21-22-2-7-5-10-14-8-6 1-13 4-17 8l-7 4c-2 4-5 8-9 11l5-1 6-2c7-2 12-4 17-10h4l-11 10-23 7Zm15-21 1-5c2-11-3-30-16-33-13-2-20 8-25 18-3 7-2 17 2 26-7-4-14-5-22-5-10 0-21 7-22 18-1 13 16 19 26 19l9-1c-4 6-8 13-9 20 0 6-1 12 4 17 3 3 8 5 13 5 12 1 16-13 18-23v-2l1 3c3 6 7 12 14 15 9 4 23 6 28-5 3-6 6-14 3-21s-11-11-17-15l-13-4h5c7 1 14 0 20-2 12-4 23-11 18-25-5-16-23-10-38 0Z" fill="#52525B"/>
  <path d="M359 984c-7 6-8 16-6 25s7 17 12 25c-11-7-23-11-36-11-8 1-17 4-19 12-2 6 2 12 7 16 5 3 11 4 17 4 7 0 14-1 18-6-6 4-9 12-9 20 0 6 2 12 6 16s11 6 17 3c4-2 6-8 8-12 3-10 4-20 4-30-1 10 0 22 8 30 8 7 23 7 28-3 2-6 1-12-2-17s-8-8-13-11l-16-8c11 4 30-3 33-15 4-17-25-21-30-8 6-16-7-50-27-30Z" fill="#F5E38D"/>
  <path fill-rule="evenodd" clip-rule="evenodd" d="m371 1031 2-1 8-10c3-4 5-9 5-14 0-8-3-19-9-24-8-7-16 0-21 7-3 5-5 9-4 15 1 9 3 19 10 25h2v-12l1-6v-21l4-1v29l-1 11 3 2Zm-12 12-2-3a22 22 0 0 1-9 8c-4 5-7 12-9 18-3 9-2 23 10 25 12 1 15-20 16-29l-3-16-5 16c-2 7-5 13-10 17-1 1-6 0-4-1 7-5 9-13 11-21a160 160 0 0 1 5-14Zm7 1h1-1Zm1 0h2-2Zm-20-11 8 1 1-1c-3-9-11-13-20-14-6-1-11-2-16 1-5 2-8 8-8 13-1 10 12 16 20 16 5 1 9 0 13-2l8-8 1-3h-8a64 64 0 0 1-13-5l-4-2c-3-1 1-3 2-2 3 0 5 1 8 3l8 3Zm23 16v-1 5l1 6c1 6 2 12 6 17 7 9 26 16 31 2 2-5 3-10 2-15-2-6-8-11-13-14s-11-5-16-6h-2l-7-2 1 1v1c1 5 3 8 6 12 6 6 13 15 22 18 2 0-2 2-3 2-8-2-15-10-20-15l-8-11Zm4-14v1c7 4 20 4 28 2 12-2 25-7 21-22-2-7-5-10-14-8-6 1-13 4-17 8l-7 4c-2 4-5 8-9 11l5-1 6-2c7-2 12-4 17-10h4l-11 10-23 7Zm15-21 1-5c2-11-3-30-16-33-13-2-20 8-25 18-3 7-2 17 2 26-7-4-14-5-22-5-10 0-21 7-22 18-1 13 16 19 26 19l9-1c-4 6-8 13-9 20 0 6-1 12 4 17 3 3 8 5 13 5 12 1 16-13 18-23v-2l1 3c3 6 7 12 14 15 9 4 23 6 28-5 3-6 6-14 3-21s-11-11-17-15l-13-4h5c7 1 14 0 20-2 12-4 23-11 18-25-5-16-23-10-38 0Z" fill="#52525B"/>
  <path d="m63 1390-10-6-7-9c-4-5-7-11-7-17-1-6 4-13 10-13h4l3-3c2-3 5-6 9-8s9-2 12 1c2 2 4 5 7 6s7-2 10-4c6-2 13 4 13 9v4l2 1c5 0 9 0 13 2 3 2 5 6 4 10 0 4-2 7-4 11-6 10-16 18-27 23-13 5-20-2-32-7Z" fill="#DDD5FF"/>
  <path fill-rule="evenodd" clip-rule="evenodd" d="M45 1348h4c5 1 10 5 12 8l4 8c0 2 5 2 5 0l-1-2c-1-5-4-12 0-16 3-4 11-5 13 0-1 3-1 6 2 8h5l-2-8c2-7 10-14 15-9 2 2 3 4 3 7h-1c-1 1 0 2 1 2l-1 11-1 4c0 2 4 1 5 0 3-2 11 0 12 3a12 12 0 0 1 2 6v1c0 4-1 9-4 13-2 4-5 6-8 7v-3l-1-1-5-1h-1c-3-1-6 0-9 2h-1l-2 1v-1l-1-5c-1-2-3-4-6-4h-1l-3 1-2 8c-2-3-5-5-8-6-1 0-4 0-3 2 1 3 3 6 6 8l2 2-9-3h-2a129 129 0 0 1-21-17c-4-5-7-15-4-22 1-3 4-4 6-4Zm17 45h-1c-11-6-22-13-27-26-3-9-1-21 10-22 0-4 5-9 9-11h7l4 2 2 1 1-3 3-4 7-1c6 1 8 4 10 9 3-3 7-5 10-6 8-1 11 4 12 10h8l5 2 2 4 1 2 2 2 3 2 2 5c1 4-1 6-3 8l-2 2c0 7-2 14-6 18-3 5-9 8-15 8a20 20 0 0 1-5 2l-1 1c-4 2-9 5-12 4h-6a49 49 0 0 0-6-1l-11-2c-3-2-4-4-3-6Zm23-6v-2a67 67 0 0 0 0 2Zm1 6Zm23-36v-12l4-1c5 0 5 2 6 5v1l3 3 1 1c2 1 3 1 3 3l1 6-1 1-3-4c-4-6-9-5-14-3Zm-60-12c6 1 10 4 14 7 0-5 1-10 5-12h-2l-4-2-3-2c-4-1-10 5-10 9Zm19-5a14 14 0 0 1 14 0v-1c0-3-1-6-4-7-5-1-6 1-6 3l-1 2-3 3Z" fill="#52525B"/>
  <path d="m400 346-10-6-7-9c-4-5-7-11-7-17-1-6 4-13 10-13h4l3-3c2-3 5-6 9-8s9-2 12 1c2 2 4 5 7 6s7-2 10-4c6-2 13 4 13 9v4l2 1c5 0 9 0 13 2 3 2 5 6 4 10 0 4-2 7-4 11-6 10-16 18-27 23-13 5-20-2-32-7Z" fill="#DDD5FF"/>
  <path fill-rule="evenodd" clip-rule="evenodd" d="M382 304h4c5 1 10 5 12 8l4 8c0 2 5 2 5 0l-1-2c-1-5-4-12 0-16 3-4 11-5 13 0-1 3-1 6 2 8h5l-2-8c2-7 10-14 15-9 2 2 3 4 3 7h-1c-1 1 0 2 1 2l-1 11-1 4c0 2 4 1 5 0 3-2 11 0 12 3a12 12 0 0 1 2 6v1c0 4-1 9-4 13-2 4-5 6-8 7v-3l-1-1-5-1h-1c-3-1-6 0-9 2a102 102 0 0 1-3 1v-1l-1-5c-1-2-3-4-6-4h-1l-3 1-2 8c-2-3-5-5-8-6-1 0-4 0-3 2 1 3 3 6 6 8l2 2-9-3h-2l-2-1-2-1c-6-4-13-9-17-15-4-5-7-15-4-22 1-3 4-4 6-4Zm17 45h-1c-11-6-22-13-27-26-3-9-1-21 10-22 0-4 5-9 9-11h7l4 2 2 1 1-3 3-4 7-1c6 1 8 4 10 9 3-3 7-5 10-6 8-1 11 4 12 10h8l5 2 2 4 1 2 2 2 3 2 2 5c1 4-1 6-3 8l-2 2c0 7-2 14-6 18-3 5-9 8-15 8a20 20 0 0 1-5 2l-1 1c-4 2-9 5-12 4h-8l-4-1-11-2c-3-2-4-4-3-6Zm23-6a39 39 0 0 0 0-2 64 64 0 0 0 0 2Zm1 6Zm23-36v-12l4-1c5 0 5 2 6 4v2l3 3 1 1c2 1 3 1 3 3l1 6-1 1-3-4c-4-6-9-5-14-3Zm-60-12c6 1 10 4 14 7 0-5 1-10 5-12h-2l-4-2-3-2c-4-1-10 5-10 9Zm19-5a14 14 0 0 1 14 0v-1c0-3-1-6-4-7-5-1-6 1-6 3l-1 2-3 3Z" fill="#52525B"/>
  <path d="M456 931c7 5-1 16-8 10-7-5 2-16 8-10Zm27-28c7 5-2 16-8 10-7-5 1-16 8-10ZM356 777c7 5-1 15-8 10s1-16 8-10Zm-50 13c6 5-2 15-9 10-6-5 2-16 9-10Zm21-35c7 6-1 16-8 11-7-6 2-16 8-11Z" fill="#F5E38D"/>
  <path fill-rule="evenodd" clip-rule="evenodd" d="M460 875c1-4 0-7-3-9h-2l-4 1-2 4v3a107 107 0 0 1-46 18 56 56 0 0 0-6-1l1-1c11-4 21-11 30-20 2 0 4-1 5-3 2-3 1-6-1-8h-2l-2-1c-2 0-3 2-4 3-1 2-2 3-1 5l2 2a80 80 0 0 1-37 22l12-9 16-18 11-16c1-1-1-4-2-3l-13 7-7 3-16 11-13 14-5 8a212 212 0 0 1-4 7h-2c-21 6-42 12-62 21 11-10 22-22 28-36 7 2 16-6 21-11l1-1 13-17 5-7-2-2c-4 4-9 7-15 9a60 60 0 0 0-11 7l5-8c6-9 12-17 20-25l3 3 5-2c1-1 3-2 3-4l-2-5c-2-3-6-3-9 0-1 2-3 4-2 5-7 7-13 14-18 22a141 141 0 0 0-11 16l3-11h1c2-8 4-16 9-23h1v-1c2 0 4 0 6-3 1-2 0-6-3-8-2-1-6 1-8 4-1 2 0 4 1 6a1282 1282 0 0 1-10 25l-1-11c-2-7-4-14-2-21 0-1-1-3-2-2l-4 7-2 5-4 12c-3 7-3 14-2 22 0 4 2 9 5 13v1l2 2-1 1 1 2c-8 16-21 31-35 41v1c-9 5-18 10-26 17s-16 15-23 25l1-6c2-7 2-14 1-22 0-8 0-15 2-23l3-12 3-9-2-3c-9 11-19 23-20 38 0 14 2 29 8 41l-1 2-1 2-1 3a155 155 0 0 0-11 24 444 444 0 0 0-11 34l2 2 4-11 7-23a5 5 0 0 0 1-1h2v-1l6-2 11-3 21-6c7-3 14-6 20-12l8-8 7-8h1c1-1-1-4-2-3l-1 1c-4 3-11 4-18 4l-6 1c-8 1-15 5-21 8a105 105 0 0 0-23 16 130 130 0 0 1 5-9c8-14 18-26 31-37a252 252 0 0 1 100-43l1 1 6 4c7 3 14 7 21 8 8 1 16 0 24-2l6-2 11-3h3c2 0 0-3-1-3h-3l-12-2-6-2-9-2 4-1c13-3 26-8 37-15l2 1 4 1c2-1 3-3 3-5Zm-220 90a121 121 0 0 1-6-39c1-11 7-21 14-29l-1 2a79 79 0 0 0-4 34 108 108 0 0 1-3 32Zm1 19-10 10 2-1 12-3c8-2 15-3 23-7a65 65 0 0 0 26-19l2-1-8 1h-2c-9 1-17 3-25 7l-20 13Zm107-164 1-2 2-1c1-1 3-2 4-1s-1 4-2 4c-1 1-3 2-4 0h-1Zm21 2h-1l1-1 2-3c1-1 4-2 5 0s-2 4-3 5l-3 1-1-2Zm-37 46 3-11a54 54 0 0 0-2-23l-2-12-2 5-2 5-5 18c-1 5-1 11 2 17l3 7 2-2 3-4Zm31-18h-2l1 1 1-1Zm89 24 1 2c1 2 3 0 4-1l1-4v-2h-1l-4 1-1 4Zm-26-7h2l2-2 1-2-1-1-2-1-2 3v1l-1 1 1 1Zm-29 33h1-1Zm17 6h2-2Zm-33-4-4-2 4 2Zm34-4a106 106 0 0 1-1 0h1Zm-12 5h-1l1 1h1l-1-1Zm18-4a101 101 0 0 1 0 1v-1Zm4 1Zm4 2-1-1 2 1h-1Zm-58-8 2-4 6-9 13-14c5-5 11-8 17-11l5-2 7-3-9 11v1l-14 15c-8 7-17 14-27 16Z" fill="#52525B"/>
  <path d="M258 665c-3 5-2 12 1 16 2 5 7 9 12 12 5 2 10 4 14 1 24-12-8-66-27-29Zm144-65c-7 1-13 6-14 12v9c2 6 5 12 10 15 7 3 14 3 21 0 4-1 8-4 9-8l-2-6c-4-13-8-22-24-22Zm-19 77c-2 5 0 12 4 16 3 6 9 10 16 10 12-1 16-20 10-30s-25-6-30 4Z" fill="#F5E38D"/>
  <path fill-rule="evenodd" clip-rule="evenodd" d="M405 630h-1c-2 3-2 7-2 10 1 5 9 6 12 3 2-2 7-7 1-9-2-1-3-3-1-3l2 1c4 1 9 2 13-2 6-6-2-12-8-8-1 1-4-1-3-2 3-3 5-5 5-8 1-5-1-6-5-7-4-2-5-2-7 2l-1 1-1 3c-1 1-4-1-4-2-1-6-12-8-12-1l2 5 5 2v2c-2 1-3 0-5-1-6 1-9 20 3 14a245 245 0 0 1 4-4l2 1h1v3Zm-52 37-2 1c-2-6 0-16 1-20 3-7 7-12 12-16a42 42 0 0 1-1 6v3l-2 13c-2 4-4 8-8 12v1Zm-5-18c-1 6-2 17 2 22v1a259 259 0 0 0-43 60l-12 23-4 8v1a48 48 0 0 1-12-20v-1c6-2 11-10 14-14 6-9 8-19 7-29 0-1-3-3-4-2l-9 11c-5 6-11 12-13 20a470 470 0 0 1-4-27v-6c1 2 3 3 6 4 5 2 10-4 10-8 4 0 9-2 10-6s-3-10-8-12c6-5 13-14 4-19-3-2-7-2-10 0l-3 3c-2-3-6-6-10-5s-7 5-6 9l2 5c-5 0-11 5-11 11 0 4 2 7 6 9h8l-2 12v2c0 7 2 13 3 20a264 264 0 0 1 5 19 31 31 0 0 0-36-1c-2 1-7 3-6 6l3 2 18 5c4 1 8 0 13-1l10-5 1 3c3 7 7 12 13 17l-11 21-1 2-7 13-1 2c-2 3-4 5-4 8 0 2 3 3 3 2h1v-2l4-8 3-4 4-8 2-3v-1a2607 2607 0 0 0 15-31l12-23 33-9c5 7 11 13 20 15 5 1 8 0 13-2h2c5-2 10-3 12-6 1-1-1-2-2-2l-10-5-17-5-7-1 7-3 16-10 13-11c-1 7 3 15 11 14 4-1 10-4 10-9l6-2c3-3 2-8-1-12 4-1 6-4 7-9 0-5-2-9-6-10-4-2-7-1-10 0 0-3-2-6-7-7-6-1-11 4-10 10-6-2-12 2-13 9 0 4 1 7 4 9a13 13 0 0 0 8 2 169 169 0 0 1-77 41 248 248 0 0 1 23-35c4 3 8 5 14 5 7 0 14-5 20-10l2-1c1-1 0-2-1-2-5-3-13-3-19-2l-9 1a355 355 0 0 1 56-53c0 7 4 13 12 14 5 0 11-4 11-9 1-1 0-3-1-4h8c4-2 8-6 7-10s-6-7-10-7c2-3 2-5 2-9l-5-8c-3-1-6-2-9-1s-4 3-6 5l-6-5c-3-1-8-1-10 2-3 4-2 8 1 11l-1 1c-4 2-6 9-5 12 1 4 5 6 8 6l-32 28 4-10 1-11a348 348 0 0 1 0-10c-1-1-3-2-4-1-7 5-13 12-15 21Zm-74 94-7 4c-3 2-7 3-11 3s-9-1-13-3l-3-1-4-1c1-3 12-7 14-8 9-2 18 0 24 6Zm76-14-4-4c6-5 16-3 23-1l10 4 6 3-7 4h-2c-4 2-9 3-13 2-4 0-8-2-11-5l-2-3Zm-14-35c1 0 2 0 1-1s14-5 15-5a58 58 0 0 1 10 0l4 1-13 8c-4 2-7 2-11 1l-6-4Zm-59 46c6-2 11-11 14-16 4-6 5-13 5-20l-5 7c-7 7-14 15-14 26l-1 1 1 2Zm-2-59v2a25 25 0 0 1-1 0l-3 6v1c1 7 8 9 10 4l2-4-3-3 2-1 4 4c2 0 6-4 6-6 0-1-2-9-6-8-1 0-4-1-3-2l1-1 8-10c2-4 0-6-6-6a2940 2940 0 0 0-5 5v5c0 2-3-1-3-1l-1-5-1-2c-1-3-2-3-5-2-2 0-3 0-4 2-2 3 0 6 2 9l4 3c1 2-2 1-3 1l-3-3c-4 0-9 6-9 9v5h2l5 2 4-2c1-3 2-5 5-5 1 1 3 3 1 3Zm123 8c-3 2-3 5-4 8v6c3 3 7 4 10 1l3-4-1-1-2-2c-2-1-3-4 0-4l5 3 2 1 4-4c0-3 0-5-2-6-3 0-7 0-7-4 2-2 5-1 7 1l6-6c1-4 1-9-5-10-3 0-5 3-7 5-1 1-4 0-4-2 1-4 0-10-5-8s-5 6-3 9c1 2-2 2-3 1-5-4-12 4-11 9 0 7 4 6 8 6l3-1 1-1 2 1h2c2 1 1 2 1 2Z" fill="#52525B"/>
  <path d="M80 1042c-3 0-7-1-8-3l-1-6c2-7 5-13 10-18l3-5-1-6c-2-5-2-12 3-14s10 2 14-1c6-2 5-11 11-13 4-1 8 3 12 1 3-2 4-5 7-6 4-2 7 3 9 7 4 15 0 39-10 51s-35 14-49 13Z" fill="#DDD5FF"/>
  <path fill-rule="evenodd" clip-rule="evenodd" d="M81 1025c-2 0-14 1-13 5 0 3 8 3 11 4h2v3l-2 1-2 1c-2 3 2 5 4 5 5 1 13 0 17-3v-1c-5-2-10-5-8-10l1-2-3-1a212 212 0 0 0-3-1l-3-1h-1Zm-3 23c7 2 18-1 23-7h3l4 1 3 2 3 1c3 1 7 1 10-1 4-2 7-5 9-9 7 5 13 10 18 16 6 6 10 14 14 21l3 7c1 1 4-2 3-4l-3-6c-4-7-7-14-12-20-7-7-13-13-21-18l1-2 1-3 2-3 4-8c1-4 1-9-4-9l2-4c1-2 3-5 2-8v-1c7-6 6-15 0-22-4-5-8-2-11 3-2-3-7-5-9-5-4 0-6 2-7 5l-11-6c-4 0-6 3-8 6-1 4 0 7 2 10-2-1-4-1-6 1-2 1-3 4-3 6h-2c-5 0-9 2-11 6-3 6-1 11 3 14-4 1-7 4-6 8l2 3c-4 1-10 3-11 7-3 6 5 8 11 8-2 1-4 3-4 5 0 3 3 5 6 6Zm53-20c0-2 1-3 2-3h1c0-5-3-13-3-14l-6-9a133 133 0 0 1-3-3c-1-1-2-3-4-3-3-2-6 2-5 5 0 3 3 6 5 9l1 1c0 1-2 4-3 3l-5-1h-2l-3-2c-3-1-11-4-8 3 0 2 3 4 5 4v1l15 6 1 1 9 2 2-1 1 1Zm-2 4-8-1-2-1-15-5-1 1h-2l-1 1c-2 1-5 2-7 1v3c0 2 4 4 6 4l3 2v-1 1h3l2 1h4l1 1 2 1c3 2 8 3 11 0 2-1 5-4 6-7-1 1-2 1-2-1Zm-30-32-3-3 1-3-2-2 2-4 3 1 2 1c2 0 3-3 3-4l-2-3c-2-2-3-5-3-7 1-6 7-2 10 0h1a53 53 0 0 1 5 4h1c4 4 8 8 6 12l1 2v1l-1-1c-5-5-10-5-13 2-2 4-1 9 1 12l-3-1-9-7Zm20-24c4 4 8 9 7 14 3-2 6-4 10-3 2 1 5 2 6 4 4-4 3-10 1-14h-1c0-2-1-3-3-4-3-1-5 2-5 5 0 1-3 4-3 2 0-3-11-11-12-4Zm-41 39c2-2 6-2 8-1h1c1 0 4-3 2-4h-1c-3-1-8-4-9-7-2-6 6-10 12-8 1 4 4 8 8 11l-2 1c-3 2-4 7-2 11l5 5-6 1-9-2-1-1c-2-1-8-3-6-6Zm49-18v1a43 43 0 0 1 10 24l1-2c2-3 5-11-2-10v-2l2-4 2-6c1-3-1-5-4-6-2-2-11-2-9 5Z" fill="#52525B"/>
  <path d="M399 1517c-1-4-1-7 2-9l5-2c7 1 14 2 20 6l5 2 6-2c5-2 12-4 15 1 2 4 0 10 3 14s12 2 15 7c2 4-1 9 2 12 1 3 5 3 7 6s-2 8-6 10c-14 7-38 8-52 0s-20-31-22-45Z" fill="#DDD5FF"/>
  <path fill-rule="evenodd" clip-rule="evenodd" d="M416 1515c-1-2-4-14-8-13-2 1-1 9-1 12l1 2h-3l-2-1-2-2c-3-1-4 3-4 5 0 5 3 13 7 16h1c1-5 3-11 8-10h2l1-2a187 187 0 0 0 0-3v-4Zm-23 1c0 7 4 17 12 21v7l-1 3-1 3c-1 4 1 8 3 10 2 3 6 6 11 7-4 8-8 15-13 21-5 7-11 12-18 18l-6 4c-1 1 3 3 4 2l6-4 17-16c5-7 10-15 14-24l2 1h2l4 2 9 2c4 0 9-1 8-5l4 1c3 1 6 2 9 0 7 5 17 3 22-4 4-5 0-9-5-10 2-3 3-8 3-10 0-4-3-6-6-6 2-4 4-9 3-12 0-4-3-6-7-6-3-1-6 1-9 3 0-2 0-4-2-6-2-1-4-2-7-1v-3c-1-4-4-8-9-9-5-2-10 1-12 6-2-4-6-7-10-4l-2 2c-2-4-5-9-9-10-7-2-6 7-6 13-1-2-3-3-5-3-4 0-4 4-5 7Zm30 48 3 1a29 29 0 0 0 0 2c5-1 13-6 14-7l7-7 1-2 1-1c1-2 3-3 3-5 1-4-3-6-7-4-3 1-5 4-7 6l-1 1c-1 1-4 0-4-1l1-6-1-1v-1l1-3h1c0-3 2-11-5-7-2 1-3 3-3 5l-1 1a84 84 0 0 0-3 17l-1 9c1 0 2 1 1 2v1Zm-4-2-1-8v-1l2-16-1-1v-2l-2-1-2-6h-2c-2 1-3 5-4 7v12l-1 2v1c-2 4-1 9 1 11l9 5c-2-1-1-2 1-2v-1Zm25-35 3-4 3 1 1-3 5 2-1 3v2c0 2 3 3 4 2l2-2 7-4c6-1 3 6 2 10a52 52 0 0 1-3 6v1c-3 4-7 9-10 8l-2 1h-1l1-1c4-6 2-10-5-12-5-1-8 1-12 4l1-4 5-10Zm28 15c-4 5-8 9-13 10 3 2 5 5 5 8s-1 6-3 8c5 3 10 1 14-2v-1l3-3c1-4-3-5-5-5h-1c-1 0-4-2-2-3 3 0 8-13 2-12Zm-46-32c2 1 2 5 2 7v1c0 1 4 3 4 1 0-4 2-10 6-11 5-3 10 4 10 10-4 2-7 6-10 10l-1-1c-3-3-8-3-11 0-2 1-3 3-4 6l-3-6 1-10v-1c1-2 2-8 6-6Zm27 44h-2a43 43 0 0 1-21 15l2 1c4 1 12 2 10-4l1-1 5 1 6 1c3 0 5-2 6-5 0-3-1-12-7-8Z" fill="#52525B"/>
  <path d="m226 1726-4 3-2 1-2-1c-2-2-3-5-1-6 1-2 4-3 6-1l2-1 1 1v4Zm45 8-4-3c-3-3-1-7-2-11-2-5-10-4-15-1s-11 7-16 5c10-2 20-11 21-22 1-10-8-21-18-21-5 0-8 2-12 3-6 3-13 7-12 15 0 4 8 12 1 14-4 2-13-5-16-6-9-3-18-4-27-1-2 1-5 2-6 5-1 6 9 7 11 13 2 4-1 11 3 14h7l14-4c-9 4-17 10-25 18-3 2-6 8-2 10l7 1 2 4c3 5 10 6 14 3 5-2 8-7 10-11l10-16-2 24c-1 4-1 9 1 13 3 4 9 6 12 2l3-6c3-3 8-2 12-3 6-2 8-9 7-15-2-6-6-10-11-14s-10-7-13-12c9 11 25 17 39 13 5-1 10-7 7-11Z" fill="#DDD5FF"/>
  <path fill-rule="evenodd" clip-rule="evenodd" d="m213 1707 3 8v1-7c0-3 0-8 2-9h1l-1 1v10l1 7 2 3v1l1-1c0-5 1-10 3-14v-1c1-3 3-7 6-8h2l-2 1-5 11-2 11h5l2-1 6-9 2-5 1-2 2-3c1 0 2 0 1 1l-2 4-1 2-4 7-4 5-2 2-2 1 1 2v1l1-1h1l4-2h1l4-3 1-1c3-3 7-7 9-12 2-4 4-10 0-14l-8-9c-3-3-8-3-12-1l-1 1-1 1-2 1h-1c-4 1-8 2-10 6-2 5-3 10-2 15Zm9 16h3v1c2 0 2 2 1 3a243 243 0 0 1-1 4c-1-1-3 0-2 1l1 1h-4c-2-2-2-4-1-6v-2l2-2h1Zm-12-17 1 5-3-2c-5-4-10-5-16-5l-5 1-2 1h-11c-6 0-9 3-9 9 0 3 0 6 2 8l4 2 2 2c2 1 3 2 3 4 2 2 3 4 7 5h7l-10 6c-4 3-9 9-10 14l2 6 4 2h3l2 3 4 3 7 1c5-1 11-4 15-7 3-2 5-5 6-8v13c0 5 1 10 6 11 4 1 7-1 10-3 2-2 5-1 7-1h4l6-2c4-3 6-7 6-12 0-6-4-11-8-15h1l5 1 6 2c4 1 9-1 13-4l4-4 2-2 3-4c1-3-1-5-3-7l-1-1c-3-2-5-4-5-8 0-5-2-9-8-9-5-1-9 1-13 4l-4 3c4-3 7-8 9-13 2-2 2-5 2-8s-1-4-4-6l-3-4c-3-3-5-6-9-7l-6 1-4 2-1 1-5 1h-3l-5 4c-4 4-5 11-5 17Zm8 30-3 3-1 6v3l-5 11c-3 5-9 8-14 10-4 1-9 0-11-3l-1-1-2-2-2-1-3-1c-3-1-4-4-3-7 2-5 6-10 11-13a127 127 0 0 1 22-9 343 343 0 0 1 5-2l3-1 1-1-13 10-4 3-10 5v1c4-1 8-3 11-6l2-2a227 227 0 0 1 14-9l-7 15-5 5-5 7h1l6-7 5-7 6-11 1 2h1v2Zm10-5h1l1 2 2 1 8 2c5 2 13 2 18 0h1c-5 3-11 3-17 2l-8-2-4-2-2-2-1 1h1l1 2a980 980 0 0 0 16 10l6 1 3 1 2 1h2c3 1 9-2 12-4l4-6c3-4 1-6-2-9l-2-1c-1-1-3-2-3-4l-1-3v-2c0-5-4-7-8-7s-6 2-8 4l-2 2-9 5a127 127 0 0 0-10 4l-1 3 13-2 14-5h1c-4 2-8 5-13 6l-15 2Zm-1 1Zm-5 3h-1l-1 1-1 3v2l-1 2-2 6v15c-1 5-2 9 2 13 3 2 7 2 9 0l4-3 4-1c5 1 10 1 13-4s1-11-2-16l-6-6-3-3-1-1a36 36 0 0 1-10-8l-1-1h-1c0 5 1 9 3 13l1 2 4 8 3 3-1 1c-4-1-6-7-8-11v-1c-1-3-3-6-3-10-2 11-2 22 3 32l-2 1c-6-12-5-25-2-37Zm-4-12-1-1 1 1Zm-5-7 4 6-1-1a11 11 0 0 1-2-1l-6-4-1-1c-6-2-10-4-16-3l-1 1a33 33 0 0 1 27 11h-3l-3-1-10-2-1-1h-3l-16-2-1 1h2l17 2 3 1h1l7 2-10 1-6 1-11 2-1 1h1l9-2 4-1 17-1 1 1h1l-2 1-2 1-2 1h-1l-9 3-3 2-10 1-7-4-1-2-1-3-4-3-5-4c-1-3-1-8 1-10 2-3 5-2 8-2l3 1 6-1 5-1c7-1 12 1 17 5l3 3 2 2Zm3 9 1-1v1h-1Z" fill="#52525B"/>
  <path d="M166 1460c-3-2-5-5-5-8s2-5 4-7l8-1c6 0 11 1 16 4l-1-11c1-4 4-7 7-8 4-1 8 0 10 3l6 9c4-5 9-12 16-13 2-1 4-1 6 1l2 4c2 14-11 33-25 39-13 5-34-4-44-12Zm41-116c-8 0-8 13 0 13 9 0 9-13 0-13Zm27 12c-9 0-9 13 0 13 8 0 8-13 0-13Zm96-32c-8 0-8 13 0 13 9 0 9-13 0-13Zm98 17c-8 0-8 13 0 13 9 0 9-13 0-13Zm40-8-5-2h-1l-5 2-2 5 2 4c1 2 3 2 5 2h1c2 0 4 0 5-2l2-4-2-5Zm-41 95a7 7 0 0 0-9 0l-2 5v1l2 5 5 2 4-2c2-1 2-3 2-5v-1c0-2 0-4-2-5Z" fill="#F5E38D"/>
  <path fill-rule="evenodd" clip-rule="evenodd" d="m356 1365-3-1c-2-1-1-5 0-7 2-2 6-2 9-1 2 2 1 7-1 9l3 15 1 4c2 7 4 15 9 22-1-5 1-11 2-15l1-3 6-23-1-6c1-2 4-3 6-2l3 1c2 1 1 4 1 6-1 2-3 2-5 3a180 180 0 0 0-6 21l-3 16 3 1c5-3 9-10 13-14l1-2 6-10 1-6 1-1c-1-1-2-1-2-3l1-4 1-2 2-1h4c2 0 3 2 3 4l-1 3c-1 2-3 3-5 3v2l-3 9a81 81 0 0 1-17 22c6-1 12-4 16-6h1c7-4 12-9 17-14l1-1v-2c0-3 1-4 3-5l5 2 2 3c0 2-1 4-3 4h-5c-7 8-14 14-24 18l-16 3-3 1-2 1c-11 26-25 50-40 73l8-6 11-6 8-5 17-7h7v1c-4 12-15 22-26 26-8 3-21 8-29 4-29 41-64 78-105 109-1 0-4 0-3-1a446 446 0 0 0 42-38c4-9 7-21 9-31l2-10a1279 1279 0 0 0 11-53 78 78 0 0 1-32-30l-1-1c-2-4-4-8-3-11h3c4 0 7 3 10 5l2 2 13 10c5 4 8 9 10 15 3-18 4-37 1-54-7 3-12 2-19-1-8-3-15-7-20-13h-5l-1-3h-1l1-4c1-2 2-3 4-3l3 1 1 2-1 3c7 10 25 22 36 16v-1c-11-2-19-16-23-27h-2l-2-2c-2-2-2-4-1-6 2-3 5-3 8-2 2 2 2 4 2 7l-1 2c3 9 9 22 18 25-5-8-4-19-1-27l-1-2-1-5c1-5 8-4 10-1a5 5 0 0 1 1 5l-1 1-2 2-2 1c-3 9-4 21 2 28l4-2 3-4 1-1 4-6c2-4 4-8 4-13l-1-1c-2-1-2-4-1-6s4-2 6-1c2 0 3 1 3 2v4l-2 2h-1c0 8-4 15-9 21l-8 7c6 2 12 2 17-1l6-5v-2l-1-2c0-2 2-3 4-3s4 1 5 3v2l-1 2-1 1-4 1c-3 3-7 6-12 7-4 1-10 0-14-1a174 174 0 0 1-2 64v1a601 601 0 0 1-4 19l-8 36-2 9-7 26c13-14 26-28 37-43h-4v-9l-1-5 1-11 1-2c1-9 3-19 8-26h4c5 7 4 18 2 26l-6 21c23-30 42-62 57-97-8-1-14-3-20-9-5-6-10-13-12-21-2 1-4 0-4-1v-4c1-3 4-4 6-2h1c2 1 2 4 1 6 1 6 5 13 9 18l7 7 11 4c-6-6-9-14-11-21l-2-10v-2l-1-4-1-5-1-1Zm-66 97c-1-8-5-15-11-21l-10-8-3-2-8-6c0 4 3 9 5 12v1a56 56 0 0 0 9 11c6 6 11 10 18 13Zm28 23c-1 8-3 16-7 24a70 70 0 0 0 0-8v-13c1-7 3-17 7-24 3 7 2 15 0 21Zm19 3c3 1 14-2 15-2l14-5a40 40 0 0 0 14-14c2-2 5-6 5-8l-6 3a87 87 0 0 0-19 9c-8 5-16 10-23 17Zm-44-128a4 4 0 0 0-1 1h1v-1Zm114 4Zm0 2-1-2v1l1 1Zm19 15v1-1Z" fill="#52525B"/>
  <path fill-rule="evenodd" clip-rule="evenodd" d="M212 1403c2 0 3 1 4 3l2 3c0 3-2 5-5 6v2a136 136 0 0 0-1 16l1 12 2-8c3-5 10-14 16-12 9 2 3 17 0 22l-1 2c-2 5-4 10-7 13l-6 9-4 6 11 27 8 26 4 15c0 2-3 3-4 1l-4-15-7-26a439 439 0 0 0-11-27l-1-1-1-5c-3 2-5 2-9 2-6 0-13-2-18-5-6-4-20-16-16-24 4-7 14-6 20-3l-1-4-1-1-2-7c-4 0-9-2-9-6s2-6 5-7c2-1 4-1 6 1l2 3c2 3 2 6-1 8l2 5 1 2 1 4c-1-6 1-12 6-14 8-3 12 6 14 11l1 2a61 61 0 0 0 0-5v-19l-3-1-1-4c0-2 0-4 2-5l3-1 2-1Zm-6 66 1 2c-9 3-20-1-27-7-5-3-14-12-12-19l5-2 4-1 5 1 5 4c3 1 5 3 6 5l8 10 5 7Zm3-3-1-1-1-1-4-5-1-1-4-5c-3-5-12-22-2-24 4 0 4 1 6 3v1l2 5 3 7 1 4 2 13v6l-1-2Zm-33-42c0 2 2 3 4 3v1l-3-2-2-5 1 3Zm38 45v-7l2-17c1-5 3-10 7-14l4-3c3-2 4 1 5 4 1 6-3 14-7 21l-2 4-5 7a117 117 0 0 0-4 5Z" fill="#52525B"/>
  <path d="M55 1181h-7c-2-1-4-3-4-6l2-3c4-4 8-6 13-9 4-2 8-6 9-11 0-5-2-10-3-14-1-5-1-11 3-13l8-1c4 0 8-1 11-3 11-5 16-19 28-23 3-1 8 0 9 3l1 3c4 18 3 47-11 61-14 13-42 15-59 16Zm102-19-3-6c-1-3 1-8 4-9 4-2 8-2 12-1 2 1 5 2 7 0l1-2c0-5 2-9 4-14l1-1h2l15 3 7 4c5 5 0 14 3 21 4-5 9-9 15-13 3-3 8-6 12-4s6 7 5 11-4 8-8 11c-9 9-26 22-40 23-14 0-30-13-37-23Z" fill="#F5E38D"/>
  <path fill-rule="evenodd" clip-rule="evenodd" d="m111 1156 1 4h-3l-9-11-2-2c-3-4-6-9-7-13 0-2-4-2-3 0 0 5 3 9 6 13l2 3 10 12-3 1a64 64 0 0 1-28-18l-1-1c-2-2-6-7-6-9 1-4 5-3 8-2h6l2-1-1-5-1-2c3 1 5 3 6-2v-4c0-3 0-2 1-2l1 2h1l3-1 1-3c0-1 0-2 2-1 2 2 4 8 5 13l1 3 2 10c2 5 3 11 6 16Zm-18 9-6-2-10-4-6-2-7-3c-2 0-1 0 0 0l3 2c1 1 0 2-1 3l-2 1-3 1h1v3l-3 2v1c0 3-2 4-4 5l-4 4c-2 7 9 5 15 4h2a81 81 0 0 0 26-7l6-3v-3h-1l-13 2h-1l-10-1h-2l-1-1c-2-2 0-4 2-3 4 3 11 2 16 1h3Zm12-39-1-3c-2-6-4-14-10-14l-2 1v3l-1 1h-2l-3-1-2 4v4h-2l-1-1-2 1 1 5v4l-6-1h-6c-5 0-4 3-3 7a51 51 0 0 0 21 23l-11-4-3-1c-4-3-11-6-14-3v2c0 2 2 3 4 4-2 1-4 1-5 4-1 1 0 1 1 2l-1 1-3 2 1 2-9 8-2 5c1 4 6 4 9 4h1c8-1 17-1 25-3l12-5 12-4h12l3-2 5 10 2 4a404 404 0 0 0 61 94l26 29c-9-7-23-11-34-12l-6-1-19-2h-1c-3 0-9 0-9 4-1 3 3 5 5 6l1 1c9 5 17 10 26 13 8 2 16 2 24 1h2c5-1 10-1 14-4 1 1 3 1 3-1a309 309 0 0 0 27 22c2 2 4-1 2-2l-7-5c3-3 5-9 6-12 2-8 3-16 2-24a86 86 0 0 0-5-31c-2-3-3-8-6-9-1-1-3 0-3 1l-1 11-4 29c0 10 1 19 3 28a322 322 0 0 1-43-44l2-7v-2l3-22v-2l5-51c4-1 8-2 10-7h1c6-3 11-6 15-11l6-8c5-6 10-12 13-18l1-1c2-3 5-8 1-10-2-1-5 0-7 1-4 2-7 3-10 0h-3l-1-3-3-1-5 9-2 5-10 14a130 130 0 0 1 3-11l3-20c-1-3-2-4-6-4l-3 2-3 1-3-1-1-1-3-1v1l-1 1-1 2-2-5c-1-2-1-3-4-4l-1 1-2 3-1 3c-2 3-3 2-5 0l-1-1c-1-1-3 0-3 2l4 18c-4-3-10-7-14-6l-2 2 1 3-3 2 1 3-2-1h-6l-2 2c3 8 10 14 16 19a681 681 0 0 0 23 16l5 3 3 1a861 861 0 0 1-9 82 491 491 0 0 1-56-87l-2-4c-3-5-6-11-7-16v-1l6-9-1-4c1 1 2 0 2-1 3-8 4-17 5-26v-6c1-5 2-21-5-22-2 0-2 1-3 2l-1 1-1 2h-1l-1-1-1-1-1-1c-4-2-4 3-4 6v1l-4-4-5-5c-2 0-3 0-3 2l1 8 1 17Zm9 29 1 2 2 1 1-2c1-11 1-22-3-31-1-2 2-4 3-2 3 10 4 20 4 30h3v-1l4-20v-6l1-3v-15l-3-4-1 1v1l-1 1c-1 1-2 2-4 1l-3-3v-1 7l-2 1c-2 0-4-3-6-5l-3-4v5l2 21 3 14 2 12Zm7 6Zm2-4-1 3 1-3Zm114 168 5-7 2-9 1-20a79 79 0 0 0-5-25l-3-7-1 7-3 27c-1 11 1 22 3 33l1 1Zm-53-25c9 3 21 6 28 12-4 2-10 3-15 3h-1c-7 1-15 0-22-2a93 93 0 0 1-20-10l-5-3c-1-2-1-2 1-3h1c4-2 9-1 14 0l3 1 6 1 10 1Zm-3-140c2 6 4 12 8 18l2 2a688 688 0 0 1-3-29c0-2 3-3 3-1l2 12 1 14 3 3v1l1-1c0-2 2-2 3-1v1c0-8 1-16 3-23l3-17v-2c0-2 1-3-2-4h-3l-1 1-1 1-2 1c-3 1-4-1-4-3l-1-1v1c-1 2-2 3-4 3l-2-3-1-1c-1-2-2-2-3 1v2l-1 1-1 1-6-2a141 141 0 0 0 6 25Zm-3 1 4 10-9-9c-1-2-4 0-2 2a152 152 0 0 0 16 17l-2-1-3-2-2 2v1l-10-7c-6-5-14-12-18-19h4l6 1 1-2 1-2-1-2c0-3 0-4 4-2l6 4 3 1a401 401 0 0 0 2 8Zm27 9-1 10v-1h2c4-3 7-8 9-11 3-4 7-10 8-15 0-2 3-2 3 0a56 56 0 0 1-15 26l-2 1 1 2c6-3 11-7 15-13l7-8 8-10 1-2 3-6v-2h-1l-1 1-4 1-4 1c-3 1-4 0-6-2l-1 1-1 1c-1 2-4 0-3-2v-2l-4 7-3 6-3 4-8 13Zm0 14v-1h1v1h-1Zm-5 0h-1 1Zm-14 0h-1v-1l1 1Z" fill="#52525B"/>
  <path d="M94 739c-1-3-2-6-5-8-5-4-13 2-15 8-3 6-3 13-7 18-4-1-7-5-11-6-4-2-9 0-9 4l1 3c18 28 39 53 64 74-23-10-49-15-74-15-4 0-8 2-8 5 7 5 14 8 21 11l-18 20c-2 2-3 3-3 5-1 4 3 8 7 8s8-2 11-3l52-27c-20 20-31 47-32 75 10-1 19-10 21-21 3 7 6 14 11 18 6 4 15 5 19-1 2-3 3-6 3-10 3-20 5-41-4-59 2 25 11 48 26 68 2 3 4 6 8 6 5 0 7-7 7-12-1-5-4-9-4-14 6 4 15 9 20 3 4-5 1-12-3-17-14-19-34-33-56-40 18-2 36 1 54-1s36-12 41-29c-7-2-14-3-21-2 11-3 20-11 24-21-34-3-67 17-92 41 22-20 42-44 48-73-7-1-14 1-19 6 8-4 13-14 11-23-9 1-18 7-23 16 3-6 5-13 3-19-6-3-12 4-14 11-3 8-9 53-19 54-5 1-13-45-15-53Z" fill="#F5E38D"/>
  <path fill-rule="evenodd" clip-rule="evenodd" d="m106 772 3 19 1-9c3-15 7-29 15-41 3-5 10-17 17-16 5 1 4 7 2 12l10-5c4-1 9-1 11 4v4l-1 2v4l6 1h4c5 0 7 4 6 9-3 15-19 28-30 37l-8 7c15-9 31-16 48-21 7-2 27-7 29 4 2 8-10 14-18 18 6 0 13 0 11 8 0 4-4 7-6 10l-2 1-2 2c-3 2-2 2-2 3l-1 2c-10 14-32 11-49 9a315 315 0 0 0-10-1l-21-3 2 2 13 8 12 7c12 6 22 11 29 22 3 5 10 18 4 23l-5 1c0 5-2 9-8 9l-1-1c0 6 0 10-3 14-5 5-13 2-17-2s-7-10-9-15v-1l-2-3-7-18-6-17c-2-9-5-18-9-26h-1l2 8a144 144 0 0 1 4 56c0 6-2 14-9 14-3 0-6-2-7-4l-2-6v-1 1l-4 7c-2 2-5 3-8 3-3-1-4-3-4-6-2 6-5 10-10 11-8 1-7-11-6-17v-1c3-23 15-41 27-60l2-3-9 6-6 4-5 3c-8 6-17 12-26 15-5 1-17 4-21-1-3-6 2-12 7-16-5 0-10-1-9-6 1-8 16-13 23-15l3-1h2l5-3-6 1h-1l-12-1c-4 0-17-5-15-11s14-6 19-6c11 1 20 5 30 9l3 2a97 97 0 0 0 27 6l-3-3-8-5-3-2-17-14a87 87 0 0 1-23-37c-2-6-7-20 1-23 4-1 6 0 8 3 3 2 5 5 7 9l-1-10-1-11c0-4 1-7 5-7 2 0 4 2 6 4 1 2 2 3 3 2l2-4 3-3 3-2c5-1 8 4 10 8 4 9 5 19 7 29l2 15Zm14 71 4 8a260 260 0 0 0 8 15l2 3c2 2 4 5 4 8 0 1 5 0 5-2l-3-6-1-1-7-13-2-3-2-4-4-7 8 4 15 8 7 4c8 5 15 13 19 21l3 9v5l-1-6c-1-1-5 0-5 2v2c0 3 1 6-1 7-1 2-4 2-6 0l-5-14c-1-1-4 0-5 2-1 4 2 10 5 14 2 9 2 18-5 17-7-2-11-14-14-22l-2-5a514 514 0 0 1-14-39l-3-7Zm-21-30-2-2a100 100 0 0 1-35-37c-5-7-7-15-9-23v-1c0-2-1-7 3-7l3 5v1l7 10c1 1 5 0 5-1v-21l-1-10 3 3 1 2c2 1 4 2 6 0 2 0 3-2 4-4 1-3 3-5 5-4 4 3 6 14 7 19l1 2 2 16 2 9v1c2 16 5 31 5 46l-2-6-1-2-1-2a208 208 0 0 1-5-12c-2-5-8-19-6-21s-3-2-4-1c-4 3 2 16 4 22l1 2 7 16Zm4 13c-4-1-10 1-15 3l-4 1-4 1c-7 1-19 3-21 9 0 1-5 2-4 0 2-6 11-8 18-10l3-1 13-3 6-1-18-5-8-3a124 124 0 0 0-28-8l-8 6c-1 3 9 6 11 6h14l8-1 1 2c-2 3-6 4-10 5l-3 1-1 1-13 5c-2 2-9 6-8 8 0 3 6 3 8 2 1 0 5 0 3 2h-1c-3 3-7 6-8 11-1 4-1 4 3 5l1 1c4 1 6 1 11-1 8-2 16-7 23-12l3-2 6-5 16-11 1-1 2-1a369 369 0 0 0 3-4Zm14-12-5 4c7-15 14-30 24-42 2-2-3-1-4 0-8 10-14 21-20 32l1-11v-4c1-11 3-21 7-31a83 83 0 0 1 15-29l5-5v6l-2 6-2 4c-1 2 4 1 4 0l3-3 4-3c11-4 15-3 13 5l-1 4c0 2 0 2 3 3h5c5 0 10-1 8 7-1 5-4 9-6 12-9 13-21 23-33 32l-6 4a243 243 0 0 0-12 9h-1Zm-16 22-5 14-2 7-2 4c-3 7-6 16-4 23 1 1 6 0 5-2-2-7 2-16 5-23a147 147 0 0 0 4-11l1-4a153 153 0 0 0 1 19c1 6 3 17 8 20h2c0 7 0 15-2 22-3 10-8 0-8-5v-1l-1-4c-1-1-4 0-5 1l-2 4c-2 5-5 11-8 8v-12c-1-1-4 0-5 1l-2 5a50 50 0 0 1-1 3c-1 3-3 7-6 7s-3-2-3-4v-2c1-10 3-19 6-28 5-14 13-26 21-37l3-5Zm11 38 2 5v-1l-4-26v-1a895 895 0 0 0 2 23Zm0-48 2 1a141 141 0 0 0 36 6l3 1c8 1 15 2 23 1 6-1 12-2 16-6l2-3 1-2 5-5c3-2 6-4 7-8 2-7-4-7-9-7l-4-1c-2 0-1-2 0-2 5-2 32-16 16-21-11-4-28 4-39 8l-17 8c1 1 2 1 1 2a422 422 0 0 0-5 2l-18 12-5 4-2 1-7 5 14-5a106 106 0 0 1 27-8h1l7-2 8-3c2 0 4-1 5 1 1 1-4 3-5 2l-8 2-4 1-6 2-11 3-11 4c-6 3-12 5-19 6l-2-1-2 1v1Zm17-16-4 3-5 4h1v-1l2-1 5-4 1-1Z" fill="#52525B"/>
  <path d="m297 1633 2 2-2 3c-5 4-5 11-4 17 1 5 4 11 9 12 4 2 10 0 13-4s5-9 6-14l3 2c4 4 11 4 16 1s9-8 11-13l1-7c-1-4-4-7-7-9s-7-2-11-3c4 1-2-19-6-22-6-3-15-1-21 2-14 8-27 20-10 33Z" fill="#F5E38D"/>
  <path fill-rule="evenodd" clip-rule="evenodd" d="m321 1641-1-1-3 3 2 3c0 8-8 22-16 17-10-5-10-21 1-26 1 0 3-3 1-3-6 1-12-4-13-10-1-4-3-13 8-11 4 1 8 7 9 10 1 1 4-1 3-2l-1-2c-1-4-3-7-3-11 3-14 12-6 15-3s5 7 6 11c-3 2-5 6 0 8l3-2 1-3 2-3a592 592 0 0 1 7 5c3 5 4 11 3 17s-2 6-8 9l-2 2c-4 2-4 2-7 0l-4-3v-3l1-2-1-1-2 1h-1Zm1 9c-3 10-11 20-19 18-7-3-12-12-10-19 1-4 3-9 7-12-8-1-14-10-12-18 1-4 4-7 8-8s7-1 9 1c0-2 0-5 2-8 1-3 5-6 9-6 7-1 15 8 17 16 9-3 14 6 15 14s-2 21-10 25c-4 3-9 2-13-1l8 21 3 7 11 24c0-6 1-12 4-18l5-9 3-5 2-3 4-6h2c2 2 2 5 2 8v3l1 3 1 10c0 7 0 14-3 20-2 3-8 11-13 14 11 21 25 41 44 56 1 1-2 4-3 3a180 180 0 0 1-45-58h-2l1-2a291 291 0 0 1-3-7l-3 2c-10 7-19 2-28-6h-1c-6-6-14-14-17-22s5-9 10-7c13 6 27 16 36 27l-12-27-1-3-2-4c-3-7-6-15-7-23Zm31 67 1 2 6-5v-1c5-5 7-9 7-16v-16l-2-12c-1-1-3 2-4 4v1l-2 3-7 11c-4 9-2 20 1 29Zm-37-28c9 5 20 13 26 23v1c1 5-11 2-13 1l-7-5-5-5-14-16c-2-3-4-7 2-5l7 4 4 2Z" fill="#52525B"/>
  <path d="M374 1151c-9 0-9 13 0 13 8 0 8-13 0-13Zm36 33a7 7 0 0 0-10 0l-1 2c-2 1-2 3-2 4 0 2 0 4 2 5l4 2 5-2 2-1 1-5-1-5Zm6 68c-9 0-9 13 0 13 8 0 8-13 0-13Z" fill="#F5E38D"/>
  <path d="M349 1143c-9 0-9 14 0 14s9-14 0-14Zm48 86c-9 0-9 13 0 13s9-13 0-13Z" fill="#DDD5FF"/>
  <path fill-rule="evenodd" clip-rule="evenodd" d="M348 1154h1c0 9 2 18 4 26l2 10 1 3c1 6 2 13 6 17l-4 13-1 6c-4 14-8 26-14 39v1l-1 1-2 6-16 32c-1 2 3 2 4 1 6-9 10-19 14-29l3-7 2-5 8-6 2-2 6-4 21-1 23 1-1 1v4c0 2 3 3 4 3h6c2-1 4-4 4-6 2-5-2-7-6-8-1-1-3 1-3 1l-3 3c-7-1-14-2-21-1h-9l-12 1 4-3 22-13 2 2c5 2 9-1 12-5l1-5c-1-2-3-3-5-3-3-3-7 1-9 3l-2 5a206 206 0 0 0-31 20l-10 6a312 312 0 0 0 12-34l3-12v-1l1-3h1v-1l2-3h1l16-11 8-4 5 2h4l2-2 3-2v-6c-1-4-6-6-10-5s-6 4-6 8l1 2a223 223 0 0 1-21 13c-2 1-5 2-6 4l-2 1c-3-5-4-12-5-18v-1h1l7-10 1-1 3-6 2-5c3 0 5-1 7-4 1-3 2-6-1-7-3-4-9-5-12 0l-2 7 5 3-3 5-1 3-8 12v-2l-1-7-4-21h2l2-1c2-3 2-9 0-11-3-4-8-3-11-2-3 2-6 6-5 10 1 3 4 3 7 3Zm49 35v-2c-1-2 0-7 4-6 2 1 5 5 3 8l-3 2v1h-1l-2-1-1-2Zm-52-39c0 2 2 2 5 2h4l-1 1h1v-7l-1-3h-5c-2 2-3 4-3 7Zm30 12h-3l-1 1-1-1-1-4 2-4c2-1 3 1 4 2l2 1-1 4-1 1Zm20 74 2-1c3-1 0-2-2-2l1-1a25 25 0 0 1 2-3h3c3 0 2 3 1 5l-2 3-4 1-1-2Zm17 17 3-1 2 4-2 4v1c-1 1-1 2-3 1-2 0-3-2-2-4a15 15 0 0 1 1-4h1v-1Z" fill="#52525B"/>
  <path d="m83 18-3-6c-4-3-10 2-12 6-2 5-2 10-5 14l-8-5c-3-1-7 1-7 4l1 2c13 21 29 40 48 56-18-8-37-12-56-12-3 0-6 2-6 4 5 4 10 7 16 8l-14 16-2 4c-1 3 2 5 5 6l9-3 39-21a88 88 0 0 0-24 58c8-1 14-8 16-16 2 5 4 10 8 13s11 4 14 0c2-2 3-5 3-8 2-15 4-31-4-45 2 19 9 37 20 52 2 2 4 4 6 4 4 0 6-5 5-8l-2-12c4 4 11 7 15 3 3-4 0-9-2-13a86 86 0 0 0-43-30c14-2 27 1 41-1 13-2 28-9 31-22-5-2-11-2-16-1 8-2 15-9 18-16-26-2-50 13-69 30 16-15 31-33 36-54-5-2-11 0-14 4 6-3 9-11 8-18-7 2-14 6-18 12 3-4 4-9 3-14-5-2-9 4-11 8-2 6-6 41-14 42-4 0-10-35-12-41Z" fill="#F5E38D"/>
  <path fill-rule="evenodd" clip-rule="evenodd" d="m93 43 2 15 1-7c2-11 5-22 11-31 2-4 7-13 13-12 4 0 3 5 1 9 2-2 5-4 8-4 3-1 7-1 8 3v5l-1 3h8c4 1 5 3 5 7-2 11-15 22-23 29a143 143 0 0 1-6 4 144 144 0 0 1 36-15c6-2 21-5 22 2 2 7-8 12-14 14h1c4 0 9 1 8 6 0 3-3 6-5 8l-1 1-2 1-2 2v2c-8 11-25 9-37 7l-5-1h-3l-16-2 2 2 10 5 9 6c9 4 16 8 22 17 2 3 7 13 3 16-1 1-3 2-4 1 0 4-2 7-6 7h-1c0 4 0 7-2 10-4 4-10 1-13-2l-7-11-1-3-6-14-4-12-7-20h-1l2 6c3 14 6 27 3 41v1c0 5-2 11-7 11l-6-3v-5h-1v1l-3 5-6 2c-2 0-3-2-3-4-2 4-4 7-8 8-6 1-5-9-4-13v-1c2-17 11-31 20-45l2-3v1l-7 4-4 3-4 3-20 11c-4 1-13 3-16-1-2-4 2-9 5-12-3 0-7-1-6-5 1-6 12-9 17-11l2-1h2l4-2-5 1h-1l-9-1c-3 0-13-4-11-9 2-4 11-4 15-4a656 656 0 0 0 25 8 73 73 0 0 0 20 5l-2-3-6-3-2-2-14-10a66 66 0 0 1-17-28c-2-5-5-15 1-17 2-1 4 0 6 1l5 7-1-7v-9c0-2 0-4 3-5 2 0 4 2 5 3l2 2 2-3 2-3 2-1c4-1 6 3 7 6 3 7 5 14 6 22l2 11Zm10 54a145 145 0 0 1 5 10l1 1 4 7 1 2 3 6 3-1-2-5v-1c-3-3-4-7-6-10l-1-2-2-3-2-6 5 4 11 6 6 3c6 3 11 9 14 16l3 6-1 4-1-4-3 1v7c-2 2-4 1-5 0l-4-10c-1-1-3 0-4 1 0 3 1 8 4 11 2 6 2 13-4 12-5-1-9-10-11-16l-1-4a389 389 0 0 1-11-29l-2-6ZM87 75v-1l-2-1-11-8c-6-6-11-13-15-20-4-6-5-11-6-18-1-2-1-5 1-5l3 3v1l5 7c1 1 4 0 4-1V17l-1-8 3 3v1h5l3-3c1-2 2-4 4-3 3 2 4 10 5 15l1 1 2 12v7l1 1 4 34-2-4a32 32 0 0 0-2-3 157 157 0 0 1-4-10c-1-3-5-14-4-15s-2-1-3-1c-3 3 2 12 3 17l1 1 5 13Zm4 9-12 2-3 1-3 1c-6 1-14 3-16 7h-3c1-5 8-6 13-8h3l9-3 5-1-13-3-6-3a94 94 0 0 0-22-6l-6 5c0 2 7 4 9 4a32 32 0 0 0 11 0h5l1 1c-2 3-5 3-7 4a46 46 0 0 0-4 1l-10 5c-1 0-6 4-6 6 1 2 5 2 7 1 0 0 3 0 2 1l-1 1c-2 2-5 4-6 7-1 4-1 4 3 5h8c7-2 12-6 18-10a406 406 0 0 1 7-5l12-8 1-1 1-1a270 270 0 0 0 3-3Zm10-9-4 3c5-11 11-22 19-32h-4c-6 8-11 16-15 25l1-8v-4c1-8 2-16 5-23a63 63 0 0 1 12-22l3-4v4l-1 5-2 3c0 2 3 1 3 1l3-3 3-3c8-3 11-1 9 4l-1 3 3 3h4c4 0 7-1 6 5l-5 9a108 108 0 0 1-29 27l-6 5-4 2ZM89 92l-4 10-2 6-1 3c-2 5-4 12-3 17 1 1 4 0 4-1-2-6 1-12 3-18l2-4 1-4 1-3 1 13v1c1 5 2 13 6 16h2l-2 16c-2 7-6 0-6-4v-1l-1-2h-3l-2 4c-2 3-4 8-6 6v-10c-1-1-3 0-4 1l-1 4-1 2c-1 2-3 5-5 5s-2-1-2-3v-1c1-8 2-15 5-22a137 137 0 0 1 18-31Zm8 29 1 3v-1c0-6-1-13-3-19v-1a680 680 0 0 0 2 18Zm0-37 2 1 22 4a539 539 0 0 1 7 1l17 1h1c4-1 9-1 12-4l1-3 1-2 4-3c2-2 4-3 5-6 1-5-3-5-7-6h-3c-2 0-1-1 0-2 4-1 24-12 12-16-8-2-21 3-29 6l-1 1-12 6v1a247 247 0 0 0-3 1c-5 2-9 6-13 9h-1l-3 3-2 2-5 3 11-3 5-3 15-4 6-2 5-1h4c1 1-2 2-3 2l-6 2h-3l-5 2-8 2c-3 0-6 2-8 3-5 2-10 4-15 4h-1l-2 1Zm13-12-3 2-4 3h1a95 95 0 0 1 5-4l1-1Z" fill="#52525B"/>
  <path d="m66 1503-3-6c-4-3-10 2-12 6-2 5-2 10-5 14l-8-5c-3-1-7 1-7 4l1 2c13 21 29 40 48 56-18-8-37-12-56-12-3 0-6 2-6 4 5 4 10 7 16 8l-14 16-2 4c-1 3 2 5 5 6l9-3 39-21a88 88 0 0 0-24 58c8-1 14-8 16-16 2 5 4 10 8 13s11 4 14 0c2-2 3-5 3-8 2-15 4-31-4-45 2 19 9 37 20 52 2 2 4 4 6 4 4 0 6-5 5-8l-2-12c4 4 11 7 15 3 3-4 0-9-2-13a86 86 0 0 0-43-30c14-2 27 1 41-1 13-2 28-9 31-22-5-2-11-2-16-1 8-2 15-9 18-16-26-2-50 13-69 30 16-15 31-33 36-54-5-2-11 0-14 4 6-3 9-11 8-18-7 2-14 6-18 12 3-4 4-9 3-14-5-2-9 4-11 8-2 6-6 41-14 42-4 0-10-35-12-41Z" fill="#F5E38D"/>
  <path fill-rule="evenodd" clip-rule="evenodd" d="M76 1528a660 660 0 0 1 3 8c2-11 5-22 11-31 2-4 7-13 13-12 4 0 3 5 1 9 2-2 5-4 8-4 3-1 7-1 8 3v5l-1 3h8c4 1 5 3 5 7-2 11-15 22-23 29l-6 5v-1c11-6 23-12 36-15 6-2 21-5 22 2 2 7-8 12-14 14h1c4 0 9 1 8 6 0 3-3 6-5 8l-1 1-2 1-2 2v2c-8 11-25 9-37 7l-5-1h-3l-16-2 2 2 10 5 9 6c9 4 16 8 22 17 2 3 7 13 3 16-1 1-3 2-4 1 0 4-2 7-6 7h-1c0 4 0 7-2 10-4 4-10 1-13-2l-7-11-1-3-6-14-4-12-7-20h-1l2 6c3 14 6 27 3 42 0 5-2 11-7 11l-6-3v-5h-1v1l-3 5-6 2c-2 0-3-2-3-4-2 4-4 7-8 8-6 1-5-9-4-13v-1c2-17 11-31 20-45l2-3v1l-7 4-4 3-4 3-20 11c-4 1-13 3-16-1-2-4 2-9 5-12-3 0-7-1-6-5 1-6 12-9 17-11a112 112 0 0 0 4-1l4-2-5 1h-1l-9-1c-3 0-13-4-11-9 2-4 11-4 15-4a2808 2808 0 0 0 25 8 74 74 0 0 0 20 5l-2-3-6-3-2-2-14-10a66 66 0 0 1-17-28c-2-5-5-15 1-17 2-1 4 0 6 1l5 7-1-7v-9c0-2 0-4 3-5 2 0 4 2 5 3l2 2 2-3 2-3 2-1c4-1 6 3 7 6 3 7 5 14 6 22l2 11Zm10 54 3 6 2 4 1 1 4 7 1 2 3 6 3-1-2-5v-1c-3-3-4-7-6-10l-1-2a250 250 0 0 1-4-9l5 4 11 6 6 3c6 3 11 9 14 16l3 6-1 4-1-4-3 1v7c-2 2-4 1-5 0l-4-10c-1-1-3 0-4 1 0 3 1 8 4 11 2 6 2 13-4 12-5-1-9-10-11-16l-1-4-9-24-2-5-2-6Zm-16-22v-1l-2-1-11-8c-6-6-11-13-15-20-4-6-5-11-6-18-1-2-1-5 1-5l3 3v1l5 7c1 1 4 0 4-1v-15l-1-8 3 3v1h5l3-3c1-2 2-4 4-3 3 2 4 10 5 15l1 1 2 12v7l1 1 4 34-2-4-1-2-1-1-3-9-1-1c-1-3-5-14-4-15s-2-1-3-1c-3 3 2 12 3 17l1 1 5 13Zm4 9-12 2a60 60 0 0 1-6 2c-6 1-14 3-16 7h-3c1-5 8-6 13-8h3l9-3 5-1a60 60 0 0 1-19-6l-8-3a80 80 0 0 0-14-3l-6 5c0 2 7 4 9 4l8 1 3-1h5l1 1c-2 3-5 3-7 4l-2 1h-2l-10 5c-1 0-6 4-6 6 1 2 5 2 7 1 0 0 3 0 2 1l-1 1c-2 2-5 4-6 7-1 4-1 4 3 5h8c7-2 12-6 18-10l2-1 5-4 12-8 1-1 1-1 2-2 1-1Zm10-9-4 3c5-11 11-22 19-32h-4c-6 8-11 16-15 25l1-8v-4c1-8 2-16 5-23 3-8 6-16 11-22h1l3-4v4l-1 5-2 3c0 2 3 1 3 1l3-3 3-3c8-3 11-1 9 4l-1 3 3 3h4c4 0 7-1 6 5l-5 9a108 108 0 0 1-29 27l-6 5-4 2Zm-12 17-4 10-2 6-1 3c-2 5-4 12-3 17 1 1 4 0 4-1-2-6 1-12 3-18l2-4 1-4 1-3a116 116 0 0 0 1 14c1 5 2 13 6 16h2l-2 16c-2 7-6 0-6-4v-1l-1-2h-3l-2 4c-2 3-4 8-6 6v-10c-1-1-3 0-4 1l-1 4-1 2c-1 2-3 5-5 5s-2-1-2-3v-1c1-8 2-15 5-22 4-10 10-19 16-28l2-3Zm8 29 1 3v-1c0-6-1-13-3-19v-1l-1-8a140 140 0 0 0 3 25v1Zm0-37 2 1 22 4 5 1a1112 1112 0 0 1 19 1h1c4-1 9-1 12-4l1-3 1-2 4-3c2-2 4-3 5-6 1-5-3-5-7-6h-3c-2 0-1-1 0-2 4-1 24-12 12-16-8-2-21 3-29 6l-1 1-12 6v1l-1 1h-2c-5 2-9 6-13 9h-1a215 215 0 0 1-5 5l-5 3 11-3a81 81 0 0 1 20-7l6-2 5-1h4a340 340 0 0 0-10 3l1 1h-3l-5 2-8 2c-3 0-6 2-8 3-5 2-10 4-15 4h-1l-2 1Zm13-12-3 2-4 3h1l2-1 3-3 1-1Z" fill="#52525B"/>
  <path d="M240 61c-1 5 1 9 3 14 1 3 4 7 8 7h4c11-4 22-19 13-30-9-10-26-4-28 9Zm85-32c-3 2-4 5-4 8-1 3 0 6 1 9l4 8c4 3 9 5 14 4 9-2 19-14 11-23-4-5-20-9-26-6Zm-2 104-1 9 1 7c2 5 10 7 16 8h4c3 0 5-2 7-4 3-2 6-5 7-9 3-15-26-21-34-11Z" fill="#DDD5FF"/>
  <path fill-rule="evenodd" clip-rule="evenodd" d="m332 57-2 2c1 0 1 0 0 0v2c-1 1-3 2-4 1l-2 2-2 2a312 312 0 0 0-28 30l-18 23c7-4 14-7 22-8 4 0 14 0 15 5 1 4-6 5-9 5h-1l-24 1a1184 1184 0 0 0-5 0 1284 1284 0 0 0-35 46 251 251 0 0 0 64-15l15-4c0-4 3-8 4-11v-1l10-9c3-1 7-3 10 1l1 4 3-1c3 0 4 1 5 4l-2 4-1 3c4-1 6 0 4 5-4 5-9 9-16 10a21 21 0 0 1-15-6l-2-1-16 5-20 6a172 172 0 0 0 15 6l7 3c3 2 7 6 2 9-4 3-11 0-15-2-6-4-10-9-14-15a259 259 0 0 1-41 8 8501 8501 0 0 0-37 52l-4 7c0 1-4 3-4 1-1-2 0-3 1-5l1-1 6-8a300 300 0 0 1 19-28l27-36c-2-11-1-22 0-33-2 0-4-2-5-3l-1-1c-3-2-7-5-9-9-2-3-7-11-4-14 4-3 8 1 11 3v1c3 2 6 5 8 9a20 20 0 0 1 1 4l2-8 2-10 1-7a145 145 0 0 1 0-6c-3 0-2-1-1-2-4 0-7-1-9-4-3-5-4-13-3-18 0-3 2-5 5-6 3 0 4 2 6 4v2l2-2c1-3 4-7 7-8 4-1 4 4 4 7v1l3-2c1-1 3-3 6-2 4 0 5 4 4 7-2 10-10 18-19 21a136 136 0 0 0-2 14l-1 10-2 9c-2 12-4 25-2 37a1724 1724 0 0 1 43-54c-3-1-4-6-5-10v-1l-1-2c-1-7-3-15 1-20 1-1 3-2 4-1 5 4 4 14 4 21v2l1 5 1 1 18-19 3-4c2-3 5-6 8-7l-2-3-2-2a20 20 0 0 1-2-21c1-2 3-5 6-5 4 0 5 2 5 4l2-1c1-2 3-4 6-4 4 0 4 3 3 6v1l2-1c2-1 4-2 6-1 3 3 0 8-2 11h1c2-1 4-3 6-1 3 2 0 5-1 7-6 7-15 9-23 9Zm-27 120-2-3-2 1 1 1 3 1Zm-75-81 2 1h-1l-1-1Zm60-31v2-2Zm33 84c2-1 3-3 0-3 0-3 2-7 4-9 2-4 4-6 8-6 3 1 4 1 3 3v2l-2 3c0 2 4 1 4 0l2-2c1-1 3-2 4-1 1 2 0 4-1 5v1l-2 3h2c4 0 3 3 1 5-4 4-9 6-14 4l-4-2-5-3Zm-51-93c-1 8-7 15-14 18v-2c1-2-4-1-4 1v1c-4 0-7-1-9-5l-2-11v-4l1-2v1l1 1 1 2 2 3c1 1 3 0 4-1l3-5 3-4 1 5v2l2 1 4-3c3-2 7-4 7 2Zm57-2-1-1c-2-3-4-6-4-9a17 17 0 0 1 0-10c1-1 2-4 4-3v3l1 1h3l2-2 3-2c2-2 2 0 2 2l-1 2 2 1 3-1 3-1c4 1-1 8-3 11 0 1 1 2 2 1h3c3-1 6-3 3 1-4 8-13 7-21 6l-1 1Z" fill="#52525B"/>
  <path d="M299 230v2h-4c-5-2-10 1-14 5-4 3-7 7-6 12 1 4 5 7 10 8 4 1 9-1 13-2l-1 3c0 5 3 10 7 13s10 3 15 3l5-3c3-2 4-6 4-9l-3-10c1 3 14-10 14-14 0-6-5-11-10-15-12-7-27-11-30 7Z" fill="#F5E38D"/>
  <path fill-rule="evenodd" clip-rule="evenodd" d="M304 252v-1c1-1-3-2-3-1l-2 3c-6 3-20 3-20-5 0-10 12-17 20-11h3c-4-4-2-11 1-15 3-2 9-8 12 2 1 3-1 8-3 11l3 1 1-1 7-8c12-3 10 7 9 11l-5 9c-4-1-7-1-7 4l3 1 3-1h3v4l-1 4c-2 5-7 8-11 9-5 2-6 2-11-1l-2-1c-3-2-4-2-3-6v-3l2-2h3a2039 2039 0 0 1-2-3Zm-7 4c-8 2-20 1-21-6-2-7 3-14 9-16h12c-2-6 2-15 9-17 3-1 7 0 10 3 2 2 3 4 3 7l6-2c4-1 7 1 9 4 4 5 1 15-5 20 7 5 3 13-3 18-6 4-17 7-24 3-4-2-5-6-5-10l-12 15-4 5-14 19c5-3 10-5 16-5h17l6 1 1 1c-1 3-3 4-5 5l-2 2-2 2-7 5c-5 3-11 6-17 6-3 0-11-1-16-3-11 17-20 37-23 58-1 1-4 0-4-2a158 158 0 0 1 24-59v-2h2a281 281 0 0 1 4-5l-3-1c-10-5-10-14-8-24v-1c2-7 4-17 9-23 5-5 9 0 9 5 2 12 1 28-4 39l15-21 2-2 2-3c4-6 8-11 14-16Zm-37 54-1 1a23 23 0 0 0 8 2c5 2 9 1 14-1l11-7 2-1 8-6c0-2-3-2-5-2h-15c-9 1-16 7-22 14Zm5-41c0 9-1 21-6 30h-1c-3 3-6-7-6-9l1-8 1-6c2-6 3-12 6-17 2-3 3-6 5-1v11Z" fill="#52525B"/>
  <path d="M26 537c-9 3-5 16 3 13 8-2 5-15-3-13Zm56-64-5-1-4 3-1 2-1 5 3 4 5 1 4-3a1746 1746 0 0 0 2-7c0-2-2-3-3-4Zm23 77h-7c-2 0-3 2-4 3l-1 5 4 4 5 1 1-1c2 0 3-1 4-3l1-5-3-4Z" fill="#F5E38D"/>
  <path d="m45 496-5-1-4 3-1 5 1 2 3 4h5l4-3v-6c0-2-2-3-3-4Zm47 14c-8 2-5 15 3 13 9-3 5-15-3-13Z" fill="#DDD5FF"/>
  <path fill-rule="evenodd" clip-rule="evenodd" d="m78 469 4-1c2-1 5 0 7 2 2 5-1 13-5 16-3 2-5 2-8 2-8 11-10 30-11 42a104 104 0 0 0 1 19c5 4 14-9 16-12l3-7 3-5 1-1c-4-1-7-4-7-8 0-5 5-7 10-7h7c2 1 3 4 3 7 0 5-5 9-10 9l-3 5c-3 7-7 13-12 17-2 2-7 5-11 6a232 232 0 0 0 5 25l1 1v1a222 222 0 0 0 4 12c10-3 16-14 19-24-6-2-7-8-5-13s8-6 12-4c2 0 3 0 4 2l1 8c-1 4-4 7-8 7-4 12-11 23-23 27a235 235 0 0 0 7 18c6 12 11 24 19 34 1 1-3 4-5 3-9-12-15-27-20-40l-1-1-9-28a71 71 0 0 1-20-13c-5-5-12-11-14-18l-5 1c-13 0-10-23 3-21l1 1c5-1 9 0 8 7 0 3-1 7-3 9 2 8 11 16 17 21 3 3 7 5 12 7a253 253 0 0 1-5-42c-4-2-8-4-11-8l-7-14h-2c-6 0-8-6-7-11 1-6 6-8 11-7 2-1 5-1 6 1l2 8c-1 3-3 6-5 7l5 12 8 7 1-7c2-11 4-25 11-34l-3-5c0-6 2-13 8-13Zm22 96 2-1 1-4c0-3-1-7-5-6-1 1-1 0-1-1h-2l-1 5c0 3 1 5 4 7h2Zm-73-32c-5 2-4 15 3 14 5 0 8-7 5-11-1-3-5-2-7-2-2 1-2 0-1-1Zm63-21h2c3-1 5 0 6 3l-1 4c0 2-1 2-3 2-3 0-5-1-7-4v-3c0-2 1-2 2-2h1Zm-43-5c1-1 2-3 1-6l-1-4-2-1h-4l-2 1-1 4c1 3 1 6 4 7h2l3-1Zm30-35 4-1h1l2 1 1 4c0 2-1 6-3 8s-6 0-7-3v-4l1-5h1Z" fill="#52525B"/>
  <path d="M99 1652c-6-6-15 4-9 10s15-4 9-10Zm85 15-2-5c-2-1-3-2-5-1h-2c-2 0-4 0-5 2l-2 4a7 7 0 0 0 7 7h2l5-2 2-5Zm-55 59-2-4-1-1c-1-2-3-2-5-2l-4 2c-2 1-2 3-2 5 0 1 0 3 2 4l1 1c1 2 3 2 5 2l4-2 2-5Z" fill="#F5E38D"/>
  <path d="m145 1647-2-5a7 7 0 0 0-10 1l-1 1c-1 1-2 3-1 5 0 1 0 3 2 4l4 2 5-2 1-1 2-5Zm12 48c-6-6-15 3-9 9s15-3 9-9Z" fill="#DDD5FF"/>
  <path fill-rule="evenodd" clip-rule="evenodd" d="m185 1662 3 2c2 2 3 5 1 7-3 5-11 6-16 4l-5-5c-14-1-31 7-42 12a104 104 0 0 0-16 11c-1 6 15 7 19 7h7l6-1 1 1c-1-4 0-8 4-11 4-2 9 1 11 5l3 6c1 3-1 5-4 6-4 3-10 1-12-4h-1l-6 1c-7 0-14 1-21-2-3-1-8-3-10-6a231 231 0 0 0-29 28c8 8 21 7 31 4-2-5 3-10 9-11 4 0 9 4 9 8v5l-6 5c-4 1-8 0-10-3-12 2-25 2-35-6l-11 15-1 1c-7 10-15 21-19 33-1 2-5-1-5-2 5-14 15-27 24-39l19-23c0-8-1-15 1-23v-1c2-7 4-16 8-21h1l-4-4c-7-11 14-20 20-8l-1 1c3 4 4 8-1 11-4 2-7 2-10 1v1c-6 6-8 17-9 25l-1 14a254 254 0 0 1 34-26c0-5 0-9 2-13l8-13-1-2c-3-5 1-10 6-12s10 1 12 6c1 1 3 3 2 5-1 3-4 5-6 6h-9l-7 10c-2 4-3 7-3 11l7-3c10-4 23-9 35-8 0-2 1-4 3-5 4-4 12-5 15 0Zm-71 68 2 1c1 1 3 0 4-1 2-1 5-4 2-7v-2l-1-2-4 2c-3 2-4 4-4 7l1 2Zm-10-79c-4-3-15 4-11 10 3 4 11 2 13-1 1-3-1-6-3-7-1-2 0-2 1-2Zm50 43 2 2c1 2 2 4-1 6l-3 2c-2 1-3 0-4-2v-7l3-3 3 1v1Zm-18-40c2 1 4 0 6-1l3-3v-3l-1-1-1-2-2-1c-1-1-3 0-4 1-2 2-5 4-4 7l1 1 2 2Zm46 8c-1 1 1 3 3 3v3l-2 3-8 2c-4-1-4-5-2-8l3-2 5-1h1Z" fill="#52525B"/>
  <path d="M165 507c-9 0-9 13 0 13 8 0 8-13 0-13Zm36 33-5-2-5 2-1 2c-2 1-2 3-2 4 0 2 0 4 2 5l4 2 5-2 2-1 1-5-1-5Zm6 68c-9 0-9 13 0 13 8 0 8-13 0-13Z" fill="#F5E38D"/>
  <path d="M140 499c-9 0-9 14 0 14s9-14 0-14Zm48 86c-9 0-9 13 0 13s9-13 0-13Z" fill="#DDD5FF"/>
  <path fill-rule="evenodd" clip-rule="evenodd" d="M139 510h1c0 9 2 18 4 26l2 10 1 3c1 6 2 13 6 17l-4 13-1 6a336 336 0 0 1-15 41l-2 6-16 32c-1 2 3 2 4 1 6-9 10-19 14-29l3-7 2-5 8-7 2-1 6-4 21-1 23 1-1 1v4c0 2 3 3 4 3h6c2-1 4-4 4-6 2-5-2-7-6-8-1-1-3 1-3 1l-3 3a136 136 0 0 0-30-1l-12 1 4-3 22-13 2 2c5 2 9-1 12-5l1-5c-1-2-3-3-5-3-3-3-7 1-9 3l-2 5a205 205 0 0 0-31 19l-10 7a313 313 0 0 0 12-34l3-12v-1l1-3h1v-1l2-3h1a134 134 0 0 1 24-15l5 2h4l2-2 3-2v-6c-1-4-6-6-10-5s-6 4-6 8l1 2a222 222 0 0 1-21 13c-2 1-5 2-6 4l-2 1c-3-5-4-12-5-18v-1h1l7-10 1-1 3-6 2-5c3 0 5-1 7-4 1-3 2-6-1-7-3-4-9-5-12 0l-2 7 5 3-3 5-1 3-8 12a68 68 0 0 0-1-9l-4-21h2l2-1c2-3 2-9 0-11-3-4-8-4-11-2s-6 6-5 10c1 3 4 3 7 3Zm49 35v-2c-1-2 0-7 4-6 2 1 5 5 3 8l-3 2v1h-1l-2-1-1-2Zm-52-39c0 2 2 2 5 2h4l-1 1h1v-7l-1-3h-5c-2 2-3 4-3 7Zm30 12h-3l-1 1-1-1-1-4 2-4c2-1 3 1 4 2l2 1-1 4-1 1Zm20 74 2-1c3-1 0-2-2-2l1-1a26 26 0 0 1 2-3h3c3 0 2 3 1 5l-2 3-4 1-1-2Zm17 17 3-1 2 4-2 4v1c-1 1-1 2-3 1-2 0-3-2-2-4a15 15 0 0 1 2-4v-1Z" fill="#52525B"/>
</svg>
