<svg viewBox="0 0 501 1800" fill="none" xmlns="http://www.w3.org/2000/svg">
  <path d="M242.6 416.2c-3.8 9.5-3.3 20-4.4 30.2-1.2 10.1-5 21-13.8 26-4.5 2.4-10 3.2-13.3 7-2.2 2.6-3 6.1-3.1 9.5-.1 11.6 8.3 21.7 18 28 9.8 6.3 21.1 9.8 31.4 15.3 9.8 5.2 18.6 12.2 28 18 15.6 9.6 33.8 16.3 51.8 14 18.1-2.4 35.5-15.6 38.6-33.5 1.1-6.3.4-12.8 1.9-19 2.5-10.8 11-19.3 14.8-29.7 3-8 3-16.6 2.3-25a72.5 72.5 0 0 0-10.8-33.6 80.7 80.7 0 0 0-19-19 104.3 104.3 0 0 0-51.4-22.3 62 62 0 0 0-41.7 10.8c-10 7-24.4 11.2-29.3 23.3Z" fill="#CFA1A1"/>
  <path fill-rule="evenodd" clip-rule="evenodd" d="M287 386.1c7.1-6.1 15.5-6.2 24.3-5.3l3.9.1c3.4 0 6.6 0 9.8 2.4 1.1.7 2.2 1.7 3.3 2.7l.4.4c-4.9 0-9.6 1-14 2.7l-1-.1a67 67 0 0 0-16.2 2.8 45.1 45.1 0 0 0-10.5-5.7Zm45.2-2.3 3.3 3c2.5.3 4.8 1 7 2.3 1.6 1 2.5 2 3.4 3.3l1.3 1.4.4 1c0 .5.2.9.4 1.1 2 2.2 6.8 3.3 9.5 3.8 9.8 1.9 19.1 4.3 23.8 14 1.8 3.8 2.3 7.5 2.7 11.2a54 54 0 0 0 1.2 7.1c1.1 4.2 3.6 6.2 6.3 8.3 1.8 1.4 3.7 3 5.2 5.2a26.8 26.8 0 0 1 3.6 15.5c4.8 8.6 3.8 18 2.8 27.3l-.8 8.8a15.6 15.6 0 0 1-10.2 14.4 30 30 0 0 1 .5 20.5c-2.5 8.1-7.8 9.3-14.9 9.2l-.5 3.6c-.2 1.5-.3 2.9-.6 3.6-.8 2-1.9 3.4-3.2 5a30.4 30.4 0 0 1-25.3 9.2c-2-.3-4.2-1.2-6.3-2.2-3-1.3-6.1-2.7-9-2-2.4.6-4.3 2-6.2 3.4a17.1 17.1 0 0 1-7.2 3.8 26 26 0 0 1-12.7-1.4c-9.8-3.6-13.7-11.8-13.4-21.5l-2.3 1.2c-1.8.9-3.5 1.8-5.3 2.5a52 52 0 0 1-15.1 3c-9 .5-21.4-1-25.8-10.7-.9-2-.8-4.2-.8-6.4v-1.8c0-5.2-1.5-6.8-6.3-9l-5.8-2.2c-3.5-1.2-7-2.4-10-4.6-10-6.8-11.8-16.9-10.2-28.3a40.3 40.3 0 0 1 16.7-28c2.2-1.6 4.8-3 7.3-4.3-7.2-6.3-8-15.8-2.1-23.1 3.6-4.6 3.8-8.9 4-13.6 0-2.3.1-4.7.6-7.3.8-4 2.5-8 5.9-10.7 3.6-3 8.4-4.6 12.8-6 2.6-.7 4.8-2.2 7-3.7 2-1.3 4-2.7 6.3-3.5a23 23 0 0 1 13.3-1.1 34.8 34.8 0 0 1 23.2-8c1.9 0 3.7.3 5.5.5l5.7.6h2c2 .1 4 .1 5.6.7 2.6 1 4.6 3 6.7 4.9ZM391 509.4c6-1.6 6.3-9.5 6.4-15.5 0-1.7.1-3.2.3-4.4l.2-1.5a61 61 0 0 0 .8-16.4c-.8 3-1.8 5.6-2.9 8a37.4 37.4 0 0 1-5.1 7 28.9 28.9 0 0 0-6 9c-.5 1.6-.4 3.4-.3 5.2l.1 2c2.8 1.6 5 3.9 6.5 6.6Zm4.7-48c-.2.3-.3.6-.1.9v.2c-.3 9-4.4 18.5-9.4 24.8l-1.8 2.3c-2.4 2.8-4.1 4.8-4.6 9.2l-.3 3.2-.2 1.4c-.2.3-.2.5 0 .7-.5 4.6-1.3 8.5-4.5 13.4a34.7 34.7 0 0 1-20 13.7 19.4 19.4 0 0 1-8.6.7 53 53 0 0 1-4.3-.9 21 21 0 0 0-6.1-.6c-1.3 0-3 .4-4.5.7-2 .4-3.9.8-5.4.7-3.5-.3-6-1.9-8.8-3.6l-.3-.3c-1.1-.7-2-1.5-3-2.5l2.5.2c7.7.4 14.7-3.2 18.5-10.3 2.3-4 2.3-8.4 2.3-12.9 1.8 1 3.7 1.7 5.7 2 7 1.2 13-1.8 18.3-5.8 2.8-2.1 6.1-3.3 9.4-4.6 4.6-1.7 9.2-3.4 12.7-7.5 4.9-5.9 6.3-18.2-.8-23.1-2.6-1.8-5.6-2-8.6-2.4a939 939 0 0 1-2.4-.2c-3.2-.1-7.9-.4-9-3.6-.5-1.6.6-4 1.5-6l.9-2.2c2.6-8.2-1-14.4-8.9-17a43 43 0 0 0-14.8-2.6c-2.3 0-4.6.4-6.9.8h-.4l-.3.1-.9.2c-3.3.5-3.5.6-4.3-3.3-1.3-7.2-2.4-12-10.7-12a24 24 0 0 0-14.1 4.7l-.6.2c-2.5.8-4.6 2.1-6.7 3.5l-2.6 1.5-.2-.4c-3.6-3.9 2.4-15.7 4.3-18.6a41.8 41.8 0 0 1 19-15.1c6.8-2.7 19.8-4 25 2.9 1 1.3 1.5 2.5 2 3.4.8 1.8 1.4 3 4.7 4.2 2.6 1 5.3 1.2 8 1.5 3.1.3 6.3.6 9.4 2 7 3 11 8.5 13 15.6.6 2.2.7 4.6.9 7 .2 3.2.4 6.5 2 9.4 1.1 2.4 3.2 4 5.3 5.6a19 19 0 0 1 5 4.8c2.7 4.1 3.8 9 3.7 14ZM389 526c.5-6.7-.4-13.9-5.1-18.6a38.5 38.5 0 0 1-25.3 25.2c-4 1.4-8 2-11.8 2.2l-.4 1.5c-.3 1-.6 2.1-1 2.9-1.3 2-2.9 3.7-4.8 5-3 2-7.4 3-11 3.4a49 49 0 0 1-19.8-1.5c-2-.6-4-1.5-5.5-2.8a25 25 0 0 1-2.6-4.5c-.4-.1-2.1.7-3.8 1.5l.1.6c-.5 8.4 2 15.9 10 20a18 18 0 0 0 14.6.9 24 24 0 0 0 5-3.2c1.5-1.1 3-2.2 4.7-3 2.1-1 4.2-1.8 6.6-1.1 1 .2 1.7.8 2.5 1.5l1.3 1c4.9 2.9 9.9 4 15.7 2.5 6-1.5 12.8-6.3 14.1-12.7.2-.6.1-1.5 0-2.4 0-1.1 0-2.3.3-3.1.7-1.8 2-2.3 3.6-2.8a8 8 0 0 1 3.8 0c1.8.2 3.6.5 5.8-1.7 2.4-2.3 2.8-7.7 3-10.8Zm-46.5 9v-.1l-6.6-.3c-3.4-.1-7-.3-10.7-.2-5.1.2-8.9-2-13.1-4.8-1.7-1-3-2.7-4.5-4.4l-1.8-2.1-1.5-.8c-1.6-.9-2.8-2.2-4-3.5-1.1-1.2-2.2-2.4-3.5-3.2-3.3-2-8 .5-12.5 3-3.2 1.7-6.4 3.5-9.2 3.7-7 .7-16.2-2.4-19.3-9.3-3-6.6.5-14.8 5.3-19.7 1.2-1.2 2.6-2.4 4-3.5 2.4-1.9 4.7-3.8 6.3-6.2 4.5-7-.9-10.9-6.2-14.6-7-4.8-10.5-11.3-7.6-19.7a29 29 0 0 1 17-17.2c2.5-1.1 5.2-1.9 7.9-2.7 2.5-.7 5-1.4 7.4-2.4-.3 0-.6-.2-.8-.4-2.5-2.7-1-8 0-11.5l.3-1c1.7-5.9 5.6-11 10-15.1a50 50 0 0 1 9.5-7.1c-8.3.9-15.7 4-23.4 7.3l-.3.1c-6.8 2.9-13 5.6-17.5 11.7-4 5.5-5.7 11.6-7.4 17.7a75.2 75.2 0 0 1-4 12.2c-3.2 6.6-9.5 10-15.7 13.3a87.7 87.7 0 0 0-6.8 3.9 39 39 0 0 0-17.8 30.6c-1.2 13.5 4.6 22.6 17.2 27.6 1.6.6 3.2 1 4.9 1.5 5.2 1.4 10 2.8 10.7 8.9l.3 4.1c.2 4.8.3 8 5.3 12 6.4 5 15.3 4.5 22.9 3.3 5.6-1 11.2-3.7 16.5-6.3l3.2-1.6 1.3-.6c2-1 3.4-1.7 5.9-1.7.6 0 1.1.2 1.4.7 4.5 8.5 13 8.7 21.7 8.3 7.8-.3 11.9-1.6 14.8-8.4l.4-1.5Zm-107.3-90c.9 3.2 2.3 5 4.6 7 3-1.7 6-3.6 8.6-6 3.8-3.8 5.2-9.7 6.5-15.3.6-2.7 1.3-5.4 2.2-7.7a38.2 38.2 0 0 1 18.7-22.4c5.5-2.6 11.1-5.2 16.9-7.2-6.6-4.6-13.1-7.6-21.3-4.2-2 .8-3.6 2-5.3 3-1.5 1-3 2.1-4.8 3l-5 1.9c-6.7 2.3-12.3 4.4-13.5 13.4-.3 2.1-.2 4.4-.1 6.6.2 4.5.5 9-2.6 12.3-4.7 5-6.9 8.8-5 15.7Zm74.5 75.9a12.8 12.8 0 0 0-3.7-2.8l-1.9-2-3-2.9-1-1c-.4-.4-.5-.6-2.2-.9-3.7-.5-7.8 1.8-11.4 3.8-1.4.8-2.7 1.5-3.9 2-18.4 8.2-30.3-10.5-17.1-23.6 1.1-1.2 2.5-2.3 3.9-3.4 3.4-2.7 6.8-5.6 8-9.8 2-6.5-2.2-9.3-6.6-12.2-1.4-1-2.8-1.9-4-3-11.8-10-2.3-26 9.6-31a55 55 0 0 1 7.2-2.4c2.6-.7 5.2-1.4 7.6-2.5a42.8 42.8 0 0 0 6.2-3.6c-1 1.3-2 2.6-2.8 4-3.9 6.3-6 20.8 1 26.3a24 24 0 0 0-5.2 6.3c-2.7 5.2-.2 9.3 2.9 13.9a13 13 0 0 0 6.3 5.5c1.4.6 2.3.7 3.1.8 1.9.3 2.4.4 3.8 5.6l.5 2.5c.2 1.7.4 3 2 4.8a15 15 0 0 0 7.5 4.3c6.5 1.8 10.6-.9 13.6-5.1v.1l.9 1.7c-.6.5-.7 1 .5 1.3l.4.2a8 8 0 0 0 .5.6c1.5 3-.6 13.4-1.3 15.2a14.5 14.5 0 0 1-16.8 9c-1.8-.5-3.3-1-4.6-1.7Zm18.3-30c-.4.8-.6 1.3-.2.8-3 5-9 7.1-13.8 2.5-2.3-2.3-2.2-4.6-2-7 0-1.7.1-3.4-.8-5-.8-1.6-1.3-1.7-2.2-1.9-.4 0-.9-.2-1.5-.4a19 19 0 0 0-3.2-1 8.9 8.9 0 0 1-6-3.7 21.2 21.2 0 0 1-4.1-7.2c-.6-2.8 0-5.2 1.7-7.5.4-.5 1.8-2 3.3-3.4 1.5-.4 3.2-1.4 2.4-2.1.7-.5 1.3-.9 1.7-.9 2 0 3.2 2.7 4.3 5 .6 1.2 1 2.3 1.6 3 3.1 4 6 3.9 10 3.6-3.5 4.2-3.6 6.4 0 12.6l.7 1.2c1.6 3 3.5 6.3 6 8.6-.5.5-.6 1 0 1.2.9.3 1.5.8 2.1 1.5Zm6.1.1 1.5 2.5c1.6 2.9 3.2 5.8 6.3 7.2 6.2 2.9 10.2.2 14.5-2.7a24.2 24.2 0 0 1 9.8-4.6c1.8-.5 3.6-1 5.3-1.8 7.5-3.6 12-10 10.6-18.5-1.1-7.7-6.5-9-13.5-9.6l-1.5-.2c-4-.3-8.4-.7-9.4-4.9-.5-2.3.6-4.6 1.6-7 .6-1.3 1.2-2.7 1.5-4 1.2-6.6-2-10.6-8-13a38 38 0 0 0-20-1.5l-1.5.4c-2 .4-4.4 1-6 0-1.4-.7-1.5-1.6-1.6-3l-.1-.8c-.2-.8-.2-1.7-.2-2.6 0-1.5 0-3-.5-4.3-2.8-7.6-12.5-4.1-17.3-.7a24.4 24.4 0 0 0-9.5 17.6c-.1 2.7 0 7 1.2 10.4 5.7-6.9 19.5-8.5 26-3.3 2.4 1.9 3.5 4.1 4 7l.5 3.3c.3 4 .7 7 6 8.7 1.4.4 3.1.8 5 1.1 5 1.1 11.2 2.4 13.6 6 6.1 9.3-9.8 17.5-18.3 18.3Zm0-3.8a10 10 0 0 0 1.7-.7c2.4 1 4.5.7 6.2-.7 6.6-3.1 9.1-10.1 2.1-13.8-2.5-1.3-5.5-2-8.4-2.7l-3.9-1c-3.2-.9-5.7-1.7-7.3-3.7-5.4 6-2.4 10.2 1.4 15.5l.3.5.7 1.1c.8 1.1 1.6 2.4 2.5 3.2.2.5.4.9.7 1.2v.1c1.2-1.3 5.1-1.6 4.5-.2l-.5 1.2ZM323.5 463l-1.8.1c-2.7.2-5.1.4-7.6-2a9 9 0 0 1-2.2-4.4c-.3-1.1-.6-2.3-1.4-3.3-1.9-2.7-5.2-3-8-1.9l-2.4 1.1c2.2-5 10.1-6.6 14.6-5.9 7.1 1.2 7.6 7.3 8.1 13v.2l.7 3.1Z" fill="#52525B"/>
  <path d="M86.8 347.8c-1-7.5-.1-15 1.1-22.5a217.1 217.1 0 0 1 21-63.7l16.6 25.6c10.3 16 21.1 34.1 17.6 52.8-2.5 13.4-13.2 34-27.3 38.1-16.6 5-27.2-17-29-30.3Z" fill="#CFA1A1"/>
  <path d="M31.3 263.3a6.8 6.8 0 0 0-5-.6 6.7 6.7 0 0 0-4 3.1 7 7 0 0 0-.7 5l.4 1.4a6.9 6.9 0 0 0 3.1 4c1.5.9 3.5 1.2 5.1.7a6.7 6.7 0 0 0 4-3.2 7 7 0 0 0 .6-5l-.3-1.4a6.9 6.9 0 0 0-3.2-4Zm9.1-30.1-1.7-1c-1.5-.8-3.4-1-5-.6a6.7 6.7 0 0 0-1.5 12.2l1.6 1a7 7 0 0 0 5.1.7 6.7 6.7 0 0 0 1.5-12.2Zm31.2 9.7c-8.3 2.3-4.8 15.1 3.5 12.8 8.3-2.3 4.7-15.1-3.5-12.8Zm56-35.3a6.8 6.8 0 0 0-5-.6 6.8 6.8 0 0 0-4 3.1 7 7 0 0 0-.7 5.1l.4 1.4a6.9 6.9 0 0 0 3.1 4c1.4.8 3.5 1.1 5 .6a6.7 6.7 0 0 0 4.1-3.1 7 7 0 0 0 .6-5.1l-.3-1.4a6.9 6.9 0 0 0-3.2-4Zm59.5 43.9c-8.3 2.3-4.7 15.1 3.6 12.9 8.2-2.3 4.7-15.2-3.6-12.9Z" fill="#81AD9E"/>
  <path fill-rule="evenodd" clip-rule="evenodd" d="M86.5 320.5a54.5 54.5 0 0 0-22-14.7c-6.6-3-13-4.5-19.8-6.1l-4.7-1.1-2.7-.7c-6.1-1.5-12.5-3.1-18.7-2.1-.5 0-3.5 1-2.8 2.1 3.2 5 7 9.5 10.7 14 4.8 6 9.7 11.9 13.5 18.7a118 118 0 0 1 6.3 14.3c3 7.8 6 15.6 11.5 22 13.9 16 36.2 19 56 15.8.7 17.5 3.9 35.2 7 52.4l.2 1.3c3 16.8 8.4 37 19.6 50.4 1 1.1 5-.8 3.9-2.1-11-13.1-16.3-33.5-19.3-50l-.2-1.1c-2.9-16.2-6-33-6.9-49.5 8.3-.3 18-4.3 25.2-7.3l.3-.1a74.1 74.1 0 0 0 27.7-20.4 74.4 74.4 0 0 0 15.7-34.5l1.6-10.4c1.9-14 3.7-27.2 17.7-35.5 1.7-1.1 1.1-2.4-.8-2a103 103 0 0 0-46 20.5c-5.3 4-10 9-13.7 14.3a54.2 54.2 0 0 0-5.9 11.2 2 2 0 0 0-.5 0c.5 0 1.7-5 3.3-11.7 2.7-11 6.5-26.8 10.4-34.9l.6-.3c4.8-1.5 7.4-4.8 6.5-10.6-.7-5.4-3.9-9.4-9.4-6.4-4.6 2.5-9 14.3-3 17.6l.6.3a71 71 0 0 0-5.6 15l-.1.3a297.2 297.2 0 0 0-6.3 24.8v.2a125 125 0 0 0-10.6-26 82.9 82.9 0 0 0-8.7-12.3c-3-3.6-5.9-7.3-8.1-11.2l-.3-2.8c0-.7-.8-1-1.6-.8a28 28 0 0 1-1.8-5.7c-.3-1.4-4.4 0-4.2 1.3 1 10.6-2.5 22.6-5.6 33.4a437.6 437.6 0 0 0-5.8 22.8c-1-4.4-2-8.7-3.3-13.1a47 47 0 0 1-.8-3.7c-1-5-2.2-11.5-6.8-12.5-.8-1.6-1.5-3.7-2.3-6-2-6-4.4-13-11.1-12.7-5.5.2-6.8 4.4-6 8.9 1.4 8.2 5.1 12.2 12.8 13.4l2.4.3c2.2.2 3 .3 4.5 3.5 1 2.1 1.7 4.7 2.2 7.1l.9 3.3c1.8 6.4 3.4 12.6 4.3 19.1Zm-12.3-36.4-.4-2-.7-2.6c-1.3-3.6-8.3-15.9-9.2-6.2-.6 5.8 5.5 10.3 10.3 10.8ZM109 381c-15.4-5.5-22.9-28-22.6-42.6 0-3.1.2-6.2.6-9.3-.4 0-.8-.2-1-.5-5-11.1-14.1-15.4-24.6-20.2a94 94 0 0 0-20-6l-5.6-1.5c-4.7-1.2-9.7-2.5-14.5-2.6 2.7 3.9 5.8 7.5 8.9 11.2 3.6 4.4 7.3 8.7 10.3 13.4a120 120 0 0 1 10 20.5l4.2 9.9C64.6 374.9 87 382.9 109 381Zm29.5-56.8-.3-2 1.2-.7-.2.5a31 31 0 0 1-.7 2.2Zm16-57.1 1-.4c1-2.3 1.3-5-.3-6.2-3.5-1.4-5.2-.6-5.2 2.4-1.3 2.6-.3 4.4 3 5.4.5-.5 1-.8 1.6-1.2ZM117 375l-1 .1a37.7 37.7 0 0 1-7.8-12l-2.3-4.4a53 53 0 0 1-5.5-29.2 221 221 0 0 1 4-29.3l1.3-7.8.5 2.2a215.9 215.9 0 0 1 5 43.2c0 5.3.2 10.6 1 15.8.9 5.1 2.8 10 4.8 15 1.2 2.7 2.3 5.6 3.2 8.4l-.8.7-.1-2c0-.9-1.2-1-2.3-.7Zm-7.8-88.4 1.2 2.2a95.7 95.7 0 0 1 12.7 29.5 140.9 140.9 0 0 1 2.5 34.5 73 73 0 0 1-2 20l-2.3-6.1a69.4 69.4 0 0 1-6-31.6c0-5-.2-9.9-.8-14.9a348 348 0 0 0-5.3-33.6Zm-4.8 79c2.5 5 4.8 9.7 9.3 13-10.1-3.2-18.4-15.7-21-24.6a76.4 76.4 0 0 1-.5-32.3c1.3-9 3.7-17.7 6-26.5l1.8-6.6 1-3.6 2.5-10.4v3.6c-.7 7.6-2 15.1-3.5 22.6-2.2 12-4.4 24-4 36.3.3 9.5 2 16.2 6.4 24.5l2 4Zm16 15.7.3-.3c1-.2 2.4-1 2.7-1.2a14 14 0 0 0 2-2.5c1-.8 2-1.7 2.9-2.8 2.9-3.4 5-7.8 6.8-11.9l.2-.5c5-10.6 5-22.4 3.8-33.9.1 0 .3 0 .4-.2 2-1.4 2.9-3.8 3.7-6.2l.6-1.6c2.5-6.5 6-12.3 10.7-17.5a90.4 90.4 0 0 1 45.2-25.3 33 33 0 0 0-11.8 16.7 88 88 0 0 0-4 20.3c-.6 5.2-1.2 10.4-2.5 15.5a65.7 65.7 0 0 1-28.1 38.8c-.8.4-26.8 12.7-33 12.6ZM129 362l-.7 5.2c9.3-15.3 9-36.5 3.2-53.3-3.9-11-8.2-22.4-15-32l-4.8-6.2-2.2-2.8a31.4 31.4 0 0 0 6.7 17.3c1.4 2.2 2.8 4.3 4 6.6 5.2 10.5 7.2 21.6 8.8 33 1.4 10.2 1.4 21.2.2 31.3l-.1.5v.4Z" fill="#52525B"/>
  <path d="M411.6 97.5c-6.6 6.4-8 16.7-6 25.7 2 8.9 7 16.8 12 24.6a57.3 57.3 0 0 0-35.5-10.4c-8 .5-17 4-19.1 11.9-1.5 5.8 1.7 12.1 6.6 15.6 5 3.4 11.2 4.5 17.2 4.5 6.7 0 14-1.5 18.3-6.8-6.3 4.4-9 12.5-9 20.2a24 24 0 0 0 6 16.4c4.3 4.3 11.3 6 16.5 3 4.6-2.5 6.8-7.7 8.3-12.7a98 98 0 0 0 4.3-29.9c-1.6 10.8 0 22.9 8 30.3 8 7.3 23.2 6.6 27.7-3.3a17.8 17.8 0 0 0-2-16.5c-3-5-7.9-8.5-12.8-11.4-5.3-3-10.8-5.5-16.6-7.4 11.4 3.7 30.2-3 33.4-15.8 4.3-17-24.8-20.5-30-7.3 6.4-16.5-7.3-50-27.3-30.7Z" fill="#81AD9E"/>
  <path fill-rule="evenodd" clip-rule="evenodd" d="m423.8 145 1.9-1.4c2.2-3.1 5.1-6.4 8.5-9.6 2.7-4 4.7-9 4.7-13.8 0-8.1-2.7-19-9-24.5-7.8-6.5-16.4.3-20.6 7.3a23 23 0 0 0-4.3 15.3 40 40 0 0 0 9.7 24.7l2.1-.5c-.2-3.6.2-7.5.5-11.2l.5-6.4c.1-3.3 0-6.5-.2-9.7-.2-3.8-.3-7.5 0-11.3 0-1.3 4.4-2 4.3-.7v.9c-.2 4 0 8 0 11.9.2 3.5.4 7.1.2 10.7l-.3 5.4c-.4 3.7-.7 7.6-.4 11.2 1 .4 1.8 1 2.4 1.6Zm-12.2 12.3c-1-.8-1.6-2.1-1.6-3.6h-.2a21.5 21.5 0 0 1-8.3 8 52.1 52.1 0 0 0-9.6 18c-2.7 9.5-2.2 23.6 10.6 25 12 1.3 14.9-20 15.2-28.3 0-3-.4-10.9-2.3-16.5a310 310 0 0 1-5 16.4 32 32 0 0 1-10.8 16.5c-1.1.9-5.5.7-3.5-.9 6.7-5 9.4-12.7 11.3-20.5.8-3.1 1.8-6.2 2.7-9.2l1.5-5Zm7.5 1h.5-.4Zm1-.2a9 9 0 0 0 1.5-.5l.2.7c-.4-.3-1-.3-1.6-.2Zm-19.8-11c2.6.6 5.3.8 8 .8a3 3 0 0 1 1.2-.9c-3.3-8.8-11.3-13-20.3-14.3-5.7-.9-11.1-1.6-16.7 1.1-4.6 2.2-7.6 8-7.8 13-.5 10.2 12 15.8 20.7 16.6 4.5.4 8.9-.6 12.7-2.8 2.4-2.8 5.1-5.3 8-7.4l1.2-2.8c-2.7 0-5.5 0-8.1-.6-3.3-.7-7.1-2-10.3-3.2l-3.2-1.7c-1.4-.8-2.7-1.6-4.1-2-2.5-.8 1.3-2.8 2.7-2.3 2.6.7 5 1.9 7.3 3 2.8 1.3 5.6 2.6 8.7 3.4Zm23.1 16.2-.5-1.3.5 5.1c.1 2 .2 4.1.6 6a41 41 0 0 0 6.2 17c6.6 9 25.6 16.2 30.9 1.8 1.6-4.6 3.3-10 1.9-14.9-1.8-6-7.9-10.7-13-13.7a52.7 52.7 0 0 0-18.4-6.6 39 39 0 0 0-6.1-1.6l.2.6c0 .5.2 1 .3 1.4 1.4 4.4 3.4 8.3 6.4 11.9 5.2 6.4 13 15.2 21.2 17.5 2.5.7-1.3 2.7-2.7 2.3-7.5-2-15-9.5-19.9-15.1a47.3 47.3 0 0 1-7.6-10.4Zm3.6-14.6-.3 1.2c7.2 3.8 20.5 3.6 28.2 2.4 11.8-1.9 25.2-7.7 21.6-21.8-2-7.8-6-10.4-14.9-9-6 1-12.1 4.4-17 8-2 1.5-4 3-6.1 4.8a42 42 0 0 1-9.6 10.5l-.4.6 5-1.3 6.3-1.6a34.2 34.2 0 0 0 16.9-10.4c1-1 5.4-1.2 4 .2-3.3 3.7-6.5 7-11.2 9.2-1.5.7-17.3 5.6-22.5 7.2Zm14.7-20.6c.7-1.8 1.2-3.5 1.4-5 1.7-11.2-3.5-29.9-16.1-32.6-12.7-2.8-20 7.4-24.9 17.5-3.5 7.3-2.3 17.3 1.5 25.9a46 46 0 0 0-21.4-4.6c-10.3-.2-21.6 7-22.2 18.1-.6 12.7 16.3 18.5 26.4 18.5 3 0 5.8-.5 8.6-1.3a47.4 47.4 0 0 0-8.5 20.3c-.9 6-1 12.4 3.6 17 3.2 3.1 8 5.3 12.6 5.4 12 .2 16.7-13.5 18.5-23.2 0-.6.2-1.1.3-1.6l.8 2.4a27 27 0 0 0 13.5 15c9 3.8 23.4 5.7 28.2-4.8 3-6.3 5.7-14.5 2.6-21.2-3-6.6-10.1-11.4-16.4-14.4-4.1-2-8.6-3.5-13.2-4.6l2.5.2 2.8.2c6.7.5 13.4-.6 19.9-2.4 12.2-3.4 22.9-11 18.2-25.2-5.2-15.6-23.8-10.2-38.7.4Z" fill="#52525B"/>
  <path d="M358.6 983.5c-6.6 6.4-8 16.7-6 25.7 2 8.9 7 16.8 12 24.6a57.3 57.3 0 0 0-35.5-10.4c-8 .5-17 4-19.1 11.9-1.5 5.8 1.7 12.1 6.6 15.6 5 3.4 11.2 4.5 17.2 4.5 6.7 0 14-1.5 18.3-6.8-6.3 4.4-9 12.5-9 20.2a24 24 0 0 0 6 16.4c4.3 4.3 11.3 6 16.5 3 4.6-2.5 6.8-7.7 8.3-12.7a98 98 0 0 0 4.3-29.9c-1.6 10.8 0 22.9 8 30.3 8 7.3 23.2 6.6 27.7-3.3a17.8 17.8 0 0 0-2-16.5c-3-5-7.9-8.5-12.8-11.4-5.3-3-10.8-5.5-16.6-7.4 11.4 3.7 30.2-3 33.4-15.8 4.3-17-24.8-20.5-30-7.4 6.4-16.4-7.3-50-27.3-30.6Z" fill="#81AD9E"/>
  <path fill-rule="evenodd" clip-rule="evenodd" d="m370.8 1031 1.9-1.4c2.2-3.1 5.1-6.4 8.5-9.5a27 27 0 0 0 4.7-14c0-8-2.7-19-9-24.4-7.8-6.5-16.4.3-20.6 7.3a23 23 0 0 0-4.3 15.3 40 40 0 0 0 9.7 24.7 9 9 0 0 1 2.1-.5c-.2-3.6.2-7.5.5-11.2l.5-6.4c.1-3.3 0-6.5-.2-9.7-.2-3.8-.3-7.5 0-11.3 0-1.3 4.4-2 4.3-.7v.9c-.2 4 0 8 0 11.9.2 3.5.4 7.1.2 10.7l-.3 5.4c-.4 3.7-.7 7.6-.4 11.2 1 .4 1.8 1 2.4 1.6Zm-12.2 12.3c-1-.8-1.6-2.1-1.6-3.6h-.2a21.5 21.5 0 0 1-8.3 8 52.1 52.1 0 0 0-9.6 18c-2.7 9.5-2.2 23.6 10.6 25 12 1.3 14.9-20 15.2-28.3 0-3-.4-10.9-2.3-16.5a310 310 0 0 1-5 16.4 32 32 0 0 1-10.8 16.5c-1.1.9-5.5.7-3.5-.8 6.7-5 9.4-12.8 11.3-20.6a160.4 160.4 0 0 1 4.2-14.1Zm7.5 1h.5-.4Zm1-.2 1.5-.5.2.7c-.4-.3-1-.3-1.6-.2Zm-19.8-11c2.6.6 5.3.8 8 .8.2-.3.6-.7 1.2-.9-3.3-8.8-11.3-13-20.3-14.3-5.7-.9-11.1-1.6-16.7 1.1-4.6 2.3-7.6 8-7.8 13-.5 10.2 12 15.8 20.7 16.6 4.5.4 8.9-.7 12.7-2.8 2.4-2.8 5.1-5.3 8-7.4l1.2-2.8c-2.7 0-5.5 0-8.1-.6-3.3-.7-7.1-2-10.3-3.2l-3.2-1.7c-1.4-.8-2.7-1.6-4.1-2-2.5-.8 1.3-2.8 2.7-2.3 2.6.8 5 1.9 7.3 3 2.8 1.3 5.6 2.6 8.7 3.4Zm23.1 16.2-.5-1.3.5 5.1c.1 2 .2 4.1.6 6a41 41 0 0 0 6.2 17c6.6 9 25.6 16.2 30.9 1.8 1.6-4.6 3.3-10 1.9-14.9-1.8-6-7.9-10.7-13-13.7-5-3-10.5-4.8-16.2-6l-2.2-.6c-1.8-.5-4.1-1.3-6.1-1.6l.2.6c0 .5.2 1 .3 1.4 1.4 4.4 3.4 8.3 6.4 11.9 5.2 6.4 13 15.2 21.2 17.5 2.5.7-1.3 2.7-2.7 2.3-7.5-2-15-9.5-19.9-15.1a47.5 47.5 0 0 1-7.6-10.4Zm3.6-14.6-.3 1.2c7.2 3.8 20.5 3.6 28.2 2.4 11.8-1.9 25.2-7.7 21.6-21.8-2-7.8-6-10.4-14.9-9-6 1-12.1 4.4-17 8-2 1.5-4 3-6.1 4.8a42 42 0 0 1-9.6 10.5l-.4.6 5-1.3 6.3-1.6a34.3 34.3 0 0 0 16.9-10.4c1-1 5.4-1.2 4 .2-3.3 3.8-6.5 7-11.2 9.2-1.5.7-17.3 5.6-22.5 7.2Zm14.7-20.6c.7-1.8 1.2-3.5 1.4-5 1.7-11.2-3.5-29.9-16.1-32.6-12.7-2.8-20 7.4-24.9 17.5-3.5 7.3-2.3 17.3 1.5 25.9a46 46 0 0 0-21.4-4.6c-10.3-.2-21.6 7-22.2 18.1-.6 12.7 16.3 18.5 26.4 18.5 3 0 5.8-.5 8.6-1.3a47.4 47.4 0 0 0-8.5 20.3c-.9 6-1 12.4 3.6 17 3.2 3.1 8 5.3 12.6 5.4 12 .3 16.7-13.5 18.5-23.2 0-.6.2-1.1.3-1.6l.8 2.4a27 27 0 0 0 13.5 15c9 3.8 23.4 5.7 28.2-4.8 3-6.3 5.7-14.5 2.6-21.2-3-6.6-10.1-11.4-16.4-14.4-4.1-2-8.6-3.5-13.2-4.6l2.5.2 2.8.2c6.7.5 13.4-.6 19.9-2.4 12.2-3.4 22.9-11 18.2-25.2-5.2-15.6-23.8-10.2-38.7.4Z" fill="#52525B"/>
  <path d="M62.9 1389.6a43 43 0 0 1-10-5.9c-2.8-2.4-4.9-5.5-7-8.6a34 34 0 0 1-7.3-17c-.3-6.2 4.4-13 10.6-12.7 1.2 0 2.4.4 3.6 0 1.4-.4 2.3-1.8 3.2-3.1a22 22 0 0 1 9-8.4c3.8-1.7 8.7-1.6 11.8 1.1 2.4 2 3.8 5.5 6.9 6.3 3.7 1 7-2.6 10.7-3.9 5.6-2 12.5 3.1 12.3 9 0 1.4-.3 3 .7 4 .5.4 1.3.5 2 .5 4.3.4 9-.3 12.6 2 3.2 2.1 4.7 6.3 4.4 10.1-.3 3.9-2.1 7.5-4.2 10.7a57.3 57.3 0 0 1-26.8 22.8c-13.4 5-20.8-1.3-32.5-6.9Z" fill="#CFA1A1"/>
  <path fill-rule="evenodd" clip-rule="evenodd" d="M45 1347.7c.8.7 2.8.8 3.9.2a23 23 0 0 1 12.1 8c1.8 2.6 2.8 5.6 3.7 8.5.5 1.6 5.4 1.4 5-.6l-.7-2c-1.5-5-3.6-12-.2-16 2.9-3.4 10.7-4.6 13.3-.2-1 3-.6 6 1.7 8.5 1 1 4.6 1.1 4.8-.6.3-2.7-.3-5.3-1.4-7.7 2-6.7 10.2-13.8 15-8.6 1.6 1.9 2.5 4.2 2.8 6.7l-.9.3c-1.5.8-.4 1.6 1 1.9.2 3.6-.6 7.5-1.2 11l-.6 3.7c-.3 1.8 4 1.2 4.7.7 3.2-2.2 10.6-.8 12.5 2.4a12.3 12.3 0 0 1 1.2 5.6v1.4a25 25 0 0 1-3.4 13c-2.1 3.6-5.2 6-8.7 7.4a7 7 0 0 0 .3-3.6c-.1-.6-.7-1-1.3-1-1.7-.5-3.4-.6-5-.4h-.3c-3.1-1.1-6.2.2-9 1.6l-1.1.5-2.1 1-.3-1.5a33 33 0 0 0-1.2-4.5c-1-2.6-2.3-4.5-5.3-4.3a6 6 0 0 0-1 .2c-1.5-.4-3.5 0-3.8 1.1-.5 1.9-1 4.6-1.3 7.6-2.4-3-5.1-5.3-8.4-5.7-.6 0-4 0-3.2 1.5 1.8 3 3.8 5.8 6.3 8.3l2.2 1.7a15.2 15.2 0 0 0-9.2-2.8c-.6 0-1.2.1-1.6.3a128.9 128.9 0 0 1-4.3-2.7 50.7 50.7 0 0 1-17-14.4c-3.7-5.4-7.4-15.3-4.2-21.7a8 8 0 0 1 6.2-4.8Zm16.7 45.6-.5-.3c-10.8-6.2-22.5-13-26.7-25.6-3.3-9.8-1.6-21.1 10-22 0-4.7 4-9.4 8-11.3a10 10 0 0 1 7.2-.5c1 .2 3 1.4 4.4 2.3l1.7 1a7 7 0 0 0 1.5-2.6c.7-1.5 1.6-3.3 2.7-4 2-1.2 4.8-1.5 7-1.2 6.1.9 8.3 4.2 9.7 9 3-3.1 6.8-5.5 10-6 8.1-1.2 11.4 3.8 12.4 10.2 2.7-.9 5.5-1.3 8.3-.7 1.9.4 3.6 1.4 4.8 2.9.9 1 1.2 2 1.4 3.1.2.8.5 1.7 1 2.4.5 1 1.5 1.6 2.5 2.2.9.4 1.7 1 2.4 1.6a10 10 0 0 1 2.6 5c.7 4-1.3 6.2-3.4 8.5l-1.9 2.1c.5 6.4-1.7 13.3-5.5 18a23 23 0 0 1-15.5 8 20.5 20.5 0 0 1-4.8 2l-.7.3c-4.2 2.5-9.3 4.8-12.8 4.4h-.1c-2.2 1.2-3.7.8-5.6.3a48.8 48.8 0 0 0-6-1c-3.7-.6-7.4-1.2-10.6-2.7-2.9-1.3-4.2-3.6-3.5-5.4Zm23.7-6.7a42 42 0 0 0-.5-1.6l.1 1.5.4.1Zm1 6.2-.3-.1v.4l.3-.3Zm22.5-35.8c.4-3.5.8-7.8.6-11.8 1-.4 2-.9 3-1 5.2-.6 5.8 1.6 6.5 4.3l.5 1.7c.6 1.9.7 2 2.2 2.9h.1c.6.5 1.2.7 1.6 1 1.3.7 2.2 1.1 3 3 1 2 .9 3.6.2 5.6l-.8 1.7a15 15 0 0 0-2.6-4.8c-4.3-5.5-9.4-5-14.3-2.6Zm-59.5-11.5c5.3.7 9.8 3 13.3 6.6 0-5 1.3-9.6 5.4-12.2-.6.3-1.3.5-2.2.5-2 0-3-1-4.2-2a9 9 0 0 0-2.7-2c-4.5-1.9-9.7 4.6-9.6 9Zm19-5.8a13.6 13.6 0 0 1 13.7.3l-.1-.8c-.5-3-1-6.2-4.5-7-4.4-1.2-5.1.8-6 3-.2.7-.5 1.5-1 2.2-.6 1-1.3 1.8-2.1 2.3Z" fill="#52525B"/>
  <path d="M399.9 345.6c-3.5-1.7-7-3.4-10-5.9-2.8-2.4-4.9-5.6-7-8.6a34 34 0 0 1-7.3-17c-.3-6.2 4.4-13 10.6-12.7 1.2 0 2.4.4 3.6 0 1.4-.4 2.3-1.8 3.2-3.1a22 22 0 0 1 9-8.4c3.8-1.7 8.7-1.6 11.8 1.1 2.4 2 3.8 5.5 6.9 6.3 3.7 1 7-2.6 10.7-3.9 5.7-2 12.5 3.1 12.3 9 0 1.4-.3 3 .7 4 .5.4 1.3.5 2 .5 4.3.4 9-.3 12.6 2 3.2 2.1 4.7 6.3 4.4 10.1-.3 3.9-2.1 7.5-4.2 10.7a57.4 57.4 0 0 1-26.8 22.8c-13.4 5-20.8-1.3-32.5-6.9Z" fill="#CFA1A1"/>
  <path fill-rule="evenodd" clip-rule="evenodd" d="M382 303.7c.8.7 2.8.8 3.9.2a23 23 0 0 1 12.1 8c1.8 2.6 2.8 5.6 3.7 8.6.5 1.5 5.4 1.3 5-.6l-.7-2.1c-1.5-5-3.6-12-.2-16 2.9-3.4 10.7-4.6 13.3-.2-1 3-.6 6 1.7 8.5 1 1 4.6 1.1 4.8-.6.3-2.7-.3-5.3-1.4-7.7 2-6.7 10.2-13.8 15-8.6 1.6 1.9 2.5 4.2 2.8 6.7-.3 0-.6.2-.9.4-1.5.7-.4 1.5 1 1.8.2 3.6-.6 7.5-1.2 11l-.6 3.7c-.3 1.8 4 1.2 4.7.7 3.2-2.2 10.6-.8 12.5 2.4a12.3 12.3 0 0 1 1.2 5.6v1.4a25 25 0 0 1-3.4 13c-2.1 3.6-5.2 6-8.7 7.4a7 7 0 0 0 .3-3.6c-.1-.6-.7-1-1.3-1-1.7-.5-3.4-.6-5-.4h-.3c-3.1-1.1-6.2.2-9 1.6a102 102 0 0 1-3.2 1.5l-.3-1.4c-.3-1.6-.7-3.2-1.2-4.6-1-2.6-2.3-4.5-5.3-4.3l-1 .2c-1.5-.4-3.5 0-3.8 1.1-.5 1.9-1 4.6-1.3 7.6-2.4-3-5.1-5.3-8.4-5.7-.6 0-4 0-3.2 1.5 1.8 3 3.8 5.8 6.3 8.3l2.2 1.7a15.2 15.2 0 0 0-9.2-2.8c-.6 0-1.2.1-1.6.3l-2.1-1.4-2.2-1.3a50.8 50.8 0 0 1-17-14.4c-3.7-5.4-7.4-15.3-4.2-21.7a8 8 0 0 1 6.2-4.8Zm16.7 45.6-.5-.3c-10.8-6.2-22.5-13-26.7-25.6-3.3-9.8-1.6-21.1 10-22 0-4.7 4-9.4 8-11.3 2.3-1.1 4.8-1.2 7.2-.6 1 .3 3 1.5 4.4 2.4l1.7 1a7 7 0 0 0 1.5-2.6c.7-1.5 1.6-3.3 2.7-4 2-1.2 4.8-1.5 7-1.2 6.1.9 8.3 4.2 9.7 9 3-3.1 6.8-5.5 10-6 8.1-1.2 11.4 3.7 12.4 10.1 2.7-.8 5.5-1.2 8.3-.6a7.5 7.5 0 0 1 6.2 6c.2.8.5 1.7 1 2.4.5 1 1.5 1.6 2.5 2.2.9.4 1.7 1 2.4 1.6a10 10 0 0 1 2.6 5c.7 4-1.3 6.1-3.4 8.5l-1.9 2.1c.5 6.5-1.7 13.4-5.5 18a23.1 23.1 0 0 1-15.5 8 20.4 20.4 0 0 1-4.8 2l-.7.3c-4.2 2.5-9.3 4.9-12.8 4.4h-.1c-2.2 1.2-3.7.8-5.6.3l-1.4-.3-4.7-.8c-3.6-.5-7.3-1.1-10.5-2.6-2.9-1.3-4.2-3.6-3.5-5.4Zm23.7-6.7a39.1 39.1 0 0 0-.5-1.6l.1 1.5.4.1Zm1 6.2-.3-.1v.4l.3-.3Zm22.5-35.8c.4-3.5.8-7.8.6-11.8 1-.4 2-.9 3-1 5.2-.6 5.8 1.6 6.5 4.3l.5 1.7c.6 1.9.7 2 2.2 2.9h.1c.6.5 1.2.7 1.6 1 1.3.7 2.2 1.1 3 3 1 2 .9 3.6.2 5.6l-.8 1.7a15 15 0 0 0-2.6-4.8c-4.3-5.5-9.4-5-14.3-2.6Zm-59.5-11.5c5.3.7 9.8 3 13.3 6.6 0-5 1.3-9.6 5.4-12.2-.6.3-1.3.5-2.2.6-2 0-3-1-4.2-2.2a9.5 9.5 0 0 0-2.7-1.9c-4.5-1.9-9.7 4.6-9.6 9Zm19-5.8a13.6 13.6 0 0 1 13.7.3l-.1-.8c-.5-3-1-6.2-4.5-7-4.4-1.2-5.1.8-6 3-.2.7-.5 1.5-1 2.2-.6 1-1.3 1.8-2.1 2.3Z" fill="#52525B"/>
  <path d="M456.3 931c6.7 5.3-1.6 15.7-8.4 10.3-6.7-5.4 1.7-15.8 8.4-10.4Zm26.7-28.3c6.8 5.4-1.6 15.8-8.3 10.4-6.7-5.4 1.6-15.8 8.4-10.4ZM356.2 776.6c6.7 5.4-1.6 15.8-8.4 10.4-6.7-5.4 1.6-15.8 8.4-10.4Zm-50.6 13c6.7 5.4-1.6 15.8-8.3 10.4-6.8-5.4 1.6-15.8 8.3-10.4Zm21.7-34.3c6.7 5.4-1.7 15.8-8.4 10.4-6.7-5.5 1.6-15.9 8.4-10.4Z" fill="#CFA1A1"/>
  <path fill-rule="evenodd" clip-rule="evenodd" d="M460.4 875c1-3.9-.5-6.5-3.6-8.9-.8-.6-1.1-.3-1.1.3h-.2c-1.4-.2-3-.4-4 .5-1.3 1-1.9 2.8-2.2 4.3a7 7 0 0 0 0 3.3 107 107 0 0 1-46.1 17.3 55.9 55.9 0 0 0-6.3-1.2l1-.3a83.6 83.6 0 0 0 29.7-20.6c2.4.7 4.1-.8 5.4-3 1.6-2.7 1.3-5.7-1.3-7.5-.8-.6-1.2-.4-1.2 0-.7-.8-1.6-1.4-2.7-1.4-2 .1-3 2-3.9 3.6-.7 1.4-1.4 2.8-.8 4.4a8 8 0 0 0 1.5 2.1 80.5 80.5 0 0 1-36.3 22.3c4.2-2.7 8-6 11.7-9.5 5.7-5.4 10.8-11.4 15.7-17.6l.5-.6c4-4.9 8.2-10.1 11-15.7.5-.9-1.2-3.3-2.2-2.6-4 3-8.3 4.7-12.8 6.5-2.4 1-4.9 2-7.3 3.2a65.6 65.6 0 0 0-16 11.2c-4.3 4.2-8.9 8.6-12.5 13.6-1.9 2.7-3.6 5.6-5.4 8.4l-3.7 5.9c-.1.2 0 .5 0 .8l-1.3.4a387 387 0 0 0-63 21 111 111 0 0 0 27.7-35.8c7.4 1.9 16.4-6.7 21.5-11.5l.7-.7c5.4-5.1 9.3-11 13.2-16.9l4.8-7c.6-.8-1.5-3.4-2.2-2.6a42.3 42.3 0 0 1-14.4 9.4 60 60 0 0 0-11.6 6.7A145.8 145.8 0 0 1 368 824c.8 1.2 1.6 2.3 3 2.7 1.8.5 3.7-.4 5-1.6 1.2-1.1 2.7-2.7 2.8-4.5.1-1.6-.7-3.3-1.7-4.5a6 6 0 0 0-8.9-.2c-1.6 1.6-3 3.5-2.5 5.4-7 6.6-12.5 13.5-18 21.4l-.1.2a141.2 141.2 0 0 0-10.8 17.8l.3-1.7 3.3-11.1v-.4c2.5-8 4.9-16 9.4-23l.2.1h.5l.3-.2.2-.5c2.2.5 4.3-.3 5.7-2.6a6 6 0 0 0-2.3-8.3c-2.9-1.5-6.7 1.1-8.1 3.5-1.2 2-.5 4.3.9 6-4.5 7-6.8 15-9.2 23l-.5 1.8a97 97 0 0 0-2-10.5c-1.6-7-3.3-14-1.5-20.7.3-1-1.6-3.7-2.3-2.4-1.4 2.3-2.4 5-3.5 7.5l-2 4.9a89.3 89.3 0 0 0-4.7 11.7 53 53 0 0 0-2 21.6c.5 5 2.7 9.3 5.2 13.5l.5.8 1.3 2.3-.3.6c-.3.6.3 1.7 1 2.3v.1c-7.9 16-21.3 30.6-35.6 40.6-.3.2-.3.7-.1 1.2a131.2 131.2 0 0 0-48.3 41.9l1.1-5.7a99.3 99.3 0 0 0 1-21.8c-.2-7.8-.2-15.6 1.2-23.3.7-4 2-7.8 3.3-11.6 1.1-3.2 2.2-6.5 3-9.8.1-.7-1.6-3.2-2.3-2.4-8.8 10.7-18.9 23.1-19.2 37.8a99.2 99.2 0 0 0 7.4 41.3l-.6 1.7-1.1 2.5c-.4 1-.9 1.8-1.2 2.8a155.4 155.4 0 0 0-11.2 24c-2.8 7.6-5.1 15.3-7.5 23l-3.2 10.2c-.4 1.2 2 3.6 2.3 2.5l3.3-10.5c2.4-7.8 4.8-15.6 7.6-23.2a5 5 0 0 0 1-.8l.2-.1c.6.5 1.2.8 1.2 0v-.9c2-1.2 4-2 6.4-2.8 3.7-1.3 7.5-2.1 11.3-2.9 7.2-1.4 14-3 20.8-5.8 7.3-3 14.3-6.4 20.3-11.7 2.9-2.6 5.5-5.5 8-8.4a124 124 0 0 1 7-7.4l.9-.8c.8-.9-1.2-3.6-2-2.8l-1 .8c-4.2 3.5-11.5 4-17.8 4.5l-6.5.7a67 67 0 0 0-21.3 8.5c-6.6 3.6-13.2 7.4-18.9 12.4l-3.7 3.6a130 130 0 0 1 4.2-8c.3.2.6 0 .6-.4l.2-1a135 135 0 0 1 30.4-36.6c27.6-23 64.1-34 98.5-43l1.8-.2c.5.6 1.1 1 1.6 1 1.7 1.7 4.2 3 6 4a76.8 76.8 0 0 0 21 7.6 54 54 0 0 0 23.3-1.6l6.2-2c3.8-1.4 7.7-2.8 11.5-3.2l3-.2c1.3-.2-.6-3-1.7-3-.8 0-1.7 0-2.5.2-4.4 0-8.4-1-12.5-2.2l-5.6-1.4c-3-.7-6-1.6-8.9-2.5l4-.8c13.3-3 25.7-7.8 36.9-15.6.5.6 1 1 1.7 1.5 1.2.7 2.7 1.3 4 .8 2-.6 3.2-3 3.6-4.7Zm-220.7 89.6c-2-5.5-3.3-11.9-4.4-17.3a81.3 81.3 0 0 1-1.3-21.2 56.3 56.3 0 0 1 14-29.5l-.6 2.1a78.7 78.7 0 0 0-4.4 34.7c.3 7.6 0 15.3-1.2 22.8-.5 2.9-1.3 5.6-2.1 8.4Zm1.2 19.5c-2.9 2.4-7 5.8-9.4 9.6l1.5-.5.4-.2c3.8-1.3 7.5-2.2 11.4-3 8-1.6 15.4-3.4 23-6.6a64.9 64.9 0 0 0 26.6-19.4l1.2-1.2c-2.8.6-5.6.9-8 1.1l-1.9.2c-9 1-16.4 3-24.5 7.3-7 3.6-13.8 7.4-20 12.4l-.3.3Zm107.5-163.9v-.6c.2-.5.6-.9.9-1.3l1.4-1.3c1-.6 3.3-2.1 4.2-1 1 1.2-.7 3.6-1.7 4.3-1.5 1.2-3 1.3-4.5.1l-.3-.2Zm20.3 2-.4-.6v-.1l.6-.9c.6-.8 1.3-1.7 2.1-2.4 1.2-.9 4.1-2 5.2-.4 1.1 1.7-1.8 4.5-3 5.3-.9.6-2.4 1.3-3.4.5-.4-.3-.8-.9-1.1-1.4Zm-37 45.8.1-.2 3-10.7a53.6 53.6 0 0 0-1.7-23.5c-.9-3.7-1.8-7.4-2-11.2l-2 4.9-1.9 4.2c-2.5 5.8-4.6 12-5.2 18.3-.5 5.6-.5 11.5 1.5 16.8.3.6 2.4 5.3 4 7.7.3-.9.7-1.8 1.2-2.6.9-1.3 2-2.5 3-3.7Zm31-18.4-1.4.8.5.6.9-1.4Zm88.9 24.6c.7.6 1.2 1.7 1 2.2 1.6 1.5 3.8 0 4.7-1.8.5-1 1-2.1 1-3.2 0-1-.1-1.5-.5-2h-.6c-1.6-.2-3.3-.4-4.2.9a7 7 0 0 0-1.4 3.9Zm-25.6-7.5.5.1 1 .2c1.3 0 2.2-1.3 2.9-2.3l1-1.9a4 4 0 0 1-1-.8c-.7-1-1.3-1.4-2.4-.6-.8.6-1.2 1.5-1.7 2.3l-.2.5-.2.3c-.3.5-.7 1.2-.6 1.6 0 .2.4.4.7.6Zm-28.7 32.8 1.2.4-1.4.1.2-.5Zm17 6.5h1.4l-1 .3a3 3 0 0 0-.4-.3Zm-33.4-4-3.8-1.6h.1c1.2.6 2.5 1 3.7 1.4v.2Zm34.5-3.7a106.4 106.4 0 0 1-1.6-.2l1.6.2Zm-12.7 5h-.3l1 .2h.1l-.8-.3Zm18-3.9 3.4.8a82.7 82.7 0 0 0-2.7-.2h-.2l-.4-.6Zm4.3 1Zm3.7 1.8-.6-.9 1.7.5-1.1.4Zm-58-8.3 2.7-4.3a95.6 95.6 0 0 1 19.1-23c4.7-4.4 10.4-8 16.2-10.7l5-2 7.5-3.3c-2.8 4-6 7.8-9 11.4l-.5.6a155 155 0 0 1-13.8 15.3 54.4 54.4 0 0 1-27.2 16Z" fill="#52525B"/>
  <path d="M257.8 665.1a17 17 0 0 0 .9 16.3c2.8 5 7.5 8.6 12.5 11.3 4.3 2.3 9.7 4 14 1.7 23.7-12-8-66-27.4-29.3ZM402 600.3c-6.6.6-13.3 5.4-14.4 12-.5 3 0 6 .9 9a24.3 24.3 0 0 0 9.9 14.6c6.1 3.6 14 2.8 20.6.3 4-1.5 8.1-4.1 8.6-8.3.2-2-.5-4-1.2-6-4.8-13-8.1-22.4-24.3-21.6Zm-18.6 77c-2.5 5.2 0 11.4 3.3 16 3.8 5.3 9.5 10 16 9.4 12.6-1.2 16.3-20.1 10.4-29.3-6.5-10.1-24.8-6.4-29.7 3.9Z" fill="#81AD9E"/>
  <path fill-rule="evenodd" clip-rule="evenodd" d="m404.6 630-.7.4a14.8 14.8 0 0 0-1.8 9.2c1 5 8.6 6.4 12.3 3.3 2-1.7 6.1-7.4.4-9.2-1.3-.4-3-2.8-.6-2.3l1.8.4c4.5 1 8.7 2 12.6-1.6 6.3-5.8-1.5-12-7.2-8.2-1 .7-4.4-1-3.3-2.2l.2-.1c2.3-2.4 4.6-4.7 4.9-8.1.4-4.6-.7-5.5-5-7-4.4-1.8-5.2-1.9-7.5 2l-.9 1.9c-.3.7-.6 1.5-1.1 2.2-.9 1.3-3.5-.5-3.7-1.6-1.2-6.3-12-8.1-12-.8 0 .3.7 3 1.9 4.9 1.7.3 3.4 1.2 4.6 2.1.6.4 1.6 1.5.4 1.9-1.5.5-3.3-.2-4.9-1.3-5.8 1.4-8.9 20 2.9 14a244.9 244.9 0 0 1 2.8-2l1.2-1.4c.6-.6 2 .1 2.6.5l.3.2c1.3.9 1 1.5.2 1.7l-.2.3c0 .3 0 .5-.2.7Zm-52 36.8-1.3 1.3c-2-5.6-.3-16.5 1-20.4a34 34 0 0 1 11.6-15.5 42.4 42.4 0 0 1-.9 6c0 1.1-.2 2.2-.3 3.2-.4 4.1-.8 8.2-2.2 12.2a33.6 33.6 0 0 1-7 12.3l-1 1Zm-4.8-17.6c-1.2 5.8-2.3 16.8 2 21.6v.8c0 .2 0 .5.3.7a259 259 0 0 0-31.6 38.8 257 257 0 0 0-11.9 20.6c-4 7.7-7.9 15.6-11.7 23.5l-3.7 7.7-.5 1a48.4 48.4 0 0 1-12.2-19.4l.2-.2c.9 0 1.2-.8.3-1.7 6-1.5 11.2-9.4 14.1-13.9 5.9-9 8-18.3 6.5-29-.1-1-2.8-2.8-3.6-1.5a85.3 85.3 0 0 1-8.9 10.9c-5.4 6-10.9 12-12.9 19.6a469.5 469.5 0 0 1-2-9.7 68.2 68.2 0 0 1-2.2-17.2c0-1.8 0-3.7.2-5.5 1.3 1.5 3.1 2.7 5.4 3.5 5.5 2 10.4-3.4 10.7-8 4 .5 8.5-2 9.6-6.3 1-4-3.2-9.4-7.6-11.4 5.4-5.1 12.8-14 4-19.2-3.2-2-7.1-2.4-10.2 0-1 .8-2 1.8-2.9 3a11 11 0 0 0-10.4-4.8c-4 .6-6.3 4.5-6 8.5 0 2 1 4 2.3 5.6-5.4.3-11 5.2-11.2 11a9 9 0 0 0 5.8 8.6c2.8 1.1 5.5 1 8 .3a41.1 41.1 0 0 0-1.3 11.6v2.6c-.2 6.5 1.2 13 2.6 19.3l1.2 5.7c1 4.7 2 9.3 3.5 13.8a31.2 31.2 0 0 0-35.7-1.4c-2.3 1.3-6.7 3.7-6.3 6 .3 1.2 1.7 1.7 2.9 2l.7.3a93 93 0 0 0 17.3 4.9c4.7.7 8.6.2 13.1-1 4.4-1 7.1-2.5 10.2-4.6l1.1 2.7a48 48 0 0 0 12.7 17l-10.4 20.8-1.3 2.6c-2.2 4.5-4.4 8.9-7.2 13l-1 1.6a18 18 0 0 0-3.8 8.3c-.1 1.3 2.5 2.3 3.5 1.8l.8-.4c.5-.3.2-.9-.4-1.4.7-3 2.7-5.6 4.5-8.2l2.6-3.8a120 120 0 0 0 4.1-8l1.7-3.4.5-1 9.7-19.4c1.3.3 2.8 0 1.3-1.2l-.5-.5a972.7 972.7 0 0 0 4.6-9.6 722 722 0 0 1 11.6-23.3c11.5-1.5 22.4-4.4 32.9-9a32 32 0 0 0 19.7 14.6c5.1 1.2 8.7.5 13.8-1.2l2-.6c4.1-1.2 9.2-2.7 11.7-5.8.6-.8-1.5-2-1.9-2-3.6-1.3-7-2.9-10.5-4.4-5.3-2.4-10.5-4.8-16.3-6a34 34 0 0 0-7.3-.3l6.4-3.5c5.6-3 11-6.1 16.3-9.7 4.7-3.2 9-6.9 13-10.9-1 7.1 2.8 14.9 11.5 13.6 4-.6 10-4.1 9.3-8.9 2.2 0 4.4-.5 6-2 3.6-3.1 2.2-8.2-.8-11.8 4.2-1.2 6.7-4.3 7.2-9.2.5-4.7-1.7-8.7-6.3-10.3-3.5-1.2-6.6-.8-9.3.8a8 8 0 0 0-7-7.3c-6.9-1.1-11.7 4.3-10 10-6.1-1.9-12 1.7-13.1 9.4-.6 3.8.9 7 4 9a12.9 12.9 0 0 0 7.7 2c-10.9 10.7-23 18-36.4 25.6a121 121 0 0 1-41 14.7 248 248 0 0 1 23-35c4 3.5 8.4 5.8 14.1 5.6 7.2-.3 14.5-5.7 20.4-10l2-1.4c.7-.5-.2-1.5-.7-1.8-5.2-3.3-13.6-2.8-19.4-2.4-2.4 0-5.9.5-9.2 1.4 5.6-6.5 11.6-12.7 17.7-18.8 12.2-12.2 25-23.8 38.7-34-.6 6.5 4.2 13 11.8 13.4 4.7.3 10.7-3.4 11.3-8.5.3-1.6-.2-3-1.1-4.2 2.6.6 5.3.8 8.1-.2 4-1.5 7.3-5.3 6.4-9.7-1-4.5-5.5-7-10-7a11 11 0 0 0 1.8-9.3c-.6-3-2.1-5.8-4.7-7.5a10.9 10.9 0 0 0-8.6-1.6c-3.1.8-4.6 3-6 5.6a10 10 0 0 0-5.8-5c-3.7-1.4-8.5-1.7-10.9 2.2-2.3 3.6-1.4 7.8 1.4 10.7l-1.3.5c-3.6 1.9-6 9-4.7 12.7 1.1 3.9 4.7 5.7 8.5 6-11.4 8.6-22 18-32.3 28 1.6-3.4 2.8-7 3.5-10.6.7-3.5 1-7.1 1.3-10.8a348.3 348.3 0 0 1 .3-4.3c.3-2 .5-4-.6-5.8-.5-.8-2.3-1.8-3.2-1.2-7.4 5.8-13.6 12-15.6 21.5Zm-73.9 94a23.5 23.5 0 0 1-7.1 4.3 39.2 39.2 0 0 1-10.6 2.3c-4.3.1-9-1-13-2.5l-3.3-1c-1.5-.3-3-.7-4.3-1.3 1.3-3.5 12.5-7.4 14.7-8a26 26 0 0 1 23.6 6.3Zm75.8-14a25.7 25.7 0 0 0-3.4-4.2c6-4.9 16.2-3.1 22.6-1 3.5 1 6.8 2.6 10 4.1l6.6 3c-2 1.5-5.3 2.6-7.8 3.4l-1.6.6-.4.1c-4 1.4-8.3 3-12.5 2.3A24 24 0 0 1 352 732c-.7-.5-1.5-1.6-2.3-2.9Zm-13.4-34.9c.9.2 1.6 0 .9-1-.8-1 14-4.9 15-5a58.2 58.2 0 0 1 10 0c1.3 0 3 0 4.3.3-4.3 3-9 6.2-13.6 8.3a15 15 0 0 1-10.8 1c-2.8-.8-4.1-1.9-5.8-3.6ZM277 740c5.9-2 11.5-11.4 14-15.8a37.8 37.8 0 0 0 5.4-19.8c-1.8 2.2-3.7 4.3-5.7 6.4-7 7.7-14 15.4-13.5 26.4 0 .4-.3.6-.8.6l.6 2.2Zm-2.1-59.2h-.4c.7.5 1 1 .7 1.4l-.2.2v.1a24.7 24.7 0 0 1-.6.6 17 17 0 0 0-3 6c-.2.6-.2 1-.2 1.3.3 6.8 7.3 8.9 10.2 3.6.2-.4 1-2.2 1.3-3.7a7 7 0 0 1-2.3-3.4c-.3-.9.6-1 1.3-1 2.4.7 3.7 2 4.3 3.6 2.4.2 5.8-3.4 6.1-5.1.3-1.4-2.4-9.5-6.1-8.3-.9.2-4.2-1.3-3-2.4l.6-.5c3.5-3 6.7-5.7 8.3-10.2 2-3.7 0-5.9-5.9-6.5l-2.5 2.5a14 14 0 0 0-2.2 3.4c.4 1.6.4 3.2 0 4.7-.2 1.4-3.2-.7-3.5-1.3-.7-1.4-.8-3-.3-4.5l-1.1-1.9-.2-.2c-.7-3-2.4-3.6-5.1-1.9-2.2-.5-3.5 0-4 1.6-2 2.7-.2 6.4 2.1 9 1.3.7 2.4 1.6 3.4 3 1.2 1.8-1.9 1-2.6.6-1-.6-2-1.4-3-2.2-3.7-.6-8.6 6-9 8.8-.5 1.5-.5 3 .1 4.5l2.4.6 4.9 1.4a9 9 0 0 0 3.3-1.6c.8-2.7 2.3-5.3 5.2-4.7 1.4.3 3.6 3 1 2.5Zm122.7 8.2c-2.3 2-3 5-3.7 7.8a9.5 9.5 0 0 0-.2 6.6c3.5 3 6.8 3.3 10 .9 1.3-1 2.4-2.3 3-3.8l-1-2c-.8-.4-1.4-.8-2-1.3-1.7-1.4-3-3.8 0-4.1 1.5-.1 3.5 1.4 4.9 3l2.4.8c2-.6 3.3-1.8 4-3.7.3-3.1-.5-5.4-2.3-6.6-2.7.2-6.7 0-7.2-3.3 0-.2.1-.3.3-.4 2.1-1.7 5-1 7.5.8a11 11 0 0 0 5.5-6c1-3.4 1.3-8.6-4.3-9.3-3.4-.4-6 2.2-7.8 4.6-.9 1-4-.5-3.6-1.9 1.3-3.8.2-9.7-5.4-8-4.3 1.4-5.1 5.9-3 9.4 1.2 1.8-1.7 1-2.4.6-5.7-3.9-12 3.6-11.5 9.2.5 6.8 4.3 6 8.1 5.2l3.4-.5.6-.6c.4-.4 1.2-.3 2 .1.7 0 1.6.4 2.1.7l.3.2c1.4.8 1 1.5.3 1.6Z" fill="#52525B"/>
  <path d="M80 1042.4c-3.2-.2-7-1-8.4-3.9-.8-1.6-.5-3.6-.2-5.4a39 39 0 0 1 9.2-18.1c1.2-1.4 2.6-2.8 3-4.6.7-2.1 0-4.4-.7-6.4-1.5-5.2-1.4-12.1 3.5-14.2 4.4-1.8 9.8 1.8 14.1-.4 5.1-2.6 4.6-11.6 10-13.4 4.2-1.4 8.9 2.6 12.8.7 2.7-1.3 3.7-4.8 6.5-5.8 4-1.5 7.5 3.1 8.7 7.2a63 63 0 0 1-9.9 51.3c-10 12-34.1 13.9-48.5 13Z" fill="#CFA1A1"/>
  <path fill-rule="evenodd" clip-rule="evenodd" d="M81.2 1025.3c-1.8.2-13.8 1.1-13.4 5.2.3 2.5 8 2.8 11.5 3H81c1.5.3 0 2.6-.3 3.1-.5.5-1.1 1-1.8 1.4-.7.4-1.3 1-1.7 1.4-2.1 3 1.6 4.2 4.3 4.8 4.4 1 12.5 0 16.6-3.6v-.8c-4.5-1.8-9.9-4.8-8.3-10 .2-.8.5-1.5 1-2.1l-2.7-.8a212.5 212.5 0 0 0-2.6-.7l-3.6-1-.6.1Zm-3 22.4c7.2 2.2 17.8-.6 22.7-7 1 .3 2.2.4 3.3.5 1.4.2 2.8.3 4 .8 1.1.4 2 1 2.8 1.5l2.6 1.5c3.5 1.4 7.6.7 10.8-1 3.2-1.9 6.3-5.5 8.6-9.3 6.5 4.8 12.6 10.3 18.2 16.1a81.2 81.2 0 0 1 13.7 21.4c1 2 2 4.2 3.2 6.3.8 1.4 3.5-2 2.9-3.2l-3.5-6.8a78.8 78.8 0 0 0-11.9-19.3c-6.2-6.8-13.1-13-20.5-18.4l.8-2.2.8-2.2a30.1 30.1 0 0 0 6.2-11.6c1-4 1-9-3.8-9.2.5-1.2 1.2-2.3 1.8-3.4 1.5-2.5 3-5 2.4-8.3l-.1-.6c6.4-6 5.8-15.6.2-22.1-4.5-5.3-8.9-1.8-11 3-2.5-2.8-7-5-9.5-5.2-3.7-.3-5.6 2-6.5 4.8-4-3-8.4-5.1-11.7-5.3-3.5-.2-6.2 2.2-7.2 5.4-1.2 3.7 0 7 1.6 10.2-2-.6-3.9-.8-6 .7a8.2 8.2 0 0 0-3 6h-2.6c-4.3.5-8.4 2.7-10.7 6.5-3.2 5.4-.9 10.3 3.3 13.5-4 1.3-7.2 4.2-5.7 8.5a7.4 7.4 0 0 0 2 3c-4.9.8-10.1 2.7-11.9 6.6-2.8 6.4 5.8 7.7 11.4 8.3-1.8 1.1-3.4 2.4-3.6 4.8-.2 3.4 3 4.8 5.9 5.7Zm52.7-20.2c.4-1 1.3-2.3 2.1-2.4h.8l.5-.1c0-4.7-3.2-13-3.7-14.2-1.6-3.1-3.8-5.7-6-8.3a132.5 132.5 0 0 1-2.6-3.1c-1.1-1.4-2.3-3-3.7-3.8-3.7-2-6.4 2-5.7 5.8.5 3 3 6 5 8.5l.9 1c.8 1-1.2 3.7-2.3 3.6-2-.3-3.8-.8-5.5-1.5-.4.2-.8.3-1.1.2l-.5-.2a98.4 98.4 0 0 1-2.8-1.8h-.1l-.6-.2c-2.6-1.1-10.2-4.2-7.7 3.5.6 1.5 3.1 3 4.7 4l.4.2c4.6 2.8 9.9 4.8 15 6.7l1.4.5a26 26 0 0 0 8.3 2.4c.6-.8 1.5-1.4 2.1-1.2l1 .4Zm-2.3 4.1a17 17 0 0 1-7.8-.7l-1.8-.5c-4.3-1.3-9.9-3-14.7-5.3-.5.7-1.1 1.3-1.7 1.2h-1.8c-.3.5-.6.8-1 1-2.3 1-4.5 1.2-6.7.9-.6.6-.8 1.5-.3 2.7.6 1.8 4.3 3.6 6 4.4.8.5 1.8.9 2.7 1.2h.1c.5-.2.8 0 .9.3l2.8.7h2.2c1.1 0 2.3 0 3.2.3a5 5 0 0 1 1.8 1.3c.3.4.7.8 1.2 1.1 3.2 1.8 8 2.5 11.1.3 2.1-1.5 4.9-4.7 6.1-7.3-1.2 1-2.4.3-1.7-1.2l-.6-.4Zm-30-31.9c-1-.8-2-1.8-2.9-3 .9-.8 1.6-2.2 1.2-3a4.7 4.7 0 0 0-2.2-1.9l2.8-3.7c.6-.1 1.7.4 2.8.9l2 .7c1.3.3 2.8-2.5 2.3-3.6l-1.7-3c-1.5-2.3-3.1-4.9-2.8-7.1 1-6 7.3-2.1 10.4-.2a53.2 53.2 0 0 1 5.4 4.2c0 .6.4.7 1 .5 4 3.5 7.8 8 6.4 11.4-.5 1.4 0 2 .7 1.8l-.3 1.1-.9-.8c-5-5-10-4.7-12.8 2-2 4.4-.8 8.6 1.5 12.4l-.3-.1c-1.2-.6-2.4-1-3.7-1.5-3-2-6-4.3-8.4-6.6l-.5-.5Zm20.3-23.8c4.5 4.1 7.8 9.3 7.4 14 2.2-2.3 5.5-3.4 9.2-2.8 3 .4 5.3 1.6 6.7 3.8 4.2-3.6 2.7-9.5.4-13.5l-.3-.6c-.7-1.3-1.7-3-3-3.6-3.5-1.7-5.2 1.8-5.4 4.7v.1c-.2 1.4-3.2 4.3-3 1.8 0-3.3-11.3-10.5-12-4Zm-40.6 38.9c1.5-2 5.4-1.6 7.9-1l.8.3c1.4.4 3.6-3.3 1.9-3.9l-.5-.1c-3.6-1-8.8-3.8-9.8-7.6-1.4-5.6 6.8-9 12-7.9 1 4.4 4.3 8.1 8 11.3-.5.2-1 .4-1.4.8-3.4 2.4-4.1 7.4-2.1 11a17 17 0 0 0 5 5c-2.1.2-4.2.7-6 1.7-3.2-.5-6.7-1.8-9.4-2.9l-1-.3c-2-.8-8-3.3-5.4-6.4Zm48.6-18c0 .4 0 .9-.2 1.3a42.8 42.8 0 0 1 10.5 24l1.2-2.1c1.7-3.3 4.2-11.1-2.1-10.5-.8.1-.6-1.1-.5-1.5.4-1.6 1.3-3 2.2-4.4 1-1.6 2-3.2 2.3-5.2.3-3-1.2-5.4-3.8-6.7-2.8-1.4-11.8-2-9.6 5.2Z" fill="#52525B"/>
  <path d="M398.8 1516.7c-.5-3.2-.5-7.1 2.2-9a8.6 8.6 0 0 1 5.2-1.3c6.9.1 13.7 2 19.6 5.5 1.6 1 3.3 2 5.1 2.2 2.2.1 4.2-1 6.2-2 4.7-2.5 11.6-3.8 14.5.7 2.7 4 .2 10 3.1 13.7 3.6 4.5 12.3 2.3 15.2 7.3 2.1 3.7-.9 9.2 1.8 12.6 1.7 2.4 5.4 2.8 7 5.3 2.2 3.6-1.7 8-5.5 10a63 63 0 0 1-52.2.1c-13.8-7.4-20.3-30.8-22.2-45Z" fill="#CFA1A1"/>
  <path fill-rule="evenodd" clip-rule="evenodd" d="M415.8 1514.6c-.5-1.8-3.8-13.4-7.6-12.2-2.5.7-1.3 8.3-.8 11.9l.2 1.6c.2 1.4-2.5.5-3 .2-.6-.3-1.1-.9-1.7-1.4-.6-.6-1.2-1.2-1.7-1.5-3.3-1.5-3.8 2.4-3.9 5.2 0 4.5 2.4 12.2 6.7 15.5h.9c.8-4.9 2.8-10.7 8.2-10.2l2.2.5.2-2.7a187.1 187.1 0 0 0 .3-2.7l.3-3.7c-.1-.1-.3-.3-.3-.5Zm-22.5 1.3c-.8 7.5 4 17.4 11.2 20.9l.1 3.4c.1 1.4.3 2.7 0 4.1-.1 1.1-.5 2-.9 3a15 15 0 0 0-1 2.8c-.6 3.7.8 7.6 3.2 10.4 2.4 2.8 6.5 5.2 10.7 6.7a147 147 0 0 1-12.2 21 81.9 81.9 0 0 1-18.4 17.5l-5.5 4.4c-1.3 1 2.5 3 3.7 2.2l6-4.7c6-4.6 12-9.2 16.6-15.5 5.4-7.3 10.3-15.3 14.1-23.7l2.3.4c.7.2 1.5.4 2.3.4a30 30 0 0 0 12.6 3.8c4.1.2 9-.8 8.2-5.5l3.8 1.1c2.7 1 5.4 2 8.6.8l.6-.3c7 5.2 16.4 2.8 21.7-4 4.3-5.5 0-9.1-5.1-10.3 2.2-2.9 3.5-7.7 3.2-10.3-.4-3.6-3-5-6-5.4 2.3-4.5 3.4-9.2 3-12.5-.4-3.5-3.4-5.7-6.7-6-3.9-.5-6.9 1.3-9.7 3.5.2-2 0-4-1.8-5.6a8.1 8.1 0 0 0-6.5-1.8l-.6-2.6a13.9 13.9 0 0 0-8.4-9.3c-5.9-2.1-10.2 1.1-12.5 5.9-2.2-3.7-5.6-6.3-9.5-4-1 .7-1.9 1.5-2.5 2.6-1.8-4.7-4.6-9.5-8.8-10.4-6.9-1.6-6.5 7.1-6 12.7-1.4-1.5-3-2.8-5.4-2.5-3.3.4-4.2 3.9-4.4 6.8Zm30 47.8c1 .2 2.5.8 2.7 1.6a28.8 28.8 0 0 0 .4 1.2c4.6-.8 12.2-5.6 13.2-6.4 2.8-2 4.9-4.8 7-7.5l1.3-1.7 1.2-1.4c1.2-1.3 2.5-2.8 3-4.3 1.2-4-3.1-6-6.7-4.5-3 1.1-5.4 4-7.4 6.6l-.9 1c-.8 1-3.8-.4-3.9-1.6-.1-2 0-3.8.4-5.6-.3-.4-.5-.8-.4-1.1v-.5l.3-.3 1-2.8v-.1l.1-.6c.5-2.8 2-10.9-4.9-6.9-1.4.9-2.4 3.7-3 5.4l-.2.4a84.5 84.5 0 0 0-4 17.5c-.4 2.4-1 5.8-.6 8.6.9.5 1.6 1.2 1.5 1.8l-.1 1.2Zm-4.5-1.5c-1-2.4-1.1-5.2-.9-7.8l.2-1.8c.4-4.4 1-10.3 2.4-15.5-.8-.3-1.5-.8-1.6-1.4v-.4l-.3-1.4c-.5-.2-1-.4-1.1-.7a12 12 0 0 1-2.2-6.4c-.8-.5-1.7-.5-2.7.2-1.7 1-2.8 4.9-3.2 6.7l-.6 3c.3.5.1.8-.2 1v2.8l.3 2.1c.3 1.2.6 2.3.4 3.3-.2.8-.6 1.4-1 2l-.8 1.4c-1.2 3.4-1 8.2 1.9 11 1.8 1.7 5.5 3.8 8.3 4.5-1.3-1-.8-2.3.8-2l.3-.5Zm25.5-35.6c.6-1 1.4-2.3 2.4-3.3 1 .6 2.5 1 3.1.5.8-.6 1.2-1.5 1.5-2.5l4.2 2c.2.5 0 1.8-.3 3l-.4 2c0 1.4 3 2.3 4 1.6l2.6-2.3c2-1.9 4.2-4 6.5-4 6-.3 3.4 6.7 2.2 10v.2a52.4 52.4 0 0 1-3.1 6c-.6.2-.6.6-.3 1-2.6 4.6-6.3 9.3-10 8.6-1.5-.3-1.9.3-1.6 1h-1.2l.7-1c4-6 2.6-10.8-4.4-12.3-4.8-1-8.6.9-12 3.9l.1-.4.8-3.8a65 65 0 0 1 4.8-9.5l.4-.7Zm27.3 15.4c-3.2 5.1-7.6 9.4-12.2 9.9 2.5 1.7 4.3 4.7 4.5 8.5 0 3-.6 5.5-2.5 7.3 4.3 3.4 9.8.9 13.3-2.2l.5-.4c1.2-1 2.6-2.2 3-3.6 1-3.8-2.7-4.8-5.7-4.5h-.1c-1.4.2-4.8-2.3-2.3-2.6 3.2-.5 8-13 1.5-12.5Zm-46-32.4c2.2 1.2 2.5 5 2.4 7.6v.9c-.1 1.4 3.9 2.8 4 1l.1-.5c.4-3.7 2-9.3 5.6-11 5.2-2.5 10.2 4.9 10 10.2-4 1.9-7 5.8-9.4 10l-1.1-1.2c-3-2.9-8.1-2.6-11.2 0-1.7 1.5-3 3.6-4 6-.6-2-1.5-4-2.8-5.6-.1-3.3.5-7 1-9.8l.1-1c.4-2.2 1.8-8.4 5.3-6.6Zm27 44.2c-.4.2-.8.2-1.3.1a42.8 42.8 0 0 1-21.5 15l2.3.7c3.6 1 11.7 2 9.8-4.1-.2-.8 1-.8 1.4-.8 1.7.1 3.2.7 4.8 1.3 1.8.7 3.6 1.4 5.6 1.3 3-.3 5-2.2 5.8-5 .9-3.1-.3-12-7-8.5Z" fill="#52525B"/>
  <path d="M225.7 1726.2a12 12 0 0 1-3.8 2.9c-.6.3-1.1.5-1.7.6-1 .1-1.9-.2-2.6-.8a4.7 4.7 0 0 1-.7-6.4 4.7 4.7 0 0 1 6.4-.7l1.7-.3h1.2c.9 1.5.5 3.3-.5 4.7Zm45 8.1c-1-1.3-2.8-1.8-3.8-3-2.5-3-.6-7.5-2-11-2.3-5.2-10.1-4.4-15.2-1.6-5 2.8-10.4 6.8-15.8 5.1 10.4-2.2 19.7-10.8 21-21.4 1.1-10.6-7.6-21.8-18.3-21.6-4.1.1-8 1.7-11.8 3.5-6.2 2.7-12.3 6.8-11.9 14.3.3 4.6 8 12.2 1.4 14.6-4 1.5-13-5-16.7-6.4-8.6-3-17.8-3.6-26.5-.7-2.4.8-5 2.2-5.6 4.6-1.5 5.8 8.4 7.7 10.8 13.2 1.9 4.4-1.2 11 2.8 13.6 2 1.3 4.5.7 6.8.1l14.6-4c-9.4 4.7-18 10.8-25.6 18-3 2.9-5.6 8.8-1.8 10.6 2.1 1 5-.3 6.9 1 1.3 1 1.7 2.8 2.4 4.3 2.4 4.6 9.1 5.3 13.7 2.8 4.6-2.4 7.5-7 10.1-11.5l9.7-15.9-2 24.1c-.4 4.5-.8 9.3 1.5 13.1 2.4 3.9 8.4 5.7 11.3 2.3 1.6-1.8 1.8-4.4 3.4-6.2 2.8-3 7.9-1.9 11.8-3.2 5.7-1.9 8.1-9 6.6-14.8-1.5-5.8-6-10.3-10.6-14.2-4.5-3.8-9.5-7.4-12.8-12.4a36.3 36.3 0 0 0 38.6 13.4c4.8-1.5 10.1-6.8 7-10.7Z" fill="#CFA1A1"/>
  <path fill-rule="evenodd" clip-rule="evenodd" d="M213.3 1707c.4 2.3 1 5.3 2.2 8.1l.2.1.7.6c-.2-1.7-.3-3.5-.3-5.3v-1.7c-.2-3-.5-7.4 1.5-9.1.4-.3 1.3-.6 1.6-.1l.2.4c.2.3-.4.6-1 .7-1.2 2-.8 6.4-.6 9.2l.1 1.5c.1 2.3.3 4.7 1 6.8.7.9 1.3 1.9 1.6 3l.4.4 1.2-.3c0-5 1-10 2.8-14.4l.3-.7c1.2-2.8 3-7 5.6-8.3.4-.2.9-.2 1.2 0l.4.3.1.1c.5.4-1.1 1.1-1.6.7-.2-.1-5 10-5.3 10.6a38.1 38.1 0 0 0-1.7 11.4h.8c1.1-.2 2.6-.4 3.3.5l.6-.3 2-1.5c2.5-2.4 4.4-5.2 6-8.3l2.8-5.9.6-1.4.2-.3c.5-1 1-2 2-2.6.6-.3 2.2 0 1.1.5-1.2.6-1.8 2.4-2.4 4l-.6 1.9a56 56 0 0 1-4.2 7.6c-1.4 2-2.8 3.7-4.6 5.3l-1.6 1-1.5 1c.7.7.7 1.5.7 2.4v.7c.2-.2.6-.3 1-.4l.8-.1c1.3-.8 2.7-1.4 4-2.1.3 0 .4-.2.6-.3 1.5-1 3-2.2 4.1-3.2l1-.7a38 38 0 0 0 9.3-11.5c2.2-4.2 4-10.5.3-14.3-2.9-2.8-5.3-5.7-8-8.7-2.9-3.5-8-3.5-11.8-1l-1 1c-.5.4-1 .9-1.6 1.2l-1.9.3-1 .1c-4.3.8-7.7 2.4-9.7 6.3a22.4 22.4 0 0 0-2 14.8Zm8.8 15.7.1.8c0 .5 1.8.2 1.8-.5l.7.3c.2 0 .5 0 .7.2 1.3.7 1.1 2.5 1 3.8v.4c-.2.8-.4 1.7-.8 2.5a1 1 0 0 0-.5.4c-.9-.3-3 .6-2.3 1.1l1 1h-.1c-.1-.2-.6-.2-1 0-.3-.5-1.7-.3-2.4.1a1 1 0 0 0-.4-.1h-.2c-1.8-1.2-1.6-3.7-1.1-5.6.6-.1 1.6-.8.8-1h-.4c.6-.3 1-.8.4-1 .1.1 0 0 0-.2.3-.6.7-1.1 1.3-1.5.5.2 1.6-.3 1.4-.7Zm-11.8-17.2c.2 1.8.5 3.8 1 6l-3.1-3a22.9 22.9 0 0 0-16.4-4.5c-1.9.2-3.5.6-5.2 1l-1.8.5c-2.3.6-4.4.4-6.5.2-1.4-.1-2.9-.3-4.4-.2-6 .4-8.7 3.6-8.9 9.6 0 2.7.3 5.4 2.2 7.5 1 1 2.2 1.7 3.4 2.3 1 .5 2 1 2.9 1.8a16 16 0 0 1 3 4.1c1.2 2.4 2.4 4.6 6.1 5.3 2.4.5 5 .4 7.6 0-3.6 1.8-7 3.8-10.1 6-4.4 3.2-9.3 8.5-9.9 14.2-.3 2.4.4 3.9 2.2 5.4 1 .8 2.5 1.7 3.7 2.1l1.2.2c.5 0 1 0 1.3.2 1.2.5 2 1.5 2.7 2.6a8.2 8.2 0 0 0 3.2 2.9c2.3.9 5.2 1 7.6.8a33 33 0 0 0 15.2-6.7 22 22 0 0 0 6-7.6c-.3 4.3-.7 8.5-.7 12.8 0 4.7 1.4 9.8 6.6 11.3 4.2 1.2 7.2-1 10.2-3.3 2-1.6 4.3-1.5 6.7-1.3 1.3 0 2.6.1 3.9-.1 2-.3 4-1 5.8-2a13 13 0 0 0 6.3-11.4c0-5.8-4-11.4-8.2-15.3l.9.3 4.8 1c2.2.4 4.3.8 6.5 1.4 4.3 1.2 8.9-1 12.6-3.3 2-1.2 3.3-2.7 4.8-4.5l1.6-1.6c1.4-1.4 3-3 3.4-4.6.6-3-1.6-5-3.5-6.7l-1.4-1.2c-2.4-2.1-4.7-4-4.7-7.7 0-5.2-2.3-8.6-7.8-9.2-5-.7-9.1 1.5-13 4.5-1.5 1.2-3 2.2-4.4 3a41 41 0 0 0 9.7-13 16 16 0 0 0 1.4-8c-.2-3.2-1-4.3-3.3-6.3a29.3 29.3 0 0 1-3.8-4.3c-2.4-3-4.7-6-8.5-6.6-2-.3-4.1 0-6 .5a11 11 0 0 0-4 2l-1.6 1a9 9 0 0 1-4.1 1c-1.2 0-2.3 0-3.3.4-2.1.8-3.9 2-5.3 3.7a22.1 22.1 0 0 0-4.6 16.8Zm7.4 30.4-.1.1c-1 .9-1.8 1.7-2.3 2.7-1 2-1.1 4.5-1.2 6.8v1.1l-.1 1.7a46.1 46.1 0 0 1-5 11.2 27.2 27.2 0 0 1-14.3 9.1c-3.8 1.1-8.3.4-11-2.5l-1-1.4a5 5 0 0 0-1.8-2c-.7-.3-1.5-.5-2.4-.6-1-.2-1.9-.4-2.7-.9-3-1.7-3.5-4.4-2.4-7.4 1.8-5.3 6-9.5 10.7-12.4 4-2.5 8.4-4.7 12.8-6.7a89 89 0 0 0 9-3 343.4 343.4 0 0 1 5.1-1.8l3-1 .5-.5c-4 3.7-8.3 6.6-12.9 9.5l-3.6 2.7c-3 2.3-6.3 4.8-10 5.5-1 .2-.8 1.1.3.9 3.9-.8 7.3-3.4 10.6-5.8l2.5-1.9 4-2.6c3.3-2.2 6.5-4.4 9.6-7.1a111 111 0 0 1-7.2 15.2c-1.3 2-3 3.9-4.7 5.7-2 2-4.1 4.1-5.4 6.8-.3.7 1.5.5 1.7 0 1.3-2.7 3.4-5 5.5-7.2 2-2 4-4.1 5.3-6.7 2-3.8 3.9-7.7 5.6-11.7a4 4 0 0 0 1.4 2l.8.5c0 .3 0 .9-.3 1.7Zm10.3-5 .1.1h.1c.3 0 .4.1.4.2l1.8 1.3a27.6 27.6 0 0 0 9.5 4 34.5 34.5 0 0 0 18.5-.8c.8-.3 1.8.3.7.8-5.2 2.1-11.4 2-16.8 1.5a34 34 0 0 1-8.4-2 19 19 0 0 1-4-2.2l-2.1-1.4c.1.2 0 .4-.4.7l.3.3 1.5 1.2a980.5 980.5 0 0 0 9.8 7.9c1.8 1 3.7 1.8 5.6 2.6 2 .9 4.2 1.1 6.4 1.4 1 0 1.8.1 2.7.3 1 .1 1.7.4 2.5.8l2 .7c3.2.8 9.2-2.6 11.3-4.7a49 49 0 0 0 4.8-5.5c2.6-3.8.5-6.1-2.3-8.7l-1.6-1.4a13 13 0 0 1-3.7-3.7c-.6-1.3-.5-2.5-.5-3.8v-1.5c0-4.7-4.2-7-8.7-6.7-3.2.2-5.4 2.1-7.7 4l-1.5 1.3a45.7 45.7 0 0 1-9.5 5.3 126.7 126.7 0 0 0-5.4 2.8c-1.4.7-3.1 1.6-4.5 1.7a12 12 0 0 1-.5 2.5c4.2-.3 8.5-.8 12.6-1.5 5-1 9.7-3.3 14-5.8.7-.3 2.2 0 1.2.6-4 2.2-8.3 4.4-12.7 5.6-5 1.4-10.4 1.8-15.5 2.1Zm-.8 1.2Zm-5.6 2.9h-.5l-.4.4-.3.3c-.2 1.1-.6 2.3-1 3.4l-.5 1.4-.8 2.8-1.6 5.3c-.2 2-.2 4-.3 6.1l-.3 5.7-.3 3.6c-.6 4.5-1.1 9.2 2.3 12.7 2.7 2.7 6.6 2.3 9.3-.2 1.2-1 2.5-2 4-2.5 1.4-.6 2.5-.6 4-.5 5 .4 9.5.5 12.5-4.3 3.3-5.4 1.4-11.4-2-16.2a31 31 0 0 0-5.5-6l-2.8-2.6-1.1-1.1a35.6 35.6 0 0 1-10.3-8.3l-.9-1-.8.3c-.5 4.6 1.2 8.8 2.8 13l.5 1.2c1 2.9 2.2 5.6 4 8l.5.7c.8 1.1 2 2.6 3 3 .8.3-.8 1-1.3.9-3.5-1.3-6.2-7.5-7.5-10.7l-.4-1.1a46.5 46.5 0 0 1-3.2-10.1 52.6 52.6 0 0 0 2.8 32c.3.5-1.4 1-1.7.4-5.8-11.8-4.3-24.2-2.2-36.6Zm-3.6-12.4v.3-.2h-.1l-.5-.5.6.4Zm-5.3-7a15 15 0 0 0 4.4 6.4l-.8-.6a11 11 0 0 1-2.1-1.6 19 19 0 0 0-6.2-4.1l-1.4-.5c-5.3-2-10-3.9-15.9-3-.8.2-1.5 1.3-.2 1a32.8 32.8 0 0 1 26.1 10.8h-2.3l-.7-.1-2.5-1c-3.2-1-6.5-1.6-9.9-2.2l-1.3-.3-2.5-.5c-5.5-1.1-11.2-2.3-16.8-1.7-.2 0-1.2.3-1 .7l.1.2.2.4c.3.5 1.8 0 1.8-.4 5.6-.3 11.5 1 17 2.2l3 .7 1.7.3 6.4 1.6c-3.3 0-6.6.1-10 .7l-6.2 1.4c-3.5.9-7 1.8-10.5 2-.7 0-2 1-.7 1h.4c3-.3 6.2-1 9.3-1.7l3.7-.9a82.2 82.2 0 0 1 17-1.5l1.4.6.6.3-1.6 1.2-.6.4-2 .7-1.4.5-1.7.5-8.7 3.1c-1 .5-2 1-3.2 1.4a28 28 0 0 1-9.9 1.1c-2.6-.2-5-1.2-6.5-3.5l-1-2.3c-.4-1-.8-2-1.6-3-1-1.2-2.4-1.9-3.7-2.6-2-1-4-2-4.8-4.7-.9-2.5-.8-7.4 1-9.7 2-2.7 5.3-2 8.3-1.6 1 .2 1.8.4 2.6.4 2.2.2 4.3-.5 6.4-1a20 20 0 0 1 21.3 4.8c.9.9 2 1.8 3.3 2.7l1.7 1.4Zm3.3 9.3c.4 0 .8-.4.9-.6l.1.2c0 .3-.2.5-.3.7l-.7-.3Z" fill="#52525B"/>
  <path d="M166 1459.7c-2.5-2-5-4.6-5-7.8 0-2.7 1.9-5.2 4.3-6.5 2.4-1.3 5.2-1.5 8-1.5 5.2.2 10.5 1.5 15.2 4-.4-3.7-.9-7.5 0-11.1.8-3.6 3.3-7.1 6.9-8 3.5-1 7.3.7 9.9 3.3 2.6 2.6 4 6 5.6 9.4 4.1-6 9-12.3 16-13.8 2-.4 4.5-.3 6 1.1a7.3 7.3 0 0 1 1.8 4.2c2.2 14.4-10.9 33.3-24.3 38.5-13.8 5.4-34-3.2-44.5-11.8Z" fill="#F5E38D"/>
  <path d="M207.3 1343.6c-8.5 0-8.6 13.3 0 13.3s8.6-13.3 0-13.3Zm26.6 12.6c-8.6 0-8.6 13.3 0 13.3s8.6-13.3 0-13.3Zm96.5-32.2c-8.6 0-8.6 13.3 0 13.3 8.5 0 8.6-13.3 0-13.3Z" fill="#81AD9E"/>
  <path d="M428.2 1340.8c-8.6 0-8.6 13.3 0 13.3s8.6-13.3 0-13.3Zm39.7-7.8a7 7 0 0 0-4.7-2h-1.4a6.8 6.8 0 0 0-6.7 6.7c0 1.7.7 3.5 2 4.7a7 7 0 0 0 4.7 2h1.4a6.8 6.8 0 0 0 6.7-6.7 7.2 7.2 0 0 0-2-4.8Zm-40.6 95a6.7 6.7 0 0 0-9.4 0 7 7 0 0 0-2 4.7v1.4a7 7 0 0 0 2 4.7 7 7 0 0 0 4.7 2 6 6 0 0 0 4.7-2 7 7 0 0 0 2-4.7v-1.4c0-1.7-.7-3.5-2-4.7Z" fill="#F5E38D"/>
  <path fill-rule="evenodd" clip-rule="evenodd" d="M355.5 1365.5a6 6 0 0 1-2.3-1.1c-2-1.6-1.3-5.4 0-7.2 1.7-2.4 6.2-2.7 8.3-.8 2.3 2 1.6 7-.9 8.6.4 4.8 1.8 10 3 14.9l1.2 4.2a57.7 57.7 0 0 0 9.2 21.4 36 36 0 0 1 2-14.3l.7-3c1.8-7.7 4-15.4 6.7-23a6.2 6.2 0 0 1-1-5.9c.7-1.8 3.9-3 6-2.3a4 4 0 0 1 2.4.7c2 1.2 1.6 4.5.7 6.4-.6 1.6-2.5 2.4-4.4 2.4a180.2 180.2 0 0 0-6.4 22c-1.1 4.1-3.1 11.2-2.7 15.8l3 .6c5.1-3.2 9.4-9.5 12.6-14l1.1-1.6c2.3-3.2 4.5-6.5 6-10.2.7-2 1.1-4 1.5-6l.3-1.6c-.9-.4-1.6-1-1.7-2-.2-1.4 0-3.2.7-4.5.2-.7.7-1.4 1.4-1.9a9.6 9.6 0 0 1 5.8-1c2.4.3 3 1.9 2.8 4a5.9 5.9 0 0 1-1 3.2c-.6 1.9-2.2 2.6-4 2.7l-.6 2.1c-.6 3-1.3 5.8-2.8 8.7-2.5 4.9-6 9.5-9.5 13.7-2.3 2.8-4.9 6-7.8 8.3 5.8-.7 12-3.6 16.7-5.7l.6-.3a52.2 52.2 0 0 0 17.2-14.1c.1-.2.4-.3.7-.4a7 7 0 0 1-.1-2.7c.2-2.2 1.1-4 3.5-4.3 1.8-.3 4 .3 4.6 2 1.4.4 1.8 1.4 1.7 3 0 1.7-.5 3.4-2.3 4.2a8 8 0 0 1-5.3 0 61.6 61.6 0 0 1-24.6 17.2 48.4 48.4 0 0 1-15.8 3.3c-1 .5-2 1-3 1.3.2.5-.9 1-2 1a487.6 487.6 0 0 1-39.7 73.1c2.5-2.3 5.1-4.5 8-6.3 3.7-2.2 7.5-4.3 11.3-6.3l8-4.3c5.4-3 11-5.8 17-7.6 2.2-.7 4.6-1.3 6.4.5.3.2.4.4.2.8a46 46 0 0 1-26.4 26c-7.4 2.7-20.7 7.7-28.8 3.6a458 458 0 0 1-104.3 108.8c-1 .8-4.9 0-3.5-1a453 453 0 0 0 42.8-36.3c-.6-.2-1-.6-.8-1.1 4.4-9.7 7-20.9 9.3-31.6l2.1-9.2a1278.8 1278.8 0 0 0 11.1-52.4v-.8a78.2 78.2 0 0 1-24.4-18.5 47.8 47.8 0 0 1-9-13.2c-1.7-3.1-4-7.3-2.5-10.3.4-1 2.2-.8 3-.6 3.3.8 6.2 3 9 5.2l2.6 1.8c4.6 3.2 9.2 6.4 13.2 10.3 4.6 4.4 8.1 9.5 10.2 15.1 2.7-18 4-36.8.5-54.3-6.6 3.6-12.1 2.1-19.5-.8-7-2.7-14.7-7.3-19.9-13.3-1.2 1-3 1-4.4.3a2.9 2.9 0 0 1-1.7-2.4c-.2-.3-.3-.6-.3-1 0-1.2.4-2.5 1.1-3.5.6-1.6 1.5-3 3.4-3.3 1-.2 2.7 0 3.4 1 .5.7.5 1.8.4 2.7.3.9.1 1.9-.1 2.8 6.5 9.6 24.8 21.6 35.3 15.6-.5-.4-.1-.8.5-1l-.3-.1c-11.4-1.8-19-15.6-23-26.6-.7 0-1.3 0-1.9-.2a2.5 2.5 0 0 1-2-2.2c-1.6-1.3-1.6-4-.7-5.9 1.3-2.6 5.1-2.5 7.4-1.4 2.7 1.3 2.7 3.8 2 6.4a4 4 0 0 1-1.2 2c3.3 9.2 9.6 22.2 18.2 25.3-4.6-7.6-3.5-18.7-.4-27.2l-.3-.2a3 3 0 0 1-1.3-2.2 10 10 0 0 1-.3-4.7c.7-4.3 7.8-3.8 9.7-.7a5.4 5.4 0 0 1 .4 4.8c-.1.6-.4 1-.6 1.6-.3.8-.8 1.5-1.7 2a5 5 0 0 1-2.1.4c-3 8.8-3.8 20.7 2 27.8.2.1.2.3 0 .5a14 14 0 0 0 3.6-2.4c1.4-1 2.6-2.6 3.7-4l.3-.3a34.1 34.1 0 0 0 8.2-19 3 3 0 0 1-1-1.3h-.1c-1.9-1.3-1.8-4.2-.7-5.9 1.3-2 4.3-2 6.4-1.3 1.2.4 2.4 1 2.9 2.3.4 1.2 0 2.5-.4 3.6-.4 1.2-1 1.9-2.3 2.2l-.7.1c-.4 7.4-4.4 15-9 20.6-2 2.4-4.6 5.3-7.6 6.8 5.2 2.2 11.9 2.4 16.5-.6 2.2-1.4 4-3.3 5.8-5.2a5 5 0 0 1-.2-1.4c-.5-.6-.7-1.4-.5-2.4.4-2 2-2.7 4-2.7 2-.1 4.4.4 4.7 2.8v1.5a4 4 0 0 1-.4 2c-.3.7-.7 1.4-1.2 1.8a5 5 0 0 1-4 .6 21 21 0 0 1-11.9 7c-4.5.9-9.7.3-14.2-1.4 4.1 20.7 1.8 43-2 64l.3.2c1.2.5.4 1-.6 1.4a601.3 601.3 0 0 1-3.9 19c-2.5 12-5 24-8 35.8l-2.2 9.3c-2 8.5-3.9 17.2-7 25.2a459.1 459.1 0 0 0 37.5-42c-.8 1-4 .7-3.9-.5.4-2.9 0-5.8-.4-8.7-.3-1.8-.5-3.5-.6-5.3-.1-3.7.5-7.5 1.2-11.2l.3-1.8a63.7 63.7 0 0 1 8.4-26c.7-1 3.1-1 3.9 0 5 7 3.9 17.8 2.4 25.5-1.3 7.3-3.3 14.3-6 21.2 22.5-29.7 41.5-62 56.7-96.4-8-1.7-14-3.1-20-9.6-4.9-5.4-9.7-13-12.2-20.2-1.5.2-3.4-.2-4-1.7-.3-.8-.2-1.7 0-2.6 0-.5 0-1 .3-1.5.7-2.4 3.5-3.2 5.7-2.2.4.3.8.5 1 .9 1.9 1 2 3.6.8 5.5l-.1.2c1.8 6 5.8 12.8 9.5 17.6a39 39 0 0 0 7 7.1c3 2.4 6.7 3.4 10.5 4a53.2 53.2 0 0 1-10.2-21.1c-.9-3.1-1.5-6.3-2-9.4l-.6-2.7-.9-4c-.4-1.5-.8-3.2-1-4.8-.5 0-1-.2-1.4-.3Zm-65.4 96.7c-1-8.3-5.2-15.4-11.3-21.3-3-2.8-6.2-5.4-9.6-7.8l-2.8-2a51 51 0 0 0-8.3-5.7 32 32 0 0 0 4.7 11.1l.5 1a56.5 56.5 0 0 0 9 11.4 62.5 62.5 0 0 0 17.8 13.3Zm28.3 23.3c-1.5 8-3.8 15.7-7 23.1a69.6 69.6 0 0 0-.7-7.6 79 79 0 0 1 7.2-37c2.6 6.6 1.7 15 .5 21.5Zm18.4 2.3c3 .8 14.2-1.6 14.9-1.7a40.3 40.3 0 0 0 28.5-19c1.9-2.5 4.9-6.3 4.9-7.7 0 .3-3.3 1.5-6.6 2.7l-6.3 2.5a160.4 160.4 0 0 0-11.7 6.5 123 123 0 0 0-23.7 16.7ZM293 1360.4a3.6 3.6 0 0 0-.6.7l1-.2h-.1l-.3-.5Zm114.3 3.7Zm-.4 1.7c0-.6-.2-1.3-.6-1.4l-.6.6c.5.1.9.3 1.2.7v.1Zm19 15.7h.3l-.4.1.1-.1Z" fill="#52525B"/>
  <path fill-rule="evenodd" clip-rule="evenodd" d="M211.6 1403.4c2.2-.4 3.8.7 4.7 2.5a5 5 0 0 1 1.4 3.4c0 3-2 5-4.7 5.4v.9l-.1 1c-.4 4-.4 8-.3 12 0 1.3 0 2.8-.2 4.4-.1 3.8-.3 8 .5 11.6.6-2.6 1.5-5 2.6-7.4 2.1-4.7 9.1-14 15.4-12.4 8.8 2.3 2.7 17.2.4 22l-1 2.2a61.3 61.3 0 0 1-7.7 13.5c-2.2 2.7-4 5.5-5.6 8.4-1.2 1.9-2.3 3.8-3.6 5.6 3.9 9.2 7.7 18.5 11 28 2.9 8.3 5 16.8 7.2 25.4l4.2 15.6c.3 1.2-3.3 2.2-3.6 1-1.5-5.2-2.9-10.5-4.2-15.7-2.1-8.5-4.3-17-7.2-25.4-3.2-9.2-7-18.3-10.7-27.3a.8.8 0 0 1-.5-.3l-.2-.3a.7.7 0 0 1 0-.8l-1.8-4.3a18.5 18.5 0 0 1-8.3 1.7c-6-.3-13.1-2.4-18.3-5.5-6.2-3.6-20.2-15.2-15.9-24 3.4-7 13.8-5.7 20-3-.7-1.1-1.1-2.4-1.5-3.7a96.2 96.2 0 0 1-2.5-8c-4.2.5-9-2-9.2-6.3-.2-3.6 2.3-5.8 5.3-6.4l.3-.2c1.8-1 4-.7 5.1 1a5 5 0 0 1 2.8 3.3c1.2 2.4 1.2 5.6-1 7.3l1.8 5.8.5 1.4c.4 1.3.9 2.7 1.5 4-.8-5.5.7-11.4 6.3-13.6 7.1-2.9 11.8 5.6 13.8 11l.8 2a61.2 61.2 0 0 0 0-4.8l-.1-8.5v-2.7c-.2-2.5-.2-5.5.1-8.3-1 0-2.1-.3-3-.8-1.3-.7-1.6-2.1-1.4-3.6 0-2 .7-4.5 2.3-5.6.8-.6 1.7-.8 2.6-.8h.3a5 5 0 0 1 1.7-.7Zm-5.6 65.3.8 1.8c-9.2 3.1-19.7-.7-27.3-6.6-4-3.2-13.7-12.4-11.2-18.6l4.5-1.8 4.4-1.8c1.6.3 3 .7 4.5 1.4a41.8 41.8 0 0 1 11.8 9 71 71 0 0 0 7.3 10c1.6 2.3 3.3 4.5 5.2 6.6Zm3-2.4-.7-1.6c-.2-.4-.7-.6-1.3-.5a176 176 0 0 1-4.1-4.8l-1-1.3c-1.3-1.8-2.6-3.7-4-5.4-3.3-5.1-12.3-21.6-1.7-23.3 3.4-.5 4 .4 5.6 2.9l.2.4a30 30 0 0 1 2.5 4.9c1 2.5 1.7 5 2.4 7.6l1 3.4a56 56 0 0 1 1.9 13.4l.4 5.7-1.2-1.4Zm-33.2-42.5c.4 2.4 2.1 3.2 4.3 3l.3.7v.4a7.1 7.1 0 0 1-3.8-2 7 7 0 0 1-1.1-4.9c0 1 .1 2 .3 2.8ZM214 1469l-.4-6.7c.1-6 1.3-12.4 2.5-17.5 1.3-4.9 3-10 6.6-13.6l.4-.5c1-1 2.2-2.3 3.3-2.8 3.8-1.8 4.5.5 5.1 3.5 1.4 7-3 14.8-6.5 21.3l-2 3.8a40 40 0 0 1-5.1 7.2l-1.7 2c-.9 1.1-1.5 2.2-2.2 3.3Z" fill="#52525B"/>
  <path d="M54.7 1181.2c-2.3.2-4.8.4-7-.5s-4-3.1-3.6-5.5c.3-1.2 1-2.3 2-3.2 3.5-3.7 8.2-5.9 12.5-8.7 4.3-2.8 8.4-6.7 9.1-11.7.7-4.7-1.5-9.2-2.8-13.8-1.2-4.5-.9-10.4 3.3-12.7 2.2-1.3 5-1.1 7.5-1.2 4-.2 8.1-1 11.7-2.8 10.7-5.6 16-19.4 27.6-22.7 3.4-1 7.7-.5 9.4 2.6.6 1 .8 2 1 3.1 3.3 17.9 2.6 47-11.7 60.8-13.2 12.9-42 14.7-59 16.3Zm101.8-19.2a14.2 14.2 0 0 1-3-5.6c-.8-3.8 1.5-8 5-9.8 3.4-1.9 7.7-1.8 11.4-.3 2.3 1 5.4 2.2 7 .2.5-.7.6-1.7.7-2.6a45 45 0 0 1 4.1-13.5c.4-.7.8-1.4 1.4-1.7.7-.3 1.4 0 2 0l14.4 3.7c2.8.7 5.7 1.5 7.6 3.6 4.9 5.3.1 14.1 2.5 21 4.7-4.6 9.7-9 15-13 3.6-2.8 8.3-5.6 12.6-3.8 4 1.6 5.6 6.8 4.5 11a23.3 23.3 0 0 1-7.3 10.4c-9.8 9.3-26.4 22.8-40.7 23.1-13.7.3-29.3-12.6-37.2-22.8Z" fill="#F5E38D"/>
  <path fill-rule="evenodd" clip-rule="evenodd" d="m111 1156.2.6 4.1a4 4 0 0 0-1.7-.5c-.3 0-.7.2-1 .4a99 99 0 0 1-8.6-10.8l-2-2.7c-3-3.8-6.8-8.6-7.4-12.7-.3-2.2-3.6-1.7-3.3.5.6 4.3 3.8 8.5 6.6 12.2l2.1 3c3 4.2 6.2 8.5 9.9 12.4l-3.6.7a64 64 0 0 1-19-9.7 54.1 54.1 0 0 1-9.2-8.8c-2.3-2.5-6.5-7.2-6-9.4.7-3.7 4.2-3 7.8-2 2.1.4 4.3 1 6 .5.7-.2 1.4-.6 1.4-1.4.2-1.7-.3-3.4-.8-5l-.7-2.3c2.6 1.6 5.2 3 6.2-1.8.1-.6-.1-1.4-.4-2.1-.2-.7-.5-1.4-.3-2 .6-2.4.7-2.2 1-1.5.2.5.7 1.3 1.6 1.2l1.1.1c.7.1 1.4.2 2.2-.4 1-.7 1-2 1-3 .1-1.3.2-2.2 2-.8 2.2 1.6 4 8 5.3 12.4l1 3.5c1 2.8 1.8 6 2.7 9.4a75.1 75.1 0 0 0 5.4 16.5Zm-18.4 8.4-5.8-2c-3.4-1-6.8-2-10.1-3.3l-5.3-2.1c-2.5-1-5-2.1-7.6-3-1.7-.6-1.2-.4-.2.2 1 .4 2.4 1.2 3 1.6.9 1 .8 2.3-.4 2.9-.4.3-1.3.5-2.3.9l-3 1 .9.7c.8.5.8 1.5.3 2.3-.6 1.1-1.7 1.6-2.6 2l-.8.4.2 1c0 2.5-2.1 3.8-4.1 5-1.7 1-3.2 1.9-3.7 3.4-2.2 7.6 9.1 5.8 14.7 4.8l2.2-.3a81 81 0 0 0 26.3-7.5l5.5-2.3c-.7-1.1-.4-2 .3-2.8a71 71 0 0 0-1.3-.6c-4.2.8-8.3 1.4-12.6 1.6h-1.1c-3.2.2-6.8.4-10-.4-.6.3-1.4.2-2-.4l-1.4-1c-1.8-1.2.2-3.8 2-2.7l.4.2c4.3 2.4 11.2 1.4 16.3.7l1.8-.3h.4Zm12.4-38.2-.2-.4-1-3.2c-1.7-5.6-4-13.5-9.6-14-.7-.2-1.4.3-1.7 1-.3.5-.4 1-.5 1.6-.1.6-.2 1-.5 1.5l-.5 1.5c-.1 0-.4-.2-.9-.2-.6 0-1-.3-1.5-.6-.6-.5-1.2-1-2.4-.4-1.6.6-2 2.6-2.2 4-.2 1.5 0 2.5 0 3.2v1l-2-.7-1-.6c-1-.4-2.2.4-2.3 1.4-.1.8.4 2.7.8 4.4.5 2 1 3.8.7 4.3-.5.6-3.6 0-6.6-.8-2.3-.5-4.5-1-5.4-.8-4.9.7-4.5 3.7-2.9 7.7a51 51 0 0 0 20.4 22.4A196 196 0 0 1 75 1155l-3-1.4c-4.3-2.1-10.6-5.2-13.8-2.3-.4.3-.7 1-.6 1.5.6 2.2 2.4 3.1 4.2 4.1h.1l-.1.1c-2.2.6-4.2 1.2-5.1 3.6-.4.9.1 1.7 1 2.2.4.2-.2.6-1 1-.9.5-1.9 1.1-2.4 1.9-.7 1 0 2.3 1.2 2.6-1.9-.5-8.3 6-9.5 7.6-1 1.3-2.3 3.2-2 5 .9 4.1 6 4.1 9.2 4h1c8-.4 17-.8 24.7-2.8 3.8-1 7.7-2.8 11.6-4.6 4.1-1.9 8.2-3.8 12.3-4.8 3.5 1.5 8.6.6 11.9-.2a10 10 0 0 0 3.7-1.5c1.2 3.3 2.8 6.5 4.4 9.6a422.8 422.8 0 0 0 61.7 96.8c0 .8.6 1.4 1.3 1.6 8.4 10 17.2 19.6 26.6 28.7a84.4 84.4 0 0 0-34-12l-6.4-1c-6.2-1-12.5-2.1-18.6-1.7h-1.2c-3.2.1-9 .3-9.6 3.6-.6 3 3 5 5.5 6.5l1.3.8a98 98 0 0 0 26 12.8 59 59 0 0 0 24 1.3l1.3-.1c4.9-.7 10.2-1.4 14.5-3.8l.2.2c1 1 2.8.2 3-.9a309 309 0 0 0 26.7 22c1.7 1.3 3.7-1.4 2-2.6l-6.9-5.2c3-3 5-8.8 5.9-12a84.4 84.4 0 0 0 2.4-24 86.3 86.3 0 0 0-6-30.3c-1.1-3.4-2.8-8.7-6-9.6-1-.4-2 .1-2.2 1.3l-1.4 10.6c-1.3 9.8-2.7 19.5-3.5 29.4-.8 9.5.8 18.8 2.7 28a322 322 0 0 1-12.6-11.1c.2-1-.9-2-2-1.8a378.6 378.6 0 0 1-29-31 19 19 0 0 0 2.2-7.1l.3-2c1.5-7.1 2.2-14.4 3-21.6l.3-2.2c1.8-17 3.6-34 4.5-51 4.5-.8 8.7-2.1 10.6-6.8l.3-.8c6-2.5 11.4-5.7 15.5-11l6.2-7.9a131 131 0 0 0 13-17.6l.5-.9c1.9-3 5.2-8.4 1.2-10.4-2.4-1.3-5 0-7.5 1.3-3.2 1.5-6.3 3.1-9.3 0-.8-.9-2-.9-2.7 0-.2.3-.4.4-.6.4-.2-1.2-.6-2.3-1-3.4-.3-1-1.7-1.3-2.5-.6-2.4 1.8-4 5.5-5.6 8.8l-2 4.3c-3 5-6.1 10-9.4 14.9a129.3 129.3 0 0 1 2.3-11c1.6-6.4 3.5-14 2.8-20.4-.5-3.4-1.9-4.3-5.3-3.8-1.2.1-2.3.8-3.4 1.4-1.2.6-2.3 1.3-3.3 1.3-2 .1-2.1 0-2.8-1l-1-1.3c-.7-.7-1.6-.8-2.4-.3l-.8 1c-.4.4-.8 1-1 1l-.7 1.4-1.6-4.4-.1-.3c-1-2.3-1.5-3.3-4-3.9-.7 0-1.2.3-1.6.7-1 1-1.2 2.1-1.5 3.2a6 6 0 0 1-1 2.5c-1.8 3-3 2-4.8.6l-1.4-1.2c-1.3-.8-2.8.2-2.7 1.6.5 6.2 1.8 12.3 3.4 18.3-3.6-3.3-9.8-7.3-14-6.1-.9.2-1.4.9-1.4 1.9l.5 3.7c-1-.7-2.8.4-2.4 1.7.3 1 .6 1.8 1 2.5l-2.7-.5c-2-.4-3.9-.8-5.9-.4-1.1.1-1.6 1.2-1.3 2.3 2.4 7.7 9.8 14 15.8 19.3l1.5 1.3c5.5 4.8 11.5 8.6 17.7 12.1.4 1.4 1.7 2.2 3.5 2.6 1.5 1 3 1.8 4.7 2.5a6 6 0 0 0 3.9 1.6 861 861 0 0 1-6.2 63.8l-.3 3.7c-.3 4.4-.8 10.4-2.6 13.6a415.7 415.7 0 0 1-44-63.5c-4.2-7.4-8.3-14.9-12.1-22.5l-2.3-4.4c-2.7-5.2-5.7-10.9-7.2-16.4l.4-.5c2-2.3 5-6.2 5.5-9.3.1-1.2 0-2.7-.6-3.7.8.4 1.8.3 2.2-.8 2.8-8.1 3.6-17.3 4.5-26.1l.6-6.8c.5-4.4 1.8-20-5.2-21.1-1.7-.3-2.3.4-3 1.3l-.9 1c-1.1 1-1.2 1.7-1.3 2v.3c-.2.1-.4 0-1-.3l-.7-.3c-.3-.1-.6-.6-.9-1-.3-.5-.6-1-1-1.3-4.6-2-4.4 2.6-4.3 6.1v1c-1.6-1-2.8-2.7-4-4.4-1.5-2-3-4.2-5.4-4.9-1.2-.3-2.3.5-2.2 1.8l.3 8c.2 6 .4 11.7 1.2 17.7Zm9.1 28.8c.4.8.9 1.5 1.4 2.1.4 0 .8.1 1.1.4.4-.7 1-1.3 1.6-1.9a71 71 0 0 0-3.4-31.1c-.7-2 2.3-3.3 3-1.3a71.1 71.1 0 0 1 4 30 3 3 0 0 1 2-.6c.6 0 1 .2 1.4.5v-1.2a83.7 83.7 0 0 0 3.5-20.2l.7-6.4c0-.9.2-1.7.3-2.6.4-3 .8-6 .7-9v-1.2c0-1.7 0-3.7-.6-5l-3.1-3.4-.4.9-.2.5c-.6.4-1 1-1.4 1.5-.7 1.1-1.4 2-3.5 1.3-.7-.3-2.5-3-3-3.9l-.2-.2v1.4c.2 1.6.5 4.2.3 5-.2.8-.9 1.6-1.8 1.4-3-.7-4.8-3-6.5-5.3-1-1.4-2-2.7-3.1-3.6l.2 4.8a154.3 154.3 0 0 0 4.6 35.3c.8 4 1.7 7.8 2.4 11.8Zm7.3 5.8-.5.5.1-.4.4-.2Zm2-3.5Zm114 167.8c1.4-2 4.2-7 4.3-7.2 1.4-3 2-6.3 2.5-9.6a108 108 0 0 0 1-19.7 78.6 78.6 0 0 0-5.1-24.4c-.6-2-1.7-5.5-3-7.7l-1 7.3c-1.1 8.9-2.3 17.7-3.1 26.7-1 11.6.8 22.4 3.3 33.6v.2l1 .8Zm-53.1-24.8c9 2 20.3 5.4 28.2 11.3a44 44 0 0 1-15.1 3.2l-1.3.1c-7.5.7-15.1.1-22.3-2.3a92.6 92.6 0 0 1-20.2-10 16 16 0 0 1-4.4-3c-1.7-2.2-1.4-2.3.5-2.9l.9-.3c4.4-1.4 9.9-.3 14.6.6l3 .6 6.2 1c3.3.5 6.6 1 9.9 1.7Zm-2.8-140.6c1.9 6.2 3.8 12.4 7.3 17.8l2.6 2.2a688 688 0 0 1-3.2-29c-.3-2 3-2.6 3.3-.4l1.3 12 1.5 13.8c1.2.6 2 1.3 2.5 2.7v.2l.4.9.5-1.5c.4-1.2 2-1.5 2.8-.5l.4.6c.1-7.8 1.6-15.4 3-23 1.1-5.4 2.2-10.8 2.8-16.4 0-.7.2-1.3.3-1.9.3-2.2.5-3.3-2-4.2-2.2-.8-2.5-.6-3.4.1l-1 .6-1 1.1c-.5.6-1 1.2-1.8 1.3-2.4.4-3.3-1.5-4.3-3.3l-.3-.6-.5.9c-.9 1.4-1.7 2.7-3.8 2.3-1-.3-1.4-1.3-1.8-2.3-.2-.6-.4-1.2-.8-1.6-1.6-1.7-2-1.4-3.2.8-.3.5-.4 1.3-.6 2.1 0 .5-.2 1-.3 1.3-.2.6-.7 1-1.3 1-2.9.5-4.3-.8-6-2.4a164 164 0 0 0 5.8 23.2l.7 2.2Zm-3.2 1c1 3.5 2.2 6.9 3.5 10.2-3-3-5.8-6-8.5-9.3-1.4-1.6-4 .5-2.6 2.1a151.5 151.5 0 0 0 15.5 15.9l.6.8a4 4 0 0 1-1.3-.7 17 17 0 0 0-3.4-1.5c-1-.3-2 1-1.8 1.9l.1.8c-3.6-2.2-7-4.6-10.5-7.3a60.8 60.8 0 0 1-17.6-19c1.3.1 2.6.4 3.8.6 1.9.4 3.8.8 5.7.5a1.7 1.7 0 0 0 1.3-2.3c.3-.4.5-.9.5-1.4 0-1-.2-1.8-.3-2.5-.4-2.7-.5-3.6 3.6-1.8 2.1.9 5 2.7 6.6 4.4.6.7 1.6.7 2.2.2a400.6 400.6 0 0 0 2.6 8.5Zm26.3 9.4c-.4 3-.5 6.2-.5 9.3l.2-.1c.6-.5 1.1-1 2.2-.9 3.5-2.8 6.6-7.1 8.8-10.5a52.8 52.8 0 0 0 7.4-15.4c.4-2 3.7-1.7 3.3.4a56 56 0 0 1-15.1 25.5l-1.6 1.5c.3.5.5 1 .6 1.7a37.1 37.1 0 0 0 14.7-12.3c2.2-3.1 4.6-6 7-8.9 2.8-3.2 5.5-6.5 8-10l1-1.5c1.4-1.8 3.2-4.1 3.2-6v-1.9h-.7l-1.4.3a15 15 0 0 0-4 1.4c-1.2.5-2.3 1-3.5 1.3-3.4.7-4.6 0-6.4-2l-.7.4c-.7.3-1.3.6-1.5 1.1-1 2-4 .8-3-1.2v-2.5c-1.4 2-2.6 4.7-3.7 7.2-.8 2-1.7 4-2.7 5.5l-2.8 4.5c-2.7 4.3-5.4 8.6-8.4 12.6l-.4.5Zm.3 13.6c.2-.2.3-.5.3-.8 0 .2.1.1.4 0l.1.5-.8.3Zm-5.1 0-.2-.4-.2.3.4.1Zm-14-.3h-.4l-.3-.4.2.1.5.3Z" fill="#52525B"/>
  <path d="M93.9 739c-1-3-2.2-6.4-4.8-8.1-5.5-3.6-12.9 1.7-15.5 7.8-2.5 6-3 13.1-7 18.3-3.9-1.2-6.8-4.5-10.5-6-3.8-1.6-9.6.3-9.1 4.4 0 1 .7 2.1 1.3 3a310.8 310.8 0 0 0 63.8 73.6 192 192 0 0 0-74-15.1c-3.6 0-8.6 1.7-7.7 5.1a67.7 67.7 0 0 0 20.8 10.8L32.8 853c-1.4 1.5-2.9 3.2-3.2 5.3-.7 4 3.4 7.4 7.4 7.7a22 22 0 0 0 11.4-3.5l51.4-27a116 116 0 0 0-32.2 75.8 27.2 27.2 0 0 0 21.8-21c2.7 6.4 5.5 13.1 11 17.4 5.5 4.2 14.4 4.8 18.7-.6 2.2-2.8 2.8-6.6 3.3-10.1 2.6-20 5-41.4-4.9-59 2.8 24.4 12 48 26.2 68 2 2.9 4.6 5.9 8 5.9 5.1 0 7.7-6.5 6.9-11.6-.9-5-3.7-9.7-3.7-14.8 6 4.8 15.3 9.3 20.2 3.4 3.9-4.7.7-11.8-3-16.7a114.2 114.2 0 0 0-56-40.4c17.9-1.7 36 1.4 53.8-.9 17.7-2.3 36.5-12 41.3-29.3a52.8 52.8 0 0 0-21.3-1.3 37.3 37.3 0 0 0 24.1-21.4c-34.4-2.6-66.6 17.3-92.1 40.5 21.9-19.7 42.1-43.5 47.9-72.4-6.6-1.4-14 1-18.6 5.9 8-4.5 12.6-14.2 11.2-23.2a35.2 35.2 0 0 0-23.8 15.9c3.7-5.5 5-12.5 3.7-19-6.1-3-12 4.7-14.4 11.1-2.9 8-8.7 53-18.4 54.2-5 .7-13.2-45.2-15.6-53Z" fill="#F5E38D"/>
  <path fill-rule="evenodd" clip-rule="evenodd" d="M106 771.8c1 6.4 2 12.8 2.8 19.2.3-3.2.8-6.3 1.3-9.4 2.5-14.1 7.3-28.6 14.7-41 2.7-4.6 10-16.5 17.1-15.7 5.5.7 4 6.8 1.8 12a22 22 0 0 1 10.2-5.3c4.4-1 9.3-.9 10.9 4.1.4 1.3.4 2.6.3 4l-.6 2.5a16 16 0 0 0-.9 3.9c.8 1.4 4 1 6.9.7 1.5-.2 2.9-.3 3.7-.2 5.2.9 6.9 4 6 9-2.8 15-18.9 28.7-30 37.9a189 189 0 0 1-8.5 6.6l.3-.1.2-.1a190.5 190.5 0 0 1 47.7-20.6l.3-.1h.2c6.8-1.8 26.6-6.9 29 3.4 1.9 8.1-10.6 14.7-18.8 18.4h.6c5.6.2 12.3.4 11.2 7.8-.6 3.8-4 7.4-6.7 9.8l-1.8 1.4c-.8.5-1.5 1-2 1.6-2.5 2.5-2.4 2.9-2.2 3.4.1.3.3.7-.5 1.8-10.2 14.7-32.6 11.7-49.2 9.5a315.2 315.2 0 0 0-10-1.2c-7-.8-14.4-1.6-21.4-3.3l2 2.6c4.5 2 8.8 4.8 13.1 7.5 4.2 2.6 8.3 5.3 12.5 7.2 12 5.5 21.5 11 28.8 22.4 2.9 4.4 10.2 17.5 4 22.2-1.7 1.2-3.2 1.4-4.6 1-.6 5-2.6 9.3-8.8 8.9l-1-.1c.5 5.1 0 10-2.7 13.2-4.5 5.5-13 2-17.2-2-4.2-3.9-6.4-9.3-8.6-14.5l-.4-1-1.4-3.4c-2.5-6-5-12-7.3-18.1-2-5.4-3.8-11.1-5.5-16.8-2.8-8.9-5.5-17.8-9.4-26l-1.2-.3 1.9 8.5c3.9 18 7.8 36 4.8 54.6l-.2 1.1c-.9 5.7-2.2 14.3-9.3 14.4-3.2 0-5.8-2-7.5-4.5-1-1.7-1.1-4-1.3-6.1v-.9l-.5 1.4a15 15 0 0 1-3.6 6.7c-2 2-5 3.5-7.8 3.1-3.6-.4-4.5-2.7-4.5-5.6-2.2 5.2-5.1 10-10.3 10.7-8 1-6.4-11.3-5.7-16.7v-1c2.8-23 14.9-41.6 27-60.3l2-3c-3 2.2-6.2 4.2-9.4 6.2l-5 3.3-5.4 3.7a106.2 106.2 0 0 1-26.3 14.6c-5.1 1.7-16.8 4.6-20.6-1.1-3.7-5.3 2-12 6.6-16.2-4.6.3-9.5-1-8.8-5.9 1-7.5 15.8-12.3 23.4-14.8l2.5-.8c.3-.2 1-.3 1.6-.4 2-.5 5-1.1 5.5-2.4-.3.6-4.6.7-6.3.7H53c-4 .3-8 .4-12-.4-4.4-.9-17-5.4-14.7-11.8 2-6 14.1-6.1 18.9-5.6 10.3 1.2 19.8 5 29.4 9l3.8 1.5a96.8 96.8 0 0 0 26.6 6.1 7.8 7.8 0 0 1-2.9-3.2c-2.8-1.2-5.4-3-8-4.8l-2.7-2c-6.1-4-12-8.4-17.3-13.5a87 87 0 0 1-23.6-36.7c-2-6.6-6-20.5 2-23.3 3-1 5.6.2 7.7 2.4 2.4 2.5 4.4 5.8 6.4 9 0-3.2-.4-6.3-.7-9.5-.4-3.8-.8-7.7-.7-11.5.1-3.2 1-6.2 4.6-6.7 2.7-.4 4.7 2.2 6.3 4.2 1 1.4 2 2.6 2.8 2.4.7-.3 1.7-2.2 2.6-4 .7-1.6 1.5-3.2 2.2-3.7 1-.8 2.2-1.5 3.5-1.7 5.2-.9 7.7 3.8 9.4 7.8 4 9.3 5.8 19 7.2 28.8l2.2 15.1Zm14.4 71.3c1.4 2.5 2.6 5.1 3.9 7.6a260 260 0 0 0 8.1 15.6c.5.9 1.2 1.8 1.9 2.7 1.7 2.4 3.5 5 3.7 7.6 0 1.6 5 .6 4.8-1.3-.2-2.5-1.4-4.2-2.8-6l-1-1.6c-2.7-4-5-8.3-7.1-12.7l-1.6-3-2-4-3.8-7.5 7.2 4.4c4.9 3.2 9.9 5.7 15 8.3 2.5 1.2 5 2.5 7.6 4 8.2 4.3 15 12.6 18.9 20.9a28 28 0 0 1 2.8 9c0 .6.4 4.4 0 4.6-.8.2-1.4-4.6-1.5-5.2 0-1.6-4.9-.5-4.8 1.3l.2 2.4c.3 2.4.7 5.3-.5 6.7-1.8 2.2-4 2-6 .6a56 56 0 0 0-5.5-14c-.7-1.3-4.4 0-4.6 1.2-.8 4.3 1.4 10.6 5 14.8 2 8.7 2.1 17.7-5.1 16.1-7.3-1.5-11.7-13.6-14.6-21.8l-1.8-4.7a513.6 513.6 0 0 1-14-38.7l-2.4-7.3Zm-21.2-29.9-.2-.1a139.3 139.3 0 0 1-17.3-13 100 100 0 0 1-20.5-26 68.3 68.3 0 0 1-7.8-23.4l-.2-.7c-.4-2.2-1.3-6.6 2.5-6.5.7 0 2.3 3 3.1 4.4l.4.8a119 119 0 0 0 7 10c1 1.2 4.5.2 4.7-1.2.9-4.8.4-10.2 0-15.3l-.3-4.7v-.1a53 53 0 0 1-.5-10.2c.8-.4 1.9 1.5 2.8 3l1.3 2a6 6 0 0 0 6.1.3c1.4-.7 2.5-2.6 3.6-4.4 1.5-2.7 3-5.2 5.3-3.7 4 2.6 6.1 13.3 7.3 18.8l.3 1.8c1.2 5.2 1.9 10.6 2.6 16l1.2 8.6.3 1.7A376 376 0 0 1 106 817a43 43 0 0 1-2.4-5.7 10 10 0 0 0-1-2.3l-.9-2.1a207.5 207.5 0 0 1-5.2-12.4c-1.8-4.4-7.7-18.8-6-20.3 2-1.9-2.7-1.9-3.9-.8-3.2 3 2.3 15.9 4.7 21.5l.8 2.1a267 267 0 0 0 7 16.1Zm4.1 13c-4-1-10 .9-15 2.4l-4.7 1.3-3.5.8c-7.2 1.4-18.8 3.7-20.8 9.1-.6 1.6-5.4 2.2-4.8.6 2.5-6.6 11.2-8.6 18-10.3l3.6-.8 12.5-3.2 6-1.5a80.2 80.2 0 0 1-17.3-4.6c-2.7-1-5.3-2-7.9-3.2a124.2 124.2 0 0 0-21.4-7c-2.5-.6-5-1-7.4-1.2l-8 6.5c-.2 2.6 9.5 5.4 11.3 5.8 3.6.7 7.5.6 11 .3 1.2 0 2.4-.3 3.6-.5 2.4-.4 5-.9 7.3-.3.7.2 1.2.7.8 1.4-2 3.3-5.8 4.4-9.4 5.4l-2.7.9-2 .6c-4.4 1.5-9.1 3.1-13 5.6-1.9 1.3-8 5.9-7.7 8 .5 2.8 6.6 2.6 8.2 1.9 1-.5 4.8-.3 2.8 1.3l-.8.8c-3.4 2.8-7 6-8.2 10.3-1.3 4.3-1 4.4 3.6 5.8l.4.1a15 15 0 0 0 11 0c8.3-2.7 16-8 23.2-13l2.9-2 6.2-4.1c5.3-3.6 10.6-7.2 15.7-11l1.6-1 2-1.6 1.9-2.8c.2-.4.6-.6 1-.8Zm14-12.1c-1.6 1-3.4 2.2-5.1 3.5a187 187 0 0 1 24.2-41.6c1.4-1.6-3.5-1.3-4.5-.1a166 166 0 0 0-20 32.4l1-11 .5-4.2c1-10.6 3-21 6.5-31a83.3 83.3 0 0 1 15.2-29.5c1-1.2 4-4.6 4.8-4.4 1 .2.5 4.7.4 5.4a23 23 0 0 1-2.5 6.4l-1.9 4.4c-.6 2 3.8.5 4.4 0 1-.8 2-1.9 3-3 1.1-1.4 2.3-2.8 3.6-3.7 10.7-4.1 15-2.4 13.1 5.2a24 24 0 0 1-1.2 3.8c0 2.6.1 2.7 3 3.2 1.6.3 3.5.2 5.4.1 5-.3 9.7-.5 8 7a40.3 40.3 0 0 1-6.5 12.5 143.2 143.2 0 0 1-32.4 31.1l-6 4.4-8.3 6c-1.5 1-3 1.8-4.3 2.8-.2 0-.3.2-.5.3ZM101 836c-1.4 4.7-3.1 9.5-4.9 14l-2.5 7.1-1.5 4c-2.7 7-6 15.6-3.8 22.4.5 1.7 5.3.4 4.8-1.3-2.1-7 1.5-16 4.4-23.6a147.4 147.4 0 0 0 4.1-11l1.1-3.1a152.9 152.9 0 0 0 1.6 18.3c.8 6 2.3 17.4 7.3 20.6.5.3 1.5.2 2.4-.1.2 7.2-.5 14.7-2.4 21.5-2.8 10.1-7.7.4-8-4.5-.1-.6 0-1 0-1.6 0-1.2 0-2.2-1-3.5-.8-1.1-3.4-.1-4.1.6-.7.6-1.6 2.5-2.6 4.6-2.2 4.8-5 11-8 8-1-1-.6-3.6-.2-6.3.4-2.2.7-4.6.1-6-.7-1.6-4-.4-4.6.6a21.7 21.7 0 0 0-2.3 5.2 50.3 50.3 0 0 1-1.2 3c-1.2 2.9-2.8 7-6 7-2.8 0-2.7-1.4-2.5-4l.2-2.2a89 89 0 0 1 6-28c5-13.6 12.8-25.3 20.6-37.2l3-4.5Zm11.2 38.3c.4 1.6.8 3.5 1.6 5v-1.4a241 241 0 0 0-4-26.3v-.5l-2.2-11c0 6 .5 12 1 17.2a84.2 84.2 0 0 0 3.6 17Zm.1-48.4 2 .8a139 139 0 0 0 29.8 5.8l6 .8c1 0 1.9.2 2.8.3 7.7 1 15 2 22.9 1.1h.3c5.4-.6 12-1.3 16.2-5.3 1-.9 1.4-2.2 1.8-3.4.3-.9.5-1.7 1-2.4 1.3-2 3.2-3.4 5.2-4.8 2.7-2 5.4-4 6.4-7.5 2-7-3.5-7.3-8.8-7.6-1.5 0-3-.1-4.3-.4-1.9-.3-.5-1.9.5-2.3 4.9-2 31.5-16.3 15.6-21.2-11-3.3-27.8 3.8-38.3 8.2l-.9.4c-5.6 2.4-11 5.1-16.4 8 .9.2 1.4.7.5 1.6l-1.2 1.1c-.6.6-2 .8-3.2.7a88.8 88.8 0 0 0-17.8 11.7l-5.3 4-2.6 2c-2 1.5-4.2 3.1-6.4 4.5 4.9-.7 9.6-2.7 14.3-4.8A106.3 106.3 0 0 1 159 809l.7-.2c2.4-.6 4.8-1.4 7.1-2.2 2.6-.9 5.2-1.8 7.8-2.4h.4c1.7-.4 3.7-.8 4.9.6 1.2 1.4-3.4 3.1-4.5 1.9l-8.5 2.7-3.7 1.2-6.1 1.4-10.8 2.7c-3.7 1.2-7.4 2.8-11 4.3-6.4 2.7-12.7 5.5-19.4 6-1.2 0-1.7-.2-1.9-.6l-2.3 1c.4 0 .7.3.6.6Zm16.7-15.6-4 2.3a63.3 63.3 0 0 0-4.8 4.4l.3-.2.2-.2.5-.3 2.2-1.8 4.3-3.1 1.3-1Z" fill="#52525B"/>
  <path d="M297.5 1633c.5.4 1.1.9 1.3 1.5.4 1.4-1 2.5-2.2 3.4-4.9 4-5 11.3-3.6 17.4 1.2 5 3.7 10.4 8.6 12.2 4.8 1.7 10.3-.8 13.6-4.8 3.2-4 4.7-9 6-14 .5 1.1 1.5 2 2.5 2.6a16.6 16.6 0 0 0 16.6.6 24 24 0 0 0 10.8-13.2 14 14 0 0 0 .9-7c-.7-3.8-3.6-6.8-7-8.5-3.4-1.7-7.3-2.3-11-3 3.6.7-1.8-19.4-6-21.8-6.2-3.5-14.8-1.3-20.7 2-13.8 7.6-27 19.3-9.8 32.6Z" fill="#81AD9E"/>
  <path fill-rule="evenodd" clip-rule="evenodd" d="M320.8 1641a64 64 0 0 1-.4-.7c-.6-1.1-3.7 1.3-3 2.6.5 1 1.2 2.1 2 3.2-.5 8.2-8.6 21.7-16.3 17.1-9.7-5.7-9.6-21.2 1-26.1.9-.4 3-3.2.8-2.8-6 1.1-11.5-4.4-13-9.8-1.2-4.1-3.3-13.4 8-11 4.2.9 7.7 6.2 9.6 9.8.5 1 3.6-1.3 3-2.6l-1-1.9c-1.8-3.4-4-7.3-3.1-11.1 2.9-14 11.5-6 14.8-2.3 2.3 2.6 5.2 6.5 6.3 10.4-3.1 2.4-5.3 6.1-.2 8.2 1.1.5 2.4-1 2.8-1.8.5-1 .8-2 1-3l.2-.5 1.6-2.6 4 1.6c1.2.8 2.4 2.3 3.2 3.5 3.3 4.7 3.7 11 2.6 16.4-1.2 6-1.8 6.3-7.5 9.8a81 81 0 0 0-2.6 1.7c-3.2 2-3.3 2.2-7-.3-1.2-.8-2.2-1.7-3.2-2.6a43 43 0 0 1-.2-2.8c1.1-.8 2-2.2 1.1-2.6l-1.5-.5c-.4-.2-1.1 0-1.7.5-.3-.1-.8 0-1.3.3Zm.8 9.4c-2.9 9.3-10.7 19.8-18.8 17.1-6.8-2.2-11.4-11.5-10-18.2a21 21 0 0 1 7.2-12c-7.6-1.2-13.8-10.2-11.9-18 1-4 4.4-7.3 8.2-8.6a10 10 0 0 1 9 1.4 12.6 12.6 0 0 1 10.4-14.4c7.3-1 15.2 8 17 16.3 8.9-3 14.7 5.5 15.7 13.6 1 8.5-2.2 21-10.3 25.5-4.5 2.5-8.9 1.5-12.6-1 1.7 7.2 4.8 14.2 7.8 21l3 6.6a734 734 0 0 0 10.4 24.2c-.2-6.1 1-12.2 3.8-18 1.6-3 3.5-5.8 5.4-8.7a54 54 0 0 0 3.3-5l1.6-2.9c1.1-2.2 2.2-4.3 4.4-6 .4-.2 1.4-.6 1.7-.1 1.7 2.3 2 5.2 2.2 8l.3 3.1.5 3c.6 3.1 1 6.2 1.2 9.4.2 6.8 0 14.6-3.5 20.8A45.8 45.8 0 0 1 355 1721c11.1 21.3 25 41 43.6 56.4 1 .8-1.8 3.5-3 2.6a180.1 180.1 0 0 1-44.6-57.8c-.7 0-1.3-.2-2-.7-.5-.3.1-1.3 1-2a291.2 291.2 0 0 1-3.3-6.5c-.6 1-2 1.8-2.6 1.5-9.9 7.5-19.4 2.7-27.8-5.2l-.8-.8c-6.4-6-14.8-13.8-17.6-22-2.5-7.3 4.8-8.3 10.2-6a89.1 89.1 0 0 1 36 26.8c-4.2-9.1-8.1-18.4-12-27.7l-1-2.1-1.8-4.3a99 99 0 0 1-7.7-22.8Zm31.5 67 .8 1.4c2-1 4.6-3.8 6-5.2l.5-.6c4.5-4.7 6.5-9.2 7-15.6.5-4.8.5-9.5 0-14.2l-.2-2.7c-.3-4-.7-10.5-1.8-11.5-1.4-1.2-3 1.7-4 3.8l-.8 1.3-1.9 2.8c-2.3 3.5-4.7 7-6.3 10.8a40 40 0 0 0 .7 29.7Zm-37.6-28.6a78.4 78.4 0 0 1 27 23.2c-.5.4-.7 1-.6 1.4 1.1 4.4-11 1.3-12.5.6a32.5 32.5 0 0 1-7.6-5 101.7 101.7 0 0 1-18.6-20.7l-.1-.4c-2.2-3.3-4.3-6.7 1.4-5a32 32 0 0 1 7.6 3.8l3.4 2.1Z" fill="#52525B"/>
  <path d="M373.8 1151.1c-8.6 0-8.6 13.4 0 13.4s8.6-13.4 0-13.4Zm35.7 33a6.7 6.7 0 0 0-9.4 0l-1.5 1.6c-1.3 1.2-2 3-2 4.7a6.7 6.7 0 0 0 6.7 6.7 7 7 0 0 0 4.7-2l1.5-1.6a6.5 6.5 0 0 0 0-9.4Zm6.2 67.9c-8.6 0-8.6 13.3 0 13.3s8.6-13.4 0-13.4Z" fill="#81AD9E"/>
  <path d="M349 1143.4c-8.6 0-8.6 13.3 0 13.3s8.6-13.3 0-13.3Zm48 85.3c-8.5 0-8.5 13.3 0 13.3 8.7 0 8.7-13.3 0-13.3Z" fill="#CFA1A1"/>
  <path fill-rule="evenodd" clip-rule="evenodd" d="M348.1 1154.2h1.3c0 8.6 1.8 17.3 3.7 25.9l2 9.5.6 3.4c1 6.2 2.1 12.6 6.4 17.3-1.9 3.8-3 8.7-3.9 13.2l-1.4 6a335 335 0 0 1-13.5 38.5c0 .2-.2.3-.3.5v.3l-.5 1.2-2.7 6c-4.7 11-9.6 22.3-15.7 32.4-.7 1.2 3.2 1.4 4 .2 5.4-9 9.8-19 14-28.8l3-6.7 2.1-4.8c1.6-2.3 5.3-4.9 8-6.8l2-1.5 6.1-4.4c6.8.6 13.6.3 20.4-.1 7.6-.5 15.2-.9 23 .1l-.6 1.5v.1c-.4 1.3-1 3-.4 4.3.7 1.6 3 2.5 4.7 2.9 2 .5 4.2.5 6-.6 2-1.1 3.2-4.1 4-6 2-5.1-2-7.3-6.3-8-1.2-.3-3.3.7-2.9 1.4a5.8 5.8 0 0 0-3.4 2.4c-7-1-14.1-1.2-21.3-1-2.8 0-5.6.3-8.4.5-4 .4-8 .7-12 .5l4-2.7c7.1-5 14.2-9.3 21.6-13.2a6 6 0 0 0 2.6 1.9c4.9 2 8.7-.5 11.3-4.6 1-1.4 1.7-3.4 1.1-5-.7-2.1-3-2.6-4.9-2.7h-.2c-2.4-3.5-6.9.8-8.4 3a9.8 9.8 0 0 0-2.1 5 204 204 0 0 0-25.2 15.3 78.2 78.2 0 0 1-6 3.9c-3.2 2-6.7 4.2-9.7 6.6a311.6 311.6 0 0 0 11.3-34l3.5-12 .4-1.2 1-2.9.5-.3c.8-.5.6-.9 0-1.1 1.2-2.5 1.3-2.4 1.7-2.2.3 0 .7.3 1.8-.6 4.7-3.9 10-7.2 15.4-10.4a148 148 0 0 0 7.8-4.9l.4.6c1.1 1.3 3 1.6 4.6 2-.5 1 3.3 1.2 4 0 .7-1 1.7-1.6 2.6-2.3.9-.6 1.7-1.2 2.4-2 1.2-1.6 1.2-3.6.5-5.5-1.4-4.2-6.2-6-10.4-5.4-4 .6-5.3 4.3-5.2 8 0 .7 0 1.4.2 2.1a217 217 0 0 1-20.6 13.1 41.8 41.8 0 0 0-6.4 3.6l-1.5 1.5c-3.4-5-4.4-12.2-5.3-18.6v-.3c.2 0 .5-.1.7-.3 2.8-2.7 5-6.2 7.2-9.6l1-1.8c1.2-1.6 2-3.6 2.9-5.6.8-2 1.6-3.8 2.5-5.5 2.7.2 5-.8 6.6-3.6 1.6-2.7 2-6.2-1.2-7-2.9-4.2-9-4.7-11.9 0-1 1.7-2.1 4.6-1.4 6.6.6 1.8 2.7 2.7 4.4 3.3-.9 1.5-1.6 3.1-2.2 4.7-.6 1.3-1.1 2.6-1.8 3.8a65.8 65.8 0 0 1-7.4 11.5l-.4-2.1-1.3-6.2c-1.5-7.2-3-14.5-3.1-21.8h1.2c.8 0 2 0 2.5-.9 1.5-3 2.2-8.5-.1-11.3-2.9-3.3-7.6-3-11.2-1-3.3 1.9-5.5 5-4.8 9.1.6 3.8 4 3.7 7 3.6Zm48.8 35c.2 0 .3-.1.5-.3 1-.7.3-1.2-.8-1.4v-.3c-.2-2.7.2-7.4 4-6 2.8 1 5.1 5 3.4 7.8-.6 1-1.6 1.8-2.6 2.5l-.9.6c-1.2-.2-2.2-.4-2.9-1.3-.3-.4-.5-1-.7-1.5Zm-51.8-39.6c.2 2.7 2.3 2.7 4.5 2.6.7-1.1 4-1.2 3.9 0v.7c.8-2 1.1-4.6 1-6.6a4.7 4.7 0 0 0-1.8-3.3c-1.7-1.4-3.5-.6-5 .5a6.5 6.5 0 0 0-2.6 6.1Zm30.3 12.7c-.4-.7-3.1-.8-3.8 0-.2 0-.3.2-.4.3a4 4 0 0 1-1.5-1c-.8-1-.6-2.2-.3-3.3.3-1.3.8-2.8 1.7-3.8 1.5-1.8 3.1.5 4 1.8.1.4.8.6 1.5.6 1.2.1 0 3.5-.3 4l-1 1.4ZM395 1236l2.4-1.2c2.3-1-.6-2.1-2-1.6l.7-1.4a24.6 24.6 0 0 1 2.2-2.8c.4.1.9.2 1.4.1l1.2.3c2.5 0 2 3 1.1 4.7-.5 1-1.3 1.9-2 2.7l-.2.2c-1 1.2-2 1.5-3.5.6-.7-.5-1.1-1-1.3-1.6Zm16.8 17.3c1 .2 2.3-.4 2.8-1 1.3.6 2.2 1.5 2.2 3.3 0 1.4-.8 2.7-1.5 4l-.4.6-.3.7c-.6 1-1 2-2.5 1.5-2.6-.8-3-2.1-2.3-4.5a15 15 0 0 1 1.5-3.7l.2-.4c.2-.3.4-.4.6-.4l-.2-.1Z" fill="#52525B"/>
  <path d="M83.4 18.4c-.8-2.3-1.6-4.8-3.7-6.2-4.1-2.7-9.7 1.4-11.6 6-2 4.5-2.3 9.9-5.4 13.8-3-1-5.1-3.4-8-4.6-2.8-1.2-7.2.3-6.8 3.4 0 .8.5 1.6 1 2.3 13 21 29.4 39.8 48.2 55.6a145.3 145.3 0 0 0-56-11.4c-2.7 0-6.4 1.3-5.8 4a52.3 52.3 0 0 0 15.8 8l-14 15.4c-1 1.2-2.1 2.5-2.4 4-.5 3 2.6 5.6 5.6 5.9 3 .2 6-1.3 8.6-2.7l39-20.4a87.9 87.9 0 0 0-24.4 57.4c8-1.3 14.9-8 16.5-16 2 5 4.2 10 8.3 13.2 4.1 3.2 10.9 3.7 14.1-.4 1.7-2.1 2.2-5 2.5-7.7 2-15 3.8-31.3-3.6-44.6 2.1 18.5 9 36.4 19.8 51.5 1.5 2.1 3.4 4.4 6 4.4 4 0 5.9-5 5.2-8.7-.6-3.9-2.8-7.4-2.8-11.3 4.5 3.6 11.6 7 15.3 2.6 3-3.6.6-9-2.2-12.6a86.4 86.4 0 0 0-42.4-30.6c13.5-1.3 27.2 1 40.7-.7 13.4-1.7 27.6-9.1 31.3-22.2a40.4 40.4 0 0 0-16.1-1c8-2.2 15-8.4 18.2-16.1-26-2-50.4 13-69.7 30.6 16.5-15 31.9-33 36.2-54.8-5-1-10.5.7-14 4.5 6-3.4 9.5-10.7 8.4-17.6-7.3 1.3-14 5.7-18 12A19 19 0 0 0 120 9.1c-4.6-2.3-9 3.5-10.8 8.4-2.3 6-6.7 40-14 41-3.9.5-10-34.2-11.8-40.1Z" fill="#F5E38D"/>
  <path fill-rule="evenodd" clip-rule="evenodd" d="m92.6 43.2 2 14.5 1-7a92.2 92.2 0 0 1 11.2-31c2-3.6 7.6-12.6 13-12 4.1.5 3 5.1 1.3 9.1 2.1-1.8 4.4-3.3 7.7-4 3.3-.8 7-.7 8.2 3 .3 1 .3 2 .3 3.1l-.5 1.9c-.4 1.2-.8 2.7-.7 3 .6 1 3 .7 5.2.5 1.2-.1 2.2-.3 2.9-.2 3.9.7 5.1 3 4.5 6.8-2.2 11.5-14.3 21.8-22.6 28.7a143.3 143.3 0 0 1-6.2 4.8 144.2 144.2 0 0 1 36.5-15.7c5.1-1.3 20.2-5.1 22 2.6 1.4 6.2-8 11.2-14.3 14h.4c4.3.1 9.4.3 8.5 6-.4 2.8-3 5.5-5 7.3l-1.4 1c-.6.5-1.1.8-1.5 1.3-1.9 1.9-1.8 2.2-1.6 2.5 0 .3.2.6-.4 1.4-7.7 11.1-24.7 8.9-37.3 7.2l-5-.6-2.5-.3c-5.4-.6-11-1.2-16.3-2.5l1.6 2c3.4 1.5 6.7 3.6 10 5.6 3 2 6.2 4 9.4 5.5a45.2 45.2 0 0 1 21.8 17c2.1 3.3 7.7 13.2 3 16.7a4.2 4.2 0 0 1-3.5.9c-.4 3.7-2 7-6.6 6.6h-.8c.4 3.8 0 7.5-2 10-3.5 4.1-10 1.5-13.1-1.5-3.1-3-4.8-7.1-6.5-11v-.3l-.2-.3v-.2L114 137a210.6 210.6 0 0 1-9.7-26.4c-2.1-6.7-4.2-13.5-7.2-19.6l-.8-.3 1.4 6.5c3 13.6 6 27.2 3.6 41.3l-.1.8c-.7 4.3-1.7 10.8-7.1 10.9a6.8 6.8 0 0 1-5.6-3.4c-.8-1.3-.9-3-1-4.6v-.7l-.4 1c-.6 2-1.3 3.8-2.7 5.2a7.7 7.7 0 0 1-6 2.3c-2.7-.3-3.3-2-3.3-4.2-1.7 3.9-4 7.6-7.8 8-6 .8-4.9-8.5-4.4-12.6l.1-.7C65 123 74.2 109 83.4 94.8l1.5-2.3c-2.3 1.7-4.7 3.2-7 4.8l-4 2.5-4 2.7a77.6 77.6 0 0 1-19.9 11c-3.8 1.3-12.7 3.5-15.6-.8-2.8-4 1.6-9 5-12.2-3.4.2-7.2-.7-6.6-4.5.8-5.7 11.9-9.3 17.7-11.2l1.9-.6 1.2-.3c1.5-.4 3.7-.8 4.1-1.8-.2.5-3.4.5-4.7.6h-.5c-3 .2-6.2.2-9.2-.4-3.3-.6-12.8-4-11-9 1.5-4.4 10.6-4.5 14.2-4.1 7.8.9 15 3.8 22.3 6.7l2.9 1.2a73.2 73.2 0 0 0 20 4.7 6 6 0 0 1-2-2.5c-2.2-.9-4.2-2.3-6.1-3.6l-2-1.5c-4.7-3-9.2-6.4-13.2-10.3a65.8 65.8 0 0 1-17.8-27.7C49 31.2 46 20.7 52 18.5c2.3-.8 4.3.2 5.9 1.8a40 40 0 0 1 4.8 6.8c0-2.3-.2-4.7-.5-7.1-.3-3-.6-5.9-.5-8.7 0-2.4.7-4.7 3.4-5.1 2-.3 3.6 1.6 4.8 3.2.8 1 1.5 2 2.1 1.8.6-.2 1.3-1.6 2-3 .6-1.3 1.1-2.4 1.6-2.9a6 6 0 0 1 2.7-1.2c4-.7 5.8 2.8 7.1 5.9 3 7 4.4 14.3 5.5 21.8.5 3.8 1 7.6 1.7 11.4Zm10.9 54a145.4 145.4 0 0 1 4.8 9.5l.6 1.3c1.2 2.3 2.3 4.5 3.6 6.7l1.4 2c1.3 1.9 2.7 3.8 2.8 5.8.1 1.2 3.8.5 3.7-1-.1-1.9-1-3.1-2-4.6l-.9-1c-2-3.1-3.7-6.4-5.4-9.7l-1.1-2.3-1.6-3c-.9-2-1.9-3.8-2.9-5.7l5.5 3.3c3.7 2.4 7.5 4.3 11.3 6.3l5.8 3a35.9 35.9 0 0 1 14.3 15.8c1 2.2 1.9 4.5 2.1 6.8 0 .5.3 3.4 0 3.5-.6.2-1-3.4-1.1-4 0-1.1-3.7-.3-3.7 1l.2 1.9c.2 1.8.5 4-.3 5-1.4 1.8-3.1 1.7-4.6.5-1-4.2-2.7-8.1-4.1-10.6-.6-1-3.4 0-3.6 1-.6 3.2 1 8 3.8 11.1 1.5 6.6 1.6 13.4-3.9 12.2-5.5-1.1-8.8-10.3-11-16.5L116 132a389 389 0 0 1-10.7-29.3c-.6-1.9-1.1-3.7-1.8-5.5ZM87.3 74.5h-.1L85.4 73a75.7 75.7 0 0 1-26.8-28 51.7 51.7 0 0 1-5.9-17.6v-.6c-.4-1.7-1.1-5 1.8-5 .5 0 1.7 2.3 2.3 3.4l.3.6a104 104 0 0 0 5.4 7.6c.6 1 3.3.1 3.5-.9a50 50 0 0 0 0-11.6l-.3-3.6c0-1-.7-7.5-.3-7.7.6-.4 1.4 1 2.1 2.3l1 1.4c1.4 1 3 1 4.6.2 1-.5 1.9-2 2.7-3.3 1.2-2 2.3-4 4-2.8 3 2 4.7 10 5.5 14.2l.3 1.4c.9 4 1.4 8 2 12 .2 2.3.5 4.5.9 6.7l.1 1.2c1.9 11.6 3.7 23 4 34.7-.7-1.4-1.3-3-1.8-4.3a32.4 32.4 0 0 0-1.4-3.4 157.3 157.3 0 0 1-4-9.3C84.1 57 79.6 46.2 81 45c1.5-1.4-2-1.4-3-.6-2.4 2.2 1.8 12 3.6 16.3l.6 1.6a202 202 0 0 0 5.3 12.1Zm3.1 9.9c-3-.7-7.6.6-11.3 1.8l-3.6 1-2.7.5c-5.4 1.1-14.2 2.9-15.7 7-.4 1.2-4 1.6-3.6.4 1.8-5 8.4-6.5 13.6-7.7l2.7-.7a415 415 0 0 1 9.5-2.4l4.6-1.1c-4.5-.6-9-2-13.2-3.5l-6-2.4a94.2 94.2 0 0 0-16.2-5.4c-1.8-.4-3.7-.7-5.6-.9l-6 5c-.2 1.9 7.2 4 8.6 4.3a31.7 31.7 0 0 0 11-.1c1.8-.3 3.7-.7 5.5-.2.6.1 1 .5.6 1-1.5 2.5-4.3 3.3-7 4.1a46.3 46.3 0 0 0-3.6 1.2c-3.3 1-7 2.3-9.9 4.2-1.4 1-6 4.4-5.8 6 .3 2.1 5 2 6.2 1.5.7-.4 3.6-.3 2.1 1l-.6.6c-2.5 2.1-5.3 4.5-6.2 7.8-1 3.2-.7 3.3 2.7 4.4h.3c3.6 1.2 5 1 8.4 0 6.3-2 12-6 17.5-9.8a405.7 405.7 0 0 1 6.9-4.6c4-2.7 8-5.4 12-8.3l1-.8 1.7-1.2 1.3-2.2.8-.5Zm10.5-9.2-3.8 2.7a139 139 0 0 1 18.4-31.5c1-1.3-2.7-1-3.4 0-6 7.2-10.9 15.7-15.1 24.4l.7-8.3.3-3.2c.8-8 2.4-15.8 5-23.5a63 63 0 0 1 11.5-22.3c.7-.9 3-3.4 3.6-3.3.8.2.4 3.6.3 4-.3 1.8-1 3.4-1.9 5-.5 1-1 2.1-1.4 3.3-.5 1.4 2.9.4 3.3 0l2.2-2.3c1-1 1.8-2.1 2.8-2.8 8.1-3.1 11.4-1.8 10 4l-1 2.8c0 2 0 2 2.2 2.4 1.3.3 2.8.2 4.2.1 3.8-.2 7.3-.4 6 5.3-.8 3.4-3 6.6-5 9.4A108.3 108.3 0 0 1 115.6 65l-4.6 3.3-6.2 4.6a81 81 0 0 0-3.3 2l-.4.3ZM88.8 91.8a172 172 0 0 1-3.7 10.6l-2 5.4-1 3c-2.1 5.3-4.6 11.8-3 17 .4 1.2 4 .2 3.7-1-1.6-5.3 1-12.2 3.3-17.9l1.5-3.9 1.6-4.5.9-2.3c0 4.4.5 8.8 1 12.8l.1 1c.6 4.6 1.8 13.2 5.6 15.6.3.3 1.1.2 1.8 0 .1 5.4-.4 11.1-1.8 16.2-2.1 7.7-5.8.4-6.1-3.4v-1.1c0-1 0-1.7-.7-2.7-.6-.8-2.6 0-3.2.4-.5.5-1.1 1.9-1.9 3.6-1.7 3.6-3.8 8.2-6 6-.8-.8-.5-2.8-.2-4.8.3-1.7.5-3.5 0-4.5-.4-1.2-3-.4-3.4.4-.9 1.3-1.3 2.6-1.8 4l-.7 1.8-.2.5c-.8 2.1-2.1 5.3-4.5 5.2-2.1 0-2-1-1.9-3l.1-1.7a65 65 0 0 1 4.6-21.2 137.5 137.5 0 0 1 17.9-31.5Zm8.4 29c.3 1.2.7 2.6 1.3 3.7l-.1-1c-.5-6.7-1.7-13.4-3-20v-.3L93.8 95c0 4.5.3 9 .7 13a63.7 63.7 0 0 0 2.7 12.8Zm.1-36.6 1.5.6a110 110 0 0 0 22.6 4.3 539.3 539.3 0 0 1 6.6.9c5.8.8 11.3 1.5 17.4.8h.2c4-.5 9.1-1 12.3-4 .7-.7 1-1.6 1.3-2.6.2-.6.4-1.3.8-1.8 1-1.5 2.4-2.6 3.9-3.6 2-1.6 4-3 4.8-5.7 1.5-5.3-2.6-5.5-6.6-5.7-1.2 0-2.3-.2-3.3-.3-1.4-.3-.3-1.5.4-1.8 3.7-1.6 23.9-12.4 11.8-16-8.3-2.6-21 2.8-29 6.2l-.6.3a129 129 0 0 0-12.4 6c.6.2 1 .6.3 1.2l-1 .9c-.4.4-1.5.6-2.3.5-4.7 2-9.3 5.6-13.5 8.9l-4 3-2 1.5c-1.5 1.1-3.1 2.4-4.8 3.4a43 43 0 0 0 10.8-3.6 121 121 0 0 1 20.2-6.3l.5-.2c1.8-.4 3.6-1 5.4-1.6 2-.7 3.9-1.4 5.9-1.8h.3c1.2-.4 2.7-.7 3.7.4.9 1-2.6 2.4-3.4 1.4l-6.5 2-2.7 1-4.7 1c-2.7.7-5.5 1.3-8.1 2.1-2.9.9-5.6 2-8.4 3.3a52 52 0 0 1-14.7 4.5c-.8 0-1.3-.2-1.4-.5l-1.8.8c.3 0 .5.2.5.5ZM110 72.4c-1 .5-2.1 1-3.1 1.7a48 48 0 0 0-3.6 3.3l.7-.6a95.2 95.2 0 0 1 5-3.6l1-.8Z" fill="#52525B"/>
  <path d="M66.4 1503.4c-.8-2.3-1.6-4.8-3.7-6.2-4.1-2.7-9.7 1.4-11.6 6-2 4.5-2.3 9.9-5.4 13.8-3-1-5.1-3.4-8-4.6-2.8-1.2-7.2.3-6.8 3.3 0 1 .5 1.7 1 2.4 13 21 29.4 39.8 48.2 55.6a145.4 145.4 0 0 0-56-11.4c-2.7 0-6.4 1.3-5.8 4a52.3 52.3 0 0 0 15.8 8l-14 15.4c-1 1.2-2.1 2.5-2.4 4-.5 3 2.6 5.6 5.6 5.8 3 .3 6-1.2 8.6-2.6l39-20.4a87.8 87.8 0 0 0-24.4 57.4c8-1.3 14.9-8 16.5-16 2 5 4.2 10 8.3 13.2 4.1 3.2 10.9 3.7 14.1-.4a15 15 0 0 0 2.5-7.7c2-15 3.8-31.3-3.6-44.6 2.1 18.5 9 36.4 19.8 51.5 1.5 2.1 3.4 4.4 6 4.4 4 0 5.9-5 5.2-8.7-.6-3.9-2.8-7.4-2.8-11.3 4.5 3.6 11.6 7 15.3 2.6 3-3.6.6-9-2.2-12.7a86.4 86.4 0 0 0-42.4-30.5c13.5-1.3 27.2 1 40.7-.7 13.4-1.8 27.6-9.1 31.3-22.2a40.3 40.3 0 0 0-16.1-1c8-2.2 15-8.4 18.2-16.1-26-2-50.4 13-69.7 30.6 16.5-15 31.9-33 36.2-54.8-5-1-10.5.7-14 4.5 6-3.4 9.5-10.7 8.4-17.5-7.3 1.2-14 5.6-18 12a19 19 0 0 0 2.8-14.4c-4.6-2.3-9 3.5-10.8 8.4-2.3 6-6.7 40-14 41-3.9.5-10-34.2-11.8-40.1Z" fill="#81AD9E"/>
  <path fill-rule="evenodd" clip-rule="evenodd" d="m75.6 1528.2 2 14.5 1-7a92.1 92.1 0 0 1 11.2-31c2-3.6 7.6-12.6 13-12 4.1.5 3 5.1 1.3 9.1 2.1-1.8 4.4-3.3 7.7-4 3.3-.8 7-.7 8.2 3 .3 1 .3 2 .3 3.1l-.5 1.9a9.3 9.3 0 0 0-.7 3c.6 1 3 .7 5.2.5 1.2-.1 2.2-.3 2.9-.1 3.9.6 5.1 3 4.5 6.7-2.2 11.4-14.3 21.8-22.6 28.7a149 149 0 0 1-6.5 5l.3-.2a144 144 0 0 1 36.1-15.6h.4c5.1-1.4 20.2-5.2 22 2.5 1.4 6.2-8 11.2-14.3 14h.4c4.3.1 9.4.3 8.5 6-.4 2.8-3 5.5-5 7.3l-1.4 1c-.6.5-1.1.8-1.5 1.3-1.9 1.8-1.8 2.2-1.6 2.5 0 .3.2.6-.4 1.4-7.7 11.1-24.7 8.9-37.3 7.2l-5-.7-2.5-.2c-5.4-.6-11-1.2-16.2-2.5l1.5 2c3.4 1.5 6.7 3.6 10 5.6 3 2 6.2 4 9.4 5.5a45.3 45.3 0 0 1 21.8 17c2.1 3.3 7.7 13.2 3 16.7a4.2 4.2 0 0 1-3.5.9c-.4 3.7-2 7-6.6 6.7l-.8-.2c.4 4 0 7.6-2 10-3.5 4.2-10 1.6-13.1-1.5-3.1-2.9-4.8-7-6.4-11l-.2-.2v-.3l-.2-.2-1-2.6c-2-4.5-3.8-9-5.6-13.7-1.5-4-2.8-8.4-4.2-12.7-2-6.7-4-13.5-7-19.6l-1-.3 1.5 6.5c3 13.6 6 27.2 3.6 41.3l-.1.8c-.7 4.3-1.7 10.8-7.1 10.9a6.8 6.8 0 0 1-5.6-3.4c-.8-1.3-.9-3-1-4.6v-.7l-.4 1c-.6 2-1.3 3.8-2.7 5.2a7.8 7.8 0 0 1-6 2.3c-2.7-.3-3.3-2-3.3-4.2-1.7 3.9-4 7.6-7.8 8-6 .8-4.9-8.5-4.4-12.6l.1-.8c2-17.4 11.2-31.5 20.4-45.6l1.5-2.3c-2.3 1.7-4.7 3.2-7 4.8l-4 2.5-4 2.7a77.6 77.6 0 0 1-19.9 11c-3.8 1.3-12.7 3.5-15.6-.8-2.8-4 1.6-9 5-12.2-3.4.2-7.2-.7-6.6-4.5.8-5.7 11.9-9.3 17.7-11.2a112.1 112.1 0 0 0 3-1c1.6-.3 3.8-.7 4.2-1.7-.2.5-3.4.5-4.7.6h-.5c-3 .1-6.2.2-9.2-.4-3.3-.6-12.8-4-11-9 1.5-4.4 10.6-4.5 14.2-4.1 7.8.9 15 3.8 22.3 6.7l2.9 1.2a73.5 73.5 0 0 0 20 4.7 6 6 0 0 1-2-2.5 32 32 0 0 1-6.1-3.6l-2-1.5c-4.7-3-9.2-6.4-13.2-10.3a65.8 65.8 0 0 1-17.8-27.7c-1.5-5-4.6-15.5 1.4-17.7 2.3-.8 4.3.2 5.9 1.8a40 40 0 0 1 4.8 6.9 58 58 0 0 0-.5-7.2c-.3-3-.6-5.8-.5-8.7 0-2.4.7-4.7 3.4-5.1 2-.3 3.6 1.6 4.8 3.2.8 1 1.5 2 2.1 1.8.6-.2 1.3-1.6 2-3 .6-1.3 1.1-2.4 1.6-2.9.8-.6 1.8-1 2.7-1.2 4-.7 5.8 2.8 7.1 5.9 3 7 4.4 14.3 5.5 21.8.5 3.8 1 7.6 1.7 11.4Zm10.9 54 2.9 5.7 1.9 3.8.6 1.3c1.2 2.3 2.3 4.5 3.6 6.7l1.4 2c1.3 1.9 2.7 3.8 2.8 5.8.1 1.2 3.8.5 3.7-1-.1-1.9-1-3.1-2-4.6l-.9-1c-2-3.1-3.7-6.4-5.4-9.7l-1.1-2.3a250.1 250.1 0 0 1-4.5-8.7l5.5 3.3c3.7 2.4 7.5 4.3 11.3 6.3l5.8 3a35.9 35.9 0 0 1 14.3 15.8c1 2.2 1.9 4.5 2.1 6.9 0 .4.3 3.3 0 3.4-.6.2-1-3.4-1.1-4 0-1.1-3.7-.3-3.7 1l.2 1.9c.2 1.8.5 4-.4 5-1.3 1.8-3 1.7-4.5.5-1-4.2-2.7-8.1-4.1-10.6-.6-1-3.4 0-3.6 1-.6 3.2 1 8 3.8 11.1 1.5 6.6 1.6 13.4-3.9 12.2-5.5-1.1-8.8-10.3-11-16.5L99 1617c-3.2-7.8-6.1-15.7-8.9-23.7l-1.8-5.6-1.7-5.5Zm-16.1-22.7h-.1l-1.9-1.4a75.6 75.6 0 0 1-26.8-28.2 51.7 51.7 0 0 1-5.9-17.6v-.6c-.4-1.7-1.1-5 1.8-5 .5 0 1.7 2.3 2.3 3.4l.3.6a104 104 0 0 0 5.4 7.6c.6 1 3.3.1 3.5-.9a50 50 0 0 0 0-11.6l-.3-3.6c0-1-.7-7.5-.3-7.7.6-.4 1.4 1 2.1 2.3l1 1.4c1.4 1 3 1 4.6.2 1-.5 1.9-2 2.7-3.3 1.2-2 2.3-4 4-2.8 3 2 4.7 10 5.5 14.2l.3 1.4c.9 4 1.4 8 2 12 .2 2.3.5 4.5.9 6.7l.1 1.2c1.9 11.6 3.7 23 4 34.7-.7-1.4-1.3-3-1.8-4.3l-.7-1.8-.7-1.6-3.6-8.4-.4-1c-1.3-3.3-5.8-14.2-4.5-15.3 1.5-1.4-2-1.4-3-.6-2.4 2.2 1.8 12 3.6 16.3l.6 1.6c1.6 4 3.5 8.1 5.3 12.1Zm3.1 9.9c-3-.7-7.6.6-11.3 1.8a59.7 59.7 0 0 1-6.3 1.5c-5.4 1.1-14.2 2.9-15.7 7-.4 1.2-4 1.6-3.6.4 1.8-5 8.4-6.5 13.6-7.8l2.7-.6c3.1-.9 6.3-1.6 9.5-2.4l4.6-1.1c-4.5-.6-9-2-13.2-3.5l-6-2.4c-2.7-1.2-5.4-2.4-8.3-3.3a80 80 0 0 0-13.5-3l-6 5c-.2 1.9 7.2 4 8.6 4.3 2.7.6 5.6.5 8.3.3.9 0 1.8-.2 2.7-.4 1.8-.3 3.7-.7 5.5-.2.6.2 1 .5.6 1-1.5 2.5-4.3 3.3-7 4.1l-2.1.7-1.5.5a44 44 0 0 0-9.9 4.2c-1.4 1-6 4.4-5.8 6 .3 2.1 5 2 6.2 1.5.7-.4 3.6-.3 2.1 1l-.6.6c-2.5 2.1-5.3 4.5-6.2 7.8-1 3.2-.7 3.3 2.7 4.3l.3.1c3.6 1.2 5 1 8.4 0 6.3-2 12-6 17.5-9.8l2.2-1.5 4.7-3.1c4-2.7 8-5.4 12-8.3l1-.8 1.7-1.2 1.3-2.2.8-.5Zm10.5-9.2-3.8 2.7a139 139 0 0 1 18.4-31.5c1-1.3-2.7-1-3.4 0-6 7.2-10.9 15.7-15.1 24.4l.7-8.3.3-3.2c.8-8 2.4-15.8 5-23.5a63 63 0 0 1 11.3-22s0-.2.2-.3c.7-.9 3-3.4 3.6-3.3.8.2.4 3.6.3 4-.3 1.8-1 3.4-1.9 5-.5 1-1 2.1-1.4 3.3-.5 1.4 2.9.4 3.3 0l2.2-2.3c1-1 1.8-2.1 2.8-2.8 8.1-3.1 11.4-1.8 10 4l-1 2.8c0 2 0 2 2.2 2.5 1.3.2 2.8.1 4.2 0 3.8-.2 7.3-.4 6 5.3-.8 3.4-3 6.6-5 9.4a108.2 108.2 0 0 1-29 27c-2.1 1.4-4.2 3-6.2 4.5l-3.3 2-.4.3Zm-12.2 16.6c-1 3.6-2.4 7.2-3.7 10.6l-2 5.4-1 3c-2.1 5.3-4.6 11.8-3 17 .4 1.2 4 .2 3.7-1-1.6-5.3 1-12.2 3.3-17.9l1.5-3.9 1.6-4.5.9-2.3a115.7 115.7 0 0 0 1.1 13.8c.6 4.6 1.8 13.2 5.6 15.6.3.3 1.1.2 1.8 0 .1 5.4-.4 11.1-1.8 16.2-2.1 7.7-5.8.4-6.1-3.4v-1.1c0-1 0-1.8-.7-2.7-.6-.8-2.6 0-3.2.4-.5.5-1.1 1.9-1.9 3.5-1.7 3.7-3.8 8.3-6 6.1-.8-.8-.5-2.8-.2-4.8.3-1.7.5-3.5 0-4.5-.4-1.2-3-.3-3.4.4-.9 1.3-1.3 2.6-1.8 4l-.7 1.8-.2.5c-.8 2.1-2.1 5.3-4.5 5.2-2.1 0-2-1-1.9-3l.1-1.7c.2-7.3 2-14.4 4.6-21.2 3.8-10.2 9.7-19.1 15.6-28l2.3-3.5Zm8.4 29c.3 1.2.7 2.6 1.3 3.7l-.1-1c-.5-6.7-1.7-13.4-3-20v-.3l-1.6-8.3c0 4.5.3 9 .7 13a63.7 63.7 0 0 0 2.7 12.8Zm.1-36.6 1.5.6c7.4 2.5 15 3.4 22.6 4.4l4.6.5 2 .3c5.8.8 11.3 1.5 17.4.8h.2c4-.5 9.1-1 12.3-4 .7-.7 1-1.6 1.3-2.6.2-.6.4-1.3.8-1.8 1-1.5 2.4-2.6 3.9-3.7 2-1.5 4-3 4.8-5.6 1.5-5.3-2.6-5.5-6.6-5.7-1.2 0-2.3-.2-3.3-.3-1.4-.3-.3-1.5.4-1.8 3.7-1.6 23.9-12.4 11.8-16-8.3-2.6-21 2.8-29 6.2l-.6.3a129 129 0 0 0-12.4 6c.6.2 1 .6.3 1.2l-1 .9c-.4.4-1.5.6-2.3.5-4.7 2-9.3 5.6-13.5 8.9a215 215 0 0 1-6 4.5 71.4 71.4 0 0 1-4.8 3.4c3.7-.5 7.3-2 10.8-3.6a81.4 81.4 0 0 1 20.2-6.3l.5-.2c1.8-.4 3.6-1 5.4-1.6 2-.7 3.9-1.4 5.9-1.8h.1l.2-.1c1.2-.3 2.7-.6 3.7.5.9 1-2.6 2.4-3.4 1.4l-6.5 2-2.7 1-4.7 1c-2.7.7-5.5 1.3-8.1 2.1-2.9.9-5.6 2-8.4 3.3a52 52 0 0 1-14.7 4.5c-.8 0-1.3-.2-1.4-.5l-1.8.8c.3 0 .5.2.5.5Zm12.7-11.8-3.1 1.6a47 47 0 0 0-3.6 3.4l.7-.6 1.7-1.3 3.2-2.3 1-.8Z" fill="#52525B"/>
  <path d="M239.9 60.9a25 25 0 0 0 2.8 13.8c1.7 3.6 4.3 7.4 8.2 7.7a10 10 0 0 0 4.2-.8c10.9-3.9 22-18.4 12.8-29.2-8.7-10-26.2-4.6-28 8.5ZM325 29a9.8 9.8 0 0 0-4.3 7.6c-.3 3 .4 6 1.4 8.9 1 3 2.1 5.8 4.2 8 3.3 3.7 8.6 5.2 13.4 4.3 9.2-1.7 18.9-14.1 11.6-22.8-4.3-5.2-20.6-9.3-26.2-6Zm-1.5 104c-1.9 2.4-2 5.8-1.9 8.9 0 2.3.2 4.7 1.2 6.8 2.5 5.8 9.8 7.5 16 8.4 1.6.2 3.1.4 4.6.2a14 14 0 0 0 7-4.2c2.7-2.5 5.3-5.3 6.1-8.8 3.8-15.4-25.9-21-33-11.3Z" fill="#CFA1A1"/>
  <path fill-rule="evenodd" clip-rule="evenodd" d="m331.5 56.6.2.5c.2.6-.4 1.3-1.2 1.7v.6c0 .4-.3.7-.7 1.4-.6 1-3 1.7-4 1.3l-1.6 1.9-1.8 2.1a567.7 567.7 0 0 0-46.5 52.5 62 62 0 0 1 22.4-7.2c3.5-.4 14.2-.9 15 4.4.8 4.4-6.4 5-9.6 5.3h-.6c-8.2.8-16 .7-24 .7a1184 1184 0 0 0-5.6-.1 1291.3 1291.3 0 0 0-34.7 46.2 250.9 250.9 0 0 0 42.2-8.3c7.4-2 14.7-4 22-6.2l15.4-4.4c-.3-3.6 2.2-8.2 3.8-11.1l.1-.2.1-.2c2.4-4.3 5.5-7 9.8-9.2 3-1.5 7.1-2.8 9.7.3a6 6 0 0 1 1.2 4.3 10 10 0 0 1 3.4-.6c2.5 0 4 1.2 4.3 3.8.2 1.9-.6 3.1-1.4 4.4-.4.6-.9 1.3-1.2 2.1 3.6-.1 6.2.7 3.4 5.1-3.2 5.3-8.9 9.7-15.1 10a20.5 20.5 0 0 1-15.5-6c-.8.2-1.6.1-1.9-.4l-16.3 4.7-19.5 5.5A171.8 171.8 0 0 0 298 168c2.3.8 4.6 1.6 6.7 2.8 3.5 2 7.9 6.2 2.8 9.3-4.5 2.6-11.9-.2-15.9-2.5a41 41 0 0 1-13.3-14.7 258.6 258.6 0 0 1-41.4 7.8 8501 8501 0 0 0-14 19.2 819.2 819.2 0 0 0-22.8 32.9c-1.5 2.2-4 5.7-4 7.2.2 1.5-4.3 2.9-4.4 1-.2-2.2.6-3.2 1.7-4.5l.9-1.2a136 136 0 0 0 5.3-7.9l3-4.4c5.4-8.1 11.1-16 16.8-24l26.6-36.3c-2-11-1.3-21.8 0-33-2-.2-3.7-1.5-5.4-2.8a43.2 43.2 0 0 1-9.8-10v-.1c-1.8-2.8-7.1-10.9-3.2-13.7 3.7-2.8 7.4.7 10.1 3.2.2 0 .3.2.5.4 3 2.7 6 5.5 7.9 9a19.7 19.7 0 0 1 1.5 4l1.5-7.9 1.9-10.1.8-6.5.8-6.5-.6.1c-2.5.5-2.2-1.2-.8-2-3.7 0-7-.5-9.2-4a27.6 27.6 0 0 1-3.2-17.7c.6-2.8 2.3-5.6 5.4-5.8 3-.2 4.2 2 5.5 4.1l.9 1.4 1-2c2-3.3 4-6.9 7.2-7.6 4.3-.9 4.4 3.8 4.5 7.3v.7l2.4-1.9c1.9-1.5 3.8-3.2 6.7-2.8 4 .5 4.2 4.2 3.5 7.6a29.2 29.2 0 0 1-18.7 21.2 136 136 0 0 0-.9 6.8 132.8 132.8 0 0 1-2.7 16.7l-1.7 9.1a128.4 128.4 0 0 0-2 37.6l5.7-7.6a858.3 858.3 0 0 1 38-47.4c-3.8-.7-4.8-5.8-5.5-9.4l-.3-1.2-.5-2.4c-1.4-6-3.4-14.6.7-19.3.7-.8 2.9-1.7 3.9-.9 4.8 4 4.6 13.4 4.4 20.5l.3 2.2c.2 1.7.5 3.6.5 5.3l.9.2c5.7-6.4 11.5-12.8 17.7-18.8l3-3.4c2.5-2.9 5.2-6 8.2-7.4-.6-1-1.4-2-2.3-2.8l-1.9-2.2a20 20 0 0 1-1.7-20.5c1.3-2.5 3.5-5.1 6.5-5.4 3.3-.3 4.4 1.8 5 4.3l1.2-1.2c1.9-2.2 3.8-4.4 6.8-4.4 3.6.1 3.2 3.2 2.7 6l-.2 1.4 1.9-1c2-1 4.3-2.2 6.3-.8 3.1 2.3.3 7.6-2 11l.6-.2c2.2-1.4 4.5-2.8 6.7-1 2.4 2 0 5.2-1.4 7-5.7 7.4-14.8 9-23.5 8.5Zm-26.7 120.2c-.3-1-1-1.8-2-2.6-.1.4-.7.8-1.3 1.1l.9.9 2.4.6Zm-74.6-81.2c.5 0 1.3.5 2 1.1l-.7.3c-.5-.8-1-1.4-1.3-1.4Zm59.7-30.5.3 1.1-.4.3.1-1.4Zm33.3 83.7c2-.6 3.1-3.2.1-2.6l-.3.1c.2-3.3 2.5-7.1 3.9-9.5l.2-.3c2-3.5 4.2-5.9 8.4-5.3 2.8.4 3.2.5 3 3.2l-.4 1.5a6.5 6.5 0 0 0-2.1 3.6c-.3 2 3.6.1 4.1-.4.7-.6 1.4-1.5 1.9-2.5 1.3-1 3.3-1.3 4.1-.2.8 1.2-.4 3.7-.9 4.6l-.6 1.1c-.5.8-1 1.5-1.2 2.5 0 .8 1 1 1.5.9 4.4-.4 2.9 2.5.8 4.6-4 4.3-8.7 5.5-14 3.6-.8-.3-2-1.2-3.3-2.1-2-1.3-4-2.8-5.2-2.8Zm-51.7-93c-.6 7.8-6.7 15-13.8 18.5l.6-2.5c.5-1.5-4-.5-4.5 1l-.3 1c-3.9.1-6.6-1-8.2-5.2-1.3-3.2-2-7.2-2.3-10.6v-3.3l.2-.6.4-1.7.3.4c.1.4.3.9.7 1.4L246 56c.6 1 1.2 2.1 2.2 3 1.1.8 3.1-.2 4-1 1-1.1 2-3 3-4.8 1-1.7 2-3.4 3-4.6.8 1.3.7 3.7.7 5.5v2c0 .7 1.7.5 2 .4 1.2-.3 2.7-1.2 4.2-2.2 3.4-2.1 7-4.4 6.5 1.3Zm57.5-2.3a19.8 19.8 0 0 1-5.2-9.6 16.8 16.8 0 0 1 .5-9.7c.4-1.1 1.6-3.9 3.3-3 .4.2.7 2 .9 3.1l.1.9c.3 1.1 2.7.3 3.2 0 1-.6 1.8-1.4 2.6-2.2a6 6 0 0 1 2.2-2c2.7-1.7 2.3.3 2 2.3l-.3 2.1c0 .8.9 1 1.5.9.7 0 2.2-.7 3.5-1.3 1.3-.5 2.5-1 2.8-1 4.2 1.1-.9 8.3-2.6 10.8l-.4.5c-.6.9.8 1.2 1.4 1.2.8 0 2-.5 3.3-1 3-1 6.4-2.1 3.7 2-4.9 7-14 6.9-21.5 6h-1Z" fill="#52525B"/>
  <path d="M299.5 230.4c0 .6-.2 1.2-.6 1.7-.9.8-2.3.2-3.5-.2-5.1-2-10.8 1.1-14.8 5-3.3 3-6.2 7.3-5.4 11.8.8 4.4 5.1 7.4 9.5 8.2 4.5.7 9-.4 13.3-1.6a6 6 0 0 0-.9 3c-.3 5 2.6 10 6.9 12.8 4.3 2.7 9.7 3.3 14.7 2.4 2-.4 4.2-1 5.8-2.4 2.5-2.2 3.5-5.8 3.3-9-.2-3.4-1.4-6.6-2.7-9.7 1.2 3 14-10 14-14 0-6.4-5.5-11.9-10.6-15-11.9-7-26.5-11.9-29 7Z" fill="#F5E38D"/>
  <path fill-rule="evenodd" clip-rule="evenodd" d="m303.6 251.6.4-.7c.6-.9-2.6-2.2-3.2-1.1-.6.9-1.2 1.9-1.6 3-6.4 3.2-20.2 3-20.2-4.9.1-9.8 12-16.6 20.3-10.7.7.5 3.8.9 2.5-.6-3.5-4-1.8-10.7 1.7-14.3 2.6-2.6 8.6-8.3 11.8 1.2 1.2 3.7-1.3 8.7-3.2 11.7-.5.9 2.6 2.2 3.3 1l1-1.5c1.8-2.8 3.8-6.1 7-7.2 12-4 9.7 6 8.3 10.2-1 2.9-2.6 6.8-5.1 9.4-3.2-1.4-7-1.3-6.3 3.4.1 1 1.8 1.4 2.6 1.4 1 0 1.8-.3 2.7-.7h3.1l.6 3.8c-.1 1.3-.7 2.8-1.3 4a19 19 0 0 1-11.3 9.2c-5 1.7-5.5 1.4-10.7-1.4l-2.4-1.2c-3-1.5-3.1-1.6-2.9-5.5.1-1.2.4-2.4.7-3.5l2-1.4c1 .5 2.6.6 2.4-.3l-.2-1.4c0-.4-.6-.8-1.2-1 0-.4-.4-.7-.8-1Zm-6.7 4.7c-8.3 1.9-19.7.6-21.2-6.7-1.4-6.1 3.6-13.7 9.3-15.7 4-1.3 8.5-1.2 12.4.3-2.5-6.3 1.6-15 8.3-17 3.5-1 7.5.1 10.2 2.5 2.2 2 3 4.6 2.8 7.4 1.7-1.4 3.8-2.3 6.4-2.5 3.5-.2 7 1.2 9.1 4 4 5.1.7 15.1-4.8 20.2 6.1 5.3 2.3 13.4-3.5 17.7-6 4.5-16.9 7.7-23.8 3.5-3.8-2.3-5-6-4.8-10-4.7 4.4-8.6 9.8-12.4 15.1l-3.8 5.2c-4.6 6.1-9.2 12.3-13.7 18.6 4.6-2.9 9.7-4.7 15.3-5 3-.2 6 0 9 .2 1.7.1 3.5.3 5.3.3h2.8a13 13 0 0 1 6.5.7c.3.1 1.1.7.9 1.2-1 2.3-3.1 3.7-5.2 5.1-.7.6-1.5 1-2.1 1.7l-2.1 1.6c-2.1 1.8-4.2 3.6-6.6 5a35.4 35.4 0 0 1-17.3 6.5 40 40 0 0 1-15.8-3.6c-11.2 17.9-20 37-23.5 58-.2 1-3.5 0-3.3-1.2a157.8 157.8 0 0 1 24.2-59.2c-.3-.6-.4-1.1-.4-1.8 0-.5 1-.5 2-.2a280.8 280.8 0 0 1 3.4-5.3c-1 0-2.2-.7-2.2-1.3-10.1-4.2-10.6-13.5-8.4-23.4l.3-1a57 57 0 0 1 8.9-23c4.4-5.1 8.4 0 9 5a78 78 0 0 1-4.4 39.2c5-7.2 10.4-14.3 15.7-21.4l1.2-1.5 2.4-3.3a86.9 86.9 0 0 1 13.9-16ZM260 309.7l-.8 1.2a23 23 0 0 0 7.3 2.3c5.5 1.4 9.8.9 14.9-1.5 3.8-1.7 7.4-3.8 10.7-6.3l2-1.3c2.8-2 7.7-5.2 7.9-6.5.3-1.5-2.6-1.4-4.7-1.4H296l-3-.1a58 58 0 0 0-11 0 35 35 0 0 0-22 13.6Zm5-41c.4 9.6-1.2 21.5-5.6 30.5-.6-.1-1.1-.1-1.4.2-2.9 2.8-5.8-7.8-6-9.1-.3-2.7.1-5.4.5-8l1.4-6a89.2 89.2 0 0 1 6.1-17.2l.2-.3c1.6-3.1 3.2-6.2 4.5-1.1.5 2.2.5 4.9.4 7.4v3.5Z" fill="#52525B"/>
  <path d="M25.6 537.5c-8.3 2.2-4.8 15.1 3.5 12.9 8.3-2.3 4.8-15.2-3.5-13ZM82 472.8a6.7 6.7 0 0 0-5-.7 7 7 0 0 0-4.1 3.1l-1.1 2a6.9 6.9 0 0 0-.7 5 6.7 6.7 0 0 0 8.2 4.7 7 7 0 0 0 4-3.1l1.2-2c.8-1.4 1-3.3.6-5a6.8 6.8 0 0 0-3.1-4Zm22.6 77.4a7 7 0 0 0-5-.7l-1.5.4a6.9 6.9 0 0 0-4 3.1 6.8 6.8 0 0 0-.7 5.1 6.7 6.7 0 0 0 3.1 4 7 7 0 0 0 5 .7l1.6-.4a6.9 6.9 0 0 0 4-3.1 7 7 0 0 0 .7-5.1 6.7 6.7 0 0 0-3.2-4Z" fill="#81AD9E"/>
  <path d="M44.8 495.7a6.8 6.8 0 0 0-5-.6 6.7 6.7 0 0 0-4 3.1 7 7 0 0 0-.7 5l.4 1.6a6.9 6.9 0 0 0 3.1 4 6.7 6.7 0 0 0 9.1-2.5 7 7 0 0 0 .7-5l-.4-1.5a6.9 6.9 0 0 0-3.2-4ZM92 509.8c-8.3 2.3-4.8 15.1 3.5 12.9 8.3-2.3 4.8-15.2-3.5-12.9Z" fill="#CFA1A1"/>
  <path fill-rule="evenodd" clip-rule="evenodd" d="M78.3 469c1-.6 2.4-1 3.4-1.2 2.6-.6 5.6-.1 7 2.5 2.4 4.8-1 13-5.1 16a11.1 11.1 0 0 1-7.3 1.8c-8 10.8-10.4 29.7-11.2 42.2-.4 6-.2 12.2.5 18.3.2 0 .4 0 .5.2 4.7 4.2 13.6-8.5 15.7-11.7 1.4-2.1 2.5-4.5 3.6-6.8.9-1.8 1.7-3.5 2.7-5.2.2-.4.6-.7 1.1-1-4-1-7.2-3.9-7-8.4 0-4.8 5.2-7.2 9.5-7 2.3-.6 4.8-1 7 .2 2.5 1.3 3.7 4 3.4 6.7-.4 5.3-4.7 9-10 9l-.1.2-3 5.5a51.1 51.1 0 0 1-12.4 17.2c-2 1.7-6.7 5-10.5 5.3a231.6 231.6 0 0 0 5.1 25.4l.8.4c.7.3.4 1-.2 1.6 1 4.1 2.3 8.3 3.7 12.3l.3-.1c10.7-3.3 16-14.4 19-24.4-5.6-1.7-6.7-8-4.8-13 1.8-4.6 7.8-6.2 12-4.2 1.6 0 3.2.7 4.1 2.3a12 12 0 0 1 .9 7.9 9.8 9.8 0 0 1-8.3 7.3c-3.8 11.5-10.6 22.4-22.4 26.7a235.3 235.3 0 0 0 7.2 18.3c5 11.6 10.4 24 18.3 33.8 1 1.3-3.2 4-4.3 2.5-9.2-11.5-15.2-26.1-20.8-39.7l-.3-.8c-3.8-9.2-6.9-18.6-9.4-28.1a71.4 71.4 0 0 1-20.3-13.2c-5.2-5-11.7-11.2-13.8-18v-.2c-1.5.7-3 1-4.8 1.1-13 .6-9.8-22.5 3.3-21 .8 0 .7.6.3 1.2 4.8-.7 9.3.5 8.7 6.9-.3 3.5-1.7 6.8-3.9 9.1.3 0 .5.2.6.5 2.4 7.5 10.8 15.2 16.6 20.3 3.7 3.3 7.7 5.6 12 7.8l-2-9.2c-2.1-11-3.4-22-3-33a28.7 28.7 0 0 1-10.6-8.4c-3-4.3-5.3-9.1-6.9-14l-2.1.2c-6 .2-8-6-7.1-11.2.8-5.6 6.2-8.2 11.4-7.4 2-.4 4.3-.5 5.6 1.4a13 13 0 0 1 1.8 8 9.7 9.7 0 0 1-5 7.2c1.4 4.2 3.3 8.1 5.6 11.8 2.1 3.4 4.6 5.5 7.6 7.4l1-7.2c1.8-11 4.3-24.8 11.3-34-1.7-1-2.5-3-2.9-5.3-.7-5.3 1.8-12.5 7.9-12.8Zm21.2 96.1c.9 0 1.7-.1 2.3-.8.9-1 1-2.8 1-4.1 0-2.7-.8-6.9-4.5-6-1.4.3-1.6-.2-1.4-.9-.8-.2-1.8-.3-2.3 0-1 .7-1 3.5-1 4.6 0 3 1 5.6 4 6.7l.2.1c.9-.2 1.6-.2 1.7.4Zm-72.5-32c-4.6 1.6-3.9 14.8 3.3 14.4 4.8-.3 7.2-7.9 5.2-11.8-1.5-2.8-5-1.9-7.5-1.2-1.8.5-1.7-.5-1-1.5Zm62.8-21h.5c.4.1 1.1-.1 1.8-.5 2.5-.2 4.8.7 5.5 3.7.3 1.3.1 2.7-.3 4-.7 1.8-1.8 2.1-3.7 1.9-2.5-.4-5-1.4-6.1-3.7-.6-1-1-2.5-1-3.7.2-1.5 1-1.9 2.1-1.9.3.2.7.2 1.2.1Zm-43.2-5.4a6 6 0 0 0 1.8-5.4c-.2-1.3-.6-3.3-1.3-4.5a3 3 0 0 0-1.8-1.2c-.6.4-1.3.6-1.7.4h-.8c-.7.2-1.2.1-1.5-.3-1 0-1.8.2-2.3 1-1 1.1-.8 3-.6 4.4.2 2.6.8 6.1 3.8 6.7h1.5c.9-.7 2.2-1.2 3-1Zm30.2-34.4c.7.7 3-.3 4-1.5h.4l.5.1c.7.2 1.2.3 1.9.8 1 1 1.3 2.5 1.2 3.8 0 2.4-.7 6.2-2.4 8.1-2.6 2.9-6.4.7-7.3-2.5-.3-1.3-.4-2.8-.3-4.2 0-1 .3-4.7 1.6-4.6h.4Z" fill="#52525B"/>
  <path d="M99.2 1652.2c-6.2-6-15.4 3.7-9.2 9.6 6.2 6 15.4-3.7 9.2-9.6Zm84.5 14.8a6.7 6.7 0 0 0-2-4.6 7 7 0 0 0-4.8-1.9h-2.2a7 7 0 0 0-4.6 2.1 6.6 6.6 0 0 0-1.9 4.8 6.7 6.7 0 0 0 6.8 6.5h2.2a7 7 0 0 0 4.7-2.1c1.1-1.2 2-3.1 1.8-4.8Zm-54.5 59.4a7 7 0 0 0-2.1-4.7l-1.1-1a7 7 0 0 0-4.8-1.9 7 7 0 0 0-4.7 2c-1 1.4-2 3-1.8 4.8a7 7 0 0 0 2 4.7l1.2 1c1.2 1.2 3 2 4.7 1.9 1.7 0 3.6-.8 4.7-2 1.1-1.4 2-3 1.9-4.8Z" fill="#81AD9E"/>
  <path d="M144.9 1647c0-1.5-.8-3.5-2-4.6a6.7 6.7 0 0 0-9.5.2l-1 1.2a6.8 6.8 0 0 0-1.9 4.7 7 7 0 0 0 2 4.7c1.4 1.1 3 2 4.8 1.8a7 7 0 0 0 4.7-2l1-1.2c1.2-1.2 2-3 1.9-4.7Zm12.3 47.7c-6.2-6-15.4 3.7-9.2 9.7 6.2 5.9 15.4-3.7 9.2-9.7Z" fill="#CFA1A1"/>
  <path fill-rule="evenodd" clip-rule="evenodd" d="M185 1662c1.1.5 2.2 1.4 2.9 2.2 1.8 2 3 4.8 1.4 7.3-2.9 4.5-11.7 5.8-16.3 3.8a11 11 0 0 1-5.4-5.2c-13.3-1.3-30.7 6.4-41.8 12.2a91.8 91.8 0 0 0-15.4 9.9v.5c-1.1 6.2 14.4 7.3 18.1 7.4 2.6 0 5.2-.2 7.8-.4 2-.2 3.9-.4 5.8-.4.4 0 .9.2 1.4.4-1.2-3.9-.4-8.1 3.6-10.4 4.1-2.4 8.8.8 10.9 4.6 1.7 1.7 3.3 3.6 3.4 6.1a6.8 6.8 0 0 1-4 6.4 9.6 9.6 0 0 1-12.7-4h-.4l-6.2.4a52 52 0 0 1-21.1-1.8 23 23 0 0 1-10-6.2 230.5 230.5 0 0 0-19.1 17.5v.9c.1.6-.6.8-1.4.6-3 3-5.9 6.2-8.7 9.5l.3.2c8.3 7.5 20.6 6.2 30.7 3.7-1.5-5.6 3.4-9.8 8.7-10.8 4.8-.9 9.3 3.4 9.7 8 .8 1.5 1.1 3.2.2 4.8a12 12 0 0 1-6.3 4.8 9.8 9.8 0 0 1-10.6-3.4c-11.8 2.8-24.6 2.5-34.4-5.3-3.9 4.6-7.6 9.5-11.2 14.5l-.8 1.1a148 148 0 0 0-19.5 33.1c-.5 1.5-5-.7-4.3-2.4 5-13.8 14.5-26.5 23.2-38.3l.6-.7c5.9-8 12.3-15.4 19.3-22.5-.7-7.7-1.3-15 .5-22.7l.3-1.5c1.5-7 3.5-15.9 8.1-21.1l.2-.2c-1.3-.8-2.4-2-3.3-3.4-7.3-11 14.2-20 19.7-8.1.3.7-.1 1-.9.9 3 3.7 4.4 8.2-1.4 11a15.5 15.5 0 0 1-9.8 1.4l-.1.8c-5.3 5.9-7.5 17-8.9 24.6-.8 4.9-.8 9.6-.4 14.3l6.8-6.4a141 141 0 0 1 26.7-19.6c-.2-4.7-.3-9 1.7-13.4 2.2-4.8 5.1-9.3 8.5-13.2l-1.3-1.7c-3.2-5 1-9.9 5.9-11.9 5.2-2.1 10.3 1.1 12.2 6 1.5 1.5 2.7 3.4 1.8 5.5a13 13 0 0 1-6 5.7c-3 1.3-6 .9-8.8-.6-2.8 3.4-5.1 7-7.2 11a22.7 22.7 0 0 0-2.4 10.3l6.7-3c10.4-4 23.5-9 35-7.7 0-2 1.2-3.8 3-5.3 4.2-3.4 11.6-5 15 .1Zm-71.3 67.8a3 3 0 0 0 1.9 1.5c1.3.2 3-.6 4-1.3 2.3-1.4 5.5-4.2 2.9-7-1-1-.8-1.5 0-1.6-.3-.8-.7-1.7-1.3-2-1-.4-3.5 1-4.4 1.6-2.6 1.5-4.2 3.7-3.7 6.8v.3c.7.6 1 1.3.6 1.7Zm-10-78.8c-3.7-3-14.7 4.4-10.6 10.3 2.7 4 10.4 2.2 12.7-1.6 1.7-2.7-1-5.2-2.8-7-1.3-1.3-.5-1.8.7-1.7Zm50.4 43 .2.4c.2.5.7 1 1.4 1.3 1.4 2 2 4.5-.3 6.6-1 1-2.3 1.6-3.6 1.8-2 .4-2.7-.3-3.5-2.1-1-2.3-1.4-5 0-7.2.6-1 1.5-2.1 2.6-2.6 1.4-.7 2.2-.2 2.8.7 0 .4.1.7.4 1Zm-17.7-39.7a6 6 0 0 0 5.5-1.3c1-.8 2.5-2.2 3.2-3.4.4-.8.4-1.5.1-2.2-.6-.3-1-.8-1.2-1.2l-.1-.5-.3-.2c-.5-.5-.7-1-.5-1.5a2.6 2.6 0 0 0-2-1.5c-1.5-.1-3 1-4.2 1.8-2 1.6-4.8 3.9-3.7 6.8l.7 1.3c1.1.3 2.3 1.2 2.5 1.9Zm45.1 8c-.3 1 1.8 2.5 3.2 2.7l.3.3.1.5c.3.7.5 1.2.3 2-.2 1.5-1.4 2.4-2.6 3.1-2 1.2-5.7 2.5-8.1 2-3.8-.6-4-5-1.7-7.4 1-1 2.2-1.8 3.4-2.5 1-.5 4.3-2.2 4.9-1 0 .1 0 .2.2.3Z" fill="#52525B"/>
  <path d="M164.8 507.1c-8.6 0-8.6 13.4 0 13.4s8.6-13.4 0-13.4Zm35.7 33a6.7 6.7 0 0 0-4.7-2 7 7 0 0 0-4.7 2l-1.5 1.5c-1.3 1.3-2 3-2 4.8 0 1.6.7 3.6 2 4.7 1.2 1.1 2.9 2 4.7 2a7 7 0 0 0 4.7-2l1.5-1.6a6.5 6.5 0 0 0 0-9.4Zm6.2 67.9c-8.6 0-8.6 13.2 0 13.2s8.6-13.3 0-13.3Z" fill="#F5E38D"/>
  <path d="M140 499.4c-8.6 0-8.6 13.3 0 13.3s8.6-13.3 0-13.3Zm48 85.3c-8.5 0-8.5 13.3 0 13.3 8.7 0 8.7-13.3 0-13.3Z" fill="#CFA1A1"/>
  <path fill-rule="evenodd" clip-rule="evenodd" d="M139.1 510.2h1.3c0 8.6 1.8 17.3 3.7 25.9l2 9.5.6 3.4c1 6.2 2.1 12.6 6.4 17.3-1.9 3.8-3 8.7-3.9 13.2l-1.4 6a335.7 335.7 0 0 1-14.3 40.5l-2.7 6c-4.7 11-9.6 22.3-15.7 32.4-.7 1.2 3.2 1.4 4 .2 5.4-9 9.8-19 14-28.8l3-6.7 2.1-4.8c1.6-2.3 5.3-4.9 8-6.8l2-1.5 6.1-4.4c6.8.6 13.6.3 20.4-.1a120 120 0 0 1 23 .1l-.6 1.5v.1c-.4 1.3-1 3-.4 4.3.7 1.6 3 2.5 4.7 2.9 2 .5 4.2.5 6-.6 2-1.1 3.2-4.1 4-6 2-5.1-2-7.3-6.3-8-1.2-.3-3.3.7-2.9 1.4a5.8 5.8 0 0 0-3.4 2.4 135.8 135.8 0 0 0-29.7-.5c-4 .4-8 .7-12 .5l4-2.7c7.1-5 14.2-9.3 21.6-13.2a6 6 0 0 0 2.6 1.9c4.9 2 8.7-.6 11.3-4.6 1-1.4 1.7-3.4 1.1-5-.7-2.1-3-2.6-4.9-2.7h-.2c-2.4-3.5-6.9.8-8.4 3a9.8 9.8 0 0 0-2.1 5 204 204 0 0 0-25.2 15.3 146 146 0 0 1-6 3.9c-3.2 2-6.7 4.2-9.7 6.6a312.7 312.7 0 0 0 11.3-34l3.5-12 .4-1.2 1-2.9.5-.3c.8-.5.6-.8 0-1.1 1.2-2.5 1.3-2.4 1.7-2.2.3 0 .7.3 1.8-.6 4.7-3.9 10-7.2 15.4-10.4a148 148 0 0 0 7.8-4.9l.4.6c1.1 1.3 3 1.6 4.6 2-.5 1 3.3 1.2 4 0 .7-1 1.7-1.7 2.6-2.3.9-.6 1.7-1.2 2.4-2 1.2-1.6 1.2-3.6.5-5.5-1.4-4.2-6.2-6-10.4-5.4-4 .6-5.3 4.3-5.2 8 0 .7 0 1.4.2 2.1a217 217 0 0 1-20.6 13.1c-2.3 1.2-4.7 2.3-6.4 3.6-.6.4-1 1-1.5 1.4-3.4-5-4.4-12-5.3-18.5v-.3c.2 0 .5-.1.7-.3 2.8-2.7 5-6.2 7.2-9.6l1-1.8c1.2-1.6 2-3.6 2.9-5.6.8-2 1.6-3.8 2.5-5.5 2.7.2 5-.9 6.6-3.6 1.6-2.7 2-6.2-1.2-7-2.8-4.2-9-4.6-11.9 0-1 1.7-2.1 4.6-1.4 6.6.6 1.8 2.7 2.7 4.4 3.3-.9 1.5-1.6 3.1-2.2 4.7-.6 1.3-1.1 2.6-1.8 3.8a69 69 0 0 1-7.4 11.5 68.2 68.2 0 0 0-1.7-8.3c-1.5-7.2-3-14.5-3.1-21.8h1.2c.8 0 2 0 2.5-.9 1.5-3 2.2-8.5-.1-11.3-2.9-3.3-7.6-3-11.2-1-3.3 1.9-5.5 5-4.8 9.1.6 3.8 4 3.7 7 3.6Zm48.8 35c.2 0 .3-.1.5-.3 1-.7.3-1.2-.8-1.4v-.4c-.2-2.6.2-7.3 4-5.9 2.8 1 5.1 5 3.4 7.8-.6 1-1.6 1.8-2.6 2.5l-.9.6c-1.2-.2-2.2-.4-2.9-1.3-.3-.4-.5-1-.7-1.5Zm-51.8-39.6c.2 2.7 2.3 2.7 4.5 2.6.7-1.1 4-1.2 3.9 0v.7c.8-2 1.1-4.6 1-6.6a4.7 4.7 0 0 0-1.8-3.4c-1.7-1.3-3.5-.5-5 .5a6.8 6.8 0 0 0-2.6 6.2Zm30.3 12.7c-.4-.7-3.1-.8-3.8 0-.2 0-.3.2-.4.3a4 4 0 0 1-1.5-1c-.8-1-.6-2.2-.3-3.3.3-1.3.8-2.8 1.7-3.8 1.5-1.8 3.1.5 4 1.8.1.4.8.6 1.5.6 1.2.1 0 3.5-.3 4l-1 1.4ZM186 592l2.4-1.2c2.3-1-.6-2.1-2-1.6l.7-1.4a25.8 25.8 0 0 1 2-2.6s0-.2.2-.2c.4.1.9.2 1.4.1l1.2.3c2.5 0 2 3 1.1 4.7a14 14 0 0 1-2 2.7l-.2.2c-1 1.2-2 1.5-3.5.6-.7-.5-1.1-1-1.3-1.6Zm16.8 17.2c1 .3 2.3-.3 2.8-.9 1.3.6 2.2 1.5 2.2 3.3 0 1.4-.8 2.7-1.5 4l-.4.6-.3.7c-.6 1-1 2-2.5 1.5-2.6-.8-3-2.1-2.3-4.5a14.9 14.9 0 0 1 1.7-4c.2-.4.4-.5.6-.5l-.2-.1Z" fill="#52525B"/>
</svg>
