<svg fill="none" xmlns="http://www.w3.org/2000/svg" viewBox="0 0 525 1800">
  <path d="M64 114c-3-1-8 1-8 5l-1 4-3-3c-6-7-15 3-9 9l10 10c2 3 8 3 10-1 3-5 4-10 5-16 1-3 0-7-4-8Zm75-77c-2 0-4 1-5 3l-1-3c-1-3-6-4-9-2-4 2-4 6-3 9l4 15c0 6 7 8 11 5 6-5 9-13 10-20 0-4-3-7-7-7Zm58-21c-3 0-6 2-6 6v-1c0-4-3-7-7-7s-6 3-7 7c0 7 2 14 5 19 2 3 6 4 9 3 8-4 12-12 13-20 0-4-3-7-7-7Zm28 106c-3-2-8-1-9 2l-3 5c0-7-11-9-13-1-1 4-2 9 1 14 2 3 5 6 10 6 8 0 13-11 16-17 2-3 1-7-2-9Z" fill="#DDD5FF"/>
  <path fill-rule="evenodd" clip-rule="evenodd" d="m189 53 3-3a30 30 0 0 0 11-16c1-4 4-15 0-18h-8l-1-2-1-1c-3-1-5 1-7 3-1-3-3-4-7-4-5 0-8 2-8 7-1 8 1 16 4 23 2 5 5 11 10 11 0 12-3 23-8 34l-1-6c0-4-2-13-8-11s-5 13-4 17a31 31 0 0 0 4 13l1 3c-7 13-17 24-27 34a452 452 0 0 0-2-52l-1-6 1-1 4-9 4-13 1-2c1-5 3-12-1-15h-5l-2 1-1-1-1-1c-4-3-5-1-7 2v-1l-4-4c-2-1-4 0-6 1-5 2-6 7-6 13 1 7 4 14 8 20 2 4 7 10 11 10l2 6a66 66 0 0 1 3 18l-3-4v-1l-8-11c-3-2-11-4-12 1l2 8h1c2 4 5 7 9 10 2 1 6 4 10 4v1h1a430 430 0 0 1-2 30 187 187 0 0 1-14 12h-6c-4 2-4 6-4 10-17 18-30 39-33 64a144 144 0 0 0 3 44l1 5 1 4h-1v-1l-1-3-3-5-2-5-7-14a89 89 0 0 1-5-43l4-1 1-1 7-3c4-3 7-7 7-12l-1-1c-6 0-13 4-17 9l1-2 2-24-2-20h-1a203 203 0 0 0 0-3c3-6 9-42-4-39l-4 3-2 1h-2l-1-1v-1l-1-1c-4-1-5 1-5 4h-6c-4 2-4 5-4 9 3 12 12 21 24 21l3 9v2a80 80 0 0 1 0 35c-1-4-2-8-5-11-2-3-8-6-12-4-5 2-1 11 1 14a34 34 0 0 0 14 15l-1 10a95 95 0 0 0 13 50 448 448 0 0 1 7 15l2 5h2c0 2 3 1 3 0v-2l1-1v-1l1-1-1-1c1-15 11-29 23-39l1-1 7-6 5 3h1c6 3 14 5 21 2 6-4 0-10-4-11h-11l-6 2-3 1a149 149 0 0 1 19-13l9-5 22-16c3 3 11 6 14 7 5 1 15 0 19-4 5-5-3-9-7-9-7-1-15 0-22 3l8-8a93 93 0 0 0 15-20 94 94 0 0 0 5-7c3 1 7-3 10-6a59 59 0 0 1 3-2c5-4 12-10 11-16l-2-4-1-1-2-3v-1l-1-3c-3-2-6 0-8 2v-1l-2-3-4-3c-4 0-8 3-11 6-3 5-3 12-2 17v1c1 5 2 12 6 15l-2 3-1 2-6 10c-4 7-10 13-15 18 2-8 0-26-8-24-4 1-5 7-5 10 0 7 1 15 6 20-10 9-23 16-34 23-13 8-25 18-35 28-6 6-10 13-13 20l1-11a852 852 0 0 1 37-73h14c4-1 13-5 13-10 1-5-7-3-10-2h-1c-5 1-9 3-13 6 6-11 8-24 9-37a165 165 0 0 0 30-36c5 2 11 1 15 0s14-4 14-10c-1-5-9-3-13-2l-12 5 1-4c7-13 12-26 13-41Zm0-3 10-12c2-6 3-11 2-17 0-3-2-3-3-2h-4l-1-1-1-1c-3-2-4 0-5 4h-4c1-2 0-4-1-6-6-1-8 0-8 4v2l1 10c1 4 5 19 11 20a87 87 0 0 0 0-3c-3-1-3-5-4-8v-2c0-2-1-6 2-6 2 0 3 2 3 3l3-2 1 1v8a124 124 0 0 1-2 8Zm-54 27-9-10c-3-4-5-9-6-13V43c0-3 4-9 8-4l1 2 1 2c1 1 2 0 3-1l1-1c1-1 1-2 3-1l1 1 2 1h3l1-1 1 1c2 0 2 1 2 3 0 6-2 13-4 18v1l-3 7-2 4-1-6h1v-2a24 24 0 0 0 1-6l-1-3h-3l-1 1-1-2-3-1-2 1c-1 3 1 7 2 10 1 2 2 6 5 7v3Zm73 79v1l1 1 5-4h1l5-5h1c3-3 8-8 7-13l-3-3-2-1v-4c-1-3-4-1-6 0l-2 1-1-3-2-4-6 1-4 3-1 6c-1 5 0 17 3 22a57 57 0 0 1 1-8c0-2 0-5 2-5 3-2 4 0 4 3v-1h5c1 3-3 8-6 11l-2 2Zm-70-49h-2l-1-1-7-4c-3-3-8-8-8-12 0-5 6-2 8 0l4 6 4 8 2 3Zm35-4h1c3 2 9 1 12 1 2-1 8-3 9-5 0-4-2-6-4-5l-5 1c-4 1-9 4-13 8Zm-1-6-1 3-2-5c-2-4-3-10-2-14v-6c3-3 5 0 5 3 2 4 2 9 1 13v1l-1 5ZM69 132l-2 15h-1v-1l-3-5v-8l-1-5-4 1v3l-4-3c-1 0-4 1-4 3l1 1v2l1 1 2 4 7 4 1 1c-6-1-12-4-15-9a27 27 0 0 1-5-13c0-4 5-5 7-1l3-1v-5l1 1a419 419 0 0 0 1 1l1 1c2 1 3 0 4-1l1-1 3-1 3-1 1 1v1l1 5 1 10Zm56 102c1 2 8 4 9 4 3 1 19 3 13-5-4-5-13-3-17-1l-3 1-2 1Zm-55-28-3 1 6-9c2-1 10-8 9-3 0 3-3 6-5 8l-6 3h-1Zm-6-2-2-13c-1-2-8-17-12-11-1 1 0 5 1 7v1a33 33 0 0 0 13 16Zm72-22h-4c2-3 5-5 8-6 2-1 9-5 10-3l1 4v1l-2 1a19 19 0 0 1-12 3h-1Zm-11-1 2 1v1c-4-2-6-7-8-11l-2-9 5-5 3 6v17Zm-11-15-12 16a101 101 0 0 0-17 77l2 12a655 655 0 0 1 1 0v-11a526 526 0 0 1 37-75c-6-2-9-10-10-16l-1-3Zm7-10a222 222 0 0 0-4 3c2-4 3-4 4-3Zm4-1c4 6 4 19 4 24 5-11 7-23 9-35l-13 11Zm59 45-6-3a59 59 0 0 1 20-4l6 2c3 1 3 3 0 5-6 5-13 3-19 0h-1Zm-10-6h2c2-6 2-25-3-25-4 1-3 12-2 14 0 4 1 8 3 11ZM60 138v-1 1Zm-7-7Z" fill="#52525B"/>
  <path d="M364 1641c1-7 4-14 7-21 10-21 22-39 38-56l9 29c5 18 11 39 2 56-6 12-21 29-36 29-17 0-22-24-20-37Z" fill="#DDD5FF"/>
  <path d="m333 1545-4-2a7 7 0 0 0-7 7v1l2 5 5 2 4-2 2-5v-1l-2-5Zm17-27-1-1-5-2-5 2-2 5 2 4 2 2 4 2 5-2a7 7 0 0 0 0-10Zm27 18c-8 0-8 13 0 13 9 0 9-13 0-13Zm64-19-5-2-5 2-2 5v1l2 5 5 2 5-2 2-5v-1l-2-5Zm45 58c-8 0-8 13 0 13 9 0 9-13 0-13Z" fill="#F5E38D"/>
  <path fill-rule="evenodd" clip-rule="evenodd" d="M371 1615c-3-9-10-14-17-20a639 639 0 0 1-22-13l-2-2c-6-3-11-6-18-7l-3 1 7 16 8 22 2 16c1 8 2 16 5 24 9 19 30 28 50 30-4 17-6 35-7 52l-1 2c-1 17-1 38 6 53 0 2 5 1 4-1-7-15-7-36-5-53v-1c2-16 3-33 7-49 8 1 18 0 26-1 11-1 23-6 32-12 11-8 19-18 25-29l4-10c5-13 11-25 26-29 2-1 2-2 0-2-17-2-34 1-50 7l-17 10-8 9h-1l7-10c5-10 13-24 19-31h1c5 0 8-3 9-9 0-5-2-10-8-8-5 1-12 11-7 16-4 4-7 9-9 13v1l-12 20-1 2c0-9-1-19-3-28l-5-14-5-13v-3l-1-1v-6h-5c-2 11-8 21-14 31a421 421 0 0 0-12 20 185 185 0 0 0 1-17c0-5 1-12-3-14l-1-6c0-7-1-14-7-15-6-2-8 2-9 6 0 9 2 14 9 17l2 1c2 1 3 1 4 4v11l-1 20Zm-2-39v-4c0-4-4-18-7-9-2 6 3 12 7 13Zm8 103c-14-9-15-33-11-47l3-9v-1c-2-12-10-18-19-26l-17-11-5-3c-5-2-9-5-14-6l6 13 6 16c3 7 3 15 4 22l2 11c3 23 23 37 45 41Zm43-47v-2h2l-2 2Zm31-51h1c2-2 3-4 1-6-3-2-4-2-5 1-2 2-2 4 1 6l2-1Zm-65 94h-1c-3-4-4-9-4-13l-1-5c-3-11-1-20 2-30l12-27a733 733 0 0 0 3-5 216 216 0 0 1-7 43l-3 15c-1 6 0 11 1 16v10-2l-2-2Zm16-87 1 3a96 96 0 0 1-2 64l-1 1c-1 6-4 13-7 19l-1-6a69 69 0 0 1 3-32l3-15a348 348 0 0 0 4-34Zm-26 75c1 5 2 11 6 15-9-6-14-20-14-29 0-11 4-22 8-32l13-23 4-6 1-4a260 260 0 0 0 5-7v1c-3 8-6 15-10 21-5 11-10 22-13 34-2 9-3 16-1 26l1 4Zm11 19h4l2-2 4-2 10-10c8-9 11-20 13-32l5-5 1-1c5-6 9-10 15-14 15-9 34-13 51-13-7 3-12 7-16 13s-7 12-9 19l-7 14c-8 14-22 25-37 30-1 0-30 5-36 3Zm14-16-2 5c13-12 19-33 17-50a129 129 0 0 0-9-43l-1-3v11l2 8 2 7a121 121 0 0 1-9 64v1Z" fill="#52525B"/>
  <path d="M79 558c-6-5-11-13-11-21l1-3h2l10-1c0-5-1-11 2-15 3-5 10-6 13-2 1 2 1 4 3 5 2 0 4-2 5-4 3-5 7-9 12-12 0 3 0 6 2 9 1 3 4 5 7 4l4-2c4-1 7 3 8 7 3 14-1 33-13 43-13 10-34 1-45-8Z" fill="#DDD5FF"/>
  <path fill-rule="evenodd" clip-rule="evenodd" d="M111 520v1l3 6c1-8 4-17 9-22 5-6 7 2 8 6l1 10 5-6s2-2 3-1c5 12 5 24-1 36-2 5-6 9-10 13 6-2 11-2 17-1 10 1 25 4 33 12l-1 2c-3 3-8 3-12 4l-3 1c-6 1-12 2-18 1l-18-3-11-6-1-1v4c11 5 20 12 28 20l7 10 5 8 2 2c2 1 4 3 3 5-2 3-5 2-7 1-7-2-13-5-18-9-7-6-12-12-16-19a614 614 0 0 0 18 57c11 27 28 51 51 70 1 1-3 3-4 2-23-20-41-45-52-74a340 340 0 0 1-17-56l-2 18-1 7-1 12c-1 3-2 5-4 6-10 2-8-20-7-27v-1c1-11 3-22 8-32h-1a166 166 0 0 1-22 32l-17 18h-3c-1-12 6-26 13-34 6-9 16-15 25-20l-1 1-11-3c-7-2-14-6-20-11s-8-16-6-24c1-4 3-6 7-5v-1c0-4 0-11 6-9l3 1 2-5 1-2 3-5h5l4 3 1 1c1-4 3-7 6-6 2 0 3 2 4 4l1-1v-1l1-3 3-4c3-1 6 2 8 5 2 0 0 3-2 3h-1l-3-4-2-1v1l-1 2-1 3-2 3 3 6Zm-2 54Zm1 3-6 23c0 3-3 34 3 32 2-1 2-9 2-13v-6l1-12 1-5c0-6 1-13-1-19Zm7 4c4 9 9 17 16 25l14 10 3 1 4 2 2 1a57 57 0 0 1-10-12l-10-13-4-3-9-8-6-3Zm-5-12c-3-2-5-7-7-10v-1c-3-7-5-13-5-19a110 110 0 0 1 2-29l3 7 1 3 7 16a62 62 0 0 1 3 20c0 4 1 9-1 12h-2l-1 1Zm-15 12 5-6c-9 5-17 11-23 19-5 7-11 19-10 28 5-4 9-10 13-15l5-6a154 154 0 0 0 16-24l-3 4a370 370 0 0 0-5 6l-7 9c0 1-4 3-3 1l6-9a106 106 0 0 0 6-7Zm25-14a55 55 0 0 1 23 2l8 1c1 0-1 3-3 3l-7-2-8-1h-16a55 55 0 0 0 49 7h1l2-1h3c-6-7-17-9-25-10-7-2-17-3-25 0l-2 1Zm0-2a37 37 0 0 0 15-47l-4 8-1 2v2a51 51 0 0 1-4 18l-3 7v5l-3 5Zm-41-3c5 3 11 6 18 7l-11-9-1-1c-7-7-14-16-15-26l-1 1c-7-3-2 14-1 17 2 4 7 8 11 11Zm35-30c0-5 2-9 3-14l1-2 5-10c3 2 3 11 3 14v2l-1 16c0 4-1 7-3 11l-1 3-1 5c-1 2-1 5-3 7 1-5 0-13-1-19v-1l-2-11v-1Zm-20-3v-12l-2-2-1-1c-1-1-3-3-5-3l-4 11v1l4 5 2 2 1 1 5 6v-8Zm10 39c-5-2-10-7-14-10l-1-1c-6-6-12-12-14-20-2-4-2-9-1-12v-2h1l3 3 1 1c6 4 12 11 15 18h1l2 10 1 1c1 4 3 9 6 12Z" fill="#52525B"/>
  <path d="M412 273c-7 6-8 16-6 25s7 17 12 25c-11-7-23-11-36-11-8 1-17 4-19 12-2 6 2 12 7 16 5 3 11 4 17 4 7 0 14-1 18-6-6 4-9 12-9 20 0 6 2 12 6 16s11 6 17 3c4-2 6-8 8-12 3-10 4-20 4-30-1 10 0 22 8 30 8 7 23 7 28-3 2-6 1-12-2-17s-8-8-13-11l-16-8c11 4 30-3 33-15 4-17-25-21-30-8 6-16-7-50-27-30Z" fill="#F5E38D"/>
  <path fill-rule="evenodd" clip-rule="evenodd" d="m424 320 2-1 8-10c3-4 5-9 5-14 0-8-3-19-9-24-8-7-16 0-21 7-3 5-5 9-4 15 1 9 3 19 10 25h2v-12l1-6v-21l4-1v29l-1 11 3 2Zm-12 12-2-3a22 22 0 0 1-9 8c-4 5-7 12-9 18-3 9-2 23 10 25 12 1 15-20 16-29l-3-16-5 16c-2 7-5 13-10 17-1 1-6 0-4-1 7-5 9-13 11-21l3-9 2-5Zm7 1h1-1Zm1 0h2-2Zm-20-11 8 1 1-1c-3-9-11-13-20-14-6-1-11-2-16 1-5 2-8 8-8 13-1 10 12 16 20 16 5 1 9 0 13-2l8-8 1-3h-8a64 64 0 0 1-13-5l-4-2c-3-1 1-3 2-2 3 0 5 1 8 3l8 3Zm23 16v-1 5l1 6c1 6 2 12 6 17 7 9 26 16 31 2 2-5 3-10 2-15-2-6-8-11-13-14a53 53 0 0 0-18-6l-7-2 1 1v1c1 5 3 8 6 12 6 6 13 15 22 18 2 0-2 2-3 2-8-2-15-10-20-15l-8-11Zm4-14v1c7 4 20 3 28 2 12-2 25-7 21-22-2-7-5-10-14-8-6 1-13 4-17 8l-7 4c-2 4-5 8-9 11l5-1 6-2c7-2 12-4 17-10h4l-11 10-23 7Zm15-21 1-5c2-11-3-30-16-33-13-2-20 8-25 18-3 7-2 17 2 26-7-4-14-5-22-5-10 0-21 7-22 18-1 13 16 19 26 19l9-1c-4 6-8 13-9 20 0 6-1 12 4 17 3 3 8 5 13 5 12 1 16-13 18-23v-2l1 3c3 6 7 12 14 15 9 4 23 6 28-5 3-6 6-14 3-21s-11-11-17-15l-13-4h5c7 1 14 0 20-2 12-4 23-11 18-25-5-16-23-10-38 0Z" fill="#52525B"/>
  <path d="M464 32c-12 2-17 13-26 20-1-4 1-7 1-10 0-4-2-9-4-13s-6-8-10-9c-5-2-11-1-14 3-2 2-2 5-3 8-1 4-2 9-1 14 2 10 10 17 17 23-6-5-12-10-19-13-8-3-16-3-23 0-6 4-10 13-6 18 3 3 7 5 10 5 10 2 20 1 30-2-9 2-18 5-26 10-7 6-12 14-12 24 0 3 1 7 4 9 2 2 6 2 9 1 16-2 30-14 37-29-5 8-9 16-11 25-1 6-2 13 2 18 5 7 15 7 21 2s8-14 8-21c-1-8-3-16-6-23 2 12 11 22 22 25 7 2 14 1 18-4s4-11 2-16c-3-5-7-8-11-12-9-6-18-10-29-12 11-1 22-6 29-14 5-5 9-13 6-19-2-6-9-9-15-8Z" fill="#F5E38D"/>
  <path fill-rule="evenodd" clip-rule="evenodd" d="M422 65c-8-3-16-9-20-16-4-9-3-31 11-27 8 2 16 11 18 19a59 59 0 0 1 1 22l-2 1c-3-1-6-1-8 1Zm-3 5c-5-5-13-8-19-10-8-2-23 1-25 10-7 26 29 16 43 8l1-5v-3Zm0 12c-8 5-16 10-22 17-5 5-15 19-8 26 9 9 24-5 27-13l3-6 2-7v-2l1-11-3-4Zm6 6v1-1Zm3 0c-2 2-3 6-4 9l-1 2a294 294 0 0 0-2 18c1 11 5 27 20 22 14-6 10-23 5-34l-8-12-6-4-1-1h-3Zm8-1 3 2-1-2h-2Zm5-2a44 44 0 0 0 7 14c3 6 9 11 14 13 6 2 12 3 17 0 9-4 8-13 5-21-3-10-15-20-27-19a138 138 0 0 0-13 2l-1 3c1 2 1 4-1 6l-1 2Zm0-17h8c7-1 14-4 19-9 10-9 14-22 3-32-4-4-9-5-15-5-7 2-12 8-15 15a51 51 0 0 0-4 15l-1 6a335 335 0 0 0 1 6l4 4Zm23 49-12-7 1 7c2 11-2 21-14 25-15 5-20-9-21-21v-7l-3 4c-5 7-16 15-26 12s-4-19 0-25c6-9 13-15 22-20-9 3-19 5-27 5-5 0-10-2-12-7V69c3-8 14-12 22-13l9 1c-3-4-5-8-6-13-1-8 2-19 9-24 9-6 20 5 25 11 2 5 4 9 4 14l5-12c6-11 19-18 31-11 12 8 12 25 3 34a47 47 0 0 1-18 13h1c6-1 12 1 17 4 10 6 19 20 15 31-4 10-15 15-25 13Z" fill="#52525B"/>
  <path d="m404 836-10-6-7-9c-4-5-7-11-7-17-1-6 4-13 10-13h4l3-3c2-3 5-6 9-8s9-2 12 1c2 2 4 5 7 6s7-2 10-4c6-2 13 4 13 9v4l2 1c5 0 9 0 13 2 3 2 5 6 4 10 0 4-2 7-4 11-6 10-16 18-27 23-13 5-20-2-32-7Z" fill="#DDD5FF"/>
  <path fill-rule="evenodd" clip-rule="evenodd" d="M386 794h4c5 1 10 5 12 8l4 8c0 2 5 2 5 0l-1-2c-1-5-4-12 0-16 3-4 11-5 13 0-1 3-1 6 2 8h5l-2-8c2-7 10-14 15-9 2 2 3 4 3 7h-1c-1 1 0 2 1 2l-1 11-1 4c0 2 4 1 5 0 3-2 11 0 12 3a12 12 0 0 1 2 6v1c0 4-1 9-4 13-2 4-5 6-8 7v-3l-1-1-5-1h-1c-3-1-6 0-9 2a102 102 0 0 1-3 1v-1l-1-5c-1-2-3-4-6-4h-1l-3 1-2 8c-2-3-5-5-8-6-1 0-4 0-3 2 1 3 3 6 6 8l2 2-9-3h-2l-2-1-2-1c-6-4-13-9-17-15-4-5-7-15-4-22 1-3 4-4 6-4Zm17 45h-1c-11-6-22-13-27-26-3-9-1-21 10-22 0-4 5-9 9-11h7l4 2 2 1 1-3 3-4 7-1c6 1 8 4 10 9 3-3 7-5 10-6 8-1 11 4 12 10h8l5 2 2 4 1 2 2 2 3 2 2 5c1 4-1 6-3 8l-2 2c0 7-2 14-6 18-3 5-9 8-15 8a20 20 0 0 1-5 2l-1 1c-4 2-9 5-12 4h-8l-4-1-11-2c-3-2-4-4-3-6Zm23-6a39 39 0 0 0 0-2 64 64 0 0 0 0 2Zm1 6Zm23-36v-12l4-1c5 0 5 2 6 4v2l3 3 1 1c2 1 3 1 3 3l1 6-1 1-3-4c-4-6-9-5-14-3Zm-60-12c6 1 10 4 14 7 0-5 1-10 5-12h-2l-4-2-3-2c-4-1-10 5-10 9Zm19-5a14 14 0 0 1 14 0v-1c0-3-1-6-4-7-5-1-6 1-6 3l-1 2-3 3Z" fill="#52525B"/>
  <path d="m392 1452-13-8-9-11c-5-7-9-14-10-23 0-8 6-17 14-16h5l4-4c3-5 7-9 12-12 5-2 12-2 16 2 3 3 5 7 9 8 5 2 9-3 14-5 7-2 16 4 16 12l1 5 3 1c5 0 12-1 16 3 5 2 6 8 6 13s-3 10-6 14c-8 13-20 25-35 30-17 7-27-2-43-9Z" fill="#DDD5FF"/>
  <path fill-rule="evenodd" clip-rule="evenodd" d="M369 1397h5c7 1 13 7 16 11l5 11c0 2 7 2 6-1l-1-3c-1-6-4-16 0-21 4-4 14-6 18 0-2 4-1 8 2 11 1 1 6 2 6-1 1-3 0-7-2-10 3-9 14-18 20-11 2 2 3 5 4 9h-1c-2 1-1 2 1 3l-2 14v5c-1 2 5 1 6 1 4-3 14-1 16 3a16 16 0 0 1 2 7v2c0 6-2 12-5 17-2 5-6 8-11 10v-5l-1-1h-7v-1c-5-1-9 1-12 3h-2l-2 2-1-2-1-6c-2-4-3-6-7-6h-2c-2 0-4 0-5 2l-1 10c-4-4-7-7-12-8 0 0-5 0-4 2 3 4 5 8 9 11l2 2c-3-2-7-4-12-3h-2l-3-2-2-1c-9-5-17-11-23-19-5-8-10-21-5-29 2-4 5-6 8-6Zm22 60-1-1c-14-8-30-17-35-33-4-13-2-28 13-29 0-7 5-13 11-15 3-2 6-2 9-1l6 3 2 1 2-3 4-5c2-2 6-2 9-2 8 1 11 6 13 12 4-4 9-7 13-8 11-1 15 5 16 13h11c3 0 5 1 7 3l1 5 2 3 3 3 3 2c2 1 3 4 4 6 1 5-2 8-5 12l-2 2c0 9-3 18-8 24s-12 9-20 10l-4 2-2 1-1 1c-6 3-13 6-17 5-3 2-5 1-8 1l-1-1-7-1-14-3c-3-2-5-5-4-7Zm31-9-1-2a88 88 0 0 0 1 2Zm1 8Zm30-47 1-16 4-1c7-1 7 2 8 6l1 2 3 4 2 1 4 4v7l-1 3c0-3-2-5-3-7-6-7-13-6-19-3Zm-78-15c7 1 13 4 17 8 0-6 2-12 7-16l-3 1c-2 0-4-1-5-3l-4-2c-6-3-12 6-12 12Zm25-8a18 18 0 0 1 18 0v-1c-1-3-2-8-6-9-6-1-7 1-8 4l-2 3-2 3Z" fill="#52525B"/>
  <path d="M274 416c-7-6-15 5-9 10 7 5 15-5 9-10Zm22-32c-7-6-16 5-9 10s15-5 9-10Zm149 96c-7-5-15 5-9 10 7 6 16-5 9-10Zm-2 52c-7-5-15 5-9 10 7 6 15-5 9-10Zm29-28c-7-6-15 5-9 10 7 5 15-5 9-10Z" fill="#F5E38D"/>
  <path fill-rule="evenodd" clip-rule="evenodd" d="M327 400c4-2 7-1 10 1v6l-4 3h-3a107 107 0 0 0-7 49 55 55 0 0 1 2 6v-1c3-13 7-23 14-34-1-2 0-4 2-6s5-2 8 0v1l2 3c0 2-2 3-3 4l-4 2-2-1a81 81 0 0 0-15 40l7-13 14-19 1-1 13-14 3 1-4 14-2 8c-1 6-4 13-7 18l-11 15-7 7-5 5h-1v3c-1 21-2 43-7 65 7-14 17-26 29-35-3-7 3-18 7-24 4-7 9-12 14-17l6-6 3 2c-4 4-5 10-6 16l-4 11v1l6-6c8-8 15-16 20-25l-3-3v-5l4-4 5 1c3 2 4 6 2 9-1 1-3 3-5 3-5 8-10 15-17 22v1l-10 9-5 5 1-1 11-5v-1a89 89 0 0 0 20-14v-1h1c-1-2-1-4 1-6s7-2 9 0c2 3 0 7-2 9s-4 2-6 1c-6 5-13 9-21 13l-1 1h10c8 0 15 0 21-3 1-1 4 1 3 2l-7 5-4 3-11 7c-6 3-13 6-20 6-5 1-10 0-15-2l-3-1v1l-3-1c-14 11-25 27-32 44h-1l-11 28c-6 10-12 20-20 28l5-2 21-6c8-1 16-3 23-6l10-6 9-5c1 0 4 1 3 2-8 11-18 23-33 27-13 3-28 4-41 1l-2 1-2 2-3 2a158 158 0 0 1-42 28l-9 5c-1 1-4-1-3-1l10-6 21-12v-1l1-1-1-1h1l2-7v-12l1-21 7-22 7-10 6-8v-1c1-1 4 0 3 1v1c-3 5-2 12-1 18l1 7c0 8-2 15-4 23a105 105 0 0 1-11 25 128 128 0 0 0 8-7c12-11 22-23 30-37a253 253 0 0 0 21-107c-1-1-2-1-1-2-3-1-4-3-6-5-4-5-9-12-11-19-3-7-4-15-4-23l1-6a56 56 0 0 0 0-15l3 1 1 3 4 11 3 5 4 9v-4c0-14 3-27 8-40l-2-1-2-4c1-2 2-4 4-4Zm-41 234a121 121 0 0 0 39-3c10-3 18-11 25-20a626 626 0 0 0-13 7l-21 6a108 108 0 0 0-30 10Zm-19 3c-2 3-4 8-8 11l1-1v-13c0-8 0-15 2-23 1-8 3-15 7-21l6-10 1-1 1 8v2c1 9 0 17-2 25s-4 15-8 22v1Zm137-140h1l1-1 1-2v-4c-2-1-4 1-4 2-1 2-1 3 1 5Zm-6-19h1v-1l2-3c1-1 1-4-1-5l-4 4v4l2 1Zm-37 45 10-5a54 54 0 0 1 23-3l11-1a235 235 0 0 1-24 15c-6 2-11 3-17 2l-8-2 2-2 3-4Zm11-34v2l-1-1 1-1Zm-42-81h-3c-1-2 0-4 1-5l3-2h2v5l-3 2Zm13 23h-1v-1l2-3 1-2 1 1c1 1 2 1 1 2l-2 2v1l-2 1v-1Zm-26 35-1-1v2l1-1Zm-10-15-1-1v1h1Zm11 32Zm-4-35Zm-2 14-1-1 1 1Zm0-19a101 101 0 0 0-1 0h1Zm-2-3Zm-3-4 1 1v-2l-1 1Zm21 55 3-3 7-8c5-4 8-10 12-16a63 63 0 0 0 8-24l1-7-9 11h-1l-12 17c-5 9-10 19-9 30Z" fill="#52525B"/>
  <path d="M228 1230c9-4 15-12 15-21s-9-18-18-16c5-4-1-13-8-13-6 0-11 5-16 9-13 10-27 18-42 23 26-15 40-48 32-78l-2-6c-4-6-13-6-19-2-6 3-9 10-12 16-4 6-7 12-12 16-4 4-9 5-13 9-3 5-3 12-2 18 1 11 2 23 5 35l-6-5 14 17c-19-19-42-34-67-42-7-2-15-3-19 2-4 6 0 14 5 20 4 6 10 13 7 19-2 7-11 11-8 17 1 4 5 5 9 6 12 1 25-2 36-8 7-4 16-11 24-7l3 1-2 5c-10 18-19 37-24 58-1 3-2 8 2 10 2 1 4 0 6-1 10-4 19-13 29-11 6 1 12 7 18 5 4-2 6-6 6-11l-5-12-21-39c21 24 44 47 74 58 4 2 8 3 12 2 3-1 7-5 6-9l-2-3-20-28-14-17c-11-10-24-15-36-21 12 5 25 8 38 8 9 1 19 0 27-4Z" fill="#F5E38D"/>
  <path fill-rule="evenodd" clip-rule="evenodd" d="M140 1224c-4-6-5-14-5-21v-2c-1-11-3-24 3-35l3-5c1 1 3 0 3-1v-2l7-4 9-7 7-11 7-12c13-13 18 12 18 21 0 12-1 25-6 36-4 9-9 17-15 24l-7 5a634 634 0 0 1-19 15l2-4v-1a163 163 0 0 0 6-16c3-7 6-14 7-22h-4l-11 32-2 4-3 6Zm-2 6c-2 0-2-1-1-2l-6-6a51 51 0 0 1-5-4l-8-8-7-6-12-10-6-5h-2l-2-3-9-4c-9-3-19 1-20 11v11l1 1c0 5 2 10 5 15l2 2c2 1 4 3 4 5 1 3 0 6-1 9s-2 7 0 11c8 15 37 8 48 1l13-10 2-2-15-2h-2l-10-2c-7-3-13-8-12-16 0-2 5-2 5-1-1 12 11 15 20 17a620 620 0 0 1 19 0l-1-2Zm-2 14a584 584 0 0 1 3-2c-2 8-4 16-4 24l2 10c1 8 3 17-1 22l-3 2v2h4c7-5 6-16 5-23-3-14 0-26 2-39v-1l1 3 3 4 6 12 2 4c3 7 6 14 7 21 2 17-2 33-21 33h-12l-4 1-15 3c-11-1-10-4-8-13s4-18 8-26l14-21 5-6 6-10Zm11-13-1-1v-1l1-1h1l17 12 11 9 11 9c4 4 9 9 16 12 1 0 6-2 3-2-6-3-12-8-17-13l-12-10-11-8-9-7 17 3 4 1 9 3c9 2 19 5 23 12 3 3 4 6 5 10l4 11 5 6c5 5 9 9 9 17-1 7-2 13-8 16-4 2-13 0-19-2l1-5c0-2-5-2-5 0v2l-11-10-8-8a140 140 0 0 1-23-27 982 982 0 0 1-6-14l-2-4-5-10Zm28-1-18-5a1274 1274 0 0 1 28-8l8-3 6-4 3-2 3-2c0-2-4-1-4-1l-6 3-10 6-7 2-5 1a1451 1451 0 0 0-19 5l4-2 10-7 7-6 1-1 17-13 2-2 11-8a53 53 0 0 1 12-5l14 4c3 3 2 7 1 9-1 3-2 5 0 7l6 3c3 0 6 0 8 4 6 11-12 22-21 26-13 5-27 3-41 1a192 192 0 0 0-10-2Zm26 77-11-9-6-6c-7-6-13-12-18-19 2 8 3 17 2 25-1 4-3 9-6 13 4 6 8 10 16 8h2l3-1h5c3 1 6 1 9-2 3-2 4-6 4-9Zm-42 7-8 5h-8l-20 2-1 1c-5 1-18 3-23 0-5-4-2-13 0-20l-7 2-7-5c-2-1-2-4-2-6l-2-6-7-4c-4-2-8-4-8-9-1-7 4-15 10-18l-1-1c-10-3-10-12-9-21v-1c1-4 1-6-2-9l-2-3-3-4c-3-5-4-12-4-17-1-20 16-25 31-19-3-7-2-16 1-23 1-5 4-7 8-10l8-8 6-7c6-4 17-5 23-1 4 2 5 5 7 8l1 4 4 11 3-2c5-3 10-6 13-12l1-4c4-8 8-16 17-19 17-6 19 17 19 33 6-4 14-8 21-3 8 5 12 17 11 27v1c2 0 4 1 5 3 4 3 4 5 4 9l1 2-1 3c-1 1-2 2 3 5h5c8 3 8 13 4 19l-3 4c5 0 10 3 12 8 4 6 1 9-2 13l-4 6-3 8c-1 5-2 9-8 12a24 24 0 0 1-17 3l4 4 6 7c4 8 3 21-3 27-5 5-11 4-18 2h-2l-7-2c-2 8-6 14-15 13h-13l-2 1h-5c-5-2-8-5-11-9Zm-42-51c-7 10-12 20-16 31l-1 1c-2 8-10 5-12 0l-1-4v-3c-1-3-2-3-5-4h-1c-5-3-11-6-11-12 1-5 4-11 8-14l2-1a58 58 0 0 0 53-16l-7 10-9 12Zm16-97 6-8c-1-6-4-17-7-21-5-7-16-5-21 0l-3 4-3 5-3 2h-2c-5 4-7 6-9 11-3 8-3 19 2 26l17 14 6 4a308 308 0 0 1 17 15l-2-10v-1c-2-13-4-28 2-41Zm95 103-3 1-1-1-4-9-2-6c-4-12-13-14-23-17l-6-2c13 2 24 3 36-1 6-2 13-5 18-10l3-1c5 2 8 5 10 9 1 4 0 7-3 9l-2 3-3 4-1 6-2 5c-2 6-10 11-17 10Zm-32-114-1 11c-1 10-5 21-11 29l2-1c8-7 17-14 27-17l12-2c0-6-2-13-4-18s-6-8-11-8-8 2-12 5v1h-2Z" fill="#52525B"/>
  <path d="M358 1254c3 5 8 8 14 8s11-2 16-5c4-2 9-6 9-11 2-26-60-27-39 8Zm20-157c-3 7-3 15 3 19l8 4c5 2 12 2 17-1 7-3 10-10 11-17 1-4 1-9-2-12l-6-2c-14-3-23-5-31 9Zm56 57c3 4 9 6 15 5 7 0 14-3 16-9 6-11-8-24-19-24-12 0-18 18-12 28Z" fill="#F5E38D"/>
  <path fill-rule="evenodd" clip-rule="evenodd" d="M404 1111v1l7 6c5 2 10-4 10-9-1-2-3-9-8-5-1 1-4 1-2-1l1-1c3-3 6-6 5-12-2-8-11-5-11 2 0 2-3 4-3 2-1-3-2-7-5-9s-5-2-8 1c-4 3-4 3-2 7l1 2 1 2c1 2-2 3-3 3-6-3-13 6-7 9l5 1 4-3 2 1c0 2-2 3-4 4-1 5 13 18 14 5a258 258 0 0 1-1-6l2-2 2 1v1Zm5 63v2c-6-1-14-8-17-11-4-6-6-12-7-18l4 2 1 2 2 2c4 2 7 4 10 8a34 34 0 0 1 7 13Zm-18-5c4 4 13 11 20 10h1a259 259 0 0 0 42 91l5 7v1a48 48 0 0 1-23 0c1-1 0-2-1-1 2-6-2-15-5-20-4-9-11-16-21-20-1-1-4 1-3 2l5 13c2 8 4 16 10 22a586 586 0 0 1-10-4c-5-1-10-3-14-6l-2-1-4-3 6-3c4-3 2-10-2-13 3-3 3-8 0-11s-10-3-14 0c-1-7-5-18-14-13-3 1-6 4-5 8l1 4c-4 1-8 3-10 7-1 3 1 7 4 9l6 1c-2 5-1 12 4 16 3 2 7 1 10-1s4-4 5-7l9 8 2 1c6 4 12 6 18 8a232 232 0 0 1 19 6 31 31 0 0 0-20 30c0 2 0 7 2 8 1 1 2 0 3-1l1-1 13-12c3-4 5-7 6-12 1-4 2-7 1-11l3 1c8 1 14 0 21-2l13 20 1 2 8 13v2l6 7c1 1 3-1 3-2a510 510 0 0 0-1-1c-3-2-4-5-5-8a49 49 0 0 0-7-12l-2-3v-1l-12-19c1-1 2-2 0-1h-1l-2-3-4-6-13-22c4-11 8-22 9-33 9 0 17-3 23-9 4-4 5-7 6-13l1-2c1-4 2-9 1-13-1-1-3 1-3 1l-9 7-14 10-4 7 1-8v-19l-3-17c6 5 14 6 18-2 1-4 2-11-3-13l2-6c-1-5-6-6-11-5 1-5 0-8-4-11s-8-4-12 0c-3 2-4 5-4 8-4-2-7-1-10 2-5 5-3 12 3 14-5 4-5 11 1 16 3 2 7 3 10 1a13 13 0 0 0 6-5 169 169 0 0 1-6 87 250 250 0 0 1-18-38c5-2 9-4 12-9 4-7 3-16 2-23v-2l-2-1c-5 3-9 10-12 16l-4 8a355 355 0 0 1-15-76c5 4 13 4 17-3 3-3 3-10-1-14l-4-1 4-7c1-4-1-9-5-10-4-2-9 1-11 4-1-2-3-5-7-6h-9c-3 1-5 4-6 7s0 5 2 8c-3 0-5 0-7 2-4 2-6 6-4 10s6 6 10 5l-1 1c0 4 5 10 9 11s7-1 9-4l7 42-7-9-9-6-2-2-1-1-5-2-3 2c1 9 3 18 10 24Zm42 112v9l-4 10c-2 4-5 7-9 10l-2 2-4 3c-2-3 0-15 1-17 3-8 9-15 18-17Zm27-72-5 1c-1-7 6-15 11-20l9-6 6-4-1 8-1 2-4 12c-3 3-7 6-11 7h-4Zm-36-6-1-2 4-15 4-7 1-2 3-3v16c-1 4-2 7-5 10l-6 3Zm8 74c1-6-4-16-6-20-4-7-9-11-15-15l3 8c3 10 6 20 15 25v1l3 1Zm-52-29h1l1 1a15 15 0 0 1 0 1l3 5 1 1c6 3 12-1 9-7l-3-3h-4v-1c2-2 4-2 5-2 2-2 0-7-1-8s-9-3-10 1c0 1-3 3-4 1-1-5-1-9-4-13-2-3-5-3-9 2l1 3 2 4 4 2c1 1-3 3-3 3l-4-2h-3c-3-1-4 0-4 3-2 1-2 3-1 4 2 3 6 4 9 3l4-1c3 0 0 2 0 2l-4 2c-2 2 1 10 3 12l4 2 2-1a1183 1183 0 0 1 4-8c-2-2-4-4-2-6 1-2 5-2 3 0Zm71-100 5 7c1 2 3 3 5 3 5-1 7-4 6-8l-1-4h-3l-2 1c-2 0-5 0-3-3l5-2 2-2-1-5c-3-2-5-2-7-2-1 3-4 6-7 5v-1c0-2 2-4 5-6l-2-7c-3-3-7-6-11-2-2 3-1 7 0 10 1 1-2 3-3 2-3-4-8-6-10 0-1 4 2 7 7 7 2 0 0 2-1 3-6 3-3 12 2 14 6 4 7 0 8-4l2-3-1-1 2-1 1-2h1c1-1 1 0 1 1Z" fill="#52525B"/>
  <path d="M219 1753c-3 0-7-1-8-3l-1-6c2-7 5-13 10-18l3-5-1-6c-2-5-2-12 3-14s10 2 14-1c6-2 5-11 11-13 4-1 8 3 12 1 3-2 4-5 7-6 4-2 7 3 9 7 4 15 0 39-10 51s-35 14-49 13Z" fill="#DDD5FF"/>
  <path fill-rule="evenodd" clip-rule="evenodd" d="M220 1736c-2 0-14 1-13 5 0 3 8 3 11 4h2v3l-2 1-2 1c-2 3 2 5 4 5 5 1 13 0 17-3v-1c-5-2-10-5-8-10l1-2-3-1a222 222 0 0 0-3-1l-3-1h-1Zm-3 23c7 2 18-1 23-7h3l4 1 3 2 3 1c3 1 7 1 10-1 4-2 7-5 9-9 7 5 13 10 18 16 6 6 10 14 14 21l3 7c1 1 4-2 3-4l-3-6c-4-7-7-14-12-20-7-7-13-13-21-18l1-2 1-3 2-3 4-8c1-4 1-9-4-9l2-4c1-2 3-5 2-8v-1c7-6 6-15 0-22-4-5-8-2-11 3-2-3-7-5-9-5-4 0-6 2-7 5l-11-6c-4 0-6 3-8 6-1 4 0 7 2 10-2 0-4-1-6 1-2 1-3 4-3 6h-2c-5 0-9 2-11 6-3 6-1 11 3 14-4 1-7 4-6 8l2 3c-4 1-10 3-11 7-3 6 5 8 11 8-2 1-4 3-4 5 0 3 3 5 6 6Zm53-20c0-2 1-3 2-3h1c0-5-3-13-3-14l-6-9a133 133 0 0 1-7-6c-3-2-6 2-5 5 0 3 3 6 5 9l1 1c0 1-2 4-3 3l-5-1h-2l-3-2c-3-1-11-4-8 3 0 2 3 4 5 4v1l15 6 1 1 9 2 2-1 1 1Zm-2 4-8-1-2-1-15-5-1 1h-2l-1 1c-2 1-5 2-7 1v3c0 2 4 4 6 4l3 2v-1 1h3l2 1h4l1 1 2 1c3 2 8 3 11 0 2-1 5-4 6-7-1 1-2 1-2-1Zm-30-32-3-3 1-3-2-2 2-4 3 1 2 1c2 0 3-3 3-4l-2-3c-2-2-3-5-3-7 1-6 7-2 10 0h1a54 54 0 0 1 5 4h1c4 4 8 8 6 12l1 2v1l-1-1c-5-5-10-5-13 2-2 4-1 9 1 12l-3-1-9-7Zm20-24c4 4 8 9 7 14 3-2 6-4 10-3 2 1 5 2 6 4 4-4 3-10 1-14h-1c0-2-1-3-3-4-3-1-5 2-5 5 0 1-3 4-3 2 0-3-11-11-12-4Zm-41 39c2-2 6-2 8-1h1c1 0 4-3 2-4h-1c-3-1-8-4-9-7-2-6 6-10 12-8 1 4 4 8 8 11l-2 1c-3 2-4 7-2 11l5 5-6 1-9-2-1-1c-2-1-8-3-6-6Zm49-18v1a43 43 0 0 1 10 24l1-2c2-3 5-11-2-10v-2l2-4 2-6c1-3-1-5-4-6-2-2-11-2-9 5Z" fill="#52525B"/>
  <path d="m160 366-8 5-3 2-5-2c-4-3-4-9-1-12 2-4 8-4 12-1l3-1h2c2 3 1 6 0 9Zm85 15-7-6c-5-5-1-14-4-20-4-10-19-9-29-3-9 5-20 13-30 9 20-4 38-20 40-40 2-21-14-42-35-41-8 0-15 3-22 6-12 5-24 13-23 27 1 9 15 24 3 28-8 3-25-10-32-12-16-6-34-7-50-1-5 1-10 4-11 8-3 11 16 15 20 26 4 8-2 20 6 25 3 3 8 2 13 1l27-8c-17 9-34 20-48 34-6 6-11 17-4 20 4 2 10 0 13 2s4 6 5 8c5 9 17 11 26 6s14-14 19-22l19-30-4 46c-1 8-1 17 3 24 4 8 16 11 21 5 3-4 4-9 7-12 5-6 15-4 22-6 11-4 16-17 13-28s-12-20-20-27c-9-8-18-14-25-24 17 23 47 33 74 26 9-3 19-13 13-21Z" fill="#DDD5FF"/>
  <path fill-rule="evenodd" clip-rule="evenodd" d="M136 329a74 74 0 0 0 4 16l2 1-1-10v-3c0-6-1-14 3-18h3l1 1-2 1c-3 4-2 13-2 18l1 3 1 13 4 5v1l3-1a69 69 0 0 1 6-28c2-5 5-14 10-16h2l1 1c1 1-2 2-3 1l-10 20c-2 7-3 15-3 22h2c2 0 4-1 6 1l1-1 4-2c5-5 8-10 11-16l6-11 1-3v-1l4-5c1 0 4 0 2 1s-3 5-5 8l-1 4-8 14-8 10-4 2-2 2 1 4v2l2-1h1l8-4h1v-1l8-6 2-1c7-6 13-14 17-22 5-8 8-20 1-27l-15-17c-6-6-16-6-22-2l-2 2-4 2-3 1h-2c-8 2-15 5-19 12-4 9-5 18-3 28Zm17 30v2l3-1h2l1 1c2 1 2 4 2 7v1l-2 4-1 1c-1 0-5 1-4 2l2 2h-2c-1-1-3 0-5 1l-1-1c-3-2-3-7-2-10 1-1 3-2 1-2 1-1 2-2 0-2v-1l3-2 3-2Zm-23-32 2 11-6-6c-9-7-20-9-31-8l-10 2-3 1H61c-11 0-17 6-17 18 0 5 1 10 4 14l7 4 5 4c3 2 4 5 6 8 2 4 4 8 12 10h14l-19 11c-9 6-18 16-19 27-1 5 1 8 4 10l7 4 2 1h3l5 5 6 6c4 1 10 2 15 1 10-1 21-7 28-13 6-3 9-8 12-14l-1 24c-1 9 2 19 12 22 8 2 14-2 19-6 4-3 9-3 13-3h8l11-4c7-5 12-13 12-22 0-11-8-21-16-29l2 1 9 2 12 2c8 3 17-1 24-6 4-2 7-5 9-8l3-4c3-2 6-5 7-8 1-6-3-10-7-13l-2-2c-5-4-9-8-9-15 0-10-5-16-15-17-10-2-18 2-25 8l-8 6c7-7 14-16 18-25 3-5 3-10 3-15-1-6-2-8-7-12l-7-8c-4-6-9-12-16-13l-11 1-8 4-3 2-8 2-6 1c-4 1-7 3-10 7-7 9-10 20-9 32Zm14 57v1l-4 5c-2 3-2 8-3 13v5c-2 7-5 15-9 21-6 8-18 15-28 18-7 2-15 0-20-5l-2-3-4-4-4-1-6-1c-5-4-6-9-4-15 3-10 11-18 20-23a242 242 0 0 1 52-22l5-2a8 8 0 0 0 1-1c-7 7-16 13-24 18l-7 5c-6 5-12 9-19 11-2 0-2 2 0 1 8-1 14-6 20-11l5-3 8-5 18-14c-4 10-8 20-14 29-2 4-5 8-9 11l-10 13h3l11-14 10-12 11-23 2 4 2 1-1 3Zm20-9h1l3 3 4 2c5 3 10 4 15 5 10 3 25 3 35-1 1-1 3 1 1 1-10 5-22 4-32 3-5 0-11-1-16-3l-7-5-5-2v2l3 2a1473 1473 0 0 0 29 20c4 2 8 2 13 2l5 1 5 2 3 1c6 1 18-5 22-9l9-10c5-8 1-12-4-17l-4-3-7-7v-10c0-9-8-13-17-13-6 1-10 4-15 8l-2 3-19 10a244 244 0 0 0-18 8l-1 5 24-3c9-2 18-6 26-11 1 0 4 0 2 1-7 4-15 9-24 11l-29 4Zm-2 2h1-1Zm-10 6h-2l-1 1-1 6a86 86 0 0 0-3 8v1l-3 9-1 12v11l-1 7c-1 8-2 17 5 24 5 5 12 4 17 0l8-5 8-1c9 1 18 1 23-8 7-11 3-22-3-31l-11-12-5-5-2-2a67 67 0 0 1-20-15l-2-2h-1c-1 9 2 17 5 25l1 2c2 6 4 11 8 16l1 1c1 2 3 5 6 6 1 0-2 2-3 1-7-2-12-14-14-20l-1-2c-3-6-5-13-6-19-3 20-4 41 5 60 1 1-3 2-3 1-11-22-8-46-4-69Zm-7-24v1-1l-1-1 1 1Zm-10-13c2 5 5 9 8 12l-1-1a22 22 0 0 1-4-3c-4-4-7-6-12-8l-3-1c-10-4-19-7-30-6-2 1-3 3-1 2a62 62 0 0 1 50 21h-6l-4-2-19-5h-3l-4-1c-11-2-22-4-32-3-1 0-3 0-2 1v1c1 1 4 0 4-1 10 0 22 2 32 5a649 649 0 0 0 9 2l12 2a109 109 0 0 0-31 5c-6 1-13 3-20 3-1 0-3 2-1 2h1l18-3 7-2c11-2 21-3 32-3l3 2h1l-3 2-1 1-4 2h-3l-3 1-17 6-6 3c-6 2-12 3-19 2-5 0-9-2-12-7l-2-4-3-6-7-5c-4-2-7-3-9-9-2-4-2-14 2-18 4-5 10-4 16-3l5 1 12-2 9-2c12-1 22 2 31 11l6 5 4 3Zm6 17 2-1v1l-1 1-1-1Z" fill="#52525B"/>
  <path d="M115 1399c-1-8 3-15 8-21 5-5 12-9 18-12l22-10c2-1 5-2 8-1l3 3c5 7 7 16 7 25v16c-4 15-25 27-40 28s-24-15-26-28Z" fill="#DDD5FF"/>
  <path fill-rule="evenodd" clip-rule="evenodd" d="M169 1356a51 51 0 0 0-40 14l-14 13v1l-4 4-3 1c-2 2-2 7-3 11v3c-1 7-1 13 2 20-2 0-4 0-3 1h1-2l-2-3h-1c-1-1-5-1-4 1a18 18 0 0 0 2 2h-1c0 4 5 8 8 10v1c-4 0-9 0-12 2-1 1 0 2 1 2l3 1h2l1 1 12-1v4a34 34 0 0 0-2 9l-23 48v-9c0-6-2-12-5-18-2-6-10-22-16-17-2 2-3 6-3 8v23a52 52 0 0 0 9 21l6 8h1l1 1a646 646 0 0 0-30 108c0 1 4 1 4-1a239 239 0 0 1 13-58c9 3 20 0 28-4l14-11c5-4 11-10 12-16v-1h-9l-2 1a86 86 0 0 0-38 16 775 775 0 0 1 40-95h1l2-1 2-4 1-1v-1l2-6 1-3a55 55 0 0 0 3 3v1l2 2 8 7h4c3-2 0-5-4-8l-2-1-1-1 3-1v1a613 613 0 0 0 11 0c2 0 4 0 5-2l-1-1h-5l-6-2h8c15 0 25-7 35-18 1-1-1-1-1-1h-12l3-3v-1c3-5 4-11 5-18v-3a60 60 0 0 0-1-26c0-3-1-7-3-10l-1-1a6 6 0 0 0-1-1l-1-1Zm-10 65 1-1c5-9 6-18 6-29l1-13 1-10-2 7-8 24c-2 8-6 18-12 25l13-3Zm-18 4 1-1c6-8 10-18 12-27l8-22 2-8-5 6a162 162 0 0 0-10 10 1020 1020 0 0 0-13 16l-2 2-4 5-5 8h-4l2 5 5-9c4-5 8-11 13-15l1-1c3-2 6-5 9-5h3a69 69 0 0 1-17 38l4-2Zm-20-12v-1 1Zm-1-4 1-3 1-2 4-9c3-5 6-10 11-15 4-4 9-8 15-11l2-2 11-7v-1c-7-1-22 9-26 12-9 6-21 17-21 29l-2 1a217 217 0 0 0 4 8Zm-5-15c3-11 15-20 24-26a85 85 0 0 1 21-10l2-1c-13 1-24 8-33 16l-2 2-7 7-1 1c-1 2-6 8-5 9l1 2Zm56-16a359 359 0 0 0 1-3l1 15-2 13-1 4-5 13h-1c4-9 6-17 6-27l1-15Zm-10-12-6 4-16 12c-5 5-9 13-12 19l-1 4-2 3 3-3 4-5 2-3a56 56 0 0 1 13-15l6-6 2-2 7-8Zm-50 58 2 2a14 14 0 0 0 3 3l4 3-1 1h2c0-7-2-15-5-21l-2-5-2-6-1-4-1-3a57 57 0 0 0-1 7v11l2 12Zm15 14 6 1h-5l-2-2 1 1Zm-26-1h-1 1Zm-32 128v-1c5 0 10-4 14-6l2-2 7-5a273 273 0 0 1 13-9c1-1-3-2-3 0l-5 3-1 1-6 4a440 440 0 0 1-13 9l-6 3c2-9 13-15 21-18l14-5h1c3-1 10-3 11-2 2 1-16 18-17 19-8 6-21 13-32 9Zm10-65c1 4 1 9 3 13 2-10 4-19 1-28a80 80 0 0 0-12-24c-1-2-1-2-2 0l-1 7v21a50 50 0 0 0 8 17l-1-4-1-4-2-18h4l2 17 1 3Zm69-63c-1 0-15 0-21-2 15-10 33-13 50-13-8 9-16 15-29 15Zm-20-17c-1 1-3 6-2 9l3 1-1 1 3-2c4-3 7-7 10-12 4-7 8-17 9-26-5 3-10 10-13 14l-2 2c-3 4-6 8-7 13Z" fill="#52525B"/>
  <path d="M210 1002c-3-2-5-5-5-8s2-5 4-7l8-1c6 0 11 1 16 4l-1-11c1-4 4-7 7-8 4-1 8 0 10 3l6 9c4-5 9-12 16-13 2-1 4-1 6 1l2 4c2 14-11 33-25 39-13 5-34-4-44-12Zm41-116c-8 0-8 13 0 13 9 0 9-13 0-13Zm27 12c-9 0-9 13 0 13 8 0 8-13 0-13Zm96-32c-8 0-8 13 0 13 9 0 9-13 0-13Zm98 17c-8 0-8 13 0 13 9 0 9-13 0-13Zm40-8-5-2h-1l-5 2-2 5 2 4c1 2 3 2 5 2h1c2 0 4 0 5-2l2-4-2-5Zm-41 95-4-2-5 2-2 5v1l2 5 5 2a7 7 0 0 0 6-7v-1c0-2 0-4-2-5Z" fill="#F5E38D"/>
  <path fill-rule="evenodd" clip-rule="evenodd" d="m400 907-3-1c-2-1-1-5 0-7 2-2 6-2 9-1 2 2 1 7-1 9l3 15 1 4c2 7 4 15 9 22-1-5 1-11 2-15l1-3 6-23-1-6c1-2 4-3 6-2l3 1c2 1 1 4 1 6-1 2-3 2-5 3l-6 19v2l-3 16 3 1c5-3 9-10 13-14a276 276 0 0 1 7-12l1-6 1-1c-1-1-2-1-2-3l1-4 1-2 2-1h4c2 0 3 2 3 4l-1 3c-1 2-3 3-5 3v2l-3 9a80 80 0 0 1-17 22c6-1 12-4 16-6h1c7-4 12-9 17-14l1-1v-2c0-3 1-4 3-5l5 2 2 3c0 2-1 4-3 4h-5c-7 8-14 14-24 18l-16 3-3 1-2 1c-11 26-25 50-40 73l8-6 11-6 8-5 17-7h7v1c-4 12-15 22-26 26-8 3-21 8-29 4-29 41-64 78-105 109-1 0-4 0-3-1a446 446 0 0 0 42-38c4-9 7-21 9-31l2-10a1279 1279 0 0 0 11-53 78 78 0 0 1-32-30l-1-1c-2-4-4-8-3-11h3c4 0 7 3 10 5l2 2 13 10c5 4 8 9 10 15 3-18 4-37 1-54-7 3-12 2-19-1-8-3-15-7-20-13h-5l-1-3h-1l1-4c1-2 2-3 4-3l3 1 1 2-1 3c7 10 25 22 36 16v-1c-11-2-19-16-23-27h-2l-2-2c-2-2-2-4-1-6 2-3 5-3 8-2 2 2 2 4 2 7l-1 2c3 9 9 22 18 25-5-8-4-19-1-27l-1-2-1-5c1-5 8-4 10-1a5 5 0 0 1 1 5l-1 1-2 2-2 1c-3 9-4 21 2 28l4-2 3-4 1-1a39 39 0 0 0 8-19l-1-1c-2-1-2-4-1-6s4-2 6-1c2 0 3 1 3 2v4l-2 2h-1c0 8-4 15-9 21l-8 7c6 2 12 2 17-1l6-5v-2l-1-2c0-2 2-3 4-3s4 1 5 3v2l-1 2-1 1-4 1c-3 3-7 6-12 7-4 1-10 0-14-1a174 174 0 0 1-2 64v1l-3 15-1 4-8 36-2 9-7 26c13-14 26-28 37-43h-4v-9l-1-5 1-11 1-2c1-9 3-19 8-26h4c5 7 4 18 2 26l-6 21c23-30 42-62 57-97-8-1-14-3-20-9-5-6-10-13-12-21-2 1-4 0-4-1v-4c1-3 4-4 6-2h1c2 1 2 4 1 6 1 6 5 13 9 18l7 7 11 4c-6-6-9-14-11-21l-2-10v-2l-1-4-1-5-1-1Zm-66 97c-1-8-5-15-11-21a87 87 0 0 0-13-10l-8-6c0 4 3 9 5 12v1l9 10v1c6 6 11 10 18 13Zm28 23c-1 8-3 16-7 24a70 70 0 0 0 0-8v-13c1-7 3-17 7-24 3 7 2 15 0 21Zm19 3c3 1 14-2 15-2l14-5a40 40 0 0 0 14-14c2-2 5-6 5-8l-6 3a87 87 0 0 0-19 9c-8 5-16 10-23 17Zm-44-128a3 3 0 0 0-1 1h1v-1Zm114 4Zm0 2-1-2v1a2 2 0 0 1 1 1Zm19 15v1-1Z" fill="#52525B"/>
  <path fill-rule="evenodd" clip-rule="evenodd" d="M256 945c2 0 3 1 4 3l2 3c0 3-2 5-5 6v2a136 136 0 0 0-1 16l1 12 2-8c3-5 10-14 16-12 9 2 3 17 0 22a376 376 0 0 0-8 15l-6 9-4 6 11 27 8 26 4 15c0 2-3 3-4 1l-4-15-7-26a439 439 0 0 0-11-27l-1-1-1-5c-3 2-5 2-9 2-6 0-13-2-18-5-6-4-20-16-16-24 4-7 14-6 20-3a28 28 0 0 1-2-5l-2-7c-4 0-9-2-9-6s2-6 5-7c2-1 4-1 6 1l2 3c2 3 2 6-1 8a95 95 0 0 0 3 7l1 4c-1-6 1-12 6-14 8-3 12 6 14 11l1 2v-24l-3-1-1-4c0-2 0-4 2-5l3-1 2-1Zm-6 66 1 2c-9 3-20-1-27-7-5-3-14-12-12-19l5-2 4-1 5 1 5 4c3 1 5 3 6 5l8 10 5 7Zm3-3-1-1-1-1a176 176 0 0 1-5-6l-4-5c-3-5-12-22-2-24 4 0 4 1 6 3v1l2 5 3 7 1 4 2 13v6l-1-2Zm-33-42c0 2 2 3 4 3v1l-3-2-2-5 1 3Zm38 45v-7l2-17c1-5 3-10 7-14l4-3c3-2 4 1 5 4 1 6-3 14-7 21l-2 4-5 7a117 117 0 0 0-4 5Z" fill="#52525B"/>
  <path d="m233 119-5-4c-2-2-2-5 0-7l3-2h15c5 0 11-1 14-5 3-3 4-8 6-13 1-4 4-9 9-9 3 0 5 2 7 3 4 3 7 4 11 4 12 2 24-7 36-3 3 1 7 3 6 7v3c-7 17-24 41-44 45-18 3-43-11-58-19Zm96 40v-7c2-3 6-6 10-5 4 0 7 3 10 6 1 2 3 5 5 4l2-2 11-9 2-1 2 1 10 11c2 2 4 5 4 8 2 7-7 11-9 18l20-2c4-1 10 0 12 4 3 3 1 8-2 11s-7 4-12 5c-13 2-34 5-46-3-12-7-18-27-19-39Z" fill="#F5E38D"/>
  <path fill-rule="evenodd" clip-rule="evenodd" d="m294 129-2 4-1-2h-1l-1-14-1-3 1-15c1-2-2-3-3-1-2 4-1 9-1 14v3l2 16-4-1a64 64 0 0 1-13-30v-1c-1-4-2-10 0-11 3-3 5 0 8 2l4 4h2l2-5 1-2c1 2 3 5 6 2l1-2 1-2 2-1v2l1 1h2l3-1c0-2 1-2 2 0s-1 9-3 13l-1 4-3 9c-2 6-4 11-4 17Zm-20-3-4-5-6-8-4-5-4-7h-1l2 3c0 2-1 3-2 3l-2-1-3-1v1l-1 2-3 1h-1l-1 1c-1 2-4 1-6 1l-5 1c-6 5 5 10 10 12l2 1c7 4 13 6 20 7l6 1 6 1 2-2-1-1a90 90 0 0 1-12-6l-9-6-1-1-1-2c0-2 3-3 4-1 2 5 8 8 13 10l2 1Zm31-25v-1l1-3c2-6 4-14 0-17h-2l-1 1-2 1-1 1v-1l-1-1-2-2-4 2-2 3-1 1-1-2v-1h-3l-2 4-2 4-5-4-4-4c-4-2-6 1-6 5a51 51 0 0 0 4 30 202 202 0 0 1-8-12c-3-4-6-10-10-9l-2 1c-1 2 0 4 1 5v1c-2-1-4-2-6 0v2h-2l-3 1v3c-1-2-10 0-12 1-2 0-4 1-5 3-1 4 3 7 6 8l1 1 22 11 12 2 13 3c2 3 7 5 10 6l4 1-2 11v4a405 405 0 0 0-1 113l7 38c-5-11-14-21-22-29l-5-4a81 81 0 0 0-15-12c-3-2-8-5-10-2-3 2-1 5 1 8v1c4 9 9 18 15 25a59 59 0 0 0 21 15c4 2 9 5 14 5 0 2 2 2 3 1a308 308 0 0 0 10 33c1 2 4 1 3-1l-3-8c4-1 9-5 12-7 6-5 11-12 15-19a86 86 0 0 0 11-28c1-4 3-9 1-12h-3l-7 8-19 23c-6 8-10 16-13 25a313 313 0 0 1-12-61c2 0 4-3 5-4l2-2 14-16a3240 3240 0 0 1 33-42c4 2 9 3 13 0v-1c7 2 13 2 19 0l10-3 20-8 1-1c4-1 9-4 7-8-1-2-4-2-7-3-3 0-7 0-8-5 0-1-1-2-2-1h-1l1-4c1-1 0-2-1-2l-10 5-4 2-16 8 7-7 1-1c5-5 11-10 13-16 2-3 1-4-2-6l-3-1h-4c-2-1-2-2-2-3v-1l-2-2h-1l-1 1-2 1 1-5h1c0-3 0-4-2-6h-1c-2 0-3 1-3 2l-3 1c-3 2-3 0-4-2l-1-1c0-2-2-2-3-1l-7 18c-1-5-4-12-8-13-1-1-2 0-2 1l-2 3h-3v3l-2-2-5-4-2 1c-3 8 0 18 2 25l1 2 8 20c-1 1 0 3 1 4l3 5 2 3a861 861 0 0 1-40 50l-2 3c-3 4-6 8-10 10a496 496 0 0 1 1-108c1-5 1-12 3-17l10-5 2-4c0 1 1 2 2 1 7-5 13-13 18-19l4-6c3-3 13-16 7-20l-3-1h-1l-2 2-1-1-1-1v-3c-3-4-5 0-7 3v1l-1-6c0-3 0-5-2-7h-3l-4 7-9 16Zm-8 29v2l1 1 2-1c7-8 12-17 14-27 1-3 4-2 4 0-2 10-7 19-14 27l3 1v1l1-1c5-4 10-9 14-15l4-5 2-2a55 55 0 0 0 6-8l2-4v-5l-1 1h-3c-1 1-2 1-3-1l-1-4v-1 2l-3 4h-2c-2-2-3-5-3-8v-5l-3 4-10 19-5 13-5 12Zm3 8-1 1 1-1Zm4-1-2 1 2-1Zm3 203 8-4 7-7 12-16c4-7 6-14 8-22l1-1 1-8-4 6-18 20a108 108 0 0 0-15 30v2Zm-31-50c7 6 14 15 18 25l-15-6-1-1c-7-3-13-8-17-14a93 93 0 0 1-12-19l-2-5c0-3 0-3 2-2h1c5 1 9 5 12 9l2 2 5 4 7 7Zm75-119c-2 6-4 12-4 18l1 4 8-16 5-10c1-2 4-1 3 1l-5 11a833 833 0 0 0-6 16v1l1-1c1-1 3 0 3 1v1c4-7 10-12 15-18l11-12 2-1c1-2 2-3 0-5-1-2-2-2-3-2h-1l-1 1h-3c-2-1-1-3-1-5v-1h-1c-2 1-3 2-4 0l-1-3v-1c0-3 0-3-3-2l-1 2-1 1h-2c-3-1-3-3-4-5a141 141 0 0 0-8 24v1Zm-3-1-3 10-2-12c0-2-4-2-3 0a151 151 0 0 0 4 23l-1-2-2-3-2 1-1 1-4-12c-3-8-6-18-5-26l3 3c2 1 3 3 5 3 1 1 2 0 2-1l1-1 1-2c1-3 2-3 4 0 2 2 3 5 3 8l2 1a367 367 0 0 0-2 9Zm17 22-6 7 3 1 13-4c4-2 11-5 14-9 2-1 4 1 3 2a56 56 0 0 1-27 13l-2 1v1c6 1 12 1 19-2l11-3 12-5h1l6-3 1-1v-1l-2-1-4-1-3-1c-4-1-4-2-5-5h-2c-2 1-4-1-2-3l1-2-7 4a41 41 0 0 1-10 6 193 193 0 0 1-14 6Zm-8 11h1v1l-1-1Zm-4-2v-1 1Zm-11-8h-1v-1l1 1Z" fill="#52525B"/>
  <path d="M425 596v1c0 2-1 2-2 3-5 2-7 8-7 13-1 5 0 10 4 13 3 2 9 2 12-1 4-2 7-6 9-10l1 3c4 3 9 5 14 4s9-4 12-8l3-6c0-3-2-7-4-9l-9-5c3 1 4-17 1-20-5-4-12-5-18-3-14 3-28 9-16 25Z" fill="#F5E38D"/>
  <path fill-rule="evenodd" clip-rule="evenodd" d="M442 608v-1l-3 2 1 3c-2 7-13 16-18 11-7-8-3-21 7-22 1 0 4-2 2-2-6-1-9-7-9-12 0-4 0-12 9-7 4 2 5 7 6 10 0 2 4 0 3-1v-2c-1-3-2-7 0-10 6-11 11-2 13 2 1 3 3 6 3 10-3 1-6 4-2 7l2-1 2-2v-1l2-1 3 2 2 4c2 4 1 10-2 14-2 5-3 5-8 7h-3c-3 1-3 1-6-2l-2-3 1-2c1 0 2-1 1-2l-1-1h-3Zm-1 8c-5 7-14 14-20 10-5-3-7-12-4-18 2-3 5-6 9-8-6-3-9-12-6-18 2-3 6-5 9-5s6 1 7 3l3-6c3-3 6-4 10-4 6 1 10 11 10 18 8 0 11 8 10 16-1 7-7 17-15 19-4 1-8-1-10-4-1 6 0 13 1 19l1 6 3 23c1-5 4-10 7-14l7-6 4-3 2-2 5-4h2v7l-1 3v3l-1 8c-2 6-4 12-8 16-2 2-9 7-14 9 4 20 11 40 23 58l-3 1a158 158 0 0 1-24-59l-1-1c-1-1 0-1 1-2a286 286 0 0 1-1-6l-3 1c-10 4-17-3-22-11l-1-1c-3-7-9-16-9-23s6-6 10-3c10 8 19 20 24 32l-4-27v-6c-1-7-2-14-1-21Zm10 64v2l7-3v-1c5-3 8-6 10-11a58 58 0 0 0 4-14c1-4 2-9 1-10-1-2-3 0-4 2l-1 1-2 2-8 7c-6 7-8 17-7 25Zm-25-33c7 7 14 17 17 26v1c-1 4-10-1-11-2l-5-6-3-6-8-16v-1c-1-3-2-6 3-4l5 6 2 2Z" fill="#52525B"/>
  <path d="M281 1256v2l-4 1c-6 0-11 5-14 11-3 4-4 10-2 14 3 5 8 7 13 6s10-4 14-6v3c2 6 7 10 12 12 6 1 12 0 17-3l6-5c2-3 1-7 0-11l-6-9c2 3 11-16 10-20-2-7-10-11-17-13-15-3-33-3-29 18Z" fill="#F5E38D"/>
  <path fill-rule="evenodd" clip-rule="evenodd" d="M293 1278v-1c1-2-3-2-4 0v3c-6 6-21 11-24 2-3-10 7-22 18-19 1 1 5 0 3-1-5-3-6-11-3-16 1-4 6-12 13-3 2 4 1 10 0 14h4l1-2c1-4 2-8 5-11 12-8 13 4 13 9l-3 12c-4-1-8 1-5 6h3l3-2 3-1 2 4v5c-1 6-4 11-9 14-5 4-5 3-12 2h-3c-4-1-4-1-5-5l-1-4 2-2 3-2-1-1-2-1h-1Zm-6 7c-8 5-21 8-25 0-4-6-1-16 5-20 4-3 8-4 13-4-5-6-3-17 3-21 4-3 8-3 12-1 3 1 5 4 6 7 1-2 3-4 6-5 4-2 8-1 11 1 6 4 6 16 2 23 9 4 7 14 3 21-5 7-16 14-25 12-5-1-8-5-9-9l-8 21a363 363 0 0 1-11 32c4-5 9-9 15-11l10-3 6-2 3-1 7-1 2 1-4 7a41 41 0 0 0-4 5l-5 8c-4 5-10 11-16 13-3 1-13 3-19 2-6 23-9 47-5 71h-4a180 180 0 0 1 5-73l-1-2 2-1 2-5v-2h-3c-12-1-16-11-17-23v-1c-1-8-2-20 2-28 3-7 9-3 11 2 6 13 11 30 9 44l10-28v-2l2-5c2-8 5-15 9-22Zm-21 71v2h9c6-1 10-3 15-7l10-11 1-2c3-3 7-8 7-10-1-2-4-1-6 0l-1 1-4 1-12 3c-9 5-15 14-19 23Zm-9-46c4 10 6 23 5 35h-2c-2 5-9-6-9-7l-3-9v-28h1c0-4 1-8 4-3l3 8 1 4Z" fill="#52525B"/>
  <path d="m217 1452-3-6c-4-3-10 2-12 6-2 5-2 10-5 14l-8-5c-3-1-7 1-7 4l1 2c13 21 29 40 48 56-18-8-37-12-56-12-3 0-6 2-6 4 5 4 10 7 16 8l-14 16-2 4c-1 3 2 5 5 6l9-3 39-21a88 88 0 0 0-24 58c8-1 14-8 16-16 2 5 4 10 8 13s11 4 14 0c2-2 3-5 3-8 2-15 4-31-4-45 2 19 9 37 20 52 2 2 4 4 6 4 4 0 6-5 5-8l-2-12c4 4 11 7 15 3 3-4 0-9-2-13a86 86 0 0 0-43-30c14-2 27 1 41-1 13-2 28-9 31-22-5-2-11-2-16-1 8-2 15-9 18-16-26-2-50 13-69 30 16-15 31-33 36-54-5-2-11 0-14 4 6-3 9-11 8-18-7 2-14 6-18 12 3-4 4-9 3-14-5-2-9 4-11 8-2 6-6 41-14 42-4 0-10-35-12-41Z" fill="#F5E38D"/>
  <path fill-rule="evenodd" clip-rule="evenodd" d="M227 1477a666 666 0 0 1 3 8c2-11 5-22 11-31 2-4 7-13 13-12 4 0 3 5 1 9 2-2 5-4 8-4 3-1 7-1 8 3v5l-1 3h8c4 1 5 3 5 7-2 11-15 22-23 29l-6 5v-1c11-6 23-12 36-15 6-2 21-5 22 2 2 7-8 12-14 14h1c4 0 9 1 8 6 0 3-3 6-5 8l-1 1-2 1-2 2v2c-8 11-25 9-37 7l-5-1h-3l-16-2 2 2 10 5 9 6c9 4 16 8 22 17 2 3 7 13 3 16-1 1-3 2-4 1 0 4-2 7-6 7h-1c0 4 0 7-2 10-4 4-10 1-13-2l-7-11-1-3-6-14-4-12-7-20h-1l2 6a109 109 0 0 1 3 42c0 5-2 11-7 11l-6-3v-5h-1v1l-3 5-6 2c-2 0-3-2-3-4-2 4-4 7-8 8-6 1-5-9-4-13v-1c2-17 11-31 20-45l2-3v1l-7 4-4 3-4 3-20 11c-4 1-13 3-16-1-2-4 2-9 5-12-3 0-7-1-6-5 1-6 12-9 17-11a114 114 0 0 0 4-1l4-2-5 1h-1l-9-1c-3 0-13-4-11-9 2-4 11-4 15-4a2901 2901 0 0 0 25 8 74 74 0 0 0 20 5l-2-3-6-3-2-2-14-10a66 66 0 0 1-17-28c-2-5-5-15 1-17 2-1 4 0 6 1l5 7-1-7v-9c0-2 0-4 3-5 2 0 4 2 5 3l2 2 2-3 2-3 2-1c4-1 6 3 7 6 3 7 5 14 6 22l2 11Zm10 54 3 6 2 4 1 1 4 7 1 2 3 6 3-1-2-5v-1c-3-3-4-7-6-10l-1-2a245 245 0 0 1-4-9l5 4 11 6 6 3c6 3 11 9 14 16l3 6-1 4-1-4-3 1v7c-2 2-4 1-5 0l-4-10c-1-1-3 0-4 1 0 3 1 8 4 11 2 6 2 13-4 12-5-1-9-10-11-16l-1-4-9-24-2-5-2-6Zm-16-22v-1l-2-1-11-8c-6-6-11-13-15-20-4-6-5-11-6-18-1-2-1-5 1-5l3 3v1l5 7c1 1 4 0 4-1v-11a149 149 0 0 1-1-12l3 3v1h5l3-3c1-2 2-4 4-3 3 2 4 10 5 15l1 1 2 12v7l1 1 4 34-2-4-1-2-1-1-3-9-1-1c-1-3-5-14-4-15s-2-1-3-1c-3 3 2 12 3 17l1 1 5 13Zm4 9-12 2a60 60 0 0 1-6 2c-6 1-14 3-16 7h-3c1-5 8-6 13-8h3l9-3 5-1a60 60 0 0 1-19-6l-8-3a80 80 0 0 0-14-3l-6 5c0 2 7 4 9 4l8 1 3-1h5l1 1c-2 3-5 3-7 4l-2 1h-2l-10 5c-1 0-6 4-6 6 1 2 5 2 7 1 0 0 3 0 2 1l-1 1c-2 2-5 4-6 7-1 4-1 4 3 5h8c7-2 12-6 18-10l2-1 5-4 12-8 1-1 1-1 2-2 1-1Zm10-9-4 3c5-11 11-22 19-32h-4c-6 8-11 16-15 25l1-8v-4c1-8 2-16 5-23 3-8 6-16 11-22h1l3-4v4l-1 5-2 3c0 2 3 1 3 1l3-3 3-3c8-3 11-1 9 4l-1 3 3 3h4c4 0 7-1 6 5l-5 9a108 108 0 0 1-29 27l-6 5-4 2Zm-12 17-4 10-2 6-1 3c-2 5-4 12-3 17 1 1 4 0 4-1-2-6 1-12 3-18l2-4 1-4 1-3a116 116 0 0 0 1 14c1 5 2 13 6 16h2l-2 16c-2 7-6 0-6-4v-1l-1-2h-3l-2 4c-2 3-4 8-6 6v-10c-1-1-3 0-4 1l-1 4-1 2c-1 2-3 5-5 5s-2-1-2-3v-1c1-8 2-15 5-22 4-10 10-19 16-28l2-3Zm8 29 1 3v-1c0-6-1-13-3-19v-1l-1-8a140 140 0 0 0 3 25v1Zm0-37 2 1 22 4 5 1a1112 1112 0 0 1 19 1h1c4-1 9-1 12-4l1-3 1-2 4-3c2-2 4-3 5-6 1-5-3-5-7-6h-3c-2 0-1-1 0-2 4-1 24-12 12-16-8-2-21 3-29 6l-1 1-12 6v1l-1 1h-2c-5 2-9 6-13 9h-1a212 212 0 0 1-5 5l-5 3 11-3a82 82 0 0 1 20-7l6-2 5-1h4a340 340 0 0 0-10 3l1 1h-3l-5 2-8 2c-3 0-6 2-8 3-5 2-10 4-15 4h-1l-2 1Zm13-12-3 2-4 3h1l2-1 3-3 1-1Z" fill="#52525B"/>
  <path d="M54 979c5 2 10 3 14 2 4 0 9-1 10-5l1-4c0-12-10-27-23-22s-13 23-2 29Zm-1-91c1 3 3 6 6 7l9 2 9-2c4-2 8-6 8-11 2-9-6-22-17-19-6 3-16 17-15 23Zm98 37c1 3 4 4 7 5l7 1c6 0 10-7 14-12l1-4c1-3 0-6-1-9l-7-8c-13-9-28 17-21 27Z" fill="#DDD5FF"/>
  <path fill-rule="evenodd" clip-rule="evenodd" d="m82 891 1 2h1l1 1v5l1 2 1 2a313 313 0 0 0 19 37l15 25c-1-8-1-16 1-24 1-3 4-13 9-12 4 0 3 7 2 11l-8 23-2 4v1a1292 1292 0 0 0 32 48 251 251 0 0 0 8-65l1-16c-4-1-7-5-9-7h-1c-3-4-4-8-5-13 0-3 0-7 4-9l4 1 1-4c1-2 2-3 5-3l3 3 2 2c1-3 3-6 6-1 4 4 6 11 4 17a21 21 0 0 1-11 13l-1 1-1 17-1 20 8-8 3-3 5-5c3-3 8-6 9 0 1 5-4 11-7 14-6 5-12 6-19 8a258 258 0 0 1-6 41l13 20a835 835 0 0 0 23 33l5 6c2 0 2 5 0 4-2 0-3-1-4-3l-1-1-5-8a343 343 0 0 1-20-28l-25-37c-11-2-21-7-31-12l-5 4v1l-13 5c-3 1-12 3-14-1-1-5 4-7 7-9 4-2 8-4 12-4h4l-7-5-9-5-6-3a144 144 0 0 1-6-2c0 2-2 2-2 0-1 3-3 6-7 7-5 1-13 0-17-3-3-1-5-4-4-7s3-3 6-4h1l-1-2c-3-3-5-6-5-9 1-4 5-3 8-2l1 1-1-3c-1-3-2-5 0-8s5-2 8 0c9 5 13 15 14 24a136 136 0 0 0 12 7l9 5 8 5c10 6 22 11 34 14a1782 1782 0 0 1-37-60c-2 4-7 3-10 2h-4c-6-1-15-2-18-7 0-1-1-4 1-4 5-3 14 0 20 3h2l6 1a366 366 0 0 1-18-38l-3 2-3 1a20 20 0 0 1-20-6c-2-2-3-5-3-8 1-3 3-3 6-3l-1-2c-1-2-3-5-2-7 2-4 5-2 7-1l1 1v-2c0-3-1-5 1-7 4-2 8 3 10 6v-1c-1-2-1-5 1-6 3-2 5 1 7 4 5 7 3 16 0 24Zm103 66-3 1 1 2h1l1-3Zm-101 43 1-2v1l-1 1Zm-9-67 1 1h1l-2-1Zm90-2c0-3-2-4-2-1-3-1-6-5-8-7-2-3-4-6-2-10 1-2 2-3 4-2l1 1 3 3c2 1 1-3 1-4l-2-2c0-2 0-4 2-4 1-1 3 1 4 2v1l2 2c1 1 2 0 2-1 1-4 3-2 4 1 3 5 2 10-1 14l-3 3-5 4ZM60 948c7 3 12 11 13 19l-2-2c-1-1-2 4-1 5l1 1c-1 3-3 6-8 6l-10-2h-1l-2-1h-1l-1-1 2-1h2l3-1c2-1 1-3 1-4l-4-5-3-4 6 1 1 1 1-2v-5c-1-4-2-8 3-5Zm18-55h-1c-3 1-7 2-10 1-3 0-7-1-9-3-1-1-3-3-2-5l4 1c2 0 2-3 1-3l-1-3-1-3c0-3 1-2 3-1l2 1 1-1v-7c3-4 8 4 9 6l1 1 1-1 1-4c0-3 0-6 3-2 5 7 1 15-2 22v1Z" fill="#52525B"/>
  <path d="M73 781c-7 5 1 16 8 11 7-4 0-15-8-11Zm33-79-5 1c-2 1-3 2-3 4v2c-1 2 0 4 1 5 1 2 2 3 4 3l5-1 3-4v-2l-1-5c-1-2-2-3-4-3Zm46 66-5 1-1 1-3 4 1 5 4 3 5-1 2-1 3-4-1-5c-1-2-3-3-5-3Z" fill="#F5E38D"/>
  <path d="M78 736c-1-1-4 0-5 1l-3 4 1 5 1 1 4 3 5-1c2-1 3-2 3-4 1-2 0-4-1-5l-1-2-4-2Zm49-2c-7 5 1 16 8 11s-1-16-8-11Z" fill="#DDD5FF"/>
  <path fill-rule="evenodd" clip-rule="evenodd" d="m101 700 3-3c2-1 5-2 7 0 4 4 4 13 1 17-2 2-4 4-7 4-4 13 0 32 3 44a104 104 0 0 0 7 17c6 2 11-12 11-16l2-8 1-6v-1c-4 1-8-1-9-5-2-5 3-9 7-10 2-1 4-3 6-2 3 0 5 2 6 5 1 5-2 10-7 12l-1 6c-1 7-2 14-6 20l-8 9a232 232 0 0 0 13 22h1v2a222 222 0 0 0 8 10c9-6 10-19 10-29-6 0-9-5-9-11 0-5 5-8 10-8l5 1c2 2 3 5 3 7 0 4-2 8-5 10 0 12-3 25-13 32a235 235 0 0 0 41 42c1 0-2 4-3 3-13-8-23-19-33-30v-1l-18-24a71 71 0 0 1-24-6 49 49 0 0 1-19-12l-4 2c-12 5-17-18-4-21l1 1c4-2 9-2 10 4v10h1c4 6 15 11 22 14 4 2 9 3 14 3a255 255 0 0 1-19-38l-12-4c-5-3-8-7-12-11h-1c-6 3-10-3-11-8s3-10 9-11h5c2 1 4 5 5 7 0 3-1 6-3 8l9 10 10 4-1-7c-2-11-4-25-1-36-2 0-3-2-4-4-3-5-3-12 3-14Zm51 84 2-2v-4c-1-3-3-6-6-4l-2-1-2 1v5c1 3 3 5 6 5h2Zm-79-7c-4 3 1 15 8 12 5-1 4-9 1-12-2-3-5-1-7 1-2 1-2 0-2-1Zm53-40 2-2c2-1 5 0 6 2l1 4c0 2-1 3-2 3-3 1-6 0-8-1l-2-4 2-2h1Zm-43 9v-6l-2-4-2-1-2 1-1 1h-1l-2 1c-1 2 0 4 1 5 1 2 3 5 6 5h1l2-2Zm18-43c1 1 3-1 3-2v-1h3l2 4c1 2 2 6 1 8-2 4-6 3-8 0l-2-4v-5h1Z" fill="#52525B"/>
  <path d="M73 1683c-7 5 1 16 8 11 7-4 0-15-8-11Zm33-79-5 1c-2 1-3 2-3 4v2c-1 2 0 4 1 5 1 2 2 3 4 3l5-1 3-4v-2l-1-5c-1-2-2-3-4-3Zm46 66-5 1-1 1-3 4 1 5a7 7 0 0 0 9 2l2-1 3-4-1-5c-1-2-3-3-5-3Z" fill="#F5E38D"/>
  <path d="M78 1638c-1-1-4 0-5 1l-3 4 1 5 1 1 4 3 5-1c2-1 3-2 3-4 1-2 0-4-1-5l-1-2-4-2Zm49-2c-7 5 1 16 8 11s-1-16-8-11Z" fill="#DDD5FF"/>
  <path fill-rule="evenodd" clip-rule="evenodd" d="m101 1602 3-3c2-1 5-2 7 0 4 4 4 13 1 17-2 2-4 4-7 4-4 13 0 32 3 44a104 104 0 0 0 7 17c6 2 11-12 11-16l2-8 1-6v-1c-4 1-8-1-9-5-2-5 3-9 7-10 2-1 4-3 6-2 3 0 5 2 6 5 1 5-2 10-7 12l-1 6c-1 7-2 14-6 20l-8 9a232 232 0 0 0 22 34c9-6 10-19 10-29-6 0-9-5-9-11 0-5 5-8 10-8l5 1c2 2 3 5 3 7 0 4-2 8-5 10 0 12-3 25-13 32l12 15 1 1c8 9 17 19 28 26 1 0-2 4-3 3-13-8-23-19-33-30v-1l-18-24a71 71 0 0 1-24-6c-6-3-15-7-19-12l-4 2c-12 5-17-18-4-21l1 1c4-2 9-2 10 4v10h1c4 6 15 11 22 14 4 2 9 3 14 3a247 247 0 0 1-19-38l-12-4c-5-3-8-7-12-11h-1c-6 3-10-3-11-8s3-10 9-11h5c2 1 4 5 5 7 0 3-1 6-3 8l9 10 10 4-1-7c-2-11-4-25-1-36-2 0-3-2-4-4-3-5-3-12 3-14Zm51 84 2-2v-4c-1-3-3-6-6-4l-2-1-2 1v5c1 3 3 5 6 5h2Zm-79-7c-4 3 1 15 8 12 5-1 4-9 1-12-2-3-5-1-7 1-2 1-2 0-2-1Zm53-40 2-2c2-1 5 0 6 2l1 4c0 2-1 3-2 3-3 1-6 0-8-1l-2-4 2-2h1Zm-43 9v-6l-2-4-2-1-2 1-1 1h-1l-2 1c-1 2 0 4 1 5 1 2 3 5 6 5h1l2-2Zm18-43c1 1 3-1 3-2v-1h3l2 4c1 2 2 6 1 8-2 4-6 3-8 0l-2-4v-5h1Z" fill="#52525B"/>
  <path d="M291 687c-9 0-9 13 0 13 8 0 8-13 0-13Zm36 33-5-2-5 2-1 2c-2 1-2 3-2 4 0 2 0 4 2 5l4 2 5-2 2-1 1-5-1-5Zm6 68c-9 0-9 13 0 13 8 0 8-13 0-13Z" fill="#F5E38D"/>
  <path d="M266 679c-9 0-9 14 0 14s9-14 0-14Zm48 86c-9 0-9 13 0 13s9-13 0-13Z" fill="#DDD5FF"/>
  <path fill-rule="evenodd" clip-rule="evenodd" d="M265 690h1c0 9 2 18 4 26l2 10 1 3c1 6 2 13 6 17l-4 13-1 6a336 336 0 0 1-15 41l-2 6-16 32c-1 2 3 2 4 1 6-9 10-19 14-29l3-7 2-5 8-7 2-1 6-4 21-1 23 1-1 1v4c0 2 3 3 4 3h6c2-1 4-4 4-6 2-5-2-7-6-8-1-1-3 1-3 1l-3 3a136 136 0 0 0-30-1l-12 1 4-3 22-13 2 2c5 2 9-1 12-5l1-5c-1-2-3-3-5-3-3-3-7 1-9 3l-2 5a205 205 0 0 0-31 19l-10 7a313 313 0 0 0 12-34l3-12v-1l1-3h1v-1l2-3h1a134 134 0 0 1 24-15l5 2h4l2-2 3-2v-6c-1-4-6-6-10-5s-6 4-6 8l1 2a222 222 0 0 1-21 13c-2 1-5 2-6 4l-2 1c-3-5-4-12-5-18v-1h1l7-10 1-1 3-6 2-5c3 0 5-1 7-4 1-3 2-6-1-7-3-4-9-5-12 0l-2 7 5 3-3 5-1 3-8 12a68 68 0 0 0-1-9l-4-21h2l2-1c2-3 2-9 0-11-3-4-8-4-11-2s-6 6-5 10c1 3 4 3 7 3Zm49 35v-2c-1-2 0-7 4-6 2 1 5 5 3 8l-3 2v1h-1l-2-1-1-2Zm-52-39c0 2 2 2 5 2h4l-1 1h1v-7l-1-3h-5c-2 2-3 4-3 7Zm30 12h-3l-1 1-1-1-1-4 2-4c2-1 3 1 4 2l2 1-1 4-1 1Zm20 74 2-1c3-1 0-2-2-2l1-1a26 26 0 0 1 2-3h3c3 0 2 3 1 5l-2 3-4 1-1-2Zm17 17 3-1 2 4-2 4v1c-1 1-1 2-3 1-2 0-3-2-2-4a15 15 0 0 1 2-4v-1Z" fill="#52525B"/>
</svg>
