<svg fill="none" xmlns="http://www.w3.org/2000/svg" viewBox="0 0 525 1800">
  <path d="M63.8 114.2c-3.2-1-7.5 1-8.2 4.6a52 52 0 0 1-.8 3.7l-2.8-2.8c-6-6.2-15.4 3.2-9.4 9.4l10 10.3c2.8 3 8.5 2.5 10.4-1.4 2.6-5 4.5-10.1 5.5-15.6.6-3.6-1-7.2-4.7-8.2Zm75.4-77.1a6 6 0 0 0-5.2 2.7l-1-2.6c-1.4-3.3-6.3-4-9.2-2.3-3.4 2-3.8 5.7-2.4 9 2 4.8 3 9.9 3.3 15 .3 6 7 8.3 11.4 4.7a28 28 0 0 0 9.8-19.8c.2-3.6-3.3-6.7-6.7-6.7ZM197.3 16c-3.5 0-5.8 2.5-6.5 5.6V21c.2-3.6-3.2-6.6-6.7-6.6-3.8 0-6.4 3-6.6 6.6a33.3 33.3 0 0 0 4.7 19.3c2 3.2 6 4.2 9.2 2.4a24.7 24.7 0 0 0 12.5-20c.3-3.6-3.3-6.6-6.6-6.6Zm27.6 105.8c-3-1.7-7.5-.8-9.1 2.4l-2.4 4.4c-.7-6.4-11-8.3-13-1-1.3 4.5-2.2 9.6.2 14 2 3.6 5.8 6.4 10 6.5 8.6.3 13.5-10.7 16.7-17.2 1.6-3.2.8-7.2-2.4-9.1Z" fill="#81AD9E"/>
  <path fill-rule="evenodd" clip-rule="evenodd" d="m188.7 53 3.4-3A29.5 29.5 0 0 0 203 34c1.3-3.7 4.5-15.4-.2-18-1-.6-2-.3-3 0l-1 .2c-1.1.8-2.3.8-3.6.2l-.9-2-.6-.7c-.3-.3-.5-.5-1.2-.7-2.6-.9-4.8.9-6.5 3.1-1-2.6-3.3-4.2-7-4.1-4.7.1-8 2.4-8.5 7.1a49.3 49.3 0 0 0 4.8 23c2 4.7 4.7 10.6 10.2 10.8-.7 11.8-3.7 23.4-8.4 34.3 0-2.4-.3-4.7-.6-6.6-.7-3.7-2.9-12.4-8.4-10.4-5.7 2-5 12.4-4.6 17a31.2 31.2 0 0 0 4.1 12.9l1.5 2.8c-7.5 12.7-17 24.4-27.4 34.5a451.9 451.9 0 0 0 1-38.2c-.2-4.9-1.2-9.3-2.5-14a61 61 0 0 1-1.3-6.3c.7-.2 1.2-.6 1.3-1 1-3 2.2-6 3.4-9 1.7-4 3.3-8.1 4.4-12.6l.6-2.1c1.3-4.7 3.5-12.4-.6-15.2-1.4-1-2.4-.6-3.8-.2h-.2l-1 .6c-.6.3-1.1.6-1.6.5-.4 0-1-.7-1.5-1.3a6 6 0 0 0-.7-.7c-3.9-2.6-5.3-.7-7 1.7l-.1-.2c-.9-2-1.7-3.8-4-4.5-1.8-.5-4.1.2-5.8 1-5 2.5-6.4 7.4-6.1 12.7.5 7.3 3.4 14.8 7.6 20.7 2.7 3.8 6.8 9.3 11.7 9.3.3 2.2.6 4.3 1.2 6.5a66 66 0 0 1 2.8 18.1c-.6-1.6-1.3-3.1-2.1-4.7l-.2-.3-.2-.2c-2.2-4-4.7-8.3-8.4-11-2.9-2-11-4.5-11.7 1.3-.3 2.3 1.4 5.3 2.6 7.3v.2l.2.3c2.2 4 5.2 7.1 9 9.6a24 24 0 0 0 10 4.4l.3.6c0 .2.3.4.6.4a429.6 429.6 0 0 1-1.5 29.7l-5.2 4.6-9 8c-1.6-1.1-3.5-1.3-6.1.1-3.4 1.8-4 5.8-3.7 9.6-16.9 17.9-30.5 39-33.3 64-1 9.6-.2 19.4.7 28.8a173.9 173.9 0 0 0 3.3 20.5l.8 3.3v-.1h-.1v-.1l-1.6-3.3-2.8-5.7-2.1-4a89.2 89.2 0 0 1-12-57.8 22 22 0 0 0 4-1.1l1.3-.5c2.3-.7 4.6-1.7 6.6-3 3.7-2.7 7.4-7.5 6.6-12.2 0-.2-.4-.4-.6-.4-6.4-.8-12.5 3.5-16.7 8.8l.4-2.2a134 134 0 0 0 2.6-24 86.5 86.5 0 0 0-2.7-19.6c0-.3 0-.5-.2-.8l-.5-2.3.5-.5c3.1-6.1 9-41.5-4.6-38.5a8.7 8.7 0 0 0-3.7 2.1c-.7.6-1.4 1.2-2.2 1.6-1.2.6-1.2.6-1.5 0l-.8-1.3-.3-.4c-.4-.5-.7-1-1.3-1.2-3.6-1.6-4.7 1.2-5 4.1a7 7 0 0 0-5.7-.2c-4.6 1.4-4.6 5-3.8 9.2a25.2 25.2 0 0 0 23.8 21.2c1 2.8 1.7 6 2.3 8.8l.5 2a80.5 80.5 0 0 1 .3 34.7c-1-4-2.6-8-5-11-2.7-3.3-8-6.3-12.3-4.2-5 2.4-1 11 .5 14.4a33.8 33.8 0 0 0 14.4 15 94.6 94.6 0 0 0 5 46c1.8 5 4.3 9.5 6.8 14a448.2 448.2 0 0 1 7.5 14.6c1 1.7 2 3.5 2.2 5 .1.4.6.5 1.2.4v.2c0 1.1 3.3.5 3.3-.8v-1.2c.6-.2 1.1-.6 1.1-1.1a26.5 26.5 0 0 1 0-.5c.3-.2.4-.4.5-.7l.1-1c0-.3-.2-.5-.5-.6 1-16 11.2-29.4 22.9-39.7l.8-.7.2-.2 6.5-5.7c.8 1.3 3.4 2.2 5 2.8l1.2.4c6 2.6 14.7 4.7 21 1.1 6.2-3.5.7-9.4-4-10.8a22 22 0 0 0-10.6-.1c-2 .4-4 1.3-5.9 2.1l-2.8 1.3a142.7 142.7 0 0 1 19-13 232 232 0 0 0 30.7-21.2c3 3.5 10.5 6 13.6 6.8 5.4 1.3 15.3.8 19.3-3.7 4.7-5.2-2.7-8.6-7-9.2-7.5-1-15 .6-22.2 3 2.9-2.5 5.6-5.1 8.3-7.9a92.7 92.7 0 0 0 15-19.8c1.4-2.2 3-4.6 4.2-7h.2c3.8 1 8-2.8 10.9-5.5a58.9 58.9 0 0 1 2.7-2.4c4.7-4 11.6-10 11-16.3-.3-2-1-2.6-2-3.5l-1-1a5.5 5.5 0 0 1-1.8-3.3l-.1-.5-.2-.8a5 5 0 0 0-1-2.5c-2.6-2.5-5.7-.4-8.1 1.7l-.3-1.4a7 7 0 0 0-1.2-3 5.4 5.4 0 0 0-4.2-2c-4-.3-8.5 2.3-11 5.5-3.7 4.9-3 11.7-2.2 17.4l.2.9c.6 4.6 1.7 12 5.6 14.8l-1.4 2.4-1.2 2.3c-2 3.6-4 7.2-6.3 10.7a111 111 0 0 1-15.2 17.7c2-8.5.6-26-7.6-24.1-4.3 1-5 6.5-5.2 10.2-.2 7 1.2 15 6.2 20-10.5 9-22.7 16.2-34.6 23a166 166 0 0 0-34.6 27.9A60 60 0 0 0 91 268.4c0-3.8 0-7.6 1-11.3 2.4-10.2 6.7-19.8 11.7-29 4.4-8.4 9-16.7 13.7-24.8 1.9-3.4 4-6.6 6-9.8l5.8-9.4c4.2 1.3 10.6.3 14-.5 3.9-.9 13.2-4.6 13.3-9.5 0-5.3-7.7-3.2-11-2.3h-.2l-.2.1c-4.7 1.2-9 3.3-12.7 6.2 5.8-11.5 8-24.5 9-37.4a165.4 165.4 0 0 0 29.4-36.3l.5.4a22.7 22.7 0 0 0 14.8.4c4.2-1 13.8-3.7 13.4-9.8-.3-5.6-8.4-3.6-12-2.7h-.3l-.3.1a33 33 0 0 0-11.7 5.5 24 24 0 0 0 1.2-3.8A105 105 0 0 0 188.7 53Zm.1-3.2.3-.2a33.1 33.1 0 0 0 12.4-28.7c-.5-3.2-2-2.7-4-2.1-1.2.4-2.4.8-3.6.4-.7-.3-1-.7-1.3-1.2l-.6-.8c-2.7-2.4-4 0-5.3 3.3-.3 1-3.3 1.8-3.2.4 0-1.8-.2-4.4-1.7-5.8-5.4-1.1-8 0-8 3.6v2.8c.3 3.1.6 6.4 1.3 9.5.8 4.4 4.7 18.6 10.5 20a87.5 87.5 0 0 0 0-3.1c-2.2-1.3-2.8-5.3-3.1-7.7l-.2-1-.2-1c-.5-2.6-1.3-6.3 2.4-6.3 1.5 0 2.4 1.7 2.9 3.4.5-1 1.1-1.5 2.2-1.9.4 0 1.5-.2 1.7.2 1.1 1.7.7 3.8.2 5.7l-.7 2.5a124.4 124.4 0 0 1-2 6.2v1.8Zm-53.6 26.9a41.2 41.2 0 0 1-14.8-23.2c-.8-3.4-1.5-7.2-.7-10.6.8-3 4.2-9.2 8.7-3.8a7 7 0 0 1 1 2l.7 1.7c.4.8 2.3 0 2.8-.4.5-.5.9-1 1.2-1.6.8-1.2 1.3-2 3.4-.5l.8.7c.6.5 1 1 1.8 1.1.7.2 1.2 0 1.8-.1l.9-.2c.8-.1 1-.4 1.2-.6.2-.3.2-.4 1.4.3 1.2.8 1.3 1.8 1.4 3v.5a52 52 0 0 1-3.6 18l-.1.6c-.8 2.5-2 5-3 7.3l-1.8 3.9-.8-5.5V69l.4-1.7a24.1 24.1 0 0 0 .8-6.1c0-1.1.2-2.5-.4-3.2-.7-1-2-.8-3-.3a4 4 0 0 0-1.4 1.2c0-.5-.3-1-.5-1.3-.9-1.2-1.6-1.6-3-1.7-.8 0-2 .4-2.3 1.1-1 2.8.6 7.3 1.7 9.8.9 2.3 2.4 6 5 6.9l.3 2.2v.9Zm72.9 79.2-.3.7v.8c.6 0 1.1 0 1.2.5a54 54 0 0 0 5.1-3.5l.6-.5c2-1.5 3.7-3.2 5.5-4.9l.2-.1.2-.3c3.2-3 8.3-7.9 7-12.6-.4-1.9-1.4-2.3-2.4-2.8-.8-.3-1.6-.7-2.1-1.7-.3-.4-.2-1.2-.2-2v-1.1c-1.2-3.4-3.6-1.8-5.4 0-.6.4-2.2 1-2.9.3-.6-.7-.8-1.8-1-3-.2-1.3-.4-2.7-1.6-3.4l-5.8.2a9.7 9.7 0 0 0-3.7 3.8c-1 1.7-1.5 3.8-1.7 5.8-.6 4.6 0 16.4 3.7 22.2a56.6 56.6 0 0 1 .2-8.2c.2-2 .4-4.6 2.3-5.6 2.8-1.5 3.8.5 4 3l.4-.2c1.1-.7 3.2-1.3 4.1 0 2 2.6-2.5 7.3-5.4 10.4l-2 2.1v.1Zm-70.5-48.7v.1l-1.2-.5-1.2-.4a29.6 29.6 0 0 1-7-4.7c-3-2.6-7.7-8-7.8-12.1 0-4.5 5.6-1.2 7.3.5a67.2 67.2 0 0 1 8.8 14l1.1 3.1Zm35.7-4.4.5.3c3 1.6 9 1.2 11.9.5 2.5-.7 8.1-2.4 9.4-4.7-.2-4.3-1.7-6-4.6-5a29.4 29.4 0 0 0-17.2 8.9Zm-.8-6-1.4 2.7-2.3-4.6a33 33 0 0 1-2.3-14V80c.1-1.6.2-3.7 1-4.7 2.6-3.7 4-.1 4.8 2.6a31 31 0 0 1 1 13.2v.9c-.3 1.6-.4 3.3-.8 4.9ZM68.7 132a53 53 0 0 1-2 15.4l-.3-.7c.5-.5.5-1-.3-1-.7-1.9-1.6-3.6-2.7-5.1.2-1.8 0-4-.1-5.8l-.1-1.4v-.7c-.1-1.5-.2-3.7-1.5-4.4-1-.5-2.7 0-3.3.9-.3.3-.4 1-.5 1.5l-.1.7v.1c-1-1-2-2-3.6-2-1.5-.2-3.9.5-3.9 2.4l.4 1.3.2.7.2.7c.1.6.2 1.1.5 1.7a9.2 9.2 0 0 0 2.4 3.2c2 1.9 4.6 3.6 7.4 4l1 1.9c-6.1-1-12.2-4.3-15.6-9.3a26.9 26.9 0 0 1-4.6-13c-.3-4.2 4.5-5.4 6.5-1.6.6 1.1 3.3.4 3.3-.8v-4.5c-.3-1.5 0-1.4.8.4a419.4 419.4 0 0 0 .8 1.3c.3.4.6.8 1.3 1.1 1.8.8 3-.2 4-1.2l1.4-1 2.6-1.1 2.7-1 1 1.7.3.5a41.7 41.7 0 0 1 1.8 15.2ZM125 234c1 1.7 8 3.8 9.2 4.2h.1c2.9.9 18.6 3.3 12.4-5.3-3.5-4.9-12.5-2.8-17-1-.8.2-1.6.6-2.4 1-.8.4-1.5.8-2.3 1Zm-55.1-27.7-2.4.6c-.8-1 5.4-8 6-8.4 1.4-1.5 10-8 9-3-.6 2.6-3.2 5.8-5.3 7.5-2 1.5-4.3 2.3-6.6 3l-.7.3Zm-5.5-2a42 42 0 0 0-2.3-12.7c-.7-2-7.8-17.9-12-11.5-.9 1.3.5 5.2 1.2 7l.2.8a32.8 32.8 0 0 0 12.9 16.7v-.4Zm71.4-21.8a35 35 0 0 1-4-.6c2.4-2.6 5.1-4.7 8.4-6.3 1.4-.6 8.6-4 10.3-3l.9 4.8v.2l-2.2 1.7a18.7 18.7 0 0 1-12.3 3.2h-1Zm-10.4-1.2c0 .6.8.8 1.6.7-.2.2-.4.5-.3.7-3.8-2-6-6.7-7.4-10.6-.8-2.4-1.8-5.9-2-9a207 207 0 0 1 5.3-5.2c1.2 2.1 2.2 5.2 2.4 6.7.6 4 .6 8.2.5 12.4l-.1 4.3ZM114.5 166c-4.5 5-8.8 10.2-12.6 16a100.7 100.7 0 0 0-18 47.7 153.2 153.2 0 0 0 3.6 41 654.8 654.8 0 0 1 .4.9v-2.3c0-3 0-6 .4-9 1.3-8.5 5-17.4 8.7-25a526.4 526.4 0 0 1 28.5-50.4c-6.1-2.1-9.2-9.8-10.4-15.6l-.6-3.3Zm6.7-9.8-3.8 3.8.2-1c1-3.7 2.4-4 3.6-2.8Zm4.2-1c3.5 5.6 3.4 18.5 3.3 24a104 104 0 0 0 9.2-35.1 536 536 0 0 0-12.5 11.1Zm59 45c-1.7-.8-4.5-2-6-3.5a58.8 58.8 0 0 1 19.8-3.2c2 .1 3.8.5 5.5 1.3 3.3 1.8 3.3 3.5 0 5.2-5.2 5.3-12.4 3.5-18.6.6l-.7-.4Zm-9.9-6c.4-.3 1-.4 1.4-.4 1.8-5.2 1.9-24.6-3.2-24.3-3.6.3-2.3 11.7-2 13.6.7 4.2 1.5 7.8 3.8 11ZM60.1 137.6v-.2H60l.1.2Zm-6.9-6.4h-.1s.2 0 .3.2l-.2-.2Z" fill="#52525B"/>
  <path d="M364.1 1641.2c1-7.5 4-14.6 7.1-21.5a217 217 0 0 1 37.3-55.7l9 29c5.8 18.2 11.3 38.6 3 55.7-6 12.2-21.8 29.1-36.5 29.4-17.3.4-21.7-23.7-19.9-37Zm-30.9-96.2a6.3 6.3 0 0 0-4.7-2 6.7 6.7 0 0 0-6.7 6.6v1.4c0 1.7.8 3.5 2 4.8 1.2 1.1 3 2 4.7 1.9 1.7 0 3.5-.7 4.7-2a7 7 0 0 0 2-4.7v-1.4a7 7 0 0 0-2-4.7Zm16.8-26.6-1.4-1.4a6.5 6.5 0 0 0-9.4 0 6.7 6.7 0 0 0-2 4.7 7 7 0 0 0 2 4.7l1.4 1.4a7 7 0 0 0 4.7 2 7 7 0 0 0 4.7-2 6.7 6.7 0 0 0 0-9.4Zm27.4 17.6c-8.5 0-8.6 13.3 0 13.3s8.6-13.3 0-13.3Zm63.5-19a7 7 0 0 0-4.7-2c-1.8 0-3.6.7-4.8 2a7 7 0 0 0-2 4.7v1.4a6.8 6.8 0 0 0 6.7 6.7 7 7 0 0 0 4.8-2c1.2-1.3 2-3 2-4.7v-1.4a7 7 0 0 0-2-4.7Zm45.6 58.1c-8.6 0-8.6 13.4 0 13.4s8.6-13.4 0-13.4Z" fill="#F5E38D"/>
  <path fill-rule="evenodd" clip-rule="evenodd" d="M371.2 1614.8c-3.4-8.3-10-14-17.3-20a91 91 0 0 0-17.5-11.2l-4.2-2.3-2.5-1.5c-5.5-3-11.1-6.3-17.4-7-.5 0-3.7 0-3.3 1.4 1.8 5.5 4.2 10.9 6.6 16.3 3 7 6.2 14 8 21.6 1.2 5 1.7 10.2 2.3 15.4.8 8.3 1.6 16.7 5.2 24.2 9 19.2 29.8 28.1 49.7 30.3-4 17-5.6 35-7.2 52.3l-.1 1.4c-1.6 17-1.8 37.9 5.4 53.8.6 1.3 5 .5 4.3-1-7.1-15.6-6.8-36.7-5.2-53.3v-1.2c1.6-16.3 3.1-33.3 6.6-49.5 8 2 18.4.6 26.3-.4h.2a74 74 0 0 0 32.2-12.2 74.3 74.3 0 0 0 24.3-29c1.6-3.3 3-6.5 4.3-9.6 5.6-13 10.8-25.3 26.6-29.6 2-.6 1.7-2-.3-2.2a104.4 104.4 0 0 0-49.8 7.6 64 64 0 0 0-17 10.1c-3.3 2.7-6 5.8-8.6 9.2l-.5-.2c.5.1 3-4.2 6.3-10.3 5.5-9.9 13.4-24.1 19.3-30.8l.6-.2c5-.2 8.5-2.7 9.2-8.5.7-5.3-1.2-10-7.4-8.6-5.1 1.2-12.6 11.4-7.6 16.1l.5.5c-3.8 3.8-7 9-9.4 12.9l-.2.3c-4 6.5-7.8 13.2-11.3 20l-1.3 2.2-.1.2a125 125 0 0 0-3.3-28c-1-4.7-3-9.4-5-14a90.6 90.6 0 0 1-5-13l.6-2.8c0-.7-.5-1-1.3-1.2-.3-2-.4-4-.3-6 .1-1.4-4.2-1.1-4.4.2a98.4 98.4 0 0 1-14.3 30.7 420.9 420.9 0 0 0-11.7 20.4c.3-4.5.4-9 .3-13.5l.2-3.8c.4-5 1-11.7-3.1-13.8-.4-1.8-.5-4-.7-6.4-.3-6.4-.7-13.7-7.3-15.2-5.3-1.3-7.7 2.4-8.2 6.9-.8 8.3 1.8 13.1 8.8 16.4l2.2.9c2 .7 2.8 1 3.5 4.6.4 2.3.3 4.9.2 7.4v3.4c0 6.7-.1 13-1 19.6Zm-2.2-38.4.1-2c0-.9.2-1.8 0-2.8-.2-3.8-3.7-17.4-7.2-8.3-2 5.3 2.6 11.3 7.1 13.1Zm7.7 102.5c-13.4-9.3-14.6-33-10.4-47 .8-3 1.9-6 3-8.8-.4-.2-.6-.4-.7-.8-1.9-12-9.6-18.6-18.4-26a93.6 93.6 0 0 0-17.6-11.1l-5-3c-4.3-2.4-8.8-5-13.4-6.4 1.6 4.5 3.6 8.9 5.6 13.3 2.3 5.1 4.7 10.3 6.4 15.7 2.3 7.4 3.2 14.8 4.1 22.3.4 3.6.8 7.1 1.4 10.7 3.8 23.5 23.2 37.1 45 41.2Zm43.6-46.8.2-2c.4 0 1-.2 1.3-.4l-.2.5-1.3 2Zm30.7-50.7 1-.1c1.6-2 2.6-4.6 1.4-6.2-3-2.2-4.9-1.9-5.7 1-2 2.1-1.5 4.1 1.5 6a13 13 0 0 1 1.8-.7Zm-65.1 94-1-.2c-2.6-4-3.5-8.8-4.4-13.6l-1-5a53 53 0 0 1 2.5-29.4 221 221 0 0 1 11.6-27.2l3.5-7.2-.2 2.2a216 216 0 0 1-6.7 43 107 107 0 0 0-3.2 15.5c-.6 5.2 0 10.4.6 15.7.4 3 .7 6 .8 9l-.9.4.4-1.9c.2-.9-.9-1.3-2-1.3Zm16-87.3.6 2.5c3 10.3 5 20.9 4.4 31.8a140.9 140.9 0 0 1-6.8 34 73 73 0 0 1-7.3 18.5l-.6-6.4a69.4 69.4 0 0 1 2.7-32c1.2-4.8 2.4-9.6 3.2-14.5a348.2 348.2 0 0 0 3.8-34Zm-25.6 74.9a33 33 0 0 0 5.4 15c-8.9-5.8-13.5-20-13.7-29.3a75.5 75.5 0 0 1 8.2-31.3c3.7-8.3 8.3-16.1 12.9-23.9l3.4-6 2-3.2 5.2-9.2-.4 1.5-.5 1.9c-2.8 7.1-6.1 14-9.5 20.9-5.3 11-10.7 22-13.6 33.9-2.2 9.2-2.3 16-.3 25.3l.9 4.4Zm11.2 19.3.4-.1c1 .1 2.5-.3 3-.5.8-.5 1.6-1.2 2.4-2 1.2-.4 2.4-1 3.6-1.8 3.7-2.5 6.8-6.2 9.7-9.6l.4-.5a65.2 65.2 0 0 0 12.7-31.6h.3c2.4-.9 4-3 5.3-5l1-1.5c4.2-5.6 9-10.2 15-14a91 91 0 0 1 50.4-12.3 33 33 0 0 0-16 13c-4 5.6-6.5 12-9.2 18.4-2 4.9-4 9.7-6.5 14.3a66 66 0 0 1-37.5 29.9c-.8.2-29.2 5-35 3.3Zm13.6-16-2 4.7c13-12.2 18.4-32.7 17.2-50.4-.8-11.7-2-23.9-5.9-35l-3-7.2-1.4-3.3a31.6 31.6 0 0 0 1.9 18.6c.8 2.4 1.6 4.8 2 7.3 2.3 11.6 1.3 22.8-.3 34.3a120.8 120.8 0 0 1-8.2 30.1l-.1.5-.2.3Z" fill="#52525B"/>
  <path d="M78.6 557.7c-6-5.2-11.1-12.3-10.8-20.3 0-1.1.2-2.4 1.1-3 .7-.6 1.6-.6 2.5-.7l10-.3c-.7-5.2-1.2-11 1.6-15.4 2.8-4.5 10.4-6 13.2-1.5.9 1.5 1.3 3.6 3 4.2 2.1.7 3.9-1.8 5-3.7 3-5 7.1-9 12.1-11.6 0 3 .2 6 1.6 8.6 1.4 2.6 4.4 4.6 7.2 3.8 1.5-.5 2.7-1.6 4.2-2 3.8-.7 6.4 3.6 7.4 7.3 3.7 14.4-1 33-12.6 42.7-12.7 10.6-34.2 1.5-45.5-8.1Z" fill="#81AD9E"/>
  <path fill-rule="evenodd" clip-rule="evenodd" d="m110.6 519.5.7 2 2.2 5.5c1.5-8 5-16.9 9.5-22.1 5-5.8 7.2 1.8 8.4 6.5.8 3 1 6.4.8 9.8 1.4-2.4 3.2-4.7 5-6.4.3-.3 2.2-1.5 2.6-.6a40 40 0 0 1-.5 35.4 35.8 35.8 0 0 1-10.1 13 53.4 53.4 0 0 1 16.4-.6c10.5 1 25.7 4 33 12.3.3.5-.4 1.4-.7 1.7-3 2.5-7.4 3.4-11.5 4.2l-3.4.7a60 60 0 0 1-17.9 1.5c-6.5-.3-12.2-1-18.2-3.7a121 121 0 0 1-10.7-5.8l-1.5-.8c0 .7 0 1.4.2 2l.6 1.6c10.5 5 19 12 27.3 20.6 3 3 5.2 6.6 7.5 10.2 1.7 2.5 3.3 5.1 5.2 7.4.4.6 1 1.2 1.7 1.8 1.8 1.7 3.7 3.4 2.4 5.7-1.6 2.5-4.4 1.8-6.7 1-6.5-2.3-13-5.5-18.2-9.9a65.1 65.1 0 0 1-15.3-18.7c1 4.4 2 8.8 3.2 13.2 3.8 15.1 8.4 30.1 14.4 44.5 11.3 27 28.3 50.5 50.6 69.4 1 .8-2.1 3.3-3.3 2.3a184.7 184.7 0 0 1-52.5-74.1 340 340 0 0 1-13.6-44l-3.5-15-.1 2.4a329 329 0 0 1-1.6 18.7c-.3 2.1-.5 4.3-.6 6.4-.3 4.3-.7 8.6-1.7 12.8-.5 2.2-1.4 4.7-4 5.4-9.4 2.4-7.5-19.4-6.9-26.6l.2-1.5a90.7 90.7 0 0 1 7.8-31.3l-.4-.1a166.2 166.2 0 0 1-18 25.5l-4.8 5.8a95.5 95.5 0 0 1-17.1 18c-.4.3-2.2 1.2-2.3.1-1-11.4 5.8-25.3 12.6-34a72.2 72.2 0 0 1 25.4-19.3l-1.2.1a49.4 49.4 0 0 1-30.7-13.3c-6-5.7-8.6-16-6.7-23.8 1.1-4.3 3.6-6.4 7.5-5v-.9c.1-4.3.3-12 6.3-9.8 1 .3 2 .8 2.9 1.5.3-1.6 1-3.2 1.6-4.8l.8-2c.7-1.8 1.4-3.8 3-5 1.8-1.3 3.8-1.1 5.7-.3 1.3.6 2.4 1.6 3.4 2.5.4.5.9 1 1.4 1.3 1-4.1 2.8-7.1 6-6.3 1.4.4 2.8 2.2 4 4.4 0-.6.3-1 .3-1.2l.3-.7 1-2.8c.5-1.6 1.3-3.1 3-3.9 3.5-1.6 6.7 2 8.4 4.7 1.7 0-.6 2.6-1.8 2.8h-.4c-.2 0-.7 0-.8-.2-1-1.5-2-3-3.3-3.9-.3-.2-1-.7-1.7-.9.1.3 0 .8-.2 1.1l-.1.3-.6 1.7a18 18 0 0 0-1 3.3c-.4 1.1-1 1.9-1.8 2.5l2.1 5.7Zm-2 54.6.4-.2a63.5 63.5 0 0 1 .5-1h-.3l-.6 1.2Zm1.7 3.3a89 89 0 0 0-6.3 23c-.4 2.7-3 33.5 3.3 31.2 1.3-.5 1.5-9 1.6-12.8l.1-1.7.4-4.6c.4-3.7.8-7.3 1-11l.3-5.2c.5-6.3 1-13-.4-19Zm7.1 3.3a79 79 0 0 0 15.6 25c4 4.2 8.7 7.7 14 10.3l3.1 1.2c1.5.6 3 1.2 4.4 2l1.6 1 .2.2-.2-.2a57.3 57.3 0 0 1-10.4-12.7c-3-4.2-6-8.5-9.8-12l-3.7-3.7c-2.8-3-5.7-6-9.4-8.1a97 97 0 0 0-5.4-3Zm-5.5-12c-3.2-1.9-5.2-6.6-6.7-10l-.5-1.1a58 58 0 0 1-5-18.9c-.4-5.4-.4-10.9 0-16.3 0-1.6 1.1-12.6 2-12.2 1.2.6 2.7 4.6 3.7 7.3l.9 2c2.5 5.5 4.5 11.3 6.2 17a62.3 62.3 0 0 1 2.7 16l.3 3.1c.5 4 1.1 9.4-.5 12.5-.1-.2-.4-.2-.7-.1h-1l-1.4.6ZM97 581.1a237 237 0 0 0 4.6-5.7 63.3 63.3 0 0 0-22.5 18 53.3 53.3 0 0 0-10.6 28.8c5-4.2 9.4-9.8 13.6-15.2l5.2-6.5c6.3-7.4 12-15.2 16.7-23.6l-.9.2-3.2 3.8a370.2 370.2 0 0 0-5 6c-2.5 2.9-5.2 6-6.6 9.1-.5 1.2-4 2.6-3.1.5 1.3-3.1 3.8-6 6-8.6a106.5 106.5 0 0 0 5.8-6.8Zm25-13.8a55.4 55.4 0 0 1 22.9 1.1c2.5.6 5 1.2 7.7 1.5 1.7.3-1 3-2.3 2.8-2.5-.3-5-.9-7.5-1.5a53.6 53.6 0 0 0-23.8-1 55.5 55.5 0 0 0 49.2 6.8l1-.3 1.7-.3 3.4-.8c-6.2-6.2-17-8.5-25.2-10a49.1 49.1 0 0 0-25.3.6l-1.8 1Zm-.5-2.4.9-.3a37.2 37.2 0 0 0 14.7-46.7 19.5 19.5 0 0 0-4 8.1c-.1.5-.7 1.1-1.4 1.5l-.2 2.3a51.5 51.5 0 0 1-4 18.5c-.8 2-1.7 4-2.2 6.1a19 19 0 0 0-.4 2.5 15 15 0 0 1-.5 3.2 12 12 0 0 1-2.9 4.8Zm-40.9-3.3a52 52 0 0 0 18.3 7 74 74 0 0 1-10.6-8.8l-1.3-1.3c-7-6.6-14-15.4-14.9-25.3-.6.3-1.2.5-1.6.3-6.2-3-1.5 14.1-.2 17a27 27 0 0 0 10.3 11.1Zm35.5-29.3c0-5 1.4-9.6 3.2-14.3l.8-2.1a32 32 0 0 1 4.8-10.2c3 2.6 3.5 11.6 3.4 14.2v2.5c0 5.3-.1 10.6-1 15.8-.6 3.8-1.8 7-3.1 10.4l-1.1 3c-.6 1.6-1 3.2-1.3 4.9a19 19 0 0 1-2.8 7.8c1.1-5.9 0-13.6-.7-19.5l-.2-1a63 63 0 0 0-2.5-10.5c.3-.3.5-.6.5-1ZM96 528.7c0-2.5 0-7.4.6-12a1 1 0 0 1-.4 0 10 10 0 0 1-2.6-2l-.8-.8c-.8-.8-3-2.7-4.3-2.6-1.5.1-4 8.8-4 10.5 0 .4-.3 1-.8 1.3 1.7 1.6 3.2 3.4 4.6 5l1.6 1.8 1 1a77 77 0 0 1 5.3 6.3c-.2-2.4-.2-4.9-.2-7.4v-1.1Zm9.9 39.7c-5-2.4-10-7-13.4-10.2l-1.2-1.1a50.2 50.2 0 0 1-14.5-20.5 22.5 22.5 0 0 1-.8-12c.3-1.2 0-1.9-.1-2l1.2.7c1 .5 2.1 1.5 3 2.4l1 .9a56 56 0 0 1 14.7 18c.2.3.6.3 1.2.1.5 3.5 1.3 6.9 2.5 10.2l.5 1.3c1.3 3.6 3.1 8.8 5.9 12.2Z" fill="#52525B"/>
  <path d="M411.6 272.5c-6.6 6.4-8 16.7-6 25.7s7 16.8 12 24.6a57.3 57.3 0 0 0-35.5-10.4c-8 .5-17 4-19.1 11.9-1.5 5.8 1.7 12.1 6.6 15.6 5 3.4 11.2 4.5 17.2 4.5 6.7 0 14-1.5 18.3-6.8-6.3 4.4-9 12.5-9 20.2a24 24 0 0 0 6 16.4c4.3 4.3 11.3 6 16.5 3 4.6-2.5 6.8-7.7 8.3-12.7a98 98 0 0 0 4.3-29.9c-1.6 10.8 0 22.9 8 30.3 8 7.3 23.2 6.6 27.7-3.3a17.8 17.8 0 0 0-2-16.5c-3-5-7.9-8.5-12.8-11.4a85 85 0 0 0-16.6-7.4c11.4 3.7 30.2-3 33.4-15.8 4.3-17-24.8-20.5-30-7.3 6.4-16.5-7.3-50-27.3-30.7Z" fill="#F5E38D"/>
  <path fill-rule="evenodd" clip-rule="evenodd" d="m423.8 320 1.9-1.4c2.2-3.1 5.1-6.4 8.5-9.6 2.7-4 4.7-9 4.7-13.8 0-8.1-2.7-19-9-24.5-7.8-6.5-16.4.3-20.6 7.3a23 23 0 0 0-4.3 15.3 40 40 0 0 0 9.7 24.7l2.1-.5c-.2-3.6.2-7.5.5-11.2l.5-6.4c.1-3.3 0-6.5-.2-9.7-.2-3.8-.3-7.5 0-11.3 0-1.3 4.4-2 4.3-.7v.9c-.2 4 0 8 0 11.9.2 3.5.4 7.1.2 10.7l-.3 5.4c-.4 3.7-.7 7.6-.4 11.2 1 .4 1.8 1 2.4 1.6Zm-12.2 12.3c-1-.8-1.6-2.1-1.6-3.6h-.2a21.5 21.5 0 0 1-8.3 8 52.1 52.1 0 0 0-9.6 18c-2.7 9.5-2.2 23.6 10.6 25 12 1.3 14.9-20 15.2-28.3 0-3-.4-10.9-2.3-16.5a310 310 0 0 1-5 16.4 32 32 0 0 1-10.8 16.5c-1.1.9-5.5.7-3.5-.9 6.7-5 9.4-12.7 11.3-20.5.8-3.1 1.8-6.2 2.7-9.2l1.5-5Zm7.5 1h.5-.4Zm1-.2a9 9 0 0 0 1.5-.5l.2.7c-.4-.3-1-.3-1.6-.2Zm-19.8-11c2.6.6 5.3.8 8 .8a3 3 0 0 1 1.2-.9c-3.3-8.8-11.3-13-20.3-14.3-5.7-.9-11.1-1.6-16.7 1.1-4.6 2.2-7.6 8-7.8 13-.5 10.2 12 15.8 20.7 16.6 4.5.4 8.9-.6 12.7-2.8 2.4-2.8 5.1-5.3 8-7.4l1.2-2.8c-2.7 0-5.5 0-8.1-.6-3.3-.7-7.1-2-10.3-3.2l-3.2-1.7c-1.4-.8-2.7-1.6-4.1-2-2.5-.8 1.3-2.8 2.7-2.3 2.6.7 5 1.9 7.3 3 2.8 1.3 5.6 2.6 8.7 3.4Zm23.1 16.2-.5-1.3.5 5.1c.1 2 .2 4.1.6 6a41 41 0 0 0 6.2 17c6.6 9 25.6 16.2 30.9 1.8 1.6-4.6 3.3-10 1.9-14.9-1.8-6-7.9-10.7-13-13.7a52.7 52.7 0 0 0-18.4-6.6 39 39 0 0 0-6.1-1.6l.2.6c0 .5.2 1 .3 1.4 1.4 4.4 3.4 8.3 6.4 11.9 5.2 6.4 13 15.2 21.2 17.5 2.5.7-1.3 2.7-2.7 2.3-7.5-2-15-9.5-19.9-15.1a47.3 47.3 0 0 1-7.6-10.4Zm3.6-14.6-.3 1.2c7.2 3.8 20.5 3.6 28.2 2.4 11.8-1.9 25.2-7.7 21.6-21.8-2-7.8-6-10.4-14.9-9-6 1-12.1 4.4-17 8-2 1.5-4 3-6.1 4.8a42 42 0 0 1-9.6 10.5l-.4.6 5-1.3 6.3-1.6a34.2 34.2 0 0 0 16.9-10.4c1-1 5.4-1.2 4 .2-3.3 3.7-6.5 7-11.2 9.2-1.5.7-17.3 5.6-22.5 7.2Zm14.7-20.6c.7-1.8 1.2-3.5 1.4-5 1.7-11.2-3.5-29.9-16.1-32.6-12.7-2.8-20 7.4-24.9 17.5-3.5 7.3-2.3 17.3 1.5 25.9a46 46 0 0 0-21.4-4.6c-10.3-.2-21.6 7-22.2 18.1-.6 12.7 16.3 18.5 26.4 18.5 3 0 5.8-.5 8.6-1.3a47.4 47.4 0 0 0-8.5 20.3c-.9 6-1 12.5 3.6 17 3.2 3.1 8 5.3 12.6 5.4 12 .2 16.7-13.5 18.5-23.2 0-.6.2-1.1.3-1.6l.8 2.4a27 27 0 0 0 13.5 15c9 3.8 23.4 5.7 28.2-4.8 3-6.3 5.7-14.5 2.6-21.2-3-6.6-10.1-11.4-16.4-14.4-4.1-2-8.6-3.5-13.2-4.6l2.5.2 2.8.2c6.7.5 13.4-.6 19.9-2.4 12.2-3.4 22.9-11 18.2-25.2-5.2-15.6-23.8-10.2-38.7.4Z" fill="#52525B"/>
  <path d="M464 32.1c-12.2 1.7-17.2 13.3-26.4 19.7-.4-3.6 1.4-6.6 1.4-10.1a26 26 0 0 0-4-12.3c-2.4-4.3-6-8.1-10.5-9.8-4.6-1.7-10.3-.7-13.3 3.1a19 19 0 0 0-3 7.8c-1 5-2 10-1 14.9 1.7 9.6 9.7 16.5 17.3 22.6a79 79 0 0 0-19.8-13c-7.3-3-16-3.5-22.9.5-6 3.5-9.9 12.2-5.6 17.7 2.4 3.1 6.4 4.3 10.2 5 9.8 1.7 20 .9 29.3-2.3a59 59 0 0 0-25.3 10.3 31 31 0 0 0-12.7 23.4c0 3.5 1 7.4 3.9 9.5 2.6 1.8 6 1.6 9.1 1.1a49.8 49.8 0 0 0 36.9-29 80.1 80.1 0 0 0-10.5 25c-1.5 6.2-2 13.3 2 18.3 4.7 6 14.8 6 20.9 1.2 6-5 8.4-13.3 8-21a73.8 73.8 0 0 0-6.3-22.5 31.7 31.7 0 0 0 22.5 24.9c6.4 1.7 14.2.8 18.3-4.4 3.3-4.3 3.3-10.5 1-15.4a32 32 0 0 0-10.8-12 73.4 73.4 0 0 0-28.3-12.5 47.2 47.2 0 0 0 28.9-14c4.9-5.1 8.7-12.6 6-19.1-2.4-5.7-9.3-8.4-15.4-7.6Z" fill="#CFA1A1"/>
  <path fill-rule="evenodd" clip-rule="evenodd" d="M421.8 65.1c-8-2.8-16-9-19.8-16.5-4.3-8.4-2.5-30.8 11.4-26.6a30 30 0 0 1 17.8 19 58.9 58.9 0 0 1 1.3 22.4c-.9 0-1.7 0-2.5.2-3-.6-6-.3-8.2 1.6Zm-2.9 5.1a46.3 46.3 0 0 0-19-10.3c-8-2.2-23 1.1-25.3 10.2-6.3 25.5 29.7 15.5 43.2 8.1 0-1.7.2-3.4.8-5.1 0-1 0-2 .3-2.9Zm-.2 11.6a104 104 0 0 0-21.9 16.8c-5.3 5.8-15 19.1-7.6 26.5 8.7 8.6 23.4-5.3 27.3-12.6 1-2 1.9-4.1 2.5-6.2.4-2.5 1-5 1.7-7.3 0-.6.2-1 .3-1.6.7-3.6 1.5-7.6 1.1-11.2l-.4-.5a9.2 9.2 0 0 1-3-4Zm6.5 6.3v.5l.2-.4-.2-.1Zm2.5.4c-1.7 2-3 5.4-3.8 8.4l-.5 2.2a293.7 293.7 0 0 0-1.3 5.5c-.8 4-1.1 8.3-.9 12.4.7 11.4 4.7 27 19.8 21.5 14.4-5.1 10.4-23 5.2-33.5-2-4.1-5-8.2-8.3-11.5-1.7-1.7-3.7-3-5.7-4.4l-1.4-1a9 9 0 0 1-3 .4Zm8.1-1.2 2.7 2.1-.7-2.8-2 .7Zm5-2.7a44.3 44.3 0 0 0 6.8 14.8c3.8 5.5 9 10.1 14.7 12.6a20.7 20.7 0 0 0 16.9.3c9.2-4.1 8.2-13.6 5.3-21.4-3.9-10.2-15.6-20-27-19.2a137.5 137.5 0 0 0-14 1.9c.2 1.2.2 2.3 0 3.4a8 8 0 0 1-1 5.8l-1.7 1.8Zm.7-17h7.4c7.5-.8 13.7-3.8 19.4-8.7 9.7-8.5 13.3-22 3.1-31.7a18.3 18.3 0 0 0-15-4.7c-7.7 1-12.6 7.5-15.7 14a51 51 0 0 0-4 15.4l-1 6V62c0 .6.3 1 .6 1.2.3.1.4.4.4.7 2 .6 3.6 1.8 4.8 3.6Zm22.3 49A31.5 31.5 0 0 1 452 110c.6 2.3 1 4.7 1.4 7 1.6 11.2-2.7 21.1-14 24.7-15.2 4.8-20.1-8.8-21-21-.2-2.4-.3-4.8-.2-7.2-.8 1.6-1.8 3.1-3 4.6-5.3 7.3-16.3 14.6-25.8 11.9-10.7-3.2-4-19-.1-25a76.6 76.6 0 0 1 21.4-20.6 62.5 62.5 0 0 1-26.9 5.4c-5.2-.3-10-2-11.9-7.2a24 24 0 0 1 .3-14c2.4-7.6 14.3-11.8 21.4-12.6 3.4-.4 6.5.1 9.6 1.1-3.2-3.7-5.5-8-6.2-12.8-1.2-8.5 1.5-19.3 9-24.5 9-6.4 19.8 4.6 24.5 11.6 3 4.3 4.3 8.9 4.9 13.5 1-4.1 2.4-8 4.7-12 6.3-10.7 19-18.5 31-11 12.3 7.7 12 24.6 2.8 34.3A47 47 0 0 1 455.8 69l1.2-.2c6.4-.8 11.7 1 17.2 4.2 9.8 5.8 18.9 19.6 14.7 31.5-3.5 9.8-15.2 14.7-25 12Z" fill="#52525B"/>
  <path d="M403.9 835.6c-3.5-1.7-7-3.4-10-5.9-2.8-2.4-4.9-5.6-7-8.6a34 34 0 0 1-7.3-17c-.3-6.2 4.4-13 10.6-12.7 1.2 0 2.4.4 3.6 0 1.4-.4 2.3-1.8 3.2-3.1a22 22 0 0 1 9-8.4c3.8-1.7 8.7-1.6 11.8 1.1 2.4 2 3.8 5.5 6.9 6.3 3.7 1 7-2.6 10.7-3.9 5.7-2 12.5 3.1 12.3 9 0 1.4-.3 3 .7 4 .5.4 1.3.5 2 .5 4.3.4 9-.3 12.6 2 3.2 2.1 4.7 6.3 4.4 10.1-.3 3.9-2.1 7.5-4.2 10.7a57.4 57.4 0 0 1-26.8 22.8c-13.4 5-20.8-1.3-32.5-6.9Z" fill="#F5E38D"/>
  <path fill-rule="evenodd" clip-rule="evenodd" d="M386 793.7c.8.7 2.8.8 3.9.2a23 23 0 0 1 12.1 8c1.8 2.6 2.8 5.6 3.7 8.6.5 1.5 5.4 1.3 5-.6l-.7-2.1c-1.5-5-3.6-12-.2-16 2.9-3.4 10.7-4.6 13.3-.2-1 3-.6 6 1.7 8.5 1 1 4.6 1.1 4.8-.6.3-2.7-.3-5.3-1.4-7.7 2-6.7 10.2-13.8 15-8.6 1.6 1.9 2.5 4.2 2.8 6.7-.3 0-.6.2-.9.4-1.5.7-.4 1.5 1 1.8.2 3.6-.6 7.5-1.2 11l-.6 3.7c-.3 1.8 4 1.2 4.7.7 3.2-2.2 10.6-.8 12.5 2.4a12.3 12.3 0 0 1 1.2 5.6v1.4a25 25 0 0 1-3.4 13c-2.1 3.6-5.2 6-8.7 7.4a7 7 0 0 0 .3-3.6c-.1-.6-.7-1-1.3-1-1.7-.5-3.4-.6-5-.4h-.3c-3.1-1.1-6.2.2-9 1.6a102 102 0 0 1-3.2 1.5l-.3-1.4c-.3-1.6-.7-3.2-1.2-4.6-1-2.6-2.3-4.5-5.3-4.3l-1 .2c-1.5-.4-3.5 0-3.8 1.1-.5 1.9-1 4.6-1.3 7.6-2.4-3-5.1-5.3-8.4-5.7-.6 0-4 0-3.2 1.5 1.8 3 3.8 5.8 6.3 8.3l2.2 1.7a15.2 15.2 0 0 0-9.2-2.8c-.6 0-1.2.1-1.6.3l-2.1-1.4-2.2-1.3a50.8 50.8 0 0 1-17-14.4c-3.7-5.4-7.4-15.3-4.2-21.7a8 8 0 0 1 6.2-4.8Zm16.7 45.6-.5-.3c-10.8-6.2-22.5-13-26.7-25.6-3.3-9.8-1.6-21.1 10-22 0-4.7 4-9.4 8-11.3 2.3-1.1 4.8-1.2 7.2-.6 1 .3 3 1.5 4.4 2.4l1.7 1a7 7 0 0 0 1.5-2.6c.7-1.5 1.6-3.3 2.7-4 2-1.2 4.8-1.5 7-1.2 6.1.9 8.3 4.2 9.7 9 3-3.1 6.8-5.5 10-6 8.1-1.2 11.4 3.7 12.4 10.1 2.7-.8 5.5-1.2 8.3-.6a7.5 7.5 0 0 1 6.2 6c.2.8.5 1.7 1 2.4.5 1 1.5 1.6 2.5 2.2.9.4 1.7 1 2.4 1.6a10 10 0 0 1 2.6 5c.7 4-1.3 6.1-3.4 8.5l-1.9 2.1c.5 6.5-1.7 13.4-5.5 18a23.1 23.1 0 0 1-15.5 8 20.4 20.4 0 0 1-4.8 2l-.7.3c-4.2 2.5-9.3 4.9-12.8 4.4h-.1c-2.2 1.2-3.7.8-5.6.3l-1.4-.3-4.7-.8c-3.6-.5-7.3-1.1-10.5-2.6-2.9-1.3-4.2-3.6-3.5-5.4Zm23.7-6.7a39.1 39.1 0 0 0-.5-1.6l.1 1.5.4.1Zm1 6.2-.3-.1v.4l.3-.3Zm22.5-35.8c.4-3.5.8-7.8.6-11.8 1-.4 2-.9 3-1 5.2-.6 5.8 1.6 6.5 4.3l.5 1.7c.6 1.9.7 2 2.2 2.9h.1c.6.5 1.2.7 1.6 1 1.3.7 2.2 1.1 3 3 1 2 .9 3.6.2 5.6l-.8 1.7a15 15 0 0 0-2.6-4.8c-4.3-5.5-9.4-5-14.3-2.6Zm-59.5-11.5c5.3.7 9.8 3 13.3 6.6 0-5 1.3-9.6 5.4-12.2-.6.3-1.3.5-2.2.6-2 0-3-1-4.2-2.2a9.5 9.5 0 0 0-2.7-1.9c-4.5-1.9-9.7 4.6-9.6 9Zm19-5.8a13.6 13.6 0 0 1 13.7.3l-.1-.8c-.5-3-1-6.2-4.5-7-4.4-1.2-5.1.8-6 3-.2.7-.5 1.5-1 2.2-.6 1-1.3 1.8-2.1 2.3Z" fill="#52525B"/>
  <path d="M392.4 1451.9a56.3 56.3 0 0 1-13.2-7.8 56.3 56.3 0 0 1-9.2-11.4c-4.6-6.8-9.3-14-9.6-22.3-.4-8.2 5.8-17.2 14-16.8 1.5.1 3.2.5 4.7 0 1.9-.6 3-2.4 4.2-4 3-4.6 6.9-8.9 12-11.1 5-2.3 11.3-2.1 15.4 1.5 3.2 2.7 5 7.1 9 8.2 5 1.3 9.3-3.4 14.2-5.1 7.5-2.6 16.5 4 16.2 12 0 1.7-.4 3.8 1 5 .6.6 1.7.8 2.6.8 5.7.5 11.8-.5 16.6 2.6 4.2 2.8 6.1 8.3 5.7 13.4-.4 5-2.7 9.7-5.5 14a75.6 75.6 0 0 1-35.3 30c-17.6 6.7-27.4-1.7-42.8-9Z" fill="#81AD9E"/>
  <path fill-rule="evenodd" clip-rule="evenodd" d="M368.8 1396.7c1 .9 3.6 1 5.1.3a30.3 30.3 0 0 1 16 10.5c2.4 3.4 3.7 7.3 4.9 11.2.6 2 7.1 1.8 6.4-.8l-.7-2.7c-2-6.5-4.8-15.9-.3-21.2 3.8-4.4 14.1-5.9 17.4-.1-1.1 4-.7 8 2.4 11.2 1.1 1.2 6 1.5 6.2-.8.4-3.5-.3-7-1.8-10.1 2.7-8.9 13.4-18.3 19.7-11.3a16 16 0 0 1 3.8 8.7l-1.1.5c-2 1-.6 2 1.3 2.4.1 4.8-.8 10-1.7 14.5l-.8 4.9c-.3 2.4 5.2 1.6 6.2.9 4.3-3 14-1 16.5 3.3a16.1 16.1 0 0 1 1.6 7.3v1.8c.2 5.9-1.5 12-4.5 17.1-2.8 4.9-6.9 8-11.5 9.8a9 9 0 0 0 .4-4.7c-.1-.8-.9-1.3-1.6-1.5a19 19 0 0 0-6.7-.4h-.3c-4.2-1.5-8.3.2-12 2l-1.4.7-2.8 1.4c0-.6-.2-1.3-.4-2-.4-2-.8-4-1.5-6-1.3-3.3-3-5.8-7-5.6a8 8 0 0 0-1.4.3c-1.8-.5-4.5 0-5 1.5-.6 2.4-1.3 6-1.6 10-3.2-3.9-6.8-7-11.1-7.5-.8-.1-5.3 0-4.2 2a54 54 0 0 0 8.2 10.8c.4.5 1.6 1.3 3 2.2-3.8-2.1-7.6-4-12.2-3.6-.8 0-1.5.2-2.1.3l-2.8-1.7-2.8-1.8a67 67 0 0 1-22.4-19c-4.9-7-9.8-20-5.6-28.6 2-4 5-5.8 8.2-6.2Zm22 60-.6-.3c-14.3-8.2-29.7-17.2-35.3-33.8-4.3-13-2-27.8 13.2-29 0-6.2 5.4-12.4 10.6-15a14 14 0 0 1 9.5-.6c1.2.3 4 2 5.8 3.1 1.2.8 2 1.3 2.2 1.3.6-.4 1.3-1.8 2-3.4 1-2 2-4.4 3.5-5.3 2.6-1.6 6.4-2 9.4-1.5 8 1 10.9 5.5 12.6 11.8 4-4.1 9-7.2 13.2-7.8 10.8-1.7 15 4.8 16.4 13.3 3.6-1.2 7.3-1.7 11-.9 2.4.6 4.7 1.8 6.3 3.8a10 10 0 0 1 1.8 4.1c.3 1.1.6 2.2 1.2 3.2.8 1.3 2 2 3.5 2.8a13 13 0 0 1 3 2.2c1.8 1.8 3 4 3.4 6.5 1 5.3-1.6 8.2-4.4 11.3l-2.5 2.8c.7 8.4-2.2 17.5-7.2 23.7-5 6.2-12.6 9.5-20.5 10.4-1.3.8-2.7 1.4-4.2 2l-2.2.8-.9.3c-5.5 3.4-12.2 6.4-16.7 5.8l-.3.1c-2.8 1.5-4.7 1-7.3.4l-1.8-.4c-2-.5-4-.8-6.2-1.1a52 52 0 0 1-13.9-3.4c-3.7-1.8-5.5-4.9-4.6-7.2Zm31.2-8.8-.6-2.1v.1l.1 1.8.5.3Zm1.3 8.2-.4-.2.1.5.3-.3Zm29.7-47.2c.6-4.7 1-10.3.8-15.5a14 14 0 0 1 4-1.4c6.8-.8 7.6 2.2 8.5 5.7l.7 2.3c.8 2.4 1 2.5 2.8 3.7l.2.1c.8.6 1.5 1 2.2 1.3 1.6.8 2.8 1.5 3.9 3.8a9 9 0 0 1 .3 7.5 10 10 0 0 1-1 2.2c-.9-2.3-2-4.4-3.5-6.3-5.7-7.3-12.4-6.6-19-3.4Zm-78.4-15.2c7 1 13 4 17.6 8.7 0-6.6 1.7-12.7 7-16-.8.4-1.7.7-2.8.7-2.6 0-4-1.3-5.6-2.8-1-1-2.1-2-3.5-2.5-6-2.5-12.8 6-12.7 12Zm25-7.6a18 18 0 0 1 18.1.4l-.1-1c-.7-4-1.4-8.2-6-9.4-5.8-1.5-6.7 1.2-7.8 4-.4 1-.7 2-1.3 3-.9 1.2-1.8 2.3-2.9 3Z" fill="#52525B"/>
  <path d="M273.6 415.7c-6.7-5.4-15 5-8.3 10.3 6.6 5.4 15-5 8.3-10.3Zm21.9-32.2c-6.7-5.4-15 5-8.3 10.4 6.6 5.4 15-5 8.3-10.4ZM444.8 480c-6.6-5.5-15 5-8.3 10.3 6.6 5.4 15-5 8.3-10.4Zm-2.1 52c-6.7-5.4-15 5-8.4 10.4 6.7 5.3 15.1-5 8.4-10.4Zm28.9-28.5c-6.7-5.4-15 5-8.3 10.4 6.6 5.4 15-5 8.3-10.4Z" fill="#81AD9E"/>
  <path fill-rule="evenodd" clip-rule="evenodd" d="M327.2 399.6c3.6-1.8 6.5-.9 9.4 1.6.9.7.6 1 0 1.2v.2c.5 1.3 1 2.8.4 4-.7 1.4-2.4 2.4-3.7 3a7 7 0 0 1-3.2.6 107.2 107.2 0 0 0-7.3 48.8 54.8 54.8 0 0 1 2.5 5.9l.1-1a84 84 0 0 1 13.8-33.5c-1.1-2.1 0-4.2 2-6 2.2-2 5.1-2.4 7.5-.2.7.6.6 1 .1 1.2 1 .5 1.8 1.2 2 2.3.3 2-1.4 3.4-2.7 4.5-1.3 1-2.4 2-4.1 1.7-.9-.1-1.7-.4-2.4-1a80.9 80.9 0 0 0-14.1 40.2c1.8-4.6 4.2-9.1 6.8-13.4 4-6.7 8.9-13 13.8-19.1l.5-.6c4-5 8.2-10.2 13-14.1.8-.6 3.5.4 3 1.5-2 4.6-2.8 9.2-3.7 13.9a66 66 0 0 1-9.1 25.8c-3.2 5.2-6.5 10.6-10.7 15.1-2.2 2.5-4.6 4.8-7 7.1l-5 4.8c-.1.2-.4.3-.8.2v1.4a387.4 387.4 0 0 1-7.3 65.8 111.8 111.8 0 0 1 29-34.6c-3.4-6.8 3.1-17.5 6.8-23.4l.5-.9a94.8 94.8 0 0 1 13.6-16.5c2-2 4-4 5.8-6.1.7-.8 3.7.7 3 1.5-3.4 4.8-4.7 10.4-6 16-1 4.1-2 8.2-3.7 12l-.4.9a146.8 146.8 0 0 0 26.6-31.7l-.2-.1c-1.2-.6-2.5-1.1-3.2-2.4-.9-1.7-.4-3.7.5-5.1.9-1.5 2-3.3 3.8-3.8 1.5-.5 3.4 0 4.7.7a6 6 0 0 1 2 8.6c-1.1 1.9-2.7 3.6-4.6 3.6-5 8.3-10.5 15-17.1 22.2l-.2.1a91 91 0 0 1-15 14.3l1.6-.6 10-5.6h.3l.2-.2c7.2-4 14.4-8 20.4-14l-.2-.2v-.6l.1-.2.4-.3c-1-2-.6-4.3 1.4-6.1a6 6 0 0 1 8.5.5c2.1 2.4.3 6.7-1.7 8.6-1.6 1.5-4 1.4-6 .4-6 5.9-13.2 9.9-20.4 13.9l-1.7.9c3.4-.4 7-.3 10.6-.3 7.1 0 14.3.1 20.4-3 .9-.5 4 .7 2.9 1.7-2 1.8-4.3 3.4-6.6 5l-4.3 3a90 90 0 0 1-10.4 7 53.1 53.1 0 0 1-20.7 6.7c-4.9.6-9.6-.6-14.2-2.2l-.8-.2-2.6-.9-.5.5c-.5.4-1.7.1-2.4-.4h-.1v-.1a114 114 0 0 0-32.2 43.5c-.1.3-.6.4-1.1.3a132 132 0 0 1-30.7 56l5.2-2.2a113 113 0 0 1 21-5.8c7.8-1.4 15.3-3.1 22.6-6.1 3.7-1.6 7-3.6 10.5-5.7 3-1.8 5.9-3.6 9-5 .6-.3 3.5.8 2.8 1.7-8.6 11-18.6 23.4-32.8 26.8a99.9 99.9 0 0 1-41.8 1.7l-1.5 1-2.2 1.6-2.5 1.7a157.7 157.7 0 0 1-21.1 16.1c-6.8 4.4-13.8 8.3-20.8 12.3l-9.3 5.3c-1 .6-3.8-1.2-2.8-1.8l9.5-5.4c7.1-4 14.2-8 21-12.4l.5-1 .1-.3c-.6-.5-1-1-.3-1.2l1-.2c.7-2.3 1-4.4 1.3-6.8.5-4 .5-7.8.5-11.7-.1-7.3 0-14.3 1.3-21.5a70 70 0 0 1 7.2-22.3c2-3.3 4.2-6.5 6.5-9.7 2-2.7 4-5.4 5.7-8.4l.6-1c.7-1 3.7.5 3.2 1.5l-.7 1c-2.5 5-1.5 12.1-.6 18.4.3 2.3.6 4.5.7 6.4.4 7.7-1.6 15.3-3.9 22.6a105 105 0 0 1-8.1 21 57 57 0 0 1-2.7 4.4 128 128 0 0 0 6.8-5.7c-.2-.3-.1-.6.3-.7l1-.5a135.9 135.9 0 0 0 29.3-37.4c16.6-31.8 19.7-69.8 21.4-105.2l-.3-1.8c-.7-.3-1.2-.8-1.2-1.3-2-1.4-3.9-3.5-5.2-5a76 76 0 0 1-11.8-18.8 53.8 53.8 0 0 1-3.3-23c.1-2.1.4-4.3.7-6.5a56.2 56.2 0 0 0 .2-14.8c0-1.4 3-.1 3.3.9l.4 2.5c.9 4.3 2.7 7.9 4.7 11.7l2.5 5.1c1.3 2.8 2.8 5.5 4.3 8.2v-4c0-13.6 2.2-26.8 7.4-39.4-.6-.3-1.2-.8-1.8-1.4-1-1-1.8-2.2-1.6-3.7.2-2 2.2-3.6 3.9-4.5ZM286 634c5.7.7 12.2.6 17.7.5a81 81 0 0 0 21-3.3 56.6 56.6 0 0 0 25.7-20l-1.9 1a79 79 0 0 1-11.3 6c-7 2.9-14.2 4.5-21.5 5.8-7.5 1.4-15 3.3-22 6.1a64 64 0 0 0-7.7 3.9Zm-19.3 3a45.5 45.5 0 0 1-7.4 11.3l.2-1.7v-.4c.5-4 .7-7.8.6-11.7 0-8.2.1-15.8 1.6-23.9 1.4-7 3.3-14 6.9-20.4 1.9-3.4 4.2-6.5 6.5-9.7l1-1.3c0 2.7.2 5.6.5 8l.2 1.9c.9 9 .5 16.6-2 25.4-2 7.6-4.3 15-7.9 22l-.2.5Zm137.1-140 .4-.1h.3a5 5 0 0 0 1-1.2l1-1.7c.4-1 1.4-3.6.1-4.2-1.4-.8-3.3 1.5-3.8 2.6-.8 1.7-.6 3.2.8 4.4l.2.2Zm-6.1-19.3.6.2h.2l.7-.7a13 13 0 0 0 1.9-2.7c.6-1.3 1-4.4-.7-5-1.9-.8-4 2.6-4.5 4-.4 1-.8 2.6.2 3.4l1.6.8Zm-36.9 45.9.2-.2 9.8-5.1a53.6 53.6 0 0 1 23.2-3.5c3.8 0 7.6.1 11.3-.4a235.2 235.2 0 0 1-8 5.7 60 60 0 0 1-16.7 9 37 37 0 0 1-16.7 2.1c-.7 0-5.7-1.2-8.3-2.1l2.3-1.8 3-3.7Zm11.4-34.2-.4 1.6-.7-.4 1.1-1.2ZM330 408c-.8-.5-2-.8-2.4-.4-1.7-1.3-.7-3.7.7-5 .9-.8 2-1.4 3-1.7.9-.2 1.4-.2 2 0l.2.7c.5 1.5 1 3 0 4.3-.8.8-2.2 1.8-3.5 2.1Zm12.6 23.3a1 1 0 0 0-.2-.4 4 4 0 0 1-.4-1c-.2-1.3.8-2.4 1.7-3.3a8 8 0 0 1 1.6-1.3l1 .7c1 .5 1.6 1 1 2.3-.4.9-1.1 1.5-1.9 2l-.4.4-.2.3c-.5.3-1 1-1.5.9-.2 0-.5-.3-.7-.6Zm-26 35-.6-1 .2 1.4c0-.2.2-.3.4-.3Zm-9.8-15.1-.4-1.3v1c.2 0 .3.2.4.3Zm10.8 31.6Zm-3.6-34.3Zm-2.1 13.4v.3l-.5-1 .5.7Zm0-18.4-1.6-3a82.4 82.4 0 0 1 .8 2.5v.2c.3 0 .5.2.7.3Zm-2-4Zm-2.4-3.1c.3 0 .7.2 1 .4l-.9-1.6-.1 1.2Zm20.2 54.6 3.6-3.5a96.1 96.1 0 0 0 18.5-23.6 63.2 63.2 0 0 0 7.9-23.4l1.6-8c-3.3 3.6-6.4 7.5-9.3 11.2l-.5.7c-4.2 5.4-8.4 10.8-12 16.7a54.6 54.6 0 0 0-9.8 30Z" fill="#52525B"/>
  <path d="M228.2 1230.3c8.3-4 15-12.2 15-21.4-.3-9.2-9.3-17.9-18.2-15.7 4.6-4.5-1.2-12.9-7.6-13-6.4 0-11.7 4.6-16.7 8.6a143 143 0 0 1-41.4 23.6 73.5 73.5 0 0 0 32.2-78c-.6-2.4-1.3-4.8-2.8-6.7-4-5.5-12.8-5.5-18.5-1.9a39.1 39.1 0 0 0-12.6 16c-3.1 6-6.3 12.4-11.7 16.6-4.1 3.1-9.3 5-12.4 9-3.6 4.8-3.4 11.3-2.9 17.3a314 314 0 0 0 5.2 34.8l-6-4.2 13.8 16.2a165.4 165.4 0 0 0-66.9-41.4c-6.3-2-14.4-3.2-18.5 2-4.5 5.8-.1 14.2 4.6 19.8 4.7 5.7 10.1 12.7 7.5 19.5-2.4 6.1-11 10.6-8.7 16.8 1.3 3.6 5.8 5 9.6 5.3a59.9 59.9 0 0 0 35.5-7.4c7.8-4.5 16.5-10.9 24.7-7.4.8.4 1.7.9 2.1 1.7.7 1.5-.2 3.2-1 4.6a222.4 222.4 0 0 0-25 57.5c-1 3.8-1.4 8.8 2 10.5 2.1 1.1 4.7.4 6.8-.6 9.6-4.6 18.4-13.9 28.7-11.5 6.1 1.4 11.9 7 17.8 4.9 4.1-1.5 6.2-6.3 5.9-10.6-.4-4.3-2.5-8.3-4.6-12l-21.4-38.9c21.8 23.2 44.8 47 74.6 58 3.7 1.4 7.6 2.5 11.4 1.5 3.7-1 7-4.8 6-8.6-.4-1.2-1.2-2.3-2-3.3l-19.6-27.5c-4.5-6.2-9-12.5-14.6-17.7-10-9.5-23.1-15-35.9-20.5 12.2 5.2 25.5 7.4 38.7 8a55 55 0 0 0 27-4Z" fill="#F5E38D"/>
  <path fill-rule="evenodd" clip-rule="evenodd" d="M140 1223.7a44.5 44.5 0 0 1-5-20.3l-.3-2.5c-1.1-11.3-2.3-24 2.8-34.4 1-2 2.1-3.6 3.4-5 1.4.3 3.6-.3 3.5-1.5l-.2-1.6c2-1.7 4.3-3 6.6-4.5 3.1-1.8 6.3-3.8 9.1-6.5 3.4-3.1 5.2-7.3 7.1-11.5 2-4 3.8-8.3 7.1-11.6 13.2-13.2 17.5 11.2 17.9 20.2.4 12.1-.8 25.5-5.7 36.6-4 9-9.1 16.7-15.5 24l-6.4 5a634.3 634.3 0 0 1-19.3 14.7l1.8-4 .3-.6a163.3 163.3 0 0 0 6.1-15.7c2.7-7.3 5.4-14.6 7-22.2.3-1.8-4.4-1.6-4.7-.1A195.7 195.7 0 0 1 145 1214c-.5 1.2-1.4 2.7-2.4 4.5-.9 1.6-2 3.4-2.7 5.2Zm-1.8 6.3h-.2c-2.3-.2-2-1.5-.6-2.1-1.7-2.2-4.1-4-6.4-5.8a51 51 0 0 1-5.3-4.5 131 131 0 0 0-7.7-7.2l-6.6-6c-4-3.6-8-7.3-12.2-10.7l-6-4.5c-.8 0-1.5 0-2-.3a16 16 0 0 1-2.4-2.5c-2.7-1.6-5.5-3-8.4-4.1-9-3.5-19.4 1-20.6 10.9-.4 3.7.2 7.4.7 11v.6c.9 5.7 2 10.4 5.6 14.9l2.3 2.3c1.6 1.4 3.1 2.8 3.7 4.6 1 3 .2 6-.7 9-1 3.6-2.2 7.3-.2 11.1 7.7 15.5 37 8.2 48.2 1.2 4.5-2.8 8.6-6.4 12.6-9.9l2.4-2.1c-5-.9-10-1.6-15-2l-2.5-.1c-3.5-.2-7-.3-10.3-1.8-7.1-3-12.2-8.2-11.5-16 .2-1.8 4.9-2 4.8-.5-1.2 12 10.9 14.8 20.5 16l16.6 2.2 1.9-1.5-.2-.2c-.3-.6-.4-1.3-.5-2Zm-2.2 14.4 3.3-5-.5 2.3c-2 8-3.9 16.3-3.8 24.4 0 2.6.8 6 1.6 9.7 1.6 7.8 3.5 17-.1 22.5-1.4 0-3 .5-3.1 1.5l-.1 2.1c-.1 1.6 3.5 1 4.1.4 7-5 5.8-16.4 4.4-23.8-2.6-13.8-.1-25.9 2.4-38.9v-.1l1.2 2a32 32 0 0 1 2.3 4.5 75 75 0 0 0 6.3 12.3l1.6 3.7c3 6.9 6 13.6 7 21.3 2.2 16.2-1.1 32.4-21 32.7l-4-.2c-2.4-.2-4.5-.4-7.6.5l-3.8 1a40 40 0 0 1-14.8 2.8c-11-.8-10.8-4.5-8.8-13.3s4.2-17.3 8.2-25.4c4-7.9 9.2-14.9 14.4-21.9l4.4-5.9 6.4-9.2Zm11-13.8a2 2 0 0 0-1-.6l.1-.3c0-.3 0-.5-.2-.8l.1-.2c.4-.1.8-.3 1-.6h.6c5.8 3.3 11.4 7.7 17 12.1a164 164 0 0 0 11.7 8.9c3.8 2.5 7 5.6 10.3 8.7 4.9 4.6 9.7 9.2 16.2 11.8 1.5.5 5.7-1.1 3.2-2a61.1 61.1 0 0 1-17.4-12.7c-3.8-3.4-7.5-6.9-11.6-9.5a101 101 0 0 1-11.2-8.6c-3-2.4-6-4.9-9.1-7 5.6 1.5 11.7 2.4 17.6 3.1l4.1 1.4c2.5.8 5.2 1.6 8.1 2.3 9 2.4 19.3 5 23.9 12 2.2 3.3 3.2 6.9 4.2 10.4a29.7 29.7 0 0 0 9.4 16.6c4.8 5 9.1 9.8 8.6 17.9-.4 6-1.4 12.5-7.3 15.2-4.8 2.1-13.5.4-19.2-2.2l.7-4.8c.2-1.4-4.5-1.2-4.7.5l-.1.9v.3l-.2.7a90.8 90.8 0 0 1-10.8-10 93.8 93.8 0 0 0-7.8-7.7 140.3 140.3 0 0 1-23.6-27.6 981.8 981.8 0 0 1-5.6-13.3l-1.7-4.4a37 37 0 0 0-5.3-10.5Zm28.3-.3a201 201 0 0 0-18.8-5.2 1273.8 1273.8 0 0 1 28.5-8.6c2.7-.7 5.4-1.4 7.9-2.5a33 33 0 0 0 6.3-4l2.8-2c1.4 0 3-.6 2.9-1.5v-.8c-.2-1.6-3.4-.8-4.2-.4l-5.3 3.1c-3.3 2-6.6 4-10.4 5.4-2.2.8-4.6 1.4-6.9 2l-4.8 1.3-21.3 6.7 2.5-1.8 3.6-2.2c3.3-2 6.6-4 9.7-6.5 2.4-2 4.6-4.3 6.7-6.7l1.2-1c5.7-4.3 11.3-8.8 17-13l2.4-2c3.4-2.5 6.9-5.2 10.5-7.4a53.3 53.3 0 0 1 12.1-5.3l14.4 4.5c2.6 3 1.6 6.1.7 9-.9 2.6-1.6 5 .1 7 1.7 2 4 2.2 6.4 2.4 2.8.1 5.7.3 7.7 3.8 6.5 11.6-12.1 22.5-20.8 26-13.7 5.5-27.4 3.3-41.4 1h-.2a191.9 191.9 0 0 0-9.3-1.3Zm26.1 76.8a62 62 0 0 1-11.3-9.4 168 168 0 0 0-6-5.5c-6.8-6-12.9-12.1-18.5-18.7a58 58 0 0 1 2 24.6c-.6 4.2-2.5 8.7-5.4 12.6 4 6.4 7.5 10 15.8 8.5l2-.6c1-.2 1.9-.5 2.9-.6 1.7-.1 3.3.1 4.9.4 3.3.4 6.4.9 9.6-2.4 2.4-2.4 3.4-5.6 4-8.9Zm-42.2 7a20.2 20.2 0 0 1-8.1 5c-2.3.7-4.4.5-6.6.3l-1.6-.1c-7.2-.6-13.2.7-20.1 2h-.1l-.8.2c-5.3 1.1-18 3.7-22.6.6-5.4-3.7-2.7-13-.6-19.8-2 1.2-4.5 1.7-6.8 1.3-2.6-.5-5.4-2.2-7-4.2a14.4 14.4 0 0 1-2.2-6.3c-.4-2.1-.8-4.2-2.1-5.8-1.7-2-4-3.1-6.5-4.3-4-2-7.9-3.8-8.6-9-.9-6.9 4.3-15 10.2-18.4-.4 0-.7-.2-1-.3-9.7-3.6-9.8-12-8.5-21l.1-1c.6-3.9.9-5.8-1.9-9.7-.7-1-1.6-2-2.5-2.8a17.4 17.4 0 0 1-3.3-4.2 44 44 0 0 1-3.5-16.8c-1.5-20 15.4-25 30.8-18.5a35.7 35.7 0 0 1 .8-23.6c1.7-4.8 4.5-7.2 8.4-10 3.1-2.3 5.5-5 7.8-7.7 2-2.2 4-4.5 6.5-6.5 5.7-4.7 16.2-5.2 22.8-1.8 3.5 1.9 5.2 5.1 6.5 8.7l1.2 3.3c1.4 3.8 2.8 7.6 3.7 11.5l3-2c5.1-3.3 10.2-6.6 13.1-12.4l1.7-3.4c3.7-8 7.7-16.3 16.6-19.4 16.8-6 19.1 16.6 18.6 33.5 6.4-4.4 14.1-8.2 21.4-3.8 8.4 5.2 12.5 17.6 11.4 27.1 0 .3-.2.6-.5.8 2 .6 4 1.6 5.6 3.2 3.2 3 3.5 5.4 4 9l.2 1.8c.2 1.5-.4 2.4-1 3.2-1 1.4-1.7 2.4 3.7 5l2.4.2c1 0 2 0 2.3.2 8.1 2.6 8.2 13.1 4 19.2-1 1.3-2 2.5-3.2 3.6a14 14 0 0 1 12.5 8c3.2 6.4.5 9.5-2.6 13-1.4 1.8-3 3.6-4.1 6-1.4 2.8-2 5.3-2.6 7.7-1.3 4.8-2.3 8.9-8.5 12.3a23.7 23.7 0 0 1-16.1 3c1 1.3 2.2 2.5 3.4 3.7 2.2 2.3 4.5 4.5 6 7.3 4.5 7.6 3.5 20.7-3 27-5 4.9-11.2 3.7-17.5 2.5l-2.1-.4c-2.6-.5-4.8-1.2-6.9-2-2.1 7.7-6.6 13.7-15.9 12.5a38 38 0 0 0-12.7.8l-1.7.2a12 12 0 0 1-5-.1c-4.7-1-8.2-4.5-10.9-8.4Zm-41.8-50.7a108 108 0 0 0-16.3 30.7c-.8.2-1.4.5-1.5 1-1.8 8-10 5-12-.5-.4-1-.5-2.2-.5-3.4 0-1 0-2.1-.4-3-1-2.7-2-3.2-4.4-4.2l-.8-.4c-5.3-2.4-11.2-5.3-11-12 .1-5 3-10.4 7-13.5 1.2 0 2.5-.4 2.7-1.2a57.6 57.6 0 0 0 53-16l-7 10-8.8 12.5Zm15.5-97c1.6-3.4 3.8-5.9 6.4-8-1-6.3-4.2-17.6-7.3-21.7-5.2-6.7-16.3-4.8-21.2.5-1.1 1.2-2 2.6-2.8 4-1 1.7-1.9 3.3-3.3 4.6-1 .9-2 1.3-3 1.8l-1.6.9c-5.2 3-7.3 5.2-9.3 10.7-2.6 7.4-3.1 19.1 2.3 25.9 6.3 4 11.8 8.7 17.3 13.6l5.2 4.5c4.2 3.6 8.4 7.2 12.4 11l4.5 3.8c-1-3.5-1.4-7.2-1.8-10.4l-.1-.5v-.3c-1.7-13.1-3.7-28.2 2.3-40.5Zm95 102.4c-1-.2-2.8.6-3.2 1.3l-.7-.9a26.6 26.6 0 0 1-4-9.6c-.5-1.9-1-3.8-1.8-5.7-4.6-11.7-13.1-14.2-23.5-17.3l-5.3-1.6c12.4 2 23.3 2.6 35.8-1.3a58.5 58.5 0 0 0 18-9.4c1.3.1 3-.3 3.3-1.1 4.8 1.5 7.9 4.5 9.2 9 .9 3.3 0 6.3-2.4 9.1l-2.3 2.6a14.1 14.1 0 0 0-3 3.9 17 17 0 0 0-1.4 5.9c-.3 1.9-.5 3.7-1.3 5.5-2.6 6-10.6 10.9-17.3 9.6ZM196.5 1155a69.5 69.5 0 0 1-12.6 40.3l2-1.6c8.4-6.7 17-13.5 27-16.9a34 34 0 0 1 11.9-1.8c.5-5.8-1.4-13-3.8-18.2a11.6 11.6 0 0 0-10.7-7.5c-5 0-8 2-11.8 4.8l-.7.5c-.3.2-.8.4-1.3.4Z" fill="#52525B"/>
  <path d="M357.7 1254.4c3 4.9 8.7 7.6 14.4 7.7a30 30 0 0 0 16.1-4.8c4.3-2.5 8.5-6.2 8.9-11.1 2-26.4-60.6-27.7-39.4 8.2Zm20.2-156.9c-3 6-2.4 14.2 2.7 18.6 2.2 2 5.1 3 8 3.9 5.8 1.6 12.3 2 17.6-.8 6.3-3.3 9.7-10.5 11-17.5.9-4 .8-9-2.5-11.6a13.3 13.3 0 0 0-5.7-2c-13.6-2.8-23.4-4.8-31.1 9.4Zm55.8 56.1c3.1 4.8 9.7 6 15.4 5.6 6.5-.5 13.6-3 16.4-8.8 5.6-11.4-8.7-24.4-19.6-24.2-12 .3-18.4 17.8-12.2 27.4Z" fill="#CFA1A1"/>
  <path fill-rule="evenodd" clip-rule="evenodd" d="M404.4 1110.8v.8c1.5 2.8 4.6 5.5 7 6.3 4.7 1.7 9.9-4 9.2-8.7-.4-2.5-3-9-7.6-5.1-1 .9-4 1-2.3-.8l1.3-1.3c3.2-3.3 6.2-6.4 5.2-11.5-1.7-8.5-11-5-10.8 1.9 0 1.2-3.2 3.1-3.6 1.5v-.1c-.8-3.2-1.6-6.4-4.3-8.4-3.8-2.8-5-2.3-8.6.5-3.8 3-4.3 3.5-2.2 7.5l1.2 1.8c.4.6.9 1.3 1.2 2 .7 1.5-2.2 2.7-3.2 2.3-6-2.2-13.2 6-7 10 .2 0 3 .9 5.2.8 1.2-1.2 2.7-2.2 4.2-2.8.7-.3 2-.6 1.8.6-.3 1.6-2 2.8-3.6 3.5-2 5.7 12.3 18 13.4 5a258 258 0 0 1-.2-3.5l-.6-1.8c-.2-.8 1.2-1.7 1.7-2l.4-.1c1.4-.6 1.8 0 1.5.7l.1.3c.4 0 .6.3.6.6Zm4.3 63.7.4 1.6a41.2 41.2 0 0 1-16.8-11.5 34 34 0 0 1-7.2-18l3.4 2.9 1.3 1 2.5 2c3.3 2.5 6.6 5 9.3 8.2a33.7 33.7 0 0 1 7.1 13.8Zm-17.5-5.2c4.3 4 13 10.7 19.5 9.5l.6.5c.2.1.5.2.8.1 4.2 16.2 9.4 32 16.6 47.2a257 257 0 0 0 11.3 21c4.5 7.4 9.2 14.8 14 22.2l4.6 7.1.6 1a48.3 48.3 0 0 1-23 0c.5-.8-.1-1.4-1.3-1.1 1.8-6-2.1-14.5-4.4-19.3a41.2 41.2 0 0 0-21.4-20.8c-1-.4-3.9 1-3.2 2.3 2 4.1 3.3 8.7 4.7 13.3a49.2 49.2 0 0 0 10 21.3 586.2 586.2 0 0 1-9.3-3.4c-5-1.7-9.8-3.4-14.3-6.1l-1.6-1-4.6-3c2-.3 4-1.3 5.8-2.8 4.6-3.7 2.6-10.7-1.2-13.3 2.5-3.1 2.8-8.3-.4-11.5-2.8-2.8-9.6-2.2-13.6.5-1.6-7.3-5.3-18.2-14.3-13.5-3.4 1.8-5.8 5-5.3 8.8.1 1.3.5 2.7 1 4-4 .3-8 2.5-9.6 6.3-1.6 3.9.6 7.9 4.2 9.7a10 10 0 0 0 6 .9c-2.7 4.8-1.4 12.2 3.6 15.3a8.8 8.8 0 0 0 10.3-.5c2.4-1.7 3.7-4 4.4-6.7 2.5 3 5.8 5 9.2 7.3l2.2 1.4a81.6 81.6 0 0 0 17.9 7.8l5.5 2c4.4 1.6 9 3 13.5 4.2a31.2 31.2 0 0 0-19.8 29.7c-.2 2.6-.4 7.6 1.7 8.4 1.3.5 2.4-.5 3.3-1.3l.6-.5A93 93 0 0 0 429 1304a32 32 0 0 0 6.1-11.7 29 29 0 0 0 1.3-11 48.7 48.7 0 0 0 24-1.4c4.2 6.4 8.3 13 12.4 19.5l1.5 2.5c2.6 4.3 5.2 8.4 7.4 13l.8 1.7c1.2 2.9 2.4 5.5 5 7.5 1.1.8 3.4-1 3.4-2v-1c0-.5-.6-.6-1.3-.3-2.2-2.2-3.4-5.2-4.7-8.1a49.2 49.2 0 0 0-6.5-12l-2-3.1-.6-1-11.5-18.3c1-1 1.5-2.4-.3-1.8l-.7.2-2-3-3.8-6c-4.7-7.3-9.4-14.6-13.9-22 4.8-10.6 8-21.5 9.6-32.8 8.5-.4 16.6-2.8 22.7-9.1 3.7-3.8 5-7.3 6.2-12.4l.6-2.1c1-4.2 2.4-9.3 1-13-.3-1-2.3.3-2.6.5-3 2.5-6.1 4.6-9.3 6.8a73.3 73.3 0 0 0-13.5 10.8 28.6 28.6 0 0 0-4.1 6c0-2.5.2-5 .3-7.4.3-6.3.6-12.5.3-18.8a96.7 96.7 0 0 0-2.5-17c5.5 4.8 14.1 5.5 17.6-2.6 1.6-3.7 1.7-10.6-2.8-12.5 1.3-1.9 2-4 1.5-6.2-.8-4.7-5.9-6.2-10.5-5.5 1.1-4.2-.2-8-4.1-10.9-3.8-2.9-8.3-3.1-12 0a10.8 10.8 0 0 0-4.3 8.3 8 8 0 0 0-9.9 2.2c-4.5 5.2-2.4 12.2 3.5 13.7-5 4.2-4.9 11.1 1 16.2 3 2.4 6.5 2.8 9.9 1.1a12.9 12.9 0 0 0 5.7-5.4c3.4 14.8 3.2 29 2.7 44.4-.4 15-3.2 29-8.8 42.6a249.7 249.7 0 0 1-17.8-37.8c5-1.6 9.2-4.2 12-9.2 3.6-6.2 2.8-15.3 2.2-22.5l-.2-2.5c0-1-1.4-.6-1.8-.4-5.5 2.8-9.5 10.2-12.3 15.3a49 49 0 0 0-3.5 8.6c-2.6-8.2-4.8-16.5-6.8-25-4-16.7-7.3-33.6-8.8-50.7a12.4 12.4 0 0 0 17.6-3c2.8-4 2.7-11-1.3-14.1a5.6 5.6 0 0 0-4.2-1.2c1.9-2 3.5-4.2 4-7.1.8-4.1-.7-9-5-10.5s-8.6 1-11 4.8a11 11 0 0 0-7-6.3c-3-1-6-1.3-8.9 0-2.6 1.3-5 3.7-5.9 6.5-.9 3.2.2 5.6 1.6 8.1a10 10 0 0 0-7.2 2.4c-3.2 2.4-5.9 6.3-3.9 10.3 2 4 6 5.3 10 4.5l-.4 1.3c-.2 4 4.6 9.8 8.4 10.7 4 1 7.3-1 9.6-4.1a352 352 0 0 0 7 42.1 45 45 0 0 0-7.2-8.5c-2.6-2.4-5.6-4.5-8.5-6.7a337 337 0 0 1-2.7-2l-.8-.6c-1.6-1.2-3.2-2.5-5.3-2.5-1 0-2.8 1-2.7 2.2 1 9.3 3 17.8 10.2 24.5Zm41.6 112.1c.3 2.8.6 5.3-.1 8.3a40 40 0 0 1-3.6 10.2 38 38 0 0 1-9 9.9l-2.4 2.3-3.4 3c-2.3-3 .2-14.7 1-16.8 2.7-8 9.2-15 17.5-16.9Zm27.5-72c-1.8.2-3.9.3-5.3.8-1-7.7 5.8-15.5 11-20a82 82 0 0 1 8.8-6.3c2-1.3 4-2.6 5.8-4 .4 2.5-.4 5.9-1 8.5l-.4 1.6v.4c-1 4.1-2 8.6-4.7 11.8a24 24 0 0 1-10.5 6.8c-.8.3-2.2.3-3.7.5Zm-36.7-6.7c.6-.7.8-1.4-.4-1.3-1.2.1 3.2-14.5 3.6-15.4 1.3-2.5 2.8-5 4.4-7.3l.8-1.2c.8-1.2 1.6-2.5 2.6-3.6a95 95 0 0 1 0 16 15 15 0 0 1-4.9 9.6c-2 2-3.7 2.6-6 3.2Zm8 74.3c1.4-6-3.7-15.6-6-20a37.8 37.8 0 0 0-14.2-15c1 2.7 1.7 5.4 2.5 8.2 2.9 9.9 5.8 19.9 15.4 25.3.4.2.4.5.1 1l2.2.5Zm-51.5-29-.2.3c.7-.3 1.4-.3 1.5.1l.1.3v.1a15.2 15.2 0 0 1 .3.8 17 17 0 0 0 3.4 5.7l1 .9c6.1 3.2 11.5-1.7 8.5-6.9a16 16 0 0 0-2.5-3c-1.2.4-2.6.5-4 .1-1-.2-.7-1-.2-1.5 1.8-1.8 3.6-2.2 5.3-1.9 1.4-2 0-6.7-1.2-7.8-1-1-9.4-3-10.3.8-.2 1-3.3 2.9-3.5 1.3l-.2-.7c-.7-4.6-1.4-8.7-4.3-12.5-2.2-3.6-5-3-8.6 1.7l.8 3.5a14 14 0 0 0 1.7 3.6c1.5.5 3 1.3 4 2.4 1.1 1-2.2 2.4-2.9 2.4a6 6 0 0 1-4-2.1h-2.5c-2.9-1-4.3.1-4.3 3.4-1.5 1.5-1.8 2.9-.7 4 1.3 3.3 5.4 3.7 8.8 3a8.5 8.5 0 0 1 4.3-1.2c2.1-.1 0 2-.8 2.4l-3.5 1.4c-2.4 2.9.7 10.5 2.8 12.4a6 6 0 0 0 4 2.2l1.7-1.7 3.7-3.5a7 7 0 0 0 .4-3.6c-1.9-2.1-3.3-4.7-1.3-6.9 1-1 4.4-1.5 2.7.5Zm71-100.4c.5 3 2.7 5.2 4.8 7.3 1.4 1.8 3.2 3 5.5 3.5 4.4-1.4 6.4-4 6-8a8.4 8.4 0 0 0-1.7-4.5c-.9 0-1.6 0-2.3-.2-.6.4-1.3.8-2 1-2.2.7-5 .6-3.5-2.2.6-1.3 2.9-2.2 5-2.5l2-1.6c.5-2 .1-3.9-1-5.4-2.6-2-5-2.5-7-1.5-1.2 2.4-3.4 5.7-6.5 4.4a.5.5 0 0 1-.2-.5c-.3-2.7 1.8-4.8 4.6-6a11 11 0 0 0-2.2-7.8c-2.4-2.6-6.6-5.5-10.2-1.1-2.1 2.7-1.2 6.2-.2 9 .5 1.3-2.5 3.2-3.4 2.1-2.6-3.1-8.2-5.2-9.7.4-1 4.4 2.3 7.5 6.5 7.4 2.1 0 0 2-.8 2.4-6.3 2.9-3.1 12 1.9 14.6 6 3.1 7.3-.5 8.6-4.2.4-1 .8-2.2 1.4-3l-.3-1c-.1-.5.5-1.2 1.2-1.6.3-.6 1.2-1.2 1.7-1.4l.4-.2c1.3-.7 1.7-.1 1.5.6Z" fill="#52525B"/>
  <path d="M219 1753.4c-3.2-.2-7-1-8.4-3.9-.8-1.6-.5-3.6-.2-5.4a39 39 0 0 1 9.2-18.1c1.2-1.4 2.6-2.8 3-4.6.7-2.1 0-4.4-.7-6.4-1.5-5.2-1.4-12.1 3.5-14.2 4.4-1.8 9.8 1.8 14.1-.4 5.1-2.6 4.6-11.6 10-13.4 4.2-1.4 8.9 2.6 12.8.7 2.7-1.3 3.7-4.8 6.5-5.8 4-1.5 7.5 3.1 8.7 7.2a63 63 0 0 1-9.9 51.3c-10 12-34.1 13.9-48.5 13Z" fill="#81AD9E"/>
  <path fill-rule="evenodd" clip-rule="evenodd" d="M220.2 1736.3c-1.8.2-13.8 1.1-13.4 5.2.3 2.5 8 2.8 11.5 3h1.6c1.5.3 0 2.6-.3 3.1-.5.5-1.1 1-1.8 1.4-.7.4-1.3 1-1.7 1.4-2.1 3 1.6 4.2 4.3 4.8 4.4 1 12.5 0 16.6-3.6v-.8c-4.5-1.8-9.9-4.8-8.3-10 .2-.8.5-1.5 1-2.1a222 222 0 0 0-5.3-1.5l-3.6-1-.6.1Zm-3 22.4c7.2 2.2 17.8-.6 22.7-7 1 .3 2.2.4 3.3.5 1.4.2 2.8.3 4 .8 1.1.4 2 1 2.8 1.5l2.6 1.5c3.5 1.4 7.6.7 10.8-1 3.2-1.9 6.3-5.5 8.6-9.3 6.5 4.8 12.6 10.3 18.2 16.1a81.2 81.2 0 0 1 13.7 21.4c1 2 2 4.2 3.2 6.3.8 1.4 3.5-2 2.9-3.2l-3.5-6.8a78.8 78.8 0 0 0-11.9-19.3c-6.2-6.8-13.1-13-20.5-18.4l.8-2.2.8-2.2a30.1 30.1 0 0 0 6.2-11.6c1-4 1-9-3.8-9.2.5-1.2 1.2-2.3 1.8-3.4 1.5-2.5 3-5 2.4-8.4l-.1-.5c6.4-6 5.8-15.6.2-22.1-4.5-5.3-8.9-1.8-11 3-2.5-2.8-7-5-9.5-5.2-3.7-.3-5.6 2-6.5 4.8-4-3-8.4-5.1-11.7-5.3-3.5-.2-6.2 2.2-7.2 5.4-1.2 3.7 0 7 1.6 10.2-2-.6-3.9-.8-6 .7a8.2 8.2 0 0 0-3 6h-2.5c-4.4.5-8.5 2.7-10.8 6.5-3.2 5.4-.9 10.3 3.3 13.5-4 1.3-7.2 4.2-5.7 8.5a7.4 7.4 0 0 0 2 3c-4.9.8-10.1 2.7-11.9 6.6-2.8 6.4 5.8 7.7 11.4 8.3-1.8 1.1-3.4 2.4-3.6 4.8-.2 3.4 3 4.8 5.9 5.7Zm52.7-20.2c.4-1 1.3-2.3 2.1-2.4h.8l.5-.1c0-4.7-3.2-13-3.7-14.2-1.6-3.1-3.8-5.7-6-8.3a132.5 132.5 0 0 1-2.6-3.1c-1.1-1.4-2.3-3-3.7-3.8-3.7-2-6.4 2-5.7 5.8.5 3 3 6 5 8.5l.9 1c.8 1-1.2 3.7-2.3 3.6-2-.3-3.8-.8-5.5-1.5-.4.2-.8.3-1.1.2l-.5-.2a98.4 98.4 0 0 1-2.8-1.8h-.1l-.6-.2c-2.6-1.1-10.2-4.2-7.7 3.5.6 1.5 3.1 3 4.7 4l.3.2c4.7 2.8 10 4.8 15 6.7l1.5.5a26 26 0 0 0 8.3 2.4c.6-.8 1.5-1.4 2.1-1.2l1 .4Zm-2.3 4.1a17 17 0 0 1-7.8-.7l-1.8-.5c-4.3-1.3-9.9-3-14.7-5.3-.5.7-1.1 1.3-1.7 1.2h-1.8c-.3.5-.6.8-1 1-2.3 1-4.5 1.2-6.7.9-.6.6-.8 1.5-.3 2.7.6 1.8 4.3 3.6 6 4.4.8.5 1.8.9 2.7 1.2h.1c.5-.2.8 0 .9.3l2.8.7h2.2c1.1 0 2.3 0 3.2.3a5 5 0 0 1 1.8 1.3c.3.4.7.8 1.2 1.1 3.2 1.8 8 2.5 11.1.3 2.1-1.5 4.9-4.7 6.1-7.3-1.2 1-2.4.3-1.7-1.2l-.6-.4Zm-30-31.9c-1-.8-2-1.8-2.9-3 .9-.8 1.6-2.2 1.2-3a4.7 4.7 0 0 0-2.2-1.9l2.8-3.8c.6 0 1.7.5 2.8 1l2 .7c1.3.3 2.8-2.5 2.3-3.5-.4-1-1-2-1.7-3-1.5-2.4-3.1-5-2.8-7.2 1-6 7.3-2.1 10.4-.2a53.8 53.8 0 0 1 5.4 4.2c0 .7.4.7 1 .5 4 3.5 7.8 8 6.4 11.4-.5 1.4 0 2 .7 1.8l-.3 1.1-.9-.8c-5-5-10-4.7-12.8 2-2 4.4-.8 8.6 1.5 12.4l-.3-.1c-1.2-.6-2.4-1-3.7-1.5-3-2-6-4.3-8.4-6.6l-.5-.5Zm20.3-23.8c4.5 4.1 7.8 9.3 7.4 14 2.2-2.3 5.5-3.4 9.2-2.8 3 .4 5.3 1.6 6.7 3.8 4.2-3.6 2.7-9.5.4-13.5l-.3-.6c-.7-1.3-1.7-3-3-3.6-3.5-1.7-5.2 1.8-5.4 4.7v.1c-.2 1.4-3.2 4.3-3 1.8 0-3.3-11.3-10.5-12-4Zm-40.6 38.9c1.5-2 5.4-1.6 7.9-1l.8.3c1.4.4 3.6-3.3 1.9-3.9l-.5-.1c-3.6-1-8.8-3.8-9.8-7.6-1.4-5.6 6.8-9 12-7.9 1 4.4 4.3 8.1 8 11.3-.5.2-1 .4-1.4.8-3.4 2.4-4.1 7.5-2.1 11a17 17 0 0 0 5 5c-2.1.2-4.2.7-6 1.7-3.2-.5-6.7-1.8-9.4-2.9l-1-.3c-2-.8-8-3.3-5.4-6.4Zm48.6-18c0 .4 0 .9-.2 1.3a42.7 42.7 0 0 1 10.5 24l1.2-2.1c1.7-3.3 4.2-11.1-2.1-10.5-.8.1-.6-1.1-.5-1.5.4-1.6 1.3-3 2.2-4.4 1-1.6 2-3.2 2.3-5.2.3-3-1.2-5.4-3.8-6.7-2.8-1.4-11.8-2-9.6 5.2Z" fill="#52525B"/>
  <path d="M159.6 365.8a20.1 20.1 0 0 1-7.4 5.6c-1 .5-2 1-3.2 1.2a7 7 0 0 1-5-1.5 9 9 0 0 1-1.4-12.2 9 9 0 0 1 12.3-1.4l3.3-.6 2.2.2c1.7 2.6 1 6.2-.8 8.7Zm85.4 15.5c-2-2.4-5.2-3.5-7.2-5.9-4.6-5.4-1-14-3.8-20.6-4.3-10-19.3-8.5-28.8-3.2s-19.8 13-30.2 9.8c19.8-4.3 37.6-20.6 39.9-40.8 2.3-20.1-14.3-41.5-34.6-41a57 57 0 0 0-22.6 6.5c-11.7 5.3-23.4 13-22.5 27.2.5 9 15.1 23.3 2.6 27.9-7.6 2.8-24.7-9.7-31.8-12.2a76.8 76.8 0 0 0-50.5-1.3c-4.5 1.6-9.4 4.1-10.6 8.7-2.8 11 16 14.7 20.6 25.2 3.6 8.3-2.3 20.7 5.3 25.8 3.7 2.4 8.6 1.4 12.9.2l27.8-7.6a204.2 204.2 0 0 0-48.6 34c-6 5.7-10.8 16.9-3.4 20.3 4 2 9.3-.5 13 2 2.6 1.8 3.2 5.3 4.7 8 4.5 8.9 17.3 10.3 26 5.6 8.6-4.7 14.1-13.5 19.3-22l18.4-30.2-4 45.8c-.7 8.5-1.3 17.7 3 25 4.5 7.3 16 10.7 21.6 4.3 2.9-3.4 3.4-8.4 6.3-11.7 5.3-6 15-3.6 22.6-6.1 10.7-3.6 15.4-17.3 12.4-28.3a55.9 55.9 0 0 0-20-26.9c-8.7-7.3-18.2-14.1-24.4-23.6a69.1 69.1 0 0 0 73.4 25.4c9.2-2.7 19.3-12.9 13.2-20.3Z" fill="#CFA1A1"/>
  <path fill-rule="evenodd" clip-rule="evenodd" d="M135.9 329.3a74.4 74.4 0 0 0 4.5 15.7l1.4 1.2c-.4-3.3-.5-6.7-.6-10.1v-.5l-.1-2.8c-.3-5.7-.8-14 3-17.3.6-.6 2.5-1.2 3-.2l.4.7c.3.6-.8 1.2-1.8 1.3-2.3 4-1.7 12.3-1.3 17.6l.2 2.9c.3 4.3.5 8.9 1.9 12.9 1.4 1.7 2.5 3.5 3.2 5.7l.6.7 2.4-.6a69.2 69.2 0 0 1 5.8-28.6c2.2-5.4 5.6-13.5 10.7-15.9.7-.3 1.6-.4 2.2 0l.8.6.3.3c.9.7-2.2 2-3.2 1.3a310 310 0 0 0-10 20c-2 7-3.3 14.5-3.2 21.8h.4l1-.2c2.2-.2 5-.6 6.4 1l1-.5c1.3-.8 2.7-1.7 3.9-2.8 4.8-4.4 8.3-10 11.3-15.7 2-3.7 3.7-7.5 5.4-11.3l1.2-2.6.3-.6c1-2.1 1.8-4 3.9-5 1-.6 4 0 2 1-2.2 1.2-3.4 4.6-4.4 7.7l-1.3 3.5c-2.4 4.9-5 10-8 14.4-2.6 3.7-5.3 7-8.7 10-.8.8-2 1.5-3.1 2.2l-2.8 1.8c1.4 1.2 1.3 2.8 1.3 4.4v1.5a3 3 0 0 1 1.9-.7l1.6-.3 7.7-4 .5-.2.5-.3c2.9-2 5.7-4.3 7.9-6l1.8-1.6a72.4 72.4 0 0 0 17.6-21.9c4.3-7.8 7.7-19.7.6-27-5.3-5.5-10-10.8-15-16.6-5.6-6.6-15.5-6.7-22.5-1.8l-1.9 1.6c-1 1-2 1.8-3.2 2.4-1.2.5-2.3.6-3.5.7-.6 0-1.3 0-2 .2-8.2 1.4-14.6 4.5-18.5 11.9a42 42 0 0 0-3.5 28.1Zm16.8 29.9.2 1.5c0 1 3.3.4 3.4-.9.4.3.8.4 1.3.5.4 0 .8.2 1.3.5 2.5 1.2 2.1 4.6 1.8 7.2v.7c-.2 1.5-.7 3.2-1.3 4.7a2 2 0 0 0-1 .8c-1.7-.6-5.7 1.2-4.4 2.2l2 1.7-.4.2c-.2-.4-1.2-.5-2-.2-.4-.7-3.1-.5-4.4.4-.2-.2-.6-.3-.8-.3h-.3c-3.4-2.3-3.1-7-2.2-10.6 1.2-.2 3.2-1.4 1.5-1.9l-.7-.2c1-.4 2-1.3.7-1.5.3 0 .2-.2 0-.6a10 10 0 0 1 2.5-2.9c1 .4 3-.5 2.8-1.3Zm-22.5-32.6c.4 3.3 1 7.2 2 11.2l-6-5.4a43 43 0 0 0-31.3-8.6c-3.5.2-6.5 1-9.7 1.8l-3.6 1c-4.4 1-8.3.6-12.3.3-2.7-.3-5.5-.5-8.4-.3-11.4.7-16.5 6.8-16.9 18.2-.2 5 .6 10.3 4.1 14.2 1.8 2 4.2 3.2 6.5 4.4 2 1 4 2 5.6 3.5 2.6 2.3 4.1 5.1 5.6 7.8 2.4 4.5 4.7 8.6 11.7 10 4.6 1 9.5.8 14.4.2a134 134 0 0 0-19.2 11.2c-8.4 6-17.6 16.2-18.8 27-.5 4.6.8 7.4 4.3 10.3 1.9 1.6 4.5 3.3 7 4 .4.2 1.3.3 2.1.3 1 .1 2.2.2 2.6.4 2.2 1 3.7 3 5.2 5 1.7 2.1 3.4 4.3 6 5.5 4.3 1.8 10 2 14.5 1.6a62 62 0 0 0 28.9-12.8c5-3.8 8.6-8.9 11.5-14.4a324 324 0 0 0-1.5 24.2c-.1 9 2.7 18.7 12.6 21.5 8 2.3 13.8-1.7 19.4-6.2 3.7-3 8.2-2.8 12.7-2.5 2.5.1 5 .3 7.4-.1a31 31 0 0 0 11-4c7.7-4.7 12-12.6 12-21.6 0-11-7.7-21.7-15.6-29l1.7.6 9.3 1.8c4.1.8 8.2 1.5 12.2 2.6 8.2 2.4 17-1.8 24-6.1a37 37 0 0 0 9.1-8.5l3.2-3.3c2.7-2.6 5.6-5.4 6.3-8.7 1.3-5.8-2.8-9.5-6.5-12.7v-.1l-2.6-2.2c-4.7-4-9.1-7.7-9-14.6 0-9.8-4.4-16.3-14.8-17.6-9.7-1.2-17.5 2.9-24.8 8.7-2.8 2.2-5.6 4-8.4 5.8a78 78 0 0 0 18.5-24.8c2.3-4.8 3-10 2.7-15.3-.4-6.1-2-8.1-6.4-11.9a55.7 55.7 0 0 1-7.2-8.2c-4.5-5.7-9-11.5-16.2-12.6-3.8-.5-7.8 0-11.5 1-3.2.8-5.2 2.2-7.4 3.7l-3.1 2c-2.3 1.4-5.1 1.6-7.9 1.8a20.7 20.7 0 0 0-16.3 7.9 42.1 42.1 0 0 0-8.7 32Zm14 57.8-.2.2c-1.7 1.6-3.4 3.1-4.4 5.1a33 33 0 0 0-2.2 12.9v2.2l-.2 3a88 88 0 0 1-9.5 21.4 52 52 0 0 1-27.3 17.4c-7.2 2-15.7.7-20.9-4.8-.7-.8-1.3-1.8-1.9-2.7a9.6 9.6 0 0 0-3.3-3.7c-1.3-.7-3-1-4.6-1.3-1.8-.3-3.6-.6-5.2-1.6-5.6-3.2-6.5-8.3-4.5-14.2a47 47 0 0 1 20.3-23.5 225 225 0 0 1 24.4-12.7 169.7 169.7 0 0 0 17-5.7 568.4 568.4 0 0 1 9.9-3.4c1.8-.6 4-1.3 5.5-2.1a8.5 8.5 0 0 0 1.1-.8c-7.5 7-15.8 12.5-24.5 18.1-2.3 1.5-4.6 3.3-7 5a48 48 0 0 1-18.9 10.5c-2 .4-1.6 2.1.4 1.7a52 52 0 0 0 20.2-11l5-3.5 7.3-5c6.4-4.3 12.6-8.5 18.4-13.6-4 9.8-8.3 19.8-13.7 28.9-2.4 4-5.7 7.4-9 10.8-3.9 4-7.8 8-10.1 13-.7 1.4 2.7 1 3.1 0 2.5-5.1 6.5-9.3 10.5-13.6 3.7-4 7.5-8 10-12.8 4-7.3 7.5-14.7 10.7-22.2a7.6 7.6 0 0 0 2.6 3.6l1.7 1.1c0 .5-.3 1.7-.7 3.3Zm19.6-9.5-.1.1h.7c.4.1.6.3.6.5 1.2.6 2.3 1.5 3.5 2.4 1.1.9 2.3 1.8 3.5 2.4 4.5 2.5 9.5 4 14.5 5.1 10.6 2.2 25 2.8 35.1-1.4 1.5-.6 3.5.5 1.3 1.4-9.7 4.1-21.5 4-31.9 2.9a68.8 68.8 0 0 1-16-3.7c-2.7-1-5-2.6-7.4-4.2-1.4-1-2.7-1.9-4.2-2.7.3.3.1.7-.6 1.2v.1l.4.6 3 2.3c4.3 3.5 11 8.8 11.8 9.3 2.3 1.7 4.6 3.6 6.8 5.6 3.5 1.8 7 3.6 10.6 5.1 3.7 1.7 8 2 12.3 2.5 1.7.2 3.4.3 5 .6 1.8.3 3.3 1 4.9 1.6 1.2.5 2.3 1 3.7 1.3 6.1 1.5 17.5-4.9 21.6-9a82 82 0 0 0 9-10.4c5-7.3 1-11.6-4.3-16.5l-3.1-2.6a24.6 24.6 0 0 1-7-7.2c-1.2-2.4-1-4.7-.9-7.1l.1-2.8c-.2-9-8.2-13.5-16.7-13-6 .5-10.4 4.2-14.6 7.8l-2.9 2.4a87 87 0 0 1-18 10.2 244.4 244.4 0 0 0-10.4 5.1 21.9 21.9 0 0 1-8.4 3.4c-.2 1.6-.6 3.2-1.1 4.8 8-.7 16.2-1.5 24-3a89.6 89.6 0 0 0 26.8-10.9c1-.6 4 0 2 1a111 111 0 0 1-24 10.8c-9.5 2.5-19.8 3.3-29.6 4Zm-1.5 2.3h.3-.3Zm-10.6 5.4h-1l-.8.8-.5.6c-.4 2.2-1.1 4.3-1.8 6.3a86.2 86.2 0 0 0-2.6 8.2l-3.1 10-.6 11.6-.5 10.8c0 2.3-.4 4.5-.6 6.8-1 8.7-2.1 17.5 4.5 24.3 5 5.1 12.6 4.2 17.7-.3 2.2-2 4.7-3.9 7.5-5 2.7-1 4.8-1 7.7-.9 9.5.8 18 1 23.7-8.1 6.4-10.3 2.6-21.7-3.8-30.8a59 59 0 0 0-10.4-11.5 96.7 96.7 0 0 1-5.4-5 220 220 0 0 0-2.1-2 67.1 67.1 0 0 1-19.6-15.8l-1.7-2-1.5.8c-.8 8.6 2.3 16.7 5.3 24.6l1 2.4c2 5.4 4.3 10.6 7.7 15.2l.9 1.2c1.6 2.2 3.6 5 5.8 5.8 1.4.5-1.7 2-2.7 1.6-6.6-2.3-11.8-14.3-14.2-20.3l-.8-2.1c-2.5-6.2-5-12.6-6-19.2-3.2 20.7-4.2 41.2 5.4 60.8.5 1-2.8 2-3.4 1-11-22.6-8.1-46.1-4.1-69.8Zm-6.8-23.5.1.5-.3-.4v-.1a10 10 0 0 0-1-.8l1.2.8Zm-10-13.4c2 4.9 4.6 9.3 8.2 12.2l-1.5-1-2.6-1.9-1.5-1.3c-3.7-3.2-6.7-5.9-11.7-7.8l-2.6-1c-10.2-4-19-7.3-30.3-5.5-1.6.3-2.8 2.3-.4 2 10.7-1.8 23 2.6 33 7.1a58 58 0 0 1 16.7 13.1h-5.7l-4.8-1.8c-6.1-2-12.4-3.2-18.7-4.4l-2.7-.5-4.7-1a109 109 0 0 0-32-3.3c-.3 0-2.2.7-1.8 1.4l.1.3.1.2.3.6c.6 1 3.6.1 3.5-.8 10.6-.5 21.8 2 32.3 4.3a649.3 649.3 0 0 0 8.9 2c4.1.8 8.2 1.6 12.2 2.8a109.1 109.1 0 0 0-30.7 4.1c-6.7 1.7-13.5 3.4-20.1 3.7-1.2 0-3.7 1.9-1.3 1.9h.7c5.8-.4 11.9-1.8 17.7-3.2l7-1.6c11.1-2.3 21.5-2.8 32.5-2.8l2.6 1.1 1.2.5-3.1 2.3-1.2.8-3.9 1.3-2.6.9-3 1c-5.6 1.8-11.3 3.6-16.6 6l-6.1 2.6a53.3 53.3 0 0 1-18.8 2.1c-5-.5-9.7-2.4-12.5-6.8-.8-1.4-1.4-2.8-2-4.3-.7-2-1.5-3.9-2.9-5.5-2-2.4-4.5-3.7-7-5-3.8-2-7.5-4-9.3-9.1-1.5-4.8-1.3-14 2-18.5 3.7-5 10.1-3.9 15.8-2.9 1.7.3 3.4.6 5 .7 4.1.3 8.1-.9 12-2 3.2-1 6.4-1.9 9.7-2a38.1 38.1 0 0 1 30.8 11.2c1.8 1.7 4 3.4 6.4 5.2l3.3 2.6Zm6.1 17.7c.7-.2 1.5-.7 1.7-1.1l.3.4-.7 1.3-1.3-.6Z" fill="#52525B"/>
  <path d="M115.4 1398.6c-1-7.3 2.3-14.8 7.4-20.3 5-5.4 11.7-9.1 18.4-12.5a275 275 0 0 1 21.5-9.5c2.6-1 5.5-1.9 8-.8a9 9 0 0 1 3.5 3 45.5 45.5 0 0 1 7.1 24.5c.4 5.2.7 10.5-.6 15.5-4.2 15.9-24.4 27-39.8 28.3-14.8 1.2-23.5-14.8-25.5-28.2Z" fill="#81AD9E"/>
  <path fill-rule="evenodd" clip-rule="evenodd" d="M169 1355.8a50.8 50.8 0 0 0-40.4 14 87.3 87.3 0 0 0-13.6 13.4c0 .2-.3.4-.5.7-.8 1-2.2 2.8-3.3 4.6a3 3 0 0 0-2.8.6c-2.5 2.2-2.8 7-3 10.8a52 52 0 0 1-.4 3.1c-.8 6.6-.7 13.4 1.8 19.6-1.4 0-3.4.5-2.7 1.3l.4.4-.6-.2-1.3-.2a28 28 0 0 1-2.1-2.5l-.4-.6c-.8-1.1-4.7-.3-3.8.9a18.4 18.4 0 0 0 1.3 1.8c-.4.2-.7.5-.7 1 .2 3.5 4.8 7.4 7.6 9.8l.5.4h-.3c-3.9.2-8.4.5-11.4 2.8-1 .6-.4 1.2.5 1.5 1.1.3 2.3.5 3.5.6 0 .6 1 .8 1.5.9h.8c.1.2.3.3.5.3 1.3.6 7 .3 12.4-.7l-.8 3.4a34 34 0 0 0-1.7 9.5c-8.5 15.5-16 31.5-22.8 47.9.3-2.9.4-5.7.2-8.6a56.4 56.4 0 0 0-5.3-18c0-.3-.2-.5-.3-.8-2.2-5.1-9.4-21.8-16.1-16.2-2 1.7-2.2 5.2-2.4 8l-.2 1.4a72.1 72.1 0 0 0 .1 21.5 52.4 52.4 0 0 0 9 20.4c1.7 2.7 3.8 6 6.3 8l.2.5a99.7 99.7 0 0 0 1.5.7v.5l-2.6 6.9a880.8 880.8 0 0 0-16.7 50.4 233 233 0 0 0-10.9 50.2c0 1.3 3.9 1 4-.4a239 239 0 0 1 13.4-58c8.7 2.2 19.8-.5 27.2-4.5a73.6 73.6 0 0 0 14.8-11c4.1-3.9 10.2-10.2 11.5-16 .1-.3 0-.5-.2-.7-2-1.5-5.6-.6-8.3 0l-2 .5a84 84 0 0 0-17.7 4.7 65 65 0 0 0-20.4 11.6 992 992 0 0 1 10-29 536.9 536.9 0 0 1 29.6-66l1.5-.2c.7-.1 1.4-.4 1.6-1 1.2-1 1.7-2.5 2.3-4.2l.4-1 .3-1c.8-2 1.5-4.1 1.7-6 .3-1 .7-2 1.2-2.4l1.2.8 2.1 1.6c-.7.3-1.1.7-.5 1.3l2 1.7c2.8 2.4 5.7 4.9 8.7 7.1.8.6 2.3.4 3.1 0 3-2 0-5.1-3.9-7.9l-1.4-1.3-.7-.7c.7 0 1.5-.1 2-.4l.8.1a612.9 612.9 0 0 0 5.2 1.7c1.8.6 3.3 1 5 0 .3-.1.6-.5.6-.8 1.8-.2 3.4-.9 4.8-2 1-.7.4-1.3-.5-1.5-1.6-.4-3.1-.3-4.7-.2h-.3a52 52 0 0 1-6.7-1.8l8 .1a45.3 45.3 0 0 0 35.2-17.7c.8-1-.6-1.4-1.3-1.4-3.7 0-7.5.1-11.2.4.9-1 1.6-2.4 2.2-3.6l.2-.4c3-5.7 3.9-11.7 4.9-18l.5-3.1a60.5 60.5 0 0 0-1-25.8 27 27 0 0 0-2.9-10v-.5c0-.5-.5-.7-1-.8a5.5 5.5 0 0 0-1.7-1.2c.5-.5.5-1-.7-1.1Zm-9.7 65.4v-.5c0-.4.3-.7.7-.9 4.6-9.2 5.6-18 5.8-28.4.1-4.5.7-9 1.3-13.5.5-3.4 1-6.8 1.1-10.2l-2.5 7.1c-2.8 7.9-5.7 15.7-7.8 23.8a71.1 71.1 0 0 1-12 25.2c4.3-1.1 8.8-2 13.4-2.6Zm-18.8 4.3v-.8c.1-.5.7-.9 1.4-1a74 74 0 0 0 12.4-27c2-7.4 4.6-14.6 7.3-21.7l2.9-7.9c-1.7 2-3.6 4-5.3 5.7l-1.6 1.6a1020.4 1020.4 0 0 0-12.7 12.6 66.2 66.2 0 0 0-9 11.9l-1.5 2.3a34.5 34.5 0 0 1-4 4.7 21.7 21.7 0 0 0-5.7 7.7c-.3.9-2.2 1.2-3.3.8l1.4 4.6a84.9 84.9 0 0 1 18.4-24.4l.9-.7c2.5-2.2 5.6-4.8 8.9-5.4.4 0 2.7-.3 2.6.7a68.6 68.6 0 0 1-16.3 37.4l3.2-1.1ZM121 1413l.3-.6-.5.1.2.5Zm-1.3-3.6 1.2-3.1.7-1.9c1.3-3 2.8-6 4.3-9a59.8 59.8 0 0 1 10.6-15c4.6-4.5 9.7-8.5 15.2-11.9l2.1-1.3c3.7-2.2 7.6-4.5 10.8-7.3v-.3c.1-.3.4-.6.8-.7-7.4-.8-22.3 9.3-26.2 12.1-8.9 6.4-21.6 17.1-21.6 29 0 .5-.5.8-1.1 1a217.3 217.3 0 0 0 3 8.1l.2.3Zm-5.2-15c3.4-11 15.5-20.5 24.4-26.4a84.8 84.8 0 0 1 20.7-10l2.2-.6c-12.4.3-23.7 7.8-32.6 15.8l-2 1.7a59 59 0 0 0-7.5 7.5l-.4.5c-1.5 1.9-6.2 7.9-5.5 9 .2.2.2.3.1.5l.6 2Zm56.7-16.2.6-5.4.3 2c.9 5.1 1.4 10.4.9 15.6-.4 4.4-1.3 8.8-2.1 13l-.7 3.5c-.1.8-2.7 10.5-4.7 12.7-.5 0-1 0-1.5.2a59 59 0 0 0 6-27.1c0-4.8.6-9.7 1.2-14.5Zm-9.8-12.3-6.7 4.4c-5.5 3.5-11 7-15.5 11.6-5.3 5.6-9 12.6-12.4 19.5l-1.2 3.1-1.2 3.3 2.4-2.7c1.6-1.7 3.1-3.3 4.3-5l1.7-2.8a56 56 0 0 1 13-15.4c2-1.9 4-3.7 5.8-5.6l2.6-2.7c2.4-2.3 5.1-5 7.2-7.7Zm-50 57.6 1.5 2.8a14.3 14.3 0 0 0 3.3 2.4c1.6.8 3.3 1.7 3.6 3.6 0 .4-.2.6-.5.8l.6.2c.2-.2.5-.4 1-.5a65 65 0 0 0-4.6-21.3 237 237 0 0 0-1.8-4.8l-2.3-6.1-.9-3.2-1-3.7a56.6 56.6 0 0 0-1 7c-.5 3.5-1 7.2-.8 10.8a29 29 0 0 0 2.9 12Zm14.3 14.1.6.1c1.9.4 3.9 1 5.8 1.7l-4.7-.4-2.9-1.6 1.2.2Zm-25.5-.5c-.6 0-1.1.2-1.6.4h.9l.7-.4Zm-32.1 128.1.3-1.2c4.6 0 9.9-3.7 13.7-6.3l2-1.3 7.4-5.3a272.5 272.5 0 0 1 7.7-5.2c2-1.1 4-2.3 5.2-4 .7-1.2-3.2-1.4-3.9-.3-.8 1.3-2.5 2.2-4 3l-2 1.1-5.3 3.8-3.5 2.6a120.7 120.7 0 0 1-9.8 6.4 23 23 0 0 1-6.3 3.4c2.9-8.8 13.3-14.8 21.2-18.3 4.5-2 9.3-3.7 14.1-4.8l.9-.3c2.8-.7 9.9-2.5 11.2-1.7 2 1.2-15.7 18.3-17.4 19.5-8 6.2-21 12.6-31.5 9Zm9.5-65.5c1 4.7 1.8 9 3.5 13.3v-.4a60 60 0 0 0 1-27.6 80.2 80.2 0 0 0-11.8-24.4c-1-1.5-1.2-2-2.3.3a16 16 0 0 0-1 6.8l-.2 2.2c-.6 6.4-.8 12.8.6 19a50 50 0 0 0 7.4 17l-.8-3.5-.8-4.2c-1.3-6-2.5-12-2-18 .2-1.5 4.1-1.6 4-.4-.5 5.8.7 11.5 1.8 17.1l.6 2.8Zm69.6-62.8c-.8 0-15-.3-21-1.9a90.8 90.8 0 0 1 50-13c-7.8 8.5-16.7 14.7-29 15Zm-20.7-17.4c-.4 1.1-2.2 6.8-1.5 9.6 1.2-.3 2.7-.3 2.6.6v.5l-.1.4 2.5-1.6c4.2-3 7.4-7.2 10-11.6a69.9 69.9 0 0 0 9.5-26.2c-5.3 2.6-10.4 9.4-14 14.1l-1.5 2a50.3 50.3 0 0 0-7.5 12.2Z" fill="#52525B"/>
  <path d="M210 1001.7c-2.5-2-5-4.6-5-7.8 0-2.7 1.9-5.2 4.3-6.5a16 16 0 0 1 8-1.5c5.2.2 10.5 1.5 15.2 4-.4-3.7-.9-7.5 0-11.1.8-3.6 3.3-7.1 6.9-8 3.5-1 7.3.7 9.9 3.3 2.6 2.6 4 6 5.6 9.4 4.1-6 9-12.3 16-13.8 2-.4 4.5-.3 6 1.1a7.3 7.3 0 0 1 1.8 4.2c2.2 14.4-10.9 33.3-24.3 38.5-13.8 5.4-34-3.2-44.5-11.8Zm41.3-116.1c-8.5 0-8.6 13.3 0 13.3s8.6-13.3 0-13.3Zm26.6 12.6c-8.6 0-8.6 13.3 0 13.3s8.6-13.3 0-13.3Zm96.5-32.2c-8.6 0-8.6 13.3 0 13.3 8.5 0 8.6-13.3 0-13.3Zm97.8 16.8c-8.6 0-8.6 13.3 0 13.3s8.6-13.3 0-13.3Zm39.7-7.8a7 7 0 0 0-4.7-2h-1.4a6.8 6.8 0 0 0-6.7 6.7c0 1.7.7 3.5 2 4.7a7 7 0 0 0 4.7 2h1.4a6.8 6.8 0 0 0 6.7-6.7 7 7 0 0 0-2-4.8Zm-40.6 95c-1.1-1.1-3-2-4.7-2a7 7 0 0 0-4.7 2 7 7 0 0 0-2 4.7v1.4a6.8 6.8 0 0 0 6.7 6.7 6.7 6.7 0 0 0 6.7-6.7v-1.4c0-1.7-.7-3.5-2-4.7Z" fill="#F5E38D"/>
  <path fill-rule="evenodd" clip-rule="evenodd" d="M399.5 907.5a6 6 0 0 1-2.3-1.1c-2-1.6-1.3-5.4 0-7.2 1.7-2.4 6.2-2.7 8.3-.8 2.3 2 1.6 7-.9 8.6.4 4.8 1.8 10 3 14.9l1.2 4.2a57.8 57.8 0 0 0 9.2 21.4 36 36 0 0 1 2-14.3l.7-3a182 182 0 0 1 6.7-23 6.2 6.2 0 0 1-1-5.8c.7-2 3.9-3 6-2.4a4 4 0 0 1 2.4.7c2 1.2 1.6 4.5.7 6.4-.6 1.6-2.5 2.4-4.4 2.4a191 191 0 0 0-5.7 19.6l-.7 2.4c-1.1 4.1-3.1 11.2-2.7 15.8l3 .6c5.1-3.2 9.4-9.5 12.6-14l1.1-1.6c2.3-3.2 4.5-6.6 6-10.2.7-2 1.1-4 1.5-6l.3-1.6c-.9-.4-1.6-1-1.7-2a8 8 0 0 1 .7-4.5c.2-.7.7-1.4 1.4-1.9a5 5 0 0 1 1.8-.7c1.3-.4 2.8-.5 4-.3 2.4.3 3 1.9 2.8 4a5.9 5.9 0 0 1-1 3.2c-.6 1.9-2.2 2.6-4 2.7l-.6 2.1c-.6 3-1.3 5.8-2.8 8.7-2.5 4.9-6 9.5-9.5 13.7-2.3 2.8-4.9 6-7.8 8.3 5.8-.7 12-3.6 16.7-5.7l.6-.3a52.3 52.3 0 0 0 17.2-14.1c.1-.2.4-.3.7-.4a7 7 0 0 1-.1-2.7c.2-2.2 1.1-4 3.5-4.4 1.8-.2 4 .4 4.6 2 1.4.5 1.8 1.5 1.7 3 0 1.8-.5 3.5-2.3 4.3a8 8 0 0 1-5.3 0 61.5 61.5 0 0 1-24.6 17.2 48 48 0 0 1-15.8 3.2c-1 .6-2 1-3 1.4.2.5-.9 1-2 1a487.7 487.7 0 0 1-39.7 73.1c2.5-2.3 5.1-4.5 8-6.3 3.7-2.2 7.5-4.3 11.3-6.3l8-4.3c5.4-3 11-5.8 17-7.6 2.2-.6 4.6-1.3 6.4.5.3.2.4.4.2.8a46 46 0 0 1-26.4 26c-7.4 2.7-20.7 7.7-28.8 3.6a458 458 0 0 1-104.3 108.8c-1 .8-4.9 0-3.5-1a453 453 0 0 0 42.8-36.3c-.6-.2-1-.6-.8-1.1 4.4-9.7 7-20.9 9.3-31.6l2.1-9.2a1278.8 1278.8 0 0 0 11.1-52.4v-.8a78.3 78.3 0 0 1-24.4-18.4 48.1 48.1 0 0 1-8-11.5l-1-1.8c-1.7-3.1-4-7.3-2.5-10.3.4-1 2.2-.8 3-.6 3.3.8 6.2 3 9 5.1l2.6 1.9c4.6 3.2 9.2 6.4 13.2 10.3 4.6 4.4 8.1 9.5 10.2 15.1 2.7-18 4-36.8.5-54.3-6.6 3.6-12.1 2.2-19.5-.8-7-2.7-14.7-7.3-19.9-13.3-1.2 1-3 1-4.4.3a2.9 2.9 0 0 1-1.7-2.4c-.2-.3-.3-.6-.3-1 0-1.2.4-2.5 1.1-3.5.6-1.6 1.5-3 3.4-3.3 1-.2 2.7 0 3.4 1 .5.7.5 1.8.4 2.7.3.9.1 1.9-.1 2.9 6.5 9.5 24.8 21.5 35.3 15.6-.5-.5-.1-.9.5-1.2h-.3c-11.4-1.8-19-15.6-23-26.6-.7 0-1.3 0-1.9-.2a2.8 2.8 0 0 1-2-2.2c-1.6-1.3-1.6-4-.7-5.9 1.3-2.6 5.1-2.5 7.4-1.4 2.7 1.4 2.7 3.8 2 6.4a4 4 0 0 1-1.2 2c3.3 9.2 9.6 22.2 18.2 25.3-4.6-7.6-3.5-18.7-.4-27.2l-.3-.2a3 3 0 0 1-1.3-2.2 10 10 0 0 1-.3-4.7c.7-4.3 7.8-3.8 9.7-.7a5.4 5.4 0 0 1 .4 4.8c-.1.6-.4 1-.6 1.6-.3.8-.8 1.5-1.7 2a5 5 0 0 1-2.1.4c-3 8.8-3.8 20.7 2 27.8.2.2.2.3 0 .5a14 14 0 0 0 3.6-2.4c1.4-1 2.6-2.6 3.7-4l.3-.3a38.6 38.6 0 0 0 8.2-19 3 3 0 0 1-1-1.3h-.1c-1.9-1.3-1.8-4.2-.7-5.9 1.3-2 4.3-2 6.4-1.3 1.2.4 2.4 1 2.9 2.3.4 1.2 0 2.4-.4 3.6-.4 1.2-1 1.9-2.3 2.2l-.7.1c-.4 7.4-4.4 15-9 20.6-2 2.4-4.6 5.3-7.6 6.8 5.2 2.2 11.9 2.4 16.5-.6 2.2-1.4 4-3.3 5.8-5.2a5 5 0 0 1-.2-1.4c-.5-.6-.7-1.3-.5-2.4.4-2 2-2.7 4-2.7 2-.1 4.4.4 4.7 2.8v1.5a4 4 0 0 1-.4 2 4 4 0 0 1-1.2 1.8 5 5 0 0 1-4 .6 21 21 0 0 1-11.9 7c-4.5.9-9.7.3-14.2-1.4 4.1 20.7 1.8 43-2 64l.3.2c1.2.5.4 1-.6 1.4l-3 15-.9 4c-2.5 12-5 24-8 35.8l-2.2 9.3c-2 8.5-3.9 17.2-7 25.2a459.1 459.1 0 0 0 37.5-42c-.8 1-4 .7-3.9-.5.4-2.9 0-5.8-.4-8.7-.3-1.8-.5-3.5-.6-5.3-.1-3.7.5-7.5 1.2-11.2l.3-1.8a63.7 63.7 0 0 1 8.4-26c.7-1 3.1-1 3.9 0 5 7 3.9 17.8 2.4 25.5-1.3 7.3-3.3 14.3-6 21.2 22.5-29.7 41.5-62 56.7-96.4-8-1.7-14-3.1-20-9.6-4.9-5.4-9.7-13-12.2-20.2-1.5.2-3.4-.2-4-1.7-.3-.8-.2-1.7 0-2.6 0-.5 0-1 .3-1.5.7-2.4 3.5-3.2 5.7-2.2.4.3.8.5 1 .9 1.9 1 2 3.6.8 5.5l-.1.2c1.8 6 5.8 12.8 9.5 17.6a39 39 0 0 0 7 7.1c3 2.4 6.7 3.3 10.5 4a53.2 53.2 0 0 1-10.2-21.1c-.9-3.1-1.5-6.3-2-9.4l-.6-2.7-.9-4c-.4-1.5-.8-3.2-1-4.8-.5 0-1-.2-1.4-.3Zm-65.4 96.7c-1-8.3-5.2-15.4-11.3-21.3a87.2 87.2 0 0 0-12.4-9.9c-2.5-2-5.5-4.2-8.3-5.6.2 3.3 3.1 8.4 4.7 11.2l.5 1c2.2 3.8 5.2 7 8.2 10.4l.9.9a62.4 62.4 0 0 0 17.7 13.3Zm28.3 23.3c-1.5 8-3.8 15.7-7 23.1a69.6 69.6 0 0 0-.7-7.6 79 79 0 0 1 7.2-37c2.6 6.6 1.7 15 .5 21.5Zm18.4 2.3c3 .8 14.2-1.6 14.9-1.7a40.3 40.3 0 0 0 28.5-19c1.9-2.5 4.9-6.3 4.9-7.7 0 .3-3.3 1.5-6.6 2.7l-6.3 2.5a160.4 160.4 0 0 0-11.7 6.5 123 123 0 0 0-23.7 16.7ZM337 902.4a3.4 3.4 0 0 0-.6.7 3 3 0 0 1 1-.2h-.1l-.3-.5Zm114.3 3.7Zm-.4 1.7c0-.6-.2-1.3-.6-1.4l-.6.6a2 2 0 0 1 1.2.8Zm19 15.7h.3l-.4.1.1-.1Z" fill="#52525B"/>
  <path fill-rule="evenodd" clip-rule="evenodd" d="M255.6 945.4c2.2-.4 3.8.7 4.7 2.5a5 5 0 0 1 1.4 3.4c.1 3-2 5-4.7 5.4v.9l-.1 1c-.4 4-.4 8-.3 12 0 1.3 0 2.8-.2 4.4-.1 3.8-.3 8 .5 11.6.6-2.6 1.5-5 2.6-7.4 2.1-4.7 9.1-14 15.4-12.4 8.8 2.3 2.7 17.2.4 22l-1 2.2a61.4 61.4 0 0 1-7.7 13.5c-2.2 2.6-4 5.5-5.6 8.4-1.2 1.9-2.3 3.8-3.6 5.6 3.9 9.2 7.7 18.5 11 28 2.9 8.3 5 16.8 7.2 25.4l4.2 15.6c.3 1.2-3.3 2.2-3.6 1-1.5-5.2-2.9-10.5-4.2-15.7-2.1-8.5-4.3-17-7.2-25.4-3.2-9.2-7-18.3-10.7-27.3a.8.8 0 0 1-.5-.3l-.2-.3a.7.7 0 0 1 0-.8l-1.8-4.3a18.5 18.5 0 0 1-8.3 1.7c-6-.3-13.1-2.5-18.3-5.5-6.2-3.6-20.2-15.2-15.9-24 3.4-7 13.8-5.7 20-3a28.4 28.4 0 0 1-2-5 74 74 0 0 1-2-6.7c-4.2.5-9-2-9.2-6.3-.2-3.6 2.3-5.8 5.3-6.4l.3-.2c1.8-1 4-.7 5.1 1 1.3.7 2.5 1.8 2.8 3.3 1.2 2.4 1.2 5.6-1 7.3a95.4 95.4 0 0 0 2.3 7.2c.4 1.3.9 2.7 1.5 4-.8-5.4.7-11.4 6.3-13.6 7.1-2.9 11.8 5.6 13.8 11l.8 2v-4.8l-.1-8.5v-2.7c-.2-2.5-.2-5.5.1-8.3-1 0-2.1-.3-3-.8-1.3-.7-1.6-2.1-1.4-3.6 0-2 .7-4.5 2.3-5.6.8-.6 1.7-.8 2.6-.8h.3a5 5 0 0 1 1.7-.7Zm-5.6 65.3.8 1.8c-9.2 3.1-19.7-.7-27.3-6.6-4-3.2-13.7-12.3-11.2-18.6l4.5-1.8 4.4-1.9a29.6 29.6 0 0 1 10.1 4.9c2.2 1.7 4.3 3.6 6.1 5.6a89 89 0 0 0 7.4 10c1.6 2.3 3.3 4.5 5.2 6.6Zm3-2.4-.7-1.6c-.2-.4-.7-.6-1.3-.6a176 176 0 0 1-5-6l-4.1-5.4c-3.3-5.1-12.3-21.6-1.7-23.3 3.4-.5 4 .4 5.6 2.9l.2.4c1 1.6 1.8 3.2 2.5 4.9 1 2.4 1.7 5 2.4 7.6l1 3.4a56 56 0 0 1 1.9 13.4l.4 5.7-1.2-1.4Zm-33.2-42.5c.4 2.4 2.1 3.2 4.3 3l.3.7v.4a7 7 0 0 1-3.8-2 7 7 0 0 1-1.1-4.9c0 1 .1 2 .3 2.8ZM258 1011l-.4-6.7c.1-6 1.3-12.4 2.5-17.5 1.3-4.9 3-10 6.6-13.6l.4-.5c1-1 2.2-2.2 3.3-2.8 3.8-1.8 4.5.5 5.1 3.5 1.4 7-3 14.8-6.5 21.3l-2 3.8a40 40 0 0 1-5.1 7.1l-1.7 2.2c-.9 1-1.5 2-2.2 3.2Z" fill="#52525B"/>
  <path d="M233.2 119a15 15 0 0 1-5.6-4.3c-1.3-2-1.6-4.9 0-6.6.9-.9 2.1-1.3 3.4-1.6 5-1.2 10.1-.4 15.2-.4 5.2 0 10.7-1 14.1-4.8 3.2-3.6 3.7-8.6 5.2-13.1s5-9.2 9.7-9c2.5.3 4.7 1.9 7 3.2 3.4 2.1 7.3 3.7 11.3 4 12 1.3 24-7.4 35.4-3.7 3.4 1 6.7 3.8 6.5 7.3 0 1-.4 2.1-.9 3.1-7 16.8-23.5 40.7-43 44.5-18.2 3.5-43.2-10.7-58.3-18.7Zm95.8 39.6c-.2-2.2-.3-4.3.5-6.3 1.4-3.7 5.6-5.8 9.5-5.5 3.9.3 7.4 2.7 9.7 6 1.4 2 3.3 4.8 5.7 4 .8-.4 1.5-1.1 2-1.8a45 45 0 0 1 11-9c.6-.5 1.3-.8 2-.7.7.1 1.2.7 1.7 1.2l10 10.9c1.9 2 4 4.4 4.4 7.2 1.2 7-7.7 11.8-9.4 18.8 6.4-1.2 13-2 19.5-2.6 4.7-.3 10.1 0 12.7 3.7 2.5 3.6 1 8.7-2.2 11.6-3.2 3-7.6 4-11.8 4.8-13.3 2.4-34.6 4.6-46.8-3-11.6-7.2-17.5-26.5-18.6-39.3Z" fill="#F5E38D"/>
  <path fill-rule="evenodd" clip-rule="evenodd" d="m294 128.8-1.7 3.8a4 4 0 0 0-1.2-1.4c-.3-.2-.7-.2-1-.1a99 99 0 0 1-1.4-13.8l-.2-3.4c-.4-4.9-1-11 .8-14.7 1-2-2-3.3-3-1.4-1.8 4-1.5 9.2-1.2 13.9l.2 3.6c.2 5.2.5 10.6 1.4 15.8l-3.3-1.4a64.2 64.2 0 0 1-10.7-18.5 54.1 54.1 0 0 1-2.7-11c0-.4 0-.9-.2-1.4-.5-3.4-1.4-9.6.2-11.1 2.7-2.8 5.1-.2 7.6 2.5 1.6 1.6 3.1 3.2 4.8 3.8.7.2 1.5.2 2-.5 1-1.3 1.5-3 2-4.6l.7-2.3c1.3 2.8 2.6 5.5 6.1 2 .5-.5.7-1.3.9-2 .2-.8.3-1.5.8-1.9 1.8-1.7 1.7-1.4 1.7-.7-.1.5-.2 1.4.6 2 .4 0 .6.3.9.6.5.5 1 1 2 .8 1.3 0 2-1 2.6-1.9.8-1 1.3-1.7 2 .4 1 2.6-1 8.9-2.4 13.3l-1 3.4c-.7 3-1.8 6.1-3 9.4a74.5 74.5 0 0 0-4.4 16.8Zm-20-3-3.8-4.8c-2.3-2.8-4.5-5.5-6.6-8.4l-3.3-4.7c-1.5-2.2-3-4.5-4.7-6.6-1.1-1.5-.8-1-.2 0l1.5 3c.3 1.3-.5 2.3-1.9 2.2-.5 0-1.4-.2-2.3-.5l-3.1-.7.3 1c.4.9-.2 1.7-1 2-1.2.7-2.3.5-3.3.4l-.9-.2c0 .4-.2.8-.4 1-1.4 2-3.8 2-6.1 1.9-2 0-3.7-.2-5 .9-6 5.2 4.5 9.7 9.7 12l2 1a80.9 80.9 0 0 0 20.6 7c1.8.5 3.6.8 5.5 1l6 1.2c0-1.3.6-2 1.7-2.2a68 68 0 0 0-.8-1.3 89.7 89.7 0 0 1-12.4-6 34 34 0 0 1-8-5.9c-.7-.1-1.3-.6-1.5-1.4l-.6-1.7c-.9-2 2.2-3 3.1-1.1l.2.4c2.3 4.3 8.7 7.3 13.3 9.5l1.6.8.4.1Zm31.2-25.2.1-.4 1-3.3c1.6-5.6 4-13.5-.3-17-.6-.5-1.4-.5-2-.1-.6.3-1 .7-1.4 1.1-.4.4-.8.8-1.2 1l-1.3 1c0-.1-.2-.4-.6-.6-.5-.4-.7-.9-.9-1.4-.2-.7-.5-1.4-1.8-1.7-1.7-.3-3.1 1-4 2.2-1 1.1-1.5 2-1.8 2.7-.2.5-.3.7-.5.8-.2 0-.5-.5-1.3-1.7l-.6-1c-.6-1-2-1-2.7-.1-.5.6-1.1 2.4-1.7 4.1-.6 2-1.2 3.8-1.7 4-.8.2-3-2-5.2-4.3a22.2 22.2 0 0 0-4-3.7c-4.5-2-5.8.7-6.6 5a51 51 0 0 0 4.8 29.8 202 202 0 0 1-8.7-11.7c-2.5-4.2-6-10.2-10.3-9.5-.5 0-1.1.4-1.3 1-.7 2 .2 3.8 1.2 5.6v.2c-2.2-.7-4.2-1.3-6.3.1-.8.6-.8 1.6-.4 2.4.3.4-.4.4-1.4.4-1 0-2.1-.2-3 .2-1.1.5-1.3 1.9-.4 2.8-1.3-1.4-10.2.5-12 1.2-1.7.5-3.8 1.5-4.5 3.2-1.5 3.8 2.8 6.7 5.5 8.3l.9.5c6.9 4 14.6 8.7 22.1 11.2 3.8 1.2 8 1.9 12.3 2.5 4.4.7 8.9 1.3 12.9 2.7 2.1 3.2 6.9 5.2 10 6.4 1.5.5 2.8.8 4 .8a98 98 0 0 0-1.6 10.4l-.6 4.3c-1.3 9.4-2 18.9-2.7 28.3a423.4 423.4 0 0 0 1.9 82.2c-.4.6-.3 1.5.2 2a384 384 0 0 0 6.6 38.6 84.5 84.5 0 0 0-22-28.6l-4.7-4.4a81 81 0 0 0-15.6-12.3c-2.8-1.6-7.7-4.6-10-2.2-2.1 2.1-.3 5.9 1 8.5l.7 1.3a98.4 98.4 0 0 0 14.7 25 59 59 0 0 0 20.5 14.8c4.4 2.1 9.3 4.5 14.2 4.8v.2c.4 1.5 2.3 1.8 3 1a307.7 307.7 0 0 0 10.4 33c.7 2 3.8.9 3-1.1-1-2.7-2-5.4-2.8-8.1a33 33 0 0 0 11.4-6.8 84.4 84.4 0 0 0 15.2-18.8 86.3 86.3 0 0 0 11.6-28.6c.9-3.5 2.4-8.9.3-11.4-.7-.8-2-1-2.7-.1l-7 8.1c-6.4 7.5-12.8 15-19 22.7a95.4 95.4 0 0 0-13 25c-1.7-5.4-3.1-10.8-4.5-16.3.7-.7.3-2-.6-2.5a379.7 379.7 0 0 1-7.3-41.8c2.1-1 4-3 5.7-4.9l1.3-1.4c5.1-5.2 9.8-10.8 14.4-16.4l1.4-1.7a896.5 896.5 0 0 0 31.7-40.3c4.2 1.9 8.4 3 12.6.2l.6-.5a36.1 36.1 0 0 0 19.1-.8l9.5-3.1c7-2.2 14-4.4 20.5-7.7l1-.4c3.1-1.5 8.8-4.3 6.6-8.1-1.3-2.4-4.2-2.7-7-3-3.5-.5-7-.9-7.8-5.2-.2-1-1.1-1.7-2.2-1.4-.3.1-.6.1-.8 0a15 15 0 0 0 1.1-3.4c.3-1-.8-2-1.8-1.9-3 .2-6.4 2.4-9.5 4.4-1.4.9-2.8 1.8-4 2.4-5.2 2.5-10.6 5-16 7.3a109 109 0 0 1 6.8-6.8l1.2-1a60.2 60.2 0 0 0 13.4-15.6c1.5-3.1.8-4.6-2.3-6.1-1-.5-2.4-.6-3.7-.7-1.3 0-2.5-.2-3.5-.7-1.6-1-1.6-1.2-1.7-2.5 0-.4 0-.9-.2-1.6-.1-.9-.9-1.5-1.8-1.5l-1.2.3-1.4.4-1.3.8 1-4.6.1-.3c.4-2.5.5-3.6-1.3-5.4-.4-.5-1.1-.5-1.6-.3a6.8 6.8 0 0 0-3 1.9c-.7.5-1.3 1.1-2.2 1.5-3.2 1.5-3.6 0-4.3-2.2l-.7-1.7c-.5-1.4-2.3-1.4-3-.1a96 96 0 0 0-7.1 17.1c-1.3-4.7-4.3-11.4-8.4-12.7-1-.3-1.8-.1-2.2.8a57 57 0 0 0-1.7 3.4c-.5-1.2-2.5-1.3-3 0-.3 1-.4 1.9-.4 2.7l-2-1.9c-1.5-1.4-2.9-2.8-4.7-3.6-1-.5-2 .2-2.4 1.2-2.2 7.8.5 17.1 2.7 24.8l.5 2c2 7 4.9 13.4 8.1 19.8-.4 1.3.3 2.7 1.6 4 .7 1.7 1.5 3.3 2.5 4.7.4 1.4 1 2.5 2.4 3.5a860.9 860.9 0 0 1-40 50l-2.4 3a37.8 37.8 0 0 1-9.6 9.9 416.3 416.3 0 0 1-2-77.2 499.8 499.8 0 0 1 2.7-30.4c.5-5.8 1.1-12.3 2.9-17.7l.5-.2c3-.9 7.7-2.4 9.8-4.8.8-1 1.5-2.2 1.5-3.4.4.8 1.4 1.2 2.3.5 6.8-5.2 12.5-12.4 18-19.4l4.3-5.2c2.8-3.5 12.5-16 7.2-20.6-1.3-1.1-2.2-1-3.3-.6l-1.2.3c-1.5.3-2 .8-2.2 1.1l-.3.2-.6-.8-.4-.6c-.2-.3-.2-.8-.2-1.4 0-.5.1-1.2-.2-1.6-2.7-4.1-5-.3-6.9 2.8l-.5.8c-.8-1.7-.9-3.8-1-5.8 0-2.6-.1-5.2-1.8-7-.9-1-2.2-1-2.9.2l-4 6.9c-3.2 5-6.2 10-8.8 15.4Zm-8 29.1v2.5c.3.2.6.5.7 1 .7-.4 1.4-.7 2.3-.8a71 71 0 0 0 14.2-27.9c.5-2 3.8-1.5 3.3.6a72.2 72.2 0 0 1-13.2 27.3 3 3 0 0 1 2 .6c.5.3.8.7 1 1.2 0-.4.2-.7.6-1 5.3-4 9.7-9.6 14-15l4-5 1.8-2a55.3 55.3 0 0 0 6.1-8.2c1-1.4 2-3.1 2.3-4.4l-.7-4.6-.8.5-.5.3c-.8 0-1.4.3-2 .6-1.3.4-2.3.9-3.6-1-.5-.6-.5-3.9-.5-4.8v-.3l-.7 1.2c-.8 1.5-2 3.8-2.5 4.3-.6.6-1.7.9-2.4.2-2-2.2-2.2-5.1-2.4-8-.1-1.7-.2-3.3-.7-4.7l-2.5 4.1c-3.7 6.1-7.3 12.1-10.2 18.9-2 4.3-3.6 8.7-5.3 13.1-1.4 3.8-2.8 7.6-4.4 11.3Zm2.8 8.8-.6.2.3-.3h.4Zm3.6-1.8Zm3.5 202.8c2.3-.8 7.4-3.6 7.6-3.6 2.8-1.8 5.1-4.3 7.3-6.7a102 102 0 0 0 11.6-16 78 78 0 0 0 8.8-22l.3-1.1a46 46 0 0 0 1.8-8.1l-4.8 5.6a492.3 492.3 0 0 0-17.3 20.5 107.8 107.8 0 0 0-15.7 30l.4 1.4Zm-30.8-49.8c6.4 6.6 14 15.6 17.4 24.9-5-.6-10.3-3.4-14.4-5.6l-1.1-.6a53.5 53.5 0 0 1-17.4-14.2 92.9 92.9 0 0 1-11.5-19.4c-.9-1.6-1.9-3.6-2-5-.2-2.7 0-2.6 2-2l1 .2c4.4 1.2 8.4 5.1 11.8 8.5l2.1 2 4.8 4.3c2.5 2.2 5 4.4 7.3 6.9Zm74.6-119.2a68.7 68.7 0 0 0-3.6 19l1 3.1c2.5-5.1 5-10.2 7.7-15.2l5.4-10.7c1-2 4-.5 3 1.4l-5.4 10.7c-2.1 4.1-4.3 8.2-6.3 12.4.7 1.2.9 2.2.6 3.7v.2l-.3.9 1.3-1c1-.8 2.5 0 2.6 1.2v.6c4.3-6.4 9.7-12 15.1-17.4 3.9-4 7.8-8 11.3-12.3l1.3-1.5c1.5-1.6 2.2-2.4.6-4.6-1.4-1.8-1.7-1.8-2.9-1.7h-1.1l-1.5.3c-.8.2-1.5.4-2.2.1-2.2-1-2-3-1.8-5.1l.1-.7-1 .5c-1.4.7-2.8 1.4-4.3-.2-.8-.8-.5-1.8-.3-2.9.2-.6.4-1.2.2-1.8-.4-2.3-.8-2.2-3.2-1-.4.2-1 .8-1.6 1.4l-1 1c-.4.3-1 .3-1.6 0-2.6-1.1-3.2-3-3.6-5.2a141.3 141.3 0 0 0-8.5 24.8Zm-3.2-.9c-1 3.5-2 7-2.7 10.4-.8-4-1.5-8.2-2-12.4-.2-2-3.6-1.8-3.3.4a151.3 151.3 0 0 0 4.3 21.7v1l-.7-1.3c-.7-1.2-1.3-2.4-2-3-.7-1-2.1-.4-2.5.5l-.4.8c-1.8-3.9-3.4-7.8-4.7-11.9a60.7 60.7 0 0 1-4.4-25.5l2.9 2.6c1.3 1.3 2.7 2.7 4.5 3.5 1 .5 2.1-.2 2.3-1.3.5 0 1-.4 1.2-.8l1.1-2.3c1.1-2.5 1.5-3.3 4 .5a22 22 0 0 1 3 7.2c.2 1 1 1.5 1.8 1.5a367.1 367.1 0 0 0-2.4 8.4Zm16.9 22.2c-2 2.4-3.8 5-5.5 7.6h.2c.7-.1 1.4-.2 2.3.5 4.5-.5 9.5-2.4 13.1-4a53 53 0 0 0 14.6-8.9c1.6-1.5 4.1.7 2.6 2.2a56 56 0 0 1-26.6 13c-.2.1-1 .3-2.2.4l-.3 1.8a37 37 0 0 0 19-2.3c3.5-1.4 7.1-2.4 10.7-3.5 4.1-1.2 8.2-2.5 12-4.1l1.8-.6c2.1-.8 4.9-1.8 6-3.3l.6-1c.3-.3.5-.5.4-.6 0-.2-.2-.2-.6-.3l-1.3-.6c-1.2-.6-2.7-.8-4.1-1-1.3-.2-2.6-.4-3.7-.9-3.2-1.2-3.8-2.6-4.3-5.1l-.7-.1c-.7-.1-1.4-.2-1.9.1-1.8 1-3.7-1.5-1.9-2.7.6-.6 1-1.3 1.4-2-2.3.9-4.7 2.5-7 4a41.3 41.3 0 0 1-10 5.3 193.4 193.4 0 0 1-14.6 6.1Zm-7.2 11.6c.3 0 .5-.3.7-.5-.1.1 0 .2.3.2l-.1.5-.9-.2Zm-4.3-2.8v-.4l-.3.1.3.3Zm-11.5-8h-.4v-.6l.1.2c0 .2.2.3.3.5Z" fill="#52525B"/>
  <path d="M424.7 595.7c.3.5.7 1 .7 1.7 0 1.2-1.5 1.8-2.6 2.3-5 2-7 8.3-7.3 13.8-.2 4.5.6 9.6 4.3 12.3 3.6 2.6 8.9 1.8 12.6-.7 3.7-2.6 6.1-6.5 8.4-10.3.2 1 .8 2 1.5 2.7 3.2 4 8.8 5.5 13.8 4.5s9.3-4.3 12.3-8.4c1.2-1.7 2.3-3.7 2.5-5.8a11 11 0 0 0-3.9-8.8 32.3 32.3 0 0 0-8.5-5c2.9 1.3 3.2-17 .3-20-4.4-4.4-12.2-4.6-18-3.3-13.4 3-27.3 9.7-16.1 25Z" fill="#CFA1A1"/>
  <path fill-rule="evenodd" clip-rule="evenodd" d="m442.3 608.2-.1-.8c-.2-1-3.4.2-3.2 1.5.2 1 .5 2.1 1 3.2-2.5 6.8-12.6 16.2-18 10.5-6.7-7.2-2.9-20.3 7.3-21.8.8-.1 3.3-2 1.3-2.1-5.3-.6-8.7-6.5-8.6-11.5 0-3.7.5-12 9.4-7.3 3.4 1.8 5 7.1 5.7 10.6.3 1 3.4-.2 3.2-1.5l-.4-1.8c-.7-3.3-1.5-7 .1-10.1 5.8-11.1 11.1-2.3 13 1.7a26 26 0 0 1 2.8 10.3c-3.2 1.2-6 3.8-2.1 6.8.8.7 2.2-.3 2.8-.8.6-.7 1.1-1.5 1.5-2.4l.3-.3 2-1.8 2.9 2.3a13 13 0 0 1 1.9 3.7 19 19 0 0 1-1.8 14.5c-2.4 4.7-3 4.9-8.7 6.4l-2.6.8c-3.2 1-3.3 1-5.8-2-.8-1-1.5-1.9-2-3l.5-2.3c1-.4 2.2-1.4 1.5-1.9l-1-.8c-.5-.3-1.1-.3-1.7 0-.2-.2-.7-.2-1.2 0Zm-1.6 8c-4.6 7.2-13.7 14.1-19.9 10-5.2-3.6-6.9-12.5-4-17.9 1.9-3.7 5.2-6.7 9-8.3-6.2-2.9-9.2-12-5.7-18 1.8-3.1 5.5-5.2 9-5.3 3 0 5.4 1.3 7.2 3.4.3-2.2 1.2-4.3 3-6.3 2.3-2.6 5.8-3.9 9.3-3.4 6.4 1 10.9 10.5 10.4 18 8.1-.5 11 8.1 9.8 15.2-1.2 7.3-7 17.2-14.8 19-4.4 1-7.8-1-10.4-4-.3 6.5.6 13.1 1.5 19.6l.8 6.3c1 7.6 1.9 15.3 3 22.9 1.3-5.2 3.8-10 7.6-14.2 2-2.2 4.3-4 6.6-6 1.4-1.1 2.8-2.3 4-3.5.8-.7 1.5-1.3 2-2a13 13 0 0 1 5.2-4c.4 0 1.4-.2 1.5.3.9 2.4.4 4.8-.1 7.3l-.5 2.7c0 .9-.2 1.7-.3 2.6a56 56 0 0 1-1.3 8.2 35.4 35.4 0 0 1-8 16.6c-2 2-8.7 7-13.9 8.4 4.2 20.6 11 40.5 23 58 .7 1-2.4 2.6-3 1.5a157.8 157.8 0 0 1-23.6-59.5c-.6-.2-1-.5-1.5-1-.3-.4.4-1.1 1.2-1.5a285.9 285.9 0 0 1-1-6.2c-.8.6-2.2 1-2.6.6-10.2 4-17-2.4-22.2-11.1l-.5-.9c-4-6.6-9.1-15.3-9.5-22.8-.3-6.8 6.1-5.8 10-2.6a78 78 0 0 1 23.9 31.3c-1.4-8.7-2.4-17.5-3.4-26.2l-.3-2-.5-4.1a87 87 0 0 1-1-21Zm10.4 64 .2 1.5c2-.3 4.9-2 6.4-3l.6-.4a20 20 0 0 0 9.6-11.4 57.6 57.6 0 0 0 3.9-14.2c.8-3.4 2-9 1.3-10.2-.9-1.3-3 .8-4.3 2.2l-1 1-2.2 1.9a48 48 0 0 0-8 7.6 35 35 0 0 0-6.5 25Zm-24.8-33c7 6.7 14 16.4 17 26-.4.2-.7.6-.8 1 0 4-9.5-1.6-10.6-2.5a29 29 0 0 1-5.1-6 89.2 89.2 0 0 1-10.6-22l-.2-.3c-1-3.4-2-6.7 2.5-4a28 28 0 0 1 5.4 5.1l2.4 2.6Z" fill="#52525B"/>
  <path d="M281 1256c.2.6.3 1.4 0 2-.6 1.3-2.4 1.1-3.8 1-6.3-.3-11.4 5.1-14.4 10.6-2.4 4.6-4.1 10.2-1.7 14.8 2.4 4.5 8.2 6.3 13.3 5.5a37 37 0 0 0 13.8-6.4 6.8 6.8 0 0 0 .1 3.6c1.4 5.6 6.4 10 12 11.5 5.6 1.4 11.7.2 16.8-2.6a13 13 0 0 0 5.4-4.7c2-3.2 1.9-7.4.5-11a37 37 0 0 0-6.3-9.5c2.3 2.9 11.7-15.6 10.2-20.2-2.3-6.8-10.2-10.8-16.7-12.3-15.5-3.6-33-3.7-29.1 17.7Z" fill="#F5E38D"/>
  <path fill-rule="evenodd" clip-rule="evenodd" d="m293 1277.5.2-.9c.3-1.1-3.6-1.5-4 0a27 27 0 0 0-.6 3.8c-5.8 5.7-20.9 10.4-23.6 1.8-3.3-10.7 7-22.3 18.3-18.8.9.3 4.4-.3 2.4-1.5-5.2-3.2-5.7-11-3.1-16 1.9-3.9 6.4-12.2 13.2-3 2.6 3.7 1.6 10 .7 13.8-.3 1.2 3.6 1.5 4 0l.5-2c.9-3.7 2-8 5-10.3 11.6-8.5 12.7 3.1 12.6 8.2 0 3.5-.5 8.3-2.2 12-4-.4-8 1-5.6 6 .5 1 2.4.8 3.3.4 1-.3 1.9-.9 2.7-1.6l.5-.2 2.9-.9 1.9 3.9a14 14 0 0 1 0 4.8 21.6 21.6 0 0 1-9 14c-4.8 3.5-5.5 3.4-12 2.2h-.1l-3-.5c-3.8-.5-4-.6-5-4.9-.4-1.4-.6-2.7-.7-4l1.8-2.3c1.3.2 3-.2 2.5-1.1l-.8-1.4c-.2-.5-.9-.8-1.6-.8-.2-.3-.6-.5-1.2-.7Zm-5.6 7.5c-8.3 5-21.2 7.6-25.4.3-3.6-6.3-.9-16.3 4.6-20.4 4-2.9 8.8-4.3 13.5-4-5-6-3.5-16.9 3.1-21.4 3.4-2.3 8.2-2.5 11.9-.9a10 10 0 0 1 5.7 7 14 14 0 0 1 6.1-5c3.7-1.4 8-1 11.3 1.2 6.2 4.1 6 16.2 1.8 23.6 8.6 3.6 7.2 13.8 2.5 20.5-4.9 7-15.6 14.2-24.7 12.1-4.9-1.1-7.5-4.8-8.7-9.1-3.5 6.5-5.8 13.7-8.1 20.8l-2.3 6.9c-2.9 8.3-5.7 16.6-8.3 25 4-4.7 8.8-8.4 14.8-10.8 3.2-1.2 6.5-2 9.8-2.9l5.9-1.5 3-1.1c2.4-1 4.6-1.8 7.3-1.5.4 0 1.5.4 1.4 1-.3 2.8-2 5.1-3.7 7.4a41 41 0 0 0-3.5 5.1 67.8 67.8 0 0 1-5.4 7.8 40.4 40.4 0 0 1-16.5 13c-3 1-12.5 3-18.4 1.7-6 23.4-8.8 47.2-5.2 71.2.2 1.3-3.7 1.4-4 0a180.1 180.1 0 0 1 5.5-72.9 3 3 0 0 1-1-1.8c-.2-.6.9-1 2-1l1.3-4.9.6-2c-1 .3-2.7 0-3-.6-12.3-1-16.2-11-17.2-22.4v-1.2c-.8-8.7-1.9-20.2 1.5-28.1 3-7.2 9.2-3 11.7 2.3a89 89 0 0 1 8.8 44c3-9.6 6.3-19.2 9.6-28.7l.7-2.1 1.5-4.5a101 101 0 0 1 9.5-22.1Zm-21.2 71-.5 1.5c2.1.6 6 .3 8 0h.8c6.5-.5 11-2.5 15.7-6.9 3.4-3.2 6.7-6.7 9.4-10.6l1.6-2.1c2.5-3.2 6.6-8.4 6.4-9.8-.3-1.8-3.4-.7-5.6.1l-1.4.5-3.3.8c-4 1-8.2 2-12 3.8a40 40 0 0 0-19.1 22.6Zm-9-46.4a78.4 78.4 0 0 1 4.6 35.2c-.6 0-1.2.3-1.4.6-2.1 4.1-9-6.4-9.7-7.8a32.9 32.9 0 0 1-2.2-8.8 101.9 101.9 0 0 1 0-27.8v-.4c.7-4 1.3-7.9 4.5-2.8 1.4 2.3 2.2 5.2 3 8l1.2 3.8Z" fill="#52525B"/>
  <path d="M217.4 1452.4c-.8-2.3-1.6-4.8-3.7-6.2-4.1-2.7-9.7 1.4-11.6 6-2 4.5-2.3 9.9-5.4 13.8-3-1-5.1-3.4-8-4.6-2.8-1.2-7.2.3-6.8 3.3 0 1 .5 1.7 1 2.4 13 21 29.4 39.8 48.2 55.6a145.4 145.4 0 0 0-56-11.4c-2.7 0-6.4 1.3-5.8 4a52.3 52.3 0 0 0 15.8 8l-14 15.4c-1 1.2-2.1 2.5-2.4 4-.5 3 2.6 5.6 5.6 5.8 3 .3 6-1.2 8.6-2.6l39-20.4a87.8 87.8 0 0 0-24.4 57.4c8-1.3 14.9-8 16.5-16 2 5 4.2 10 8.3 13.2 4.1 3.2 10.9 3.7 14.1-.4a15 15 0 0 0 2.5-7.7c2-15 3.8-31.3-3.6-44.6 2.1 18.5 9 36.4 19.8 51.5 1.5 2.1 3.4 4.4 6 4.4 4 0 5.9-5 5.2-8.7-.6-3.9-2.8-7.4-2.8-11.3 4.5 3.6 11.6 7 15.3 2.6 3-3.6.6-9-2.2-12.7a86.4 86.4 0 0 0-42.4-30.5c13.5-1.3 27.2 1 40.7-.7 13.4-1.8 27.6-9.1 31.3-22.2a40.3 40.3 0 0 0-16.1-1c8-2.2 15-8.4 18.2-16.1-26-2-50.4 13-69.7 30.6 16.5-15 31.9-33 36.2-54.8-5-1-10.5.7-14 4.5 6-3.4 9.5-10.7 8.4-17.5-7.3 1.2-14 5.6-18 12a19 19 0 0 0 2.8-14.4c-4.6-2.3-9 3.5-10.8 8.4-2.3 6-6.7 40-14 41-3.9.5-10-34.2-11.8-40.1Z" fill="#CFA1A1"/>
  <path fill-rule="evenodd" clip-rule="evenodd" d="m226.6 1477.2 2 14.5 1-7a92.1 92.1 0 0 1 11.2-31c2-3.6 7.6-12.6 13-12 4.1.5 3 5.1 1.3 9.1 2.1-1.8 4.4-3.3 7.7-4 3.3-.8 7-.7 8.2 3 .3 1 .3 2 .3 3.1l-.5 1.9a9.3 9.3 0 0 0-.7 3c.6 1 3 .7 5.2.5 1.2-.1 2.2-.3 2.9-.1 3.9.6 5.1 3 4.4 6.7-2 11.4-14.2 21.8-22.5 28.7a149 149 0 0 1-6.5 5l.3-.2a144 144 0 0 1 36.1-15.6h.4c5.1-1.4 20.2-5.2 22 2.5 1.4 6.2-8 11.2-14.3 14h.4c4.3.1 9.4.3 8.5 6-.4 2.8-3 5.5-5 7.3l-1.4 1c-.6.5-1.1.8-1.5 1.3-1.9 1.8-1.8 2.2-1.6 2.5 0 .3.2.6-.4 1.4-7.7 11.1-24.7 8.9-37.3 7.2l-5-.7-2.5-.2c-5.4-.6-11-1.2-16.3-2.5l1.6 2c3.4 1.5 6.7 3.6 10 5.6 3 2 6.2 4 9.4 5.5a45.3 45.3 0 0 1 21.8 17c2.1 3.3 7.7 13.2 3 16.7a4.2 4.2 0 0 1-3.5.9c-.4 3.7-2 7-6.6 6.7l-.8-.2c.4 4 0 7.6-2 10-3.5 4.2-9.9 1.6-13.1-1.5-3.1-2.9-4.8-7-6.5-11v-.2l-.2-.3v-.2l-1.1-2.6a212.6 212.6 0 0 1-9.7-26.4c-2.1-6.7-4.2-13.5-7.2-19.6l-.8-.3 1.4 6.5c3 13.6 6 27.2 3.6 41.3l-.1.8c-.7 4.3-1.7 10.8-7.1 10.9a6.8 6.8 0 0 1-5.6-3.4c-.8-1.3-.9-3-1-4.6v-.7l-.4 1c-.6 2-1.3 3.8-2.7 5.2a7.8 7.8 0 0 1-6 2.3c-2.7-.3-3.3-2-3.3-4.2-1.7 3.9-4 7.6-7.8 8-6 .8-4.9-8.5-4.4-12.6l.1-.8c2-17.4 11.2-31.5 20.4-45.6l1.5-2.3c-2.3 1.7-4.7 3.2-7 4.8l-4 2.5-4 2.7a77.6 77.6 0 0 1-19.9 11c-3.8 1.3-12.7 3.5-15.6-.8-2.8-4 1.6-9 5-12.2-3.4.2-7.2-.7-6.6-4.5.8-5.7 11.9-9.3 17.7-11.2a113.9 113.9 0 0 0 3-1c1.6-.3 3.8-.7 4.2-1.7-.2.5-3.4.5-4.7.6h-.5c-3 .1-6.2.2-9.2-.4-3.3-.6-12.8-4-11-9 1.5-4.4 10.6-4.5 14.2-4.1 7.8.9 15 3.8 22.3 6.7l2.9 1.2a73.5 73.5 0 0 0 20 4.7 6 6 0 0 1-2-2.5 32 32 0 0 1-6.1-3.6l-2-1.5c-4.7-3-9.2-6.4-13.2-10.3a65.8 65.8 0 0 1-17.8-27.7c-1.5-5-4.7-15.5 1.4-17.7 2.3-.8 4.3.2 5.9 1.8a40 40 0 0 1 4.8 6.9 58 58 0 0 0-.5-7.2c-.3-3-.6-5.8-.5-8.7 0-2.4.7-4.7 3.4-5.1 2-.3 3.6 1.6 4.8 3.2.8 1 1.5 2 2.1 1.8.6-.2 1.3-1.6 2-3 .6-1.3 1.1-2.4 1.6-2.9.8-.6 1.8-1 2.7-1.2 4-.7 5.8 2.8 7.1 5.9 3 7 4.4 14.3 5.5 21.8a855 855 0 0 0 1.7 11.4Zm10.8 54 3 5.7 1.9 3.8.6 1.3c1.2 2.3 2.3 4.5 3.6 6.7l1.4 2c1.3 1.9 2.7 3.8 2.8 5.8.1 1.2 3.8.5 3.7-1-.1-1.9-1-3.1-2-4.6l-.9-1c-2-3.1-3.7-6.4-5.4-9.7l-1.1-2.3a244.6 244.6 0 0 1-4.5-8.7l5.5 3.3c3.7 2.4 7.5 4.3 11.3 6.3l5.8 3a35.9 35.9 0 0 1 14.3 15.8c1 2.2 1.9 4.5 2.1 6.9 0 .4.3 3.3 0 3.4-.6.2-1-3.4-1.1-4 0-1.1-3.7-.3-3.7 1l.2 1.9c.2 1.8.5 4-.3 5-1.4 1.8-3.1 1.7-4.6.5-1-4.2-2.7-8.1-4.1-10.6-.6-1-3.4 0-3.6 1-.6 3.2 1 8 3.8 11.1 1.5 6.6 1.6 13.4-3.9 12.2-5.5-1.1-8.8-10.3-11-16.5l-1.3-3.5c-3.2-7.8-6.2-15.7-8.9-23.7l-1.8-5.6c-.6-1.9-1.1-3.7-1.8-5.5Zm-16-22.7h-.1l-1.9-1.4a75.6 75.6 0 0 1-26.8-28.2 51.7 51.7 0 0 1-5.9-17.6v-.6c-.4-1.7-1.1-5 1.8-5 .5 0 1.7 2.3 2.3 3.4l.3.6a104 104 0 0 0 5.4 7.6c.6 1 3.3.1 3.5-.9a50 50 0 0 0 0-11.6 148.7 148.7 0 0 1-.6-11.3c.6-.4 1.4 1 2.1 2.3l1 1.4c1.4 1 3 1 4.6.2 1-.5 1.9-2 2.7-3.3 1.2-2 2.3-4 4-2.8 3 2 4.7 10 5.5 14.2l.3 1.4c.9 4 1.4 8 2 12 .2 2.3.5 4.5.9 6.7l.1 1.2c1.9 11.6 3.7 23 4 34.7-.7-1.4-1.3-3-1.8-4.3a32 32 0 0 0-.7-1.8l-.7-1.6-3.6-8.4-.4-1c-1.3-3.3-5.8-14.2-4.5-15.3 1.5-1.4-2-1.4-3-.6-2.4 2.2 1.8 12 3.6 16.3l.6 1.6c1.6 4 3.5 8.1 5.3 12.1Zm3.1 9.9c-3-.7-7.6.6-11.3 1.8a59.6 59.6 0 0 1-6.3 1.5c-5.4 1.1-14.2 2.9-15.7 7-.4 1.2-4 1.6-3.6.4 1.8-5 8.4-6.5 13.6-7.8l2.7-.6 9.5-2.4 4.6-1.1c-4.5-.6-9-2-13.2-3.5l-6-2.4c-2.7-1.2-5.4-2.4-8.3-3.3a80 80 0 0 0-13.5-3l-6 5c-.2 1.9 7.2 4 8.6 4.3 2.7.6 5.6.5 8.3.3.9 0 1.8-.2 2.7-.4 1.8-.3 3.7-.7 5.5-.2.6.2 1 .5.6 1-1.5 2.5-4.3 3.3-7 4.1l-2.1.7-1.5.5a44 44 0 0 0-9.9 4.2c-1.4 1-6 4.4-5.8 6 .3 2.1 5 2 6.2 1.5.7-.4 3.6-.3 2.1 1l-.6.6c-2.5 2.1-5.3 4.5-6.2 7.8-1 3.2-.7 3.3 2.7 4.3l.3.1c3.6 1.2 5 1 8.4 0 6.3-2 12-6 17.5-9.8l2.2-1.5 4.7-3.1c4-2.7 8-5.4 12-8.3l1-.8 1.7-1.2 1.3-2.2.8-.5Zm10.5-9.2-3.8 2.7a139 139 0 0 1 18.4-31.5c1-1.3-2.7-1-3.4 0-6 7.2-10.9 15.7-15.1 24.4l.7-8.3.3-3.2c.8-8 2.4-15.8 5-23.5a63 63 0 0 1 11.3-22s0-.2.2-.3c.7-.9 3-3.4 3.6-3.3.8.2.4 3.6.3 4-.3 1.8-1 3.4-1.9 5-.5 1-1 2.1-1.4 3.3-.5 1.4 2.9.4 3.3 0l2.2-2.3c1-1 1.8-2.1 2.8-2.8 8.1-3.1 11.4-1.8 10 4l-1 2.8c0 2 0 2 2.2 2.5 1.3.2 2.8.1 4.2 0 3.8-.2 7.3-.4 6 5.3-.8 3.4-3 6.6-5 9.4a108.2 108.2 0 0 1-24.4 23.6l-4.6 3.3-6.2 4.6a79 79 0 0 0-3.3 2l-.4.3Zm-12.2 16.6c-1 3.6-2.4 7.2-3.7 10.6l-2 5.4-1 3c-2.1 5.3-4.6 11.8-3 17 .4 1.2 4 .2 3.7-1-1.6-5.3 1-12.2 3.3-17.9l1.5-3.9 1.6-4.5.9-2.3a115.8 115.8 0 0 0 1.1 13.8c.6 4.6 1.8 13.2 5.6 15.6.3.3 1.1.2 1.8 0 .1 5.4-.4 11.1-1.8 16.2-2.1 7.7-5.8.4-6.1-3.4v-1.1c0-1 0-1.8-.7-2.7-.6-.8-2.6 0-3.2.4-.5.5-1.1 1.9-1.9 3.5-1.7 3.7-3.8 8.3-6 6.1-.8-.8-.5-2.8-.2-4.8.3-1.7.5-3.5 0-4.5-.4-1.2-3-.3-3.4.4-.9 1.3-1.3 2.6-1.8 4l-.7 1.8-.2.5c-.8 2.1-2.1 5.3-4.5 5.2-2.1 0-2-1-1.9-3l.1-1.7c.2-7.3 2-14.4 4.6-21.2 3.8-10.2 9.7-19.1 15.6-28l2.3-3.5Zm8.4 29c.3 1.2.7 2.6 1.3 3.7v-1c-.6-6.7-1.8-13.4-3-20l-.1-.3-1.6-8.3c0 4.5.3 9 .7 13a63.7 63.7 0 0 0 2.7 12.8Zm.1-36.6 1.5.6c7.4 2.5 15 3.4 22.6 4.4l4.6.5 2 .3c5.8.8 11.3 1.5 17.4.8h.2c4-.5 9.1-1 12.3-4 .7-.7 1-1.6 1.3-2.6.2-.6.4-1.3.8-1.8 1-1.5 2.4-2.6 3.9-3.7 2-1.5 4-3 4.8-5.6 1.5-5.3-2.6-5.5-6.6-5.7-1.2 0-2.3-.2-3.3-.3-1.4-.3-.3-1.5.4-1.8 3.7-1.6 23.9-12.4 11.8-16-8.3-2.6-21 2.8-29 6.2l-.6.3a129 129 0 0 0-12.4 6c.6.2 1 .6.3 1.2l-1 .9c-.4.4-1.5.6-2.3.5-4.7 2-9.3 5.6-13.5 8.9a212.4 212.4 0 0 1-6 4.5 71.4 71.4 0 0 1-4.8 3.4c3.7-.5 7.3-2 10.8-3.6a81.5 81.5 0 0 1 20.2-6.3l.5-.2c1.8-.4 3.6-1 5.4-1.6 2-.7 3.9-1.4 5.9-1.8h.1l.2-.1c1.2-.3 2.7-.6 3.7.5.9 1-2.6 2.4-3.4 1.4l-6.5 2-2.7 1-4.7 1c-2.7.7-5.5 1.3-8.1 2.1-2.9.9-5.6 2-8.4 3.3a52 52 0 0 1-14.7 4.5c-.8 0-1.3-.2-1.4-.5l-1.8.8c.3 0 .5.2.5.5Zm12.7-11.8-3.1 1.6-3.6 3.4.7-.6 1.7-1.3 3.2-2.3 1-.8Z" fill="#52525B"/>
  <path d="M54.4 979a25 25 0 0 0 14 2.1c3.9-.3 8.3-1.5 10-5 .5-1.4.7-2.8.7-4.3 0-11.6-10-27-23.2-22-12.4 4.8-13.2 23.1-1.5 29.3Zm-1-90.8c.6 3 3 5.3 5.6 6.6a22 22 0 0 0 8.9 1.8c3 0 6.1-.1 9-1.3 4.5-1.8 7.8-6.3 8.5-11.1 1.5-9.2-6.8-22.6-17.5-18.7-6.4 2.3-15.7 16.2-14.5 22.7Zm97.2 36.8c1.7 2.5 4.8 3.8 7.7 4.7 2.2.8 4.5 1.5 6.8 1.3 6.3-.4 10.4-6.7 13.4-12.3.7-1.3 1.5-2.7 1.8-4.2a14 14 0 0 0-1.6-8 18.9 18.9 0 0 0-6.2-8.8c-13.3-8.7-28.5 17.3-22 27.3Z" fill="#81AD9E"/>
  <path fill-rule="evenodd" clip-rule="evenodd" d="M81.5 891.5h.5c.7 0 1.1.7 1.2 1.7.3 0 .4 0 .6.2.3.1.6.4 1 1l.1.1c.7.9.5 3.5-.1 4.3.3.7.8 1.4 1.2 2l1.4 2.5 6.1 13A569.3 569.3 0 0 0 121 965a62 62 0 0 1 .8-23.6c.9-3.4 4-13.6 9.3-12.6 4.4.8 2.5 7.7 1.7 10.9v.2l-.2.3c-2 8-4.7 15.2-7.5 22.7l-1.5 4.4-.5.9a1291.6 1291.6 0 0 0 31.6 48.4 250.8 250.8 0 0 0 6.6-42.5c.7-7.6 1.2-15.2 1.7-22.8l1-16c-3.5-1-7-4.8-9.1-7.3l-.2-.2-.1-.2a21.2 21.2 0 0 1-5.3-12.3c-.4-3.4-.3-7.6 3.5-9 1.5-.5 3-.3 4.5.3 0-1.2.2-2.5.5-3.4 1-2.3 2.6-3.3 5.1-2.8 1.9.5 2.8 1.6 3.6 2.8.5.7 1 1.3 1.7 1.9 1-3.4 2.7-5.6 6-1.5 3.8 4.8 6 11.7 4.1 17.7a20.5 20.5 0 0 1-10.8 12.5c-.1.8-.5 1.5-1 1.6-.5 5.6-.8 11.3-1.2 17l-1.4 20.1c2.8-2.6 5.7-5.4 8.3-8.2 1-1 1.8-2.1 2.7-3.3 1.6-1.8 3.1-3.7 5-5.3 3-2.6 8.5-5.3 9.6.6 1 5-4.2 11-7.7 14a41.8 41.8 0 0 1-18.4 7.6 258.4 258.4 0 0 1-6.8 41.6c4.5 6.5 9 13 13.4 19.7a834.8 834.8 0 0 0 23.2 32.6c1.5 2.1 4 5.7 5.4 6 1.4.5 1.2 5.2-.6 4.7-2.1-.6-2.8-1.7-3.7-3.2l-.8-1.2a84 84 0 0 0-5.6-7.7l-3.2-4.3c-5.7-7.9-11.2-16-16.7-24l-25.1-37.4c-11.1-1.8-21-6.1-31-11.2-1 1.9-2.8 3-4.6 4l-.6.4a43 43 0 0 1-12.1 5.5c-3.3.8-12.7 3-14.1-1.6-1.3-4.4 3.2-6.8 6.5-8.5l.5-.2c3.5-2 7.2-3.8 11.2-4.4a16 16 0 0 1 3.8 0h.5l-7-4.2-8.8-5.2-5.9-3-5.8-3-.1.7c-.4 2.5-1.8 1.7-2.2 0-1.1 3.5-2.8 6.4-7 7.3-5 1.1-13.1-.1-17.6-3-2.4-1.5-4.4-4-3.6-7 .8-2.9 3.2-3.3 5.7-3.8l1.6-.3-1.4-1.8c-2.5-2.9-5.2-6-4.8-9.2.7-4.4 5.1-2.9 8.4-1.8l.6.2a13 13 0 0 0-.9-2.8c-.8-2.4-1.7-4.7-.3-7.3 1.8-3.5 5.3-2.6 8.3-.8 8.8 5.4 13.4 15 13.5 24.9l6.2 3.1 5.8 3 9 5.2 8 4.8a125.4 125.4 0 0 0 34.6 14.6l-5.2-8c-11-16.9-21.8-34-31.7-51.8-2 3.3-7 2.6-10.7 2l-1.2-.1-2.4-.4c-6.2-.7-15-1.7-18-7.2-.4-1-.6-3.3.6-4 5.4-3.1 14 .3 20.7 2.8l2.1.5c1.8.4 3.6.7 5.3 1.3 0-.3.3-.5.4-.7-4-7.5-8-15.2-11.6-23l-2.2-4.1a28.3 28.3 0 0 1-4.2-10.2c-1.1.2-2.3.7-3.4 1.2-1 .4-1.8.8-2.7 1a20 20 0 0 1-19.9-5.3c-2-2-3.6-5-2.8-8 .8-3.2 3.2-3.4 5.7-3.3l-.8-1.4c-1.4-2.5-2.8-5.1-1.7-8 1.3-3.3 4-1.8 6.5-.4l1.2.6c0-.6 0-1.3-.2-2-.3-2.4-.6-5 1.4-6.3 3.2-2.1 7.2 2.3 9.7 5.6v-.6c-.6-2.5-1.2-5.1 1.4-6.6 2.6-1.6 4.8 1.7 6 3.7 5 7.8 3.4 17 0 25Zm104 66a6 6 0 0 0-3.2 1c.4.2.6.9.7 1.6l1-.6c.6-.6 1-1.3 1.5-2ZM83.7 1000c.3-.5.9-1 1.7-1.6v.9c-.9.2-1.5.4-1.7.7Zm-8.3-66.5h1l.2.5-1.2-.5Zm90-2.9c0-2.1-2-4-2.4-1v.4a26 26 0 0 1-7.7-7l-.2-.2c-2.6-3-4-6-2.1-9.7 1.3-2.6 1.5-2.9 4-1.7l1.3.8a6.5 6.5 0 0 0 2.7 3.2c1.7 1 1.4-3.4 1-4-.3-.9-1-1.8-1.7-2.6-.4-1.6-.2-3.5 1.2-4 1.4-.3 3.4 1.7 4 2.5l.9 1c.5.7 1 1.4 2 1.9.6.4 1.1-.6 1.3-1.1 1.1-4.3 3.2-1.8 4.6.8 2.7 5.3 2.1 10-1.4 14.4-.6.7-1.8 1.5-3.1 2.4-2 1.3-4 2.7-4.4 4Zm-105.1 17c7.1 3.2 11.9 11.4 12.7 19.3l-2.1-1.5c-1.3-1-1.9 3.7-.6 4.6l.9.7c-1.2 3.6-3.3 5.8-7.7 6-3.5 0-7.5-.6-10.7-1.5h-.2l-.2-.1c-1.1-.4-1.8-.6-2.8-1.2l-.5-.2c-1-.6-1.5-.9-1.4-1l.5-.1c.3 0 .9 0 1.5-.3l2.2-.5c1.2-.2 2.4-.4 3.5-1.1 1.2-.7 1-3 .5-4-.7-1.5-2-3-3.4-4.6a25.5 25.5 0 0 1-3.4-4.3c1.5-.3 3.7.6 5.4 1.2l1.8.7c.7.1 1-1.4 1.1-1.8a16 16 0 0 0-.6-4.6c-.8-4-1.7-8 3.5-5.7Zm17.5-54.8-1.1.4a19 19 0 0 1-9.7 1.2 17 17 0 0 1-9-3.7c-.9-.9-3.1-3-1.8-4.2.4-.4 2.2 0 3.3.2l.9.2c1.2 0 1.2-2.4 1-3 0-1.2-.6-2.2-1.2-3.2-.5-.9-1-1.8-1.1-2.7-.6-3.1 1.2-2.1 3-1.1.6.4 1.2.8 1.8 1 .7.2 1.2-.6 1.3-1.2.2-.6.1-2.2 0-3.7v-3c2.5-3.6 7.6 3.7 9.3 6.2l.3.5c.7.9 1.5-.3 1.6-1 .2-.7.3-2 .3-3.3 0-3.3 0-6.8 3-2.8 5 7 1.8 15.4-1.7 22.2l-.2 1Z" fill="#52525B"/>
  <path d="M73.4 781.4c-7 4.8.4 15.9 7.5 11 7-4.7-.4-15.8-7.5-11Zm32.5-79.4c-1.7-.3-3.6 0-5 1a7 7 0 0 0-2.8 4.2l-.5 2.2c-.3 1.7.1 3.6 1 5 1 1.3 2.7 2.6 4.3 2.8 1.7.3 3.6 0 5-1a7 7 0 0 0 2.8-4.3l.5-2.1c.3-1.7-.1-3.6-1-5a6.8 6.8 0 0 0-4.3-2.8Zm46.4 65.9a7 7 0 0 0-5 1l-1.3.9a6.9 6.9 0 0 0-2.8 4.2 6.7 6.7 0 0 0 5.3 7.9 7 7 0 0 0 5-1l1.3-1a6.5 6.5 0 0 0 2.8-4.2c.3-1.6 0-3.7-1-5a6.7 6.7 0 0 0-4.3-2.8Z" fill="#CFA1A1"/>
  <path d="M78.1 735.7c-1.6-.3-3.6 0-5 1a6.7 6.7 0 0 0-2.8 4.3 7 7 0 0 0 1 5l1 1.2a6.2 6.2 0 0 0 4.2 2.8c1.6.4 3.6 0 5-1s2.5-2.5 2.8-4.2a7 7 0 0 0-1-5l-1-1.3a6.9 6.9 0 0 0-4.2-2.8Zm49.2-1.9c-7.1 4.8.3 15.8 7.5 11 7-4.8-.4-15.8-7.5-11Z" fill="#81AD9E"/>
  <path fill-rule="evenodd" clip-rule="evenodd" d="M101.2 699.6c.7-1 1.9-1.8 2.8-2.3 2.3-1.3 5.3-1.9 7.4.2 3.8 3.7 3.2 12.6.3 16.7-1.5 2-3.8 3.6-6.3 4.1-4 12.8-.2 31.4 3 43.6a104 104 0 0 0 6.4 17.1h.6c5.8 2.5 10.1-12.4 11-16 .7-2.6 1-5.1 1.3-7.7l.8-5.8c.1-.4.4-.8.8-1.3-4 .4-8-1.3-9.4-5.7-1.5-4.5 2.7-8.5 6.8-9.7 2-1.3 4.2-2.4 6.7-2 2.8.4 4.7 2.6 5.4 5.2a9.6 9.6 0 0 1-6.6 11.7v.3l-1.1 6.2a52 52 0 0 1-6.2 20.2 23.7 23.7 0 0 1-8.2 8.5 231.7 231.7 0 0 0 13 22.3l1 .1c.6.1.6.8.2 1.6 2.4 3.6 4.9 7 7.5 10.5l.2-.2c9.1-6.5 10.5-18.8 10.1-29.2-5.8.2-8.8-5.4-8.7-10.8.2-5 5.4-8.4 10-7.8 1.6-.5 3.3-.4 4.7.8a12 12 0 0 1 3.3 7.2c.5 4-2 7.9-5.5 9.6.2 12.1-2.8 24.6-12.6 32.5a235 235 0 0 0 12.8 15 148 148 0 0 0 28.2 26.1c1.3.9-1.7 4.7-3.3 3.7a162.3 162.3 0 0 1-32.4-30.8l-.6-.7a215.7 215.7 0 0 1-18-23.6 71.4 71.4 0 0 1-23.4-6 49.2 49.2 0 0 1-19-12.6c-1.1 1-2.5 2-4.1 2.5-12.2 4.8-16.6-18.1-3.8-21 .8-.1 1 .4.8 1 4.3-2.1 8.9-2.4 10.4 3.8.8 3.4.6 7-.7 10 .3-.1.6 0 .7.2 4.7 6.3 15.1 10.9 22.2 13.8 4.6 2 9.2 2.9 13.9 3.5-1.7-2.6-3.3-5.3-4.8-8a141.7 141.7 0 0 1-13.5-30.2c-4.6-.9-8.9-1.7-12.7-4.6-4.2-3.1-8-7-11.1-11.1l-2 1c-5.6 2-9.4-3.2-10.3-8.3-1-5.6 3.2-9.9 8.4-10.7 1.8-1.1 3.9-2 5.8-.6a13 13 0 0 1 4.3 7 10 10 0 0 1-2.5 8.5c2.7 3.5 5.8 6.6 9.2 9.4 3 2.5 6.1 3.7 9.6 4.5-.6-2.3-1-4.7-1.5-7.1-1.8-11-3.9-25-.2-35.8-2-.5-3.4-2.1-4.4-4.1-2.5-4.9-2.4-12.4 3.3-14.7Zm51.1 84.1c.8-.2 1.5-.7 1.9-1.5.5-1.2 0-3-.4-4.2-1-2.6-3-6.3-6.2-4.3-1.2.8-1.6.4-1.6-.3-.8 0-1.8.2-2.2.8-.6.9.3 3.6.6 4.6 1 2.9 2.8 5 5.8 5l.3.1c.8-.5 1.5-.7 1.8-.2Zm-79-7c-3.8 3 1.1 15.4 7.8 12.7 4.4-1.9 4.3-9.8 1.1-12.8-2.3-2.3-5.3-.2-7.5 1.2-1.5 1-1.8.1-1.4-1Zm52.6-40.1h.5c.5-.1 1-.6 1.6-1.1 2.3-1 4.8-1 6.4 1.7a7 7 0 0 1 1 3.8c0 2-1 2.6-2.9 3-2.4.5-5.2.3-7-1.5a7 7 0 0 1-2-3.1c-.4-1.5.3-2.2 1.3-2.5.3 0 .7 0 1.1-.3Zm-42.5 9a6 6 0 0 0 0-5.8 15 15 0 0 0-2.8-3.8c-.7-.6-1.4-.7-2-.6-.5.6-1 1-1.6 1h-.4l-.3.2c-.6.4-1.1.5-1.5.2-.9.3-1.7.8-2 1.6-.4 1.5.4 3.2 1 4.5 1 2.4 2.7 5.5 5.8 5 .5 0 1-.2 1.4-.4.5-1 1.6-1.9 2.4-2Zm17.4-42.5c.9.5 2.8-1.2 3.3-2.6l.4-.1h.5c.7-.2 1.3-.2 2 0 1.4.6 2 2 2.5 3.3a15 15 0 0 1 .3 8.4c-1.5 3.5-5.9 2.7-7.7 0-.8-1.2-1.3-2.5-1.7-3.9-.3-1-1.2-4.6 0-4.9.1 0 .3 0 .4-.2Z" fill="#52525B"/>
  <path d="M73.4 1683.4c-7 4.8.4 15.9 7.5 11 7-4.7-.4-15.8-7.5-11Zm32.5-79.4c-1.7-.3-3.6 0-5 1a7 7 0 0 0-2.8 4.2l-.5 2.2c-.3 1.7.1 3.6 1 5 1 1.3 2.7 2.6 4.3 2.8 1.7.3 3.6 0 5-1a7 7 0 0 0 2.8-4.3l.5-2.1c.3-1.7-.1-3.6-1-5a6.8 6.8 0 0 0-4.3-2.8Zm46.4 65.9a7 7 0 0 0-5 1l-1.3.9a6.8 6.8 0 0 0-2.8 4.2c-.3 1.7 0 3.7 1 5a6.7 6.7 0 0 0 9.3 1.8l1.3-.8a6.8 6.8 0 0 0 1.8-9.3 6.7 6.7 0 0 0-4.3-2.8Z" fill="#F5E38D"/>
  <path d="M78.1 1637.7c-1.6-.3-3.6 0-5 1a6.7 6.7 0 0 0-2.8 4.3 7 7 0 0 0 1 5l1 1.2a6.2 6.2 0 0 0 4.2 2.8c1.6.4 3.6 0 5-1s2.5-2.5 2.8-4.2a7 7 0 0 0-1-5l-1-1.3a6.8 6.8 0 0 0-4.2-2.8Zm49.2-1.9c-7.1 4.8.3 15.8 7.5 11 7-4.8-.4-15.8-7.5-11Z" fill="#81AD9E"/>
  <path fill-rule="evenodd" clip-rule="evenodd" d="M101.2 1601.6c.7-1 1.9-1.8 2.8-2.3 2.3-1.3 5.3-1.9 7.4.2 3.8 3.7 3.2 12.6.3 16.7-1.5 2-3.8 3.6-6.3 4.1-4 12.8-.2 31.4 3 43.5 1.6 6 3.9 11.7 6.4 17.2h.6c5.8 2.5 10.1-12.4 11-16 .7-2.6 1-5.1 1.3-7.7l.8-5.8c.1-.4.4-.8.8-1.3-4 .4-8-1.3-9.4-5.7-1.5-4.5 2.7-8.5 6.8-9.7 2-1.3 4.2-2.4 6.7-2 2.8.4 4.7 2.6 5.4 5.2a9.6 9.6 0 0 1-6.6 11.7v.3l-1.1 6.2a52 52 0 0 1-6.2 20.2 23.7 23.7 0 0 1-8.2 8.4 232.5 232.5 0 0 0 13 22.4l1 .1c.6.1.6.8.2 1.6 2.4 3.6 4.9 7 7.5 10.5l.2-.2c9.1-6.5 10.5-18.8 10.1-29.2-5.8.2-8.8-5.4-8.7-10.8.2-5 5.4-8.4 10-7.8 1.6-.5 3.3-.4 4.7.8a12 12 0 0 1 3.3 7.2c.5 4-2 7.9-5.5 9.6.2 12.1-2.8 24.6-12.6 32.5 3.8 4.8 7.7 9.5 11.9 14l.9 1c8.5 9.4 17.5 19.3 28.2 26.1 1.3.9-1.7 4.7-3.3 3.7a162.3 162.3 0 0 1-32.4-30.8l-.6-.7a214.9 214.9 0 0 1-18-23.6 71.4 71.4 0 0 1-23.4-6c-6.5-3-14.8-6.8-19-12.4v-.2a13 13 0 0 1-4.1 2.6c-12.2 4.7-16.6-18.2-3.8-21 .8-.2 1 .3.8 1 4.3-2.2 8.9-2.5 10.4 3.7.8 3.4.6 7-.7 10 .3-.1.6 0 .7.2 4.7 6.3 15.1 10.9 22.2 13.8a56 56 0 0 0 13.9 3.5 247 247 0 0 1-4.8-8 141.9 141.9 0 0 1-13.5-30.2c-4.6-.9-8.9-1.7-12.7-4.6-4.2-3.1-8-7-11.1-11.1l-2 1c-5.6 2-9.4-3.2-10.3-8.3-1-5.6 3.2-9.9 8.4-10.7 1.8-1.1 3.9-2 5.8-.6a13 13 0 0 1 4.3 7 10 10 0 0 1-2.5 8.5 60 60 0 0 0 9.2 9.4c3 2.5 6.1 3.7 9.6 4.5-.6-2.3-1-4.7-1.5-7.1-1.8-11-3.9-25-.2-35.8-2-.6-3.4-2.1-4.4-4.1-2.5-4.8-2.4-12.4 3.3-14.7Zm51.1 84.1c.8-.2 1.5-.7 1.9-1.5.5-1.2 0-3-.4-4.2-1-2.6-3-6.3-6.2-4.3-1.2.8-1.6.4-1.6-.3-.8 0-1.8.3-2.2.8-.6.9.3 3.6.6 4.6 1 2.9 2.8 5 5.8 5l.3.1c.8-.5 1.5-.7 1.8-.2Zm-79-7c-3.8 3 1.1 15.4 7.8 12.7 4.4-1.9 4.3-9.8 1.1-12.8-2.3-2.3-5.3-.2-7.5 1.2-1.5 1-1.8.1-1.4-1Zm52.6-40.1h.5c.5-.1 1-.6 1.6-1.1 2.3-1 4.8-1 6.4 1.7a7 7 0 0 1 1 3.8c0 2-1 2.6-2.9 3-2.4.5-5.2.3-7-1.5-.9-.8-1.7-2-2-3.2-.4-1.4.3-2 1.3-2.4.3 0 .7 0 1.1-.3Zm-42.5 9a6 6 0 0 0 0-5.8 15 15 0 0 0-2.8-3.8c-.7-.6-1.4-.7-2-.6-.5.6-1 1-1.6 1h-.4l-.3.2c-.6.4-1.1.5-1.5.2-.9.3-1.7.8-2 1.6-.4 1.5.4 3.2 1 4.5 1 2.4 2.7 5.5 5.8 5 .5 0 1-.2 1.4-.4.5-1 1.6-1.9 2.4-2Zm17.4-42.4c.9.4 2.8-1.3 3.3-2.7l.4-.1h.5c.7-.2 1.3-.2 2 0 1.4.6 2 2 2.5 3.3a15 15 0 0 1 .3 8.4c-1.5 3.6-5.9 2.7-7.7 0-.8-1.2-1.3-2.5-1.7-3.9-.3-1-1.2-4.6 0-4.9l.4-.1Z" fill="#52525B"/>
  <path d="M290.8 687.1c-8.6 0-8.6 13.4 0 13.4s8.6-13.4 0-13.4Zm35.7 33a6.7 6.7 0 0 0-4.7-2 7 7 0 0 0-4.7 2l-1.5 1.5c-1.3 1.3-2 3-2 4.8 0 1.6.7 3.6 2 4.7 1.2 1.1 2.9 2 4.7 2a7 7 0 0 0 4.7-2l1.5-1.6a6.5 6.5 0 0 0 0-9.4Zm6.2 67.9c-8.6 0-8.6 13.2 0 13.2s8.6-13.3 0-13.3Z" fill="#CFA1A1"/>
  <path d="M266 679.4c-8.6 0-8.6 13.3 0 13.3s8.6-13.3 0-13.3Zm48 85.3c-8.5 0-8.5 13.3 0 13.3 8.7 0 8.7-13.3 0-13.3Z" fill="#81AD9E"/>
  <path fill-rule="evenodd" clip-rule="evenodd" d="M265.1 690.2h1.3c0 8.6 1.8 17.3 3.7 25.9l2 9.5.6 3.4c1 6.2 2.1 12.6 6.4 17.3-1.9 3.8-3 8.7-3.9 13.2l-1.4 6a335.7 335.7 0 0 1-14.3 40.5l-2.7 6c-4.7 11-9.6 22.3-15.7 32.4-.7 1.2 3.2 1.4 4 .2 5.4-9 9.8-19 14-28.8l3-6.7 2.1-4.8c1.6-2.3 5.3-4.9 8-6.8l2-1.5 6.1-4.4c6.8.6 13.6.3 20.4-.1a120 120 0 0 1 23 .1l-.6 1.5v.1c-.4 1.3-1 3-.4 4.3.7 1.6 3 2.5 4.7 2.9 2 .5 4.2.5 6-.6 2-1.1 3.2-4.1 4-6 2-5.1-2-7.3-6.3-8-1.2-.3-3.3.7-2.9 1.4a5.8 5.8 0 0 0-3.4 2.4 135.8 135.8 0 0 0-29.7-.5c-4 .4-8 .7-12 .5l4-2.7c7.1-5 14.2-9.3 21.6-13.2a6 6 0 0 0 2.6 1.9c4.9 2 8.7-.6 11.3-4.6 1-1.4 1.7-3.4 1.1-5-.7-2.1-3-2.6-4.9-2.7h-.2c-2.4-3.5-6.9.8-8.4 3a9.8 9.8 0 0 0-2.1 5 204 204 0 0 0-25.2 15.3 146 146 0 0 1-6 3.9c-3.2 2-6.7 4.2-9.7 6.6a312.7 312.7 0 0 0 11.3-34l3.5-12 .4-1.2 1-2.9.5-.3c.8-.5.6-.8 0-1.1 1.2-2.5 1.3-2.4 1.7-2.2.3 0 .7.3 1.8-.6 4.7-3.9 10-7.2 15.4-10.4a148 148 0 0 0 7.8-4.9l.4.6c1.1 1.3 3 1.6 4.6 2-.5 1 3.3 1.2 4 0 .7-1 1.7-1.7 2.6-2.3.9-.6 1.7-1.2 2.4-2 1.2-1.6 1.2-3.6.5-5.5-1.4-4.2-6.2-6-10.4-5.4-4 .6-5.3 4.3-5.2 8 0 .7 0 1.4.2 2.1a217 217 0 0 1-20.6 13.1c-2.3 1.2-4.7 2.3-6.4 3.6-.6.4-1 1-1.5 1.4-3.4-5-4.4-12-5.3-18.5v-.3c.2 0 .5-.1.7-.3 2.8-2.7 5-6.2 7.2-9.6l1-1.8c1.2-1.6 2-3.6 2.9-5.6.8-2 1.6-3.8 2.5-5.5 2.7.2 5-.9 6.6-3.6 1.6-2.7 2-6.2-1.2-7-2.9-4.2-9-4.6-11.9 0-1 1.7-2.1 4.6-1.4 6.6.6 1.8 2.7 2.7 4.4 3.3-.9 1.5-1.6 3.1-2.2 4.7-.6 1.3-1.1 2.6-1.8 3.8a69 69 0 0 1-7.4 11.5 68.2 68.2 0 0 0-1.7-8.3c-1.5-7.2-3-14.5-3.1-21.8h1.2c.8 0 2 0 2.5-.9 1.5-3 2.2-8.5-.1-11.3-2.9-3.3-7.6-3-11.2-1-3.3 1.9-5.5 5-4.8 9.1.6 3.8 4 3.7 7 3.6Zm48.8 35c.2 0 .3-.1.5-.3 1-.7.3-1.2-.8-1.4v-.4c-.2-2.6.2-7.3 4-5.9 2.8 1 5.1 5 3.4 7.8-.6 1-1.6 1.8-2.6 2.5l-.9.6c-1.2-.2-2.2-.4-2.9-1.3-.3-.4-.5-1-.7-1.5Zm-51.8-39.6c.2 2.7 2.3 2.7 4.5 2.6.7-1.1 4-1.2 3.9 0v.7c.8-2 1.1-4.6 1-6.6a4.7 4.7 0 0 0-1.8-3.4c-1.7-1.3-3.5-.5-5 .5a6.8 6.8 0 0 0-2.6 6.2Zm30.3 12.7c-.4-.7-3.1-.8-3.8 0-.2 0-.3.2-.4.3a4 4 0 0 1-1.5-1c-.8-1-.6-2.2-.3-3.3.3-1.3.8-2.8 1.7-3.8 1.5-1.8 3.1.5 4 1.8.1.4.8.6 1.5.6 1.2.1 0 3.5-.3 4l-1 1.4ZM312 772l2.4-1.2c2.3-1-.6-2.1-2-1.6l.7-1.4a25.8 25.8 0 0 1 2-2.6s0-.2.2-.2c.4.1.9.2 1.4.1l1.2.3c2.5 0 2 3 1.1 4.7a14 14 0 0 1-2 2.7l-.2.2c-1 1.2-2 1.5-3.5.6-.7-.5-1.1-1-1.3-1.6Zm16.8 17.2c1 .3 2.3-.3 2.8-.9 1.3.6 2.2 1.5 2.2 3.3 0 1.4-.8 2.7-1.5 4l-.4.6-.3.7c-.6 1-1 2-2.5 1.5-2.6-.8-3-2.1-2.3-4.5a14.9 14.9 0 0 1 1.7-4c.2-.4.4-.5.6-.5l-.2-.1Z" fill="#52525B"/>
</svg>
