<svg fill="none" xmlns="http://www.w3.org/2000/svg" viewBox="0 0 1400 520">
  <path d="M525.6 82.2c-3.8 9.5-3.3 20-4.4 30.2-1.2 10.1-5 21-13.8 26-4.5 2.4-10 3.2-13.3 7-2.2 2.6-3 6.1-3.1 9.5-.1 11.6 8.3 21.7 18 28 9.8 6.3 21.1 9.8 31.4 15.3 9.8 5.2 18.6 12.2 28 18 15.6 9.6 33.8 16.3 51.8 14 18.1-2.4 35.5-15.6 38.6-33.5 1.1-6.3.5-12.8 1.9-19 2.5-10.8 11-19.3 14.8-29.7 3-8 3-16.6 2.3-25A72.5 72.5 0 0 0 667 89.4a80.6 80.6 0 0 0-19-19 104.3 104.3 0 0 0-51.4-22.3A62 62 0 0 0 554.9 59c-10 7-24.4 11.2-29.3 23.3Z" fill="#CFA1A1"/>
  <path fill-rule="evenodd" clip-rule="evenodd" d="M570 52.1c7.1-6.1 15.5-6.2 24.3-5.3l3.9.1c3.4 0 6.6 0 9.8 2.4 1.1.7 2.2 1.7 3.3 2.7l.4.4c-4.9 0-9.6 1-14 2.7l-1-.1a67 67 0 0 0-16.2 2.8 45.1 45.1 0 0 0-10.5-5.7Zm45.2-2.3 3.3 3c2.5.3 4.8 1 7 2.3 1.6 1 2.5 2 3.4 3.3l1.3 1.4.4 1c0 .5.2.9.4 1.1 2 2.2 6.8 3.3 9.5 3.8 9.8 1.9 19.1 4.3 23.8 14 1.8 3.8 2.3 7.5 2.7 11.2a54 54 0 0 0 1.2 7.1c1.1 4.2 3.6 6.2 6.3 8.3 1.8 1.4 3.7 3 5.2 5.2 2.8 4.2 3.7 9.8 3.6 15.5 4.8 8.6 3.8 18 2.8 27.3l-.8 8.8a15.6 15.6 0 0 1-10.2 14.4 30 30 0 0 1 .5 20.5c-2.5 8.1-7.8 9.3-14.9 9.2l-.5 3.6c-.2 1.5-.3 2.9-.6 3.6-.8 2-1.9 3.4-3.2 5a30.4 30.4 0 0 1-25.3 9.2c-2-.3-4.2-1.2-6.3-2.2-3-1.3-6.1-2.7-9-2-2.4.6-4.3 2-6.2 3.4a17.1 17.1 0 0 1-7.2 3.8 26 26 0 0 1-12.7-1.4c-9.8-3.6-13.7-11.8-13.4-21.5l-2.3 1.2c-1.8.9-3.5 1.8-5.3 2.5a52 52 0 0 1-15.1 3c-9 .5-21.4-1-25.8-10.7-.9-2-.8-4.2-.8-6.4v-1.8c0-5.2-1.5-6.8-6.3-9l-5.8-2.2c-3.5-1.2-7-2.4-10-4.6-10-6.8-11.8-16.9-10.2-28.3a40.3 40.3 0 0 1 16.7-28c2.2-1.6 4.8-3 7.3-4.3-7.2-6.3-8-15.8-2.1-23.1 3.6-4.6 3.8-8.9 4-13.6 0-2.3.1-4.7.6-7.3.8-4 2.5-8 5.8-10.7a39 39 0 0 1 12.9-6c2.6-.7 4.8-2.2 7-3.7 2-1.3 4-2.7 6.3-3.5a23 23 0 0 1 13.3-1.1 34.8 34.8 0 0 1 23.2-8c1.9 0 3.7.3 5.5.5l5.7.7h2c2 0 4 0 5.6.6 2.6 1 4.6 3 6.7 4.9ZM674 175.4c6-1.6 6.3-9.5 6.4-15.5 0-1.7.1-3.2.3-4.4l.2-1.5a61 61 0 0 0 .8-16.4c-.8 3-1.8 5.6-2.9 8a37.4 37.4 0 0 1-5.1 7 28.9 28.9 0 0 0-6 9c-.5 1.6-.4 3.4-.3 5.2l.1 2c2.8 1.6 5 3.9 6.5 6.6Zm4.7-48c-.2.3-.3.6-.1.9v.2c-.3 9-4.4 18.5-9.4 24.8l-1.8 2.3c-2.4 2.8-4.1 4.8-4.6 9.2l-.3 3.2-.2 1.4c-.2.3-.2.5 0 .7-.5 4.6-1.3 8.5-4.5 13.4a34.7 34.7 0 0 1-20 13.7 19.4 19.4 0 0 1-8.6.7 53 53 0 0 1-4.3-.9 21 21 0 0 0-6.1-.6c-1.3 0-3 .4-4.5.7-2 .4-3.9.8-5.4.7-3.5-.3-6-1.9-8.8-3.6l-.3-.3c-1.1-.7-2-1.5-3-2.5l2.5.2c7.7.4 14.7-3.2 18.5-10.3 2.3-4 2.3-8.4 2.3-12.9 1.8 1 3.7 1.7 5.7 2 7 1.2 13-1.8 18.3-5.8 2.8-2.1 6.1-3.3 9.4-4.6 4.6-1.7 9.2-3.4 12.7-7.5 4.9-5.9 6.3-18.2-.8-23.1-2.6-1.8-5.6-2-8.6-2.4h-.6a266.1 266.1 0 0 1-1.8-.2c-3.2-.1-7.9-.4-9-3.6-.5-1.6.6-4 1.5-6l.9-2.2c2.6-8.2-1-14.4-8.9-17a43 43 0 0 0-14.8-2.6c-2.3 0-4.6.4-6.9.8h-.4l-.3.1-.9.2c-3.3.5-3.5.6-4.3-3.3-1.3-7.2-2.4-12-10.7-12a24 24 0 0 0-14.1 4.7l-.6.2a32 32 0 0 0-6.7 3.5l-2.6 1.5-.2-.4c-3.6-3.9 2.4-15.7 4.3-18.6a41.8 41.8 0 0 1 19-15.1c6.8-2.7 19.8-4 25 2.9 1 1.3 1.5 2.4 2 3.4.8 1.8 1.4 3 4.7 4.2 2.6 1 5.3 1.2 8 1.5 3.1.3 6.3.6 9.4 2 7 3 11 8.5 13 15.6.6 2.2.7 4.6.9 7 .2 3.2.4 6.5 2 9.4 1.1 2.4 3.2 4 5.3 5.6a19 19 0 0 1 5 4.8c2.7 4.1 3.8 9 3.7 14ZM672 192c.5-6.7-.4-13.9-5.1-18.6a38.5 38.5 0 0 1-25.3 25.2c-4 1.4-8 2-11.8 2.2l-.4 1.5c-.3 1-.6 2.1-1 2.9-1.3 2-2.9 3.7-4.8 5-3 2-7.4 3-11 3.4-6.3.5-13.8.7-19.8-1.4-2-.7-4-1.6-5.5-2.9a25 25 0 0 1-2.6-4.5c-.4-.1-2.1.7-3.8 1.5l.1.6c-.5 8.4 2 15.9 10 20a18 18 0 0 0 14.6.9 24 24 0 0 0 5-3.2c1.5-1.1 3-2.2 4.7-3 2.1-1 4.2-1.8 6.6-1.1 1 .2 1.7.8 2.5 1.5l1.3 1c4.9 2.9 9.9 4 15.7 2.5 6-1.5 12.8-6.3 14.1-12.7.2-.6.1-1.5 0-2.4 0-1.1 0-2.3.3-3.1.7-1.8 2-2.3 3.6-2.8a8 8 0 0 1 3.8 0c1.8.2 3.6.5 5.8-1.7 2.4-2.3 2.8-7.7 3-10.8Zm-46.5 9v-.1l-6.6-.3c-3.4-.1-7-.3-10.7-.2-5.1.2-8.9-2-13.1-4.8-1.7-1-3-2.7-4.5-4.4l-1.8-2.1-1.5-.8c-1.6-.9-2.8-2.2-4-3.5-1.1-1.2-2.2-2.4-3.5-3.2-3.3-2-8 .5-12.5 3-3.2 1.7-6.4 3.5-9.2 3.7-7 .7-16.2-2.4-19.3-9.3-3-6.6.5-14.8 5.3-19.7 1.2-1.2 2.6-2.4 4-3.5 2.4-1.9 4.7-3.8 6.3-6.2 4.5-7-.9-10.9-6.2-14.6-7-4.8-10.6-11.3-7.6-19.7a29 29 0 0 1 17-17.2c2.5-1.1 5.2-1.9 7.9-2.7 2.5-.7 5-1.4 7.4-2.4-.3 0-.6-.2-.8-.4-2.5-2.7-1-8 0-11.5l.3-1c1.7-5.9 5.6-11 10-15.1a50 50 0 0 1 9.5-7.1c-8.3.9-15.7 4-23.4 7.3l-.3.1c-6.8 2.9-13 5.6-17.5 11.7-4 5.5-5.7 11.6-7.4 17.7a75.2 75.2 0 0 1-4 12.2c-3.2 6.6-9.5 10-15.7 13.3a87.7 87.7 0 0 0-6.8 3.9 39 39 0 0 0-17.8 30.6c-1.2 13.5 4.6 22.6 17.2 27.6l4.8 1.5c5.3 1.4 10.2 2.8 10.8 8.9l.3 4.1c.2 4.8.3 8 5.3 12 6.4 5 15.3 4.5 22.9 3.3 5.6-1 11.2-3.7 16.5-6.3l3.2-1.6 1.3-.6c2-1 3.4-1.7 5.9-1.7.6 0 1.1.2 1.4.7 4.5 8.5 13 8.7 21.7 8.3 7.8-.3 11.9-1.6 14.8-8.4l.4-1.5Zm-107.3-90c.9 3.2 2.3 5 4.6 7 3-1.7 6-3.6 8.6-6 3.8-3.8 5.2-9.7 6.5-15.3.6-2.7 1.3-5.4 2.2-7.7a38.2 38.2 0 0 1 18.7-22.3c5.5-2.7 11.1-5.3 16.9-7.3-6.6-4.6-13.1-7.6-21.3-4.2-2 .8-3.6 2-5.3 3-1.5 1-3 2.1-4.8 3l-5 1.9c-6.7 2.3-12.3 4.4-13.5 13.4-.3 2.1-.2 4.4-.1 6.6.2 4.5.5 9-2.6 12.3-4.7 5-6.9 8.8-5 15.7Zm74.5 75.9a12.8 12.8 0 0 0-3.7-2.8l-1.9-2-3-2.9-1-1c-.4-.4-.5-.6-2.2-.9-3.7-.5-7.8 1.8-11.4 3.8-1.4.8-2.7 1.5-3.9 2-18.4 8.2-30.3-10.5-17.1-23.6 1.1-1.2 2.5-2.3 3.9-3.4 3.4-2.7 6.8-5.6 8-9.8 2-6.5-2.2-9.3-6.6-12.2-1.4-1-2.8-1.9-4-3-11.8-10-2.3-26 9.6-31a55 55 0 0 1 7.2-2.4c2.6-.7 5.2-1.4 7.6-2.5a42.8 42.8 0 0 0 6.2-3.6c-1 1.3-2 2.6-2.8 4-3.9 6.3-6 20.8 1 26.3a24 24 0 0 0-5.2 6.3c-2.7 5.2-.2 9.3 2.9 13.9a13 13 0 0 0 6.3 5.5c1.4.6 2.3.7 3.1.8 1.9.3 2.4.4 3.8 5.6l.5 2.5c.2 1.7.4 3 2 4.8a15 15 0 0 0 7.5 4.3c6.5 1.8 10.6-.9 13.6-5.1v.1l.9 1.7c-.6.5-.7 1 .5 1.3l.4.2a8 8 0 0 0 .5.6c1.5 3-.6 13.4-1.3 15.2a14.5 14.5 0 0 1-16.8 9c-1.8-.5-3.3-1-4.6-1.7Zm18.3-30c-.4.8-.6 1.3-.2.8-3 5-9 7-13.8 2.5-2.3-2.3-2.2-4.6-2-7 0-1.7.1-3.4-.8-5-.8-1.6-1.3-1.7-2.2-1.9-.4 0-.9-.2-1.5-.4a19 19 0 0 0-3.2-1 8.9 8.9 0 0 1-6-3.7 21.2 21.2 0 0 1-4.1-7.2c-.6-2.8 0-5.2 1.7-7.5.4-.5 1.8-2 3.3-3.4 1.5-.4 3.2-1.4 2.4-2.1.7-.5 1.3-.9 1.7-.9 2 0 3.2 2.7 4.3 5 .6 1.2 1 2.3 1.6 3 3.1 4 6 3.9 10 3.6-3.5 4.2-3.6 6.4 0 12.6l.7 1.2c1.6 3 3.5 6.3 6 8.6-.5.5-.6 1 0 1.2.9.3 1.5.8 2.1 1.5Zm6.1.1 1.5 2.5c1.6 2.9 3.2 5.8 6.3 7.2 6.2 2.9 10.2.2 14.5-2.7a24.2 24.2 0 0 1 9.8-4.6c1.8-.5 3.6-1 5.3-1.8 7.5-3.6 12-10 10.6-18.4-1.1-7.8-6.5-9-13.5-9.7l-1.5-.2c-4-.3-8.4-.7-9.4-4.9-.5-2.3.6-4.6 1.6-7 .6-1.3 1.2-2.7 1.5-4 1.2-6.6-2-10.6-8-13a38 38 0 0 0-20-1.5l-1.5.4c-2 .4-4.4 1-6 0-1.4-.7-1.5-1.6-1.6-3l-.1-.8c-.2-.8-.2-1.7-.2-2.6 0-1.5 0-3-.5-4.3-2.8-7.6-12.5-4.1-17.3-.7a24.4 24.4 0 0 0-9.5 17.6c-.1 2.7 0 7 1.2 10.4 5.7-6.9 19.5-8.5 26-3.3 2.4 1.9 3.5 4.1 4 7l.5 3.3c.3 4 .7 7 6 8.7 1.4.4 3.1.8 5 1.1 5 1.1 11.2 2.4 13.6 6 6.1 9.3-9.8 17.5-18.3 18.3Zm0-3.8a10 10 0 0 0 1.7-.7c2.4 1 4.5.7 6.2-.7 6.6-3.1 9.1-10.1 2.1-13.8-2.5-1.3-5.5-2-8.4-2.7l-3.9-1c-3.2-.9-5.7-1.7-7.3-3.7-5.4 6-2.4 10.2 1.4 15.5l.3.5.7 1.1c.8 1.1 1.6 2.4 2.5 3.2.2.5.4.9.7 1.2v.1c1.2-1.3 5.1-1.6 4.5-.2l-.5 1.2ZM606.5 129l-1.8.1c-2.7.2-5.1.4-7.6-2a9 9 0 0 1-2.2-4.4c-.3-1.1-.6-2.3-1.4-3.3-1.9-2.7-5.2-3-8-1.9l-2.4 1.1c2.2-5 10.1-6.6 14.6-5.9 7.1 1.2 7.6 7.3 8.1 13v.2l.7 3.1Z" fill="#52525B"/>
  <path d="M1218.9 327a76.6 76.6 0 0 1 18.1-13.6 217 217 0 0 1 62.6-24l-9.3 29c-5.8 18-13 38-29.7 47-12 6.6-34.6 11.4-46.8 3.1-14.3-9.6-4-31.9 5-41.6Z" fill="#CFA1A1"/>
  <path d="M1249 221.4a6.8 6.8 0 0 0-2.7-4.3 6.8 6.8 0 0 0-5-1.1 7 7 0 0 0-4.3 2.7l-.8 1.2a7 7 0 0 0-1 5 6.8 6.8 0 0 0 2.6 4.2 7 7 0 0 0 5 1.2 7 7 0 0 0 4.3-2.8l.8-1.1c1-1.4 1.4-3.3 1.2-5Zm29-12-.3-2a6.9 6.9 0 0 0-2.7-4.3 6.8 6.8 0 0 0-5-1.1 6.7 6.7 0 0 0-4.3 2.7 7 7 0 0 0-1.1 5l.3 2a6.9 6.9 0 0 0 2.8 4.2c1.3 1 3.3 1.5 5 1.2a6.7 6.7 0 0 0 4.3-2.8 7 7 0 0 0 1-5Zm12.4 30.2c-7-5-14.8 6-7.7 10.9 7 5 14.7-6 7.7-11Zm62.8 21a6.7 6.7 0 0 0-2.8-4.3 6.8 6.8 0 0 0-5-1.2 7 7 0 0 0-4.3 2.8l-.8 1.1a7 7 0 0 0-1 5 6.8 6.8 0 0 0 2.7 4.3c1.4 1 3.2 1.5 5 1.1a7 7 0 0 0 4.2-2.7l.8-1.2c1-1.4 1.5-3.3 1.2-5Zm3.8 73.8c-7-5-14.8 6-7.7 10.9 7 5 14.7-6 7.7-11Z" fill="#81AD9E"/>
  <path fill-rule="evenodd" clip-rule="evenodd" d="M1239.8 300.4c2-8.8-.1-17.2-2.5-26.4a101 101 0 0 0-7.9-19.1 395.8 395.8 0 0 1-3.3-7 46.4 46.4 0 0 0-10.2-15.7c-.4-.4-3-2.1-3.4-.8a145 145 0 0 0-4.1 17c-1.5 7.6-3 15.1-5.9 22.4-1.9 4.7-4.5 9.3-7 13.9a73 73 0 0 0-9.7 22.8c-3.6 20.9 8.2 40.1 23.2 53.4a389.4 389.4 0 0 0-36 38.6l-1 1c-11 13-23.2 30-26.5 47.1-.3 1.4 3.8 3.4 4.1 1.6 3.2-16.7 15.6-33.8 26.4-46.4l.8-1a390.8 390.8 0 0 1 33.9-36.6 81 81 0 0 0 21.6 14.7l.3.2c10 5.3 22 8.4 33.3 8.5 13 .1 25.3-3.6 36.6-9.8 3.1-1.6 6.1-3.5 9-5.3 12-7.4 23.4-14.4 38.8-8.9 2 .7 2.5-.6 1-1.9a104.4 104.4 0 0 0-45-22.5c-6.5-1.5-13.2-2-19.8-1.5-4.3.3-8.3 1.2-12.3 2.5l-.3-.4c.3.4 4.8-1.8 11.1-4.8 10.1-4.9 24.8-12 33.5-14l.6.1c4.3 2.8 8.5 2.7 12.4-1.6 3.7-4 4.8-9-1-11.3-5-2-16.9 2-15.6 8.8 0 .2 0 .5.2.7a71 71 0 0 0-15.2 5.1l-.3.1a297.8 297.8 0 0 0-23.1 11h-.2a125 125 0 0 0 13.5-24.7c1.8-4.6 2.8-9.5 3.9-14.4 1-4.6 1.9-9.2 3.5-13.5l2-2c.5-.4.2-1.1-.4-1.7a28 28 0 0 1 3.3-5c.9-1.1-2.8-3.4-3.7-2.5a97 97 0 0 1-29.4 17l-6 2.6c-5.2 2.4-10.3 4.7-15.3 7.2 2.8-3.4 5.4-7 8-10.8l2.3-3c3.3-3.8 7.6-9 5.5-13 .7-1.8 1.9-3.7 3.1-5.6 3.4-5.5 7.3-11.7 2.8-16.7-3.6-4.1-7.7-2.5-10.7 1-5.4 6.2-6.1 11.7-2.2 18.4.4.8.9 1.4 1.3 2 1.2 1.8 1.7 2.5.2 5.7-1 2.2-2.6 4.2-4.2 6.2l-2 2.8c-3.8 5.4-7.5 10.6-12 15.5Zm20.4-32.6 1.2-1.6 1.7-2.2c1.9-3.4 7-16.5-1.2-11-4.8 3.1-4.3 10.7-1.7 14.8Zm-52.8 88.2c-5.6-15.4 7.1-35.4 18.6-44.5 2.4-2 5-3.7 7.5-5.4-.2-.4-.3-.7-.1-1 5.4-11 2.8-20.8 0-32h-.1c-1.8-7-4.7-12.8-8-19.1l-2.4-5.3c-2-4.5-4.2-9.2-7.2-13-1.3 4.6-2.1 9.3-3 14-1 5.6-2.1 11.2-3.9 16.6-2.3 7.4-5.9 14-9.5 20.6l-5 9.5c-10.4 21.4-2.4 43.8 13.1 59.6Zm62.6-13 1.3-1.6 1.3.5-.4.2-2.2.9Zm54.3-23.8 1 .5c2.4-.8 4.7-2.3 4.6-4.3-1.2-3.5-2.9-4.4-5.2-2.4-2.8.6-3.6 2.5-2.3 5.7.7 0 1.3.3 2 .5ZM1217 358.4c-.2-.2-.4-.5-.8-.7.4-4.8 2.4-9.3 4.4-13.7l2-4.6a53 53 0 0 1 19-22.7c8-6 16.6-10.7 25.2-15.5l7-3.9-1.4 1.8a215.7 215.7 0 0 1-30.2 31.2c-4 3.4-8.1 6.8-11.6 10.8a71 71 0 0 0-8.5 13.2l-4.6 7.9-1-.2 1.4-1.4c.7-.6 0-1.5-.9-2.2Zm63.5-62.1-1 2.4a94.8 94.8 0 0 1-14.7 28.4 134 134 0 0 1-23.7 22.7l-1.5 1.2a72.2 72.2 0 0 1-16.7 11c1.2-1.8 2.2-3.7 3.3-5.6 3.2-5.6 6.4-11.3 11.1-16 3-3 6.3-5.8 9.6-8.6 3.7-3.2 7.4-6.5 11-10a351.6 351.6 0 0 0 22.6-25.5Zm-64.1 46.4a34 34 0 0 0-4.3 15.5c-4-9.9.5-24.2 5.8-32 6-9 15.4-15.3 24.6-20.8a220 220 0 0 1 24.3-12.1l6.3-2.9 3.4-1.5 9.6-4.5-1.2 1-1.5 1.2c-6.3 4.3-13 8-19.8 11.7A168.2 168.2 0 0 0 1233 318a50.7 50.7 0 0 0-14.8 20.5l-1.8 4.1Zm-2 22.3h.4c.7.8 2.2 1.4 2.6 1.4 1 0 2.1 0 3.2-.2 1.2.4 2.5.6 4 .6 4.5 0 9.2-1.2 13.5-2.3l.5-.1a64.5 64.5 0 0 0 28.6-18.6l.4.2c2.4.7 4.8-.2 7.2-1l1.6-.6a54.6 54.6 0 0 1 20.3-2.8c17 .9 34.7 8.5 48.3 18.9a33 33 0 0 0-20.5 1.4c-6.5 2.4-12.3 6-18.2 9.8-4.4 2.8-8.8 5.7-13.5 8a65.7 65.7 0 0 1-47.9 2.7c-.8-.2-26.8-12.6-30.5-17.4Zm20.4-5.3-4.5 2.7c17.7-2.5 34-16.1 43.2-31.3 6-10 12.2-20.6 15.3-32 .7-2.4 1.2-5 1.7-7.6l.8-3.5a31.4 31.4 0 0 0-9.2 16.2 57 57 0 0 1-2.5 7.3 104.2 104.2 0 0 1-20 27.8 121 121 0 0 1-24.1 20l-.4.2-.3.2Z" fill="#52525B"/>
  <path d="M869.6 245.5c-6.6 6.4-8 16.7-6 25.7s7 16.8 12 24.6a57.3 57.3 0 0 0-35.5-10.4c-8 .5-17 4-19.1 11.9-1.5 5.8 1.7 12.1 6.6 15.6 5 3.4 11.2 4.5 17.2 4.5 6.7 0 14-1.5 18.3-6.8-6.3 4.4-9 12.5-9 20.2a24 24 0 0 0 6 16.4c4.3 4.3 11.3 6 16.5 3 4.6-2.5 6.8-7.7 8.3-12.7a98 98 0 0 0 4.3-29.9c-1.6 10.8 0 22.9 8 30.3 8 7.3 23.2 6.6 27.7-3.3a17.8 17.8 0 0 0-2-16.5c-3-5-7.9-8.5-12.8-11.4a85 85 0 0 0-16.6-7.4c11.4 3.7 30.2-3 33.4-15.8 4.3-17-24.8-20.5-30-7.3 6.4-16.5-7.3-50-27.3-30.7Z" fill="#81AD9E"/>
  <path fill-rule="evenodd" clip-rule="evenodd" d="m881.8 293 1.9-1.4c2.2-3.1 5.1-6.4 8.5-9.6 2.7-4 4.7-9 4.7-13.8 0-8.1-2.7-19-9-24.5-7.8-6.5-16.4.3-20.6 7.3a23 23 0 0 0-4.3 15.3 40 40 0 0 0 9.7 24.7l2.1-.5c-.2-3.6.2-7.5.5-11.2l.5-6.4c.1-3.3 0-6.5-.2-9.7-.2-3.8-.3-7.5 0-11.3 0-1.3 4.4-2 4.3-.7v.9c-.2 4 0 8 0 11.9.2 3.5.4 7.1.2 10.7l-.3 5.4c-.4 3.7-.7 7.6-.4 11.2 1 .4 1.8 1 2.4 1.6Zm-12.2 12.3c-1-.8-1.6-2.1-1.6-3.6h-.2a21.5 21.5 0 0 1-8.3 8 52.1 52.1 0 0 0-9.6 18c-2.7 9.5-2.2 23.6 10.6 25 12 1.3 14.9-20 15.2-28.3 0-3-.4-10.9-2.3-16.5a310 310 0 0 1-5 16.4 32 32 0 0 1-10.8 16.5c-1.1.9-5.5.7-3.5-.9 6.7-5 9.4-12.7 11.3-20.5.8-3.1 1.8-6.2 2.7-9.2l1.5-5Zm7.5 1h.5-.4Zm1-.2a9 9 0 0 0 1.5-.5l.2.7c-.4-.3-1-.3-1.6-.2Zm-19.8-11c2.6.6 5.3.8 8 .8a3 3 0 0 1 1.2-.9c-3.3-8.8-11.3-13-20.3-14.3-5.7-.9-11.1-1.6-16.7 1.1-4.6 2.2-7.6 8-7.8 13-.5 10.2 12 15.8 20.7 16.6 4.5.4 8.9-.6 12.7-2.8 2.4-2.8 5.1-5.3 8-7.4l1.2-2.8c-2.7 0-5.5 0-8.1-.6a64 64 0 0 1-10.3-3.2l-3.2-1.7c-1.4-.8-2.7-1.6-4.1-2-2.5-.8 1.3-2.8 2.7-2.3 2.6.7 5 1.9 7.3 3 2.8 1.3 5.6 2.6 8.7 3.4Zm23.1 16.2-.5-1.3.5 5.1c.1 2 .2 4.1.6 6a41 41 0 0 0 6.2 17c6.6 9 25.6 16.2 30.9 1.8 1.6-4.6 3.3-10 1.9-14.9-1.8-6-7.9-10.7-13-13.7a52.7 52.7 0 0 0-18.4-6.6 39 39 0 0 0-6.1-1.6l.2.6c0 .5.2 1 .3 1.4 1.4 4.4 3.4 8.3 6.4 11.9 5.2 6.4 13 15.2 21.2 17.5 2.5.7-1.3 2.7-2.7 2.3-7.5-2-15-9.5-19.9-15.1a47.3 47.3 0 0 1-7.6-10.4Zm3.6-14.6-.3 1.2c7.2 3.8 20.5 3.6 28.2 2.4 11.8-1.9 25.2-7.7 21.6-21.8-2-7.8-6-10.4-14.9-9-6 1-12.1 4.4-17 8-2 1.5-4 3-6.1 4.8a42 42 0 0 1-9.6 10.5l-.4.6 5-1.3 6.3-1.6a34.2 34.2 0 0 0 16.9-10.4c1-1 5.4-1.2 4 .2-3.3 3.7-6.5 7-11.2 9.2-1.5.7-17.3 5.6-22.5 7.2Zm14.7-20.6c.7-1.8 1.2-3.5 1.4-5 1.7-11.2-3.5-29.9-16.1-32.6-12.7-2.8-20 7.4-24.9 17.5-3.5 7.3-2.3 17.3 1.5 25.9a46 46 0 0 0-21.4-4.6c-10.3-.2-21.6 7-22.2 18.1-.6 12.7 16.3 18.5 26.4 18.5 3 0 5.8-.5 8.6-1.3a47.4 47.4 0 0 0-8.5 20.3c-.9 6-1 12.5 3.6 17 3.2 3.1 8 5.3 12.6 5.4 12 .2 16.7-13.5 18.5-23.2 0-.6.2-1.1.3-1.6l.8 2.4a27 27 0 0 0 13.5 15c9 3.8 23.4 5.7 28.2-4.8 3-6.3 5.7-14.5 2.6-21.2-3-6.6-10.1-11.4-16.4-14.4-4.1-2-8.6-3.5-13.2-4.6l2.5.2 2.8.2c6.7.5 13.4-.6 19.9-2.4 12.2-3.4 22.9-11 18.2-25.2-5.2-15.6-23.8-10.2-38.7.4Z" fill="#52525B"/>
  <path d="M359.6 248.5c-6.6 6.4-8 16.7-6 25.7s7 16.8 12 24.6a57.3 57.3 0 0 0-35.5-10.4c-8 .5-17 4-19.1 11.9-1.5 5.8 1.7 12.1 6.6 15.6 5 3.4 11.2 4.5 17.2 4.5 6.7 0 14-1.5 18.3-6.8-6.3 4.4-9 12.5-9 20.2a24 24 0 0 0 6 16.4c4.3 4.3 11.3 6 16.5 3 4.6-2.5 6.8-7.7 8.3-12.7a98 98 0 0 0 4.3-29.9c-1.6 10.8 0 22.9 8 30.3 8 7.3 23.2 6.6 27.7-3.3a17.8 17.8 0 0 0-2-16.5c-3-5-7.9-8.5-12.8-11.4a85 85 0 0 0-16.6-7.4c11.4 3.7 30.2-3 33.4-15.8 4.3-17-24.8-20.5-30-7.3 6.4-16.5-7.3-50-27.3-30.7Z" fill="#81AD9E"/>
  <path fill-rule="evenodd" clip-rule="evenodd" d="m371.8 296 1.9-1.4c2.2-3.1 5.1-6.4 8.5-9.6 2.7-4 4.7-9 4.7-13.8 0-8.1-2.7-19-9-24.5-7.8-6.5-16.4.3-20.6 7.3a23 23 0 0 0-4.3 15.3 40 40 0 0 0 9.7 24.7l2.1-.5c-.2-3.6.2-7.5.5-11.2l.5-6.4c.1-3.3 0-6.5-.2-9.7-.2-3.8-.3-7.5 0-11.3 0-1.3 4.4-2 4.3-.7v.9c-.2 4 0 8 0 11.9.2 3.5.4 7.1.2 10.7l-.3 5.4c-.4 3.7-.7 7.6-.4 11.2 1 .4 1.8 1 2.4 1.6Zm-12.2 12.3c-1-.8-1.6-2.1-1.6-3.6h-.2a21.5 21.5 0 0 1-8.3 8 52.1 52.1 0 0 0-9.6 18c-2.7 9.5-2.2 23.6 10.6 25 12 1.3 14.9-20 15.2-28.3 0-3-.4-10.9-2.3-16.5a310 310 0 0 1-5 16.4 32 32 0 0 1-10.8 16.5c-1.1.9-5.5.7-3.5-.9 6.7-5 9.4-12.7 11.3-20.5.8-3.1 1.8-6.2 2.7-9.2l1.5-5Zm7.5 1h.5-.4Zm1-.2a9 9 0 0 0 1.5-.5l.2.7c-.4-.3-1-.3-1.6-.2Zm-19.8-11c2.6.6 5.3.8 8 .8a3 3 0 0 1 1.2-.9c-3.3-8.8-11.3-13-20.3-14.3-5.7-.9-11.1-1.6-16.7 1.1-4.6 2.2-7.6 8-7.8 13-.5 10.2 12 15.8 20.7 16.6 4.5.4 8.9-.6 12.7-2.8 2.4-2.8 5.1-5.3 8-7.4l1.2-2.8c-2.7 0-5.5 0-8.1-.6-3.3-.7-7.1-2-10.3-3.2l-3.2-1.7c-1.4-.8-2.7-1.6-4.1-2-2.5-.8 1.3-2.8 2.7-2.3 2.6.7 5 1.9 7.3 3 2.8 1.3 5.6 2.6 8.7 3.4Zm23.1 16.2-.5-1.3.5 5.1c.1 2 .2 4.1.6 6a41 41 0 0 0 6.2 17c6.6 9 25.6 16.2 30.9 1.8 1.6-4.6 3.3-10 1.9-14.9-1.8-6-7.9-10.7-13-13.7a52.7 52.7 0 0 0-18.4-6.6 39 39 0 0 0-6.1-1.6l.2.6c0 .5.2 1 .3 1.4 1.4 4.4 3.4 8.3 6.4 11.9 5.2 6.4 13 15.2 21.2 17.5 2.5.7-1.3 2.7-2.7 2.3-7.5-2-15-9.5-19.9-15.1a47.3 47.3 0 0 1-7.6-10.4Zm3.6-14.6-.3 1.2c7.2 3.8 20.5 3.6 28.2 2.4 11.8-1.9 25.2-7.7 21.6-21.8-2-7.8-6-10.4-14.9-9-6 1-12.1 4.4-17 8-2 1.5-4 3-6.1 4.8a42 42 0 0 1-9.6 10.5l-.4.6 5-1.3 6.3-1.6a34.2 34.2 0 0 0 16.9-10.4c1-1 5.4-1.2 4 .2-3.3 3.7-6.5 7-11.2 9.2-1.5.7-17.3 5.6-22.5 7.2Zm14.7-20.6c.7-1.8 1.2-3.5 1.4-5 1.7-11.2-3.5-29.9-16.1-32.6-12.7-2.8-20 7.4-24.9 17.5-3.5 7.3-2.3 17.3 1.5 25.9a46 46 0 0 0-21.4-4.6c-10.3-.2-21.6 7-22.2 18.1-.6 12.7 16.3 18.5 26.4 18.5 3 0 5.8-.5 8.6-1.3a47.4 47.4 0 0 0-8.5 20.3c-.9 6-1 12.5 3.6 17 3.2 3.1 8 5.3 12.6 5.4 12 .2 16.7-13.5 18.5-23.2 0-.6.2-1.1.3-1.6l.8 2.4a27 27 0 0 0 13.5 15c9 3.8 23.4 5.7 28.2-4.8 3-6.3 5.7-14.5 2.6-21.2-3-6.6-10.1-11.4-16.4-14.4-4.1-2-8.6-3.5-13.2-4.6l2.5.2 2.8.2c6.7.5 13.4-.6 19.9-2.4 12.2-3.4 22.9-11 18.2-25.2-5.2-15.6-23.8-10.2-38.7.4Z" fill="#52525B"/>
  <path d="M473.9 315.6c-3.5-1.7-7-3.4-10-5.9-2.8-2.4-4.9-5.6-7-8.6a34 34 0 0 1-7.3-17c-.3-6.2 4.4-13 10.6-12.7 1.2 0 2.4.4 3.6 0 1.4-.4 2.3-1.8 3.2-3.1a22 22 0 0 1 9-8.4c3.8-1.7 8.7-1.6 11.8 1.1 2.4 2 3.8 5.5 6.9 6.3 3.7 1 7-2.6 10.7-3.9 5.7-2 12.5 3.1 12.3 9 0 1.4-.3 3 .7 4 .5.4 1.3.5 2 .5 4.3.4 9-.3 12.6 2 3.2 2.1 4.7 6.3 4.4 10.1-.3 3.9-2.1 7.5-4.2 10.7a57.4 57.4 0 0 1-26.8 22.8c-13.4 5-20.8-1.3-32.5-6.9Z" fill="#CFA1A1"/>
  <path fill-rule="evenodd" clip-rule="evenodd" d="M456 273.7c.8.7 2.8.8 3.9.2a23 23 0 0 1 12.1 8c1.8 2.6 2.8 5.6 3.7 8.6.5 1.5 5.4 1.3 5-.6l-.7-2.1c-1.5-5-3.6-12-.2-16 2.9-3.4 10.7-4.6 13.3-.2-1 3-.6 6 1.7 8.5 1 1 4.6 1.1 4.8-.6.3-2.7-.3-5.3-1.4-7.7 2-6.7 10.2-13.8 15-8.6 1.6 1.9 2.5 4.2 2.8 6.7-.3 0-.6.2-.9.4-1.5.7-.4 1.5 1 1.8.2 3.6-.6 7.5-1.2 11l-.6 3.7c-.3 1.8 4 1.2 4.7.7 3.2-2.2 10.6-.8 12.5 2.4a12.3 12.3 0 0 1 1.2 5.6v1.4a25 25 0 0 1-3.4 13c-2.1 3.6-5.2 6-8.7 7.4a7 7 0 0 0 .3-3.6c-.1-.6-.7-1-1.3-1-1.7-.5-3.4-.6-5-.4h-.3c-3.1-1.1-6.2.2-9 1.6a102 102 0 0 1-3.2 1.5l-.3-1.4c-.3-1.6-.7-3.2-1.2-4.6-1-2.6-2.3-4.5-5.3-4.3l-1 .2c-1.5-.4-3.5 0-3.8 1.1-.5 1.9-1 4.6-1.3 7.6-2.4-3-5.1-5.3-8.4-5.7-.6 0-4 0-3.2 1.5 1.8 3 3.8 5.8 6.3 8.3l2.2 1.7a15.2 15.2 0 0 0-9.2-2.8c-.6 0-1.2.1-1.6.3l-2.1-1.4-2.2-1.3a50.8 50.8 0 0 1-17-14.4c-3.7-5.4-7.4-15.3-4.2-21.7a8 8 0 0 1 6.2-4.8Zm16.7 45.6-.5-.3c-10.8-6.2-22.5-13-26.7-25.6-3.3-9.8-1.6-21.1 10-22 0-4.7 4-9.4 8-11.3 2.3-1.1 4.8-1.2 7.2-.6 1 .3 3 1.5 4.4 2.4l1.7 1a7 7 0 0 0 1.5-2.6c.7-1.5 1.6-3.3 2.7-4 2-1.2 4.8-1.5 7-1.2 6.1.9 8.3 4.2 9.7 9 3-3.1 6.8-5.5 10-6 8.1-1.2 11.4 3.7 12.4 10.1 2.7-.8 5.5-1.2 8.3-.6a7.5 7.5 0 0 1 6.2 6c.2.8.5 1.7 1 2.4.5 1 1.5 1.6 2.5 2.2.9.4 1.7 1 2.4 1.6a10 10 0 0 1 2.6 5c.7 4-1.3 6.1-3.4 8.5l-1.9 2.1c.5 6.5-1.7 13.4-5.5 18a23.1 23.1 0 0 1-15.5 8 20.4 20.4 0 0 1-4.8 2l-.7.3c-4.2 2.5-9.3 4.9-12.8 4.4h-.1c-2.2 1.2-3.7.8-5.6.3l-1.4-.3-4.7-.8c-3.6-.5-7.3-1.1-10.5-2.6-2.9-1.3-4.2-3.6-3.5-5.4Zm23.7-6.7a39.1 39.1 0 0 0-.5-1.6l.1 1.5.4.1Zm1 6.2-.3-.1v.4l.3-.3Zm22.5-35.8c.4-3.5.8-7.8.6-11.8 1-.4 2-.9 3-1 5.2-.6 5.8 1.6 6.5 4.3l.5 1.7c.6 1.9.7 2 2.2 2.9h.1c.6.5 1.2.7 1.6 1 1.3.7 2.2 1.1 3 3 1 2 .9 3.6.2 5.6l-.8 1.7a15 15 0 0 0-2.6-4.8c-4.3-5.5-9.4-5-14.3-2.6Zm-59.5-11.5c5.3.7 9.8 3 13.3 6.6 0-5 1.3-9.6 5.4-12.2-.6.3-1.3.5-2.2.6-2 0-3-1-4.2-2.2a9.5 9.5 0 0 0-2.7-1.9c-4.5-1.9-9.7 4.6-9.6 9Zm19-5.8a13.6 13.6 0 0 1 13.7.3l-.1-.8c-.5-3-1-6.2-4.5-7-4.4-1.2-5.1.8-6 3-.2.7-.5 1.5-1 2.2-.6 1-1.3 1.8-2.1 2.3Z" fill="#52525B"/>
  <path d="M978.7 85.2a10.7 10.7 0 0 1-5.5 3.5c-1 .1-1.9-.2-2.6-.8a4.7 4.7 0 0 1-.7-6.4 4.7 4.7 0 0 1 6.4-.7l1.7-.3h1.2c.9 1.5.5 3.3-.5 4.7Zm45 8.1c-1-1.2-2.8-1.8-3.8-3-2.5-3-.6-7.5-2-11-2.3-5.2-10.1-4.4-15.2-1.6-5 2.8-10.4 6.9-15.8 5.1 10.4-2.2 19.7-10.8 21-21.4 1.1-10.6-7.6-21.8-18.3-21.6-4.1.1-8 1.7-11.8 3.4-6.2 2.8-12.3 6.9-11.9 14.4.3 4.6 8 12.2 1.4 14.6-4 1.5-13-5-16.7-6.4-8.6-3-17.8-3.6-26.5-.7-2.4.8-5 2.2-5.6 4.6-1.5 5.8 8.4 7.7 10.8 13.2 1.9 4.4-1.2 11 2.8 13.6 2 1.3 4.5.7 6.8.1l14.6-4c-9.4 4.7-18 10.8-25.6 18-3 2.9-5.6 8.8-1.8 10.6 2.1 1 5-.3 6.9 1 1.3 1 1.7 2.8 2.4 4.3 2.4 4.6 9.1 5.3 13.7 2.8 4.6-2.4 7.5-7 10.1-11.5L969 102l-2 24.1c-.4 4.5-.8 9.3 1.5 13.1 2.4 3.9 8.4 5.7 11.3 2.3 1.6-1.8 1.8-4.4 3.4-6.2 2.8-3 7.9-1.9 11.8-3.2 5.7-1.9 8.1-9 6.6-14.8-1.5-5.8-6-10.3-10.6-14.2-4.5-3.8-9.5-7.4-12.8-12.4a36.4 36.4 0 0 0 38.6 13.3c4.8-1.4 10.1-6.7 7-10.6Z" fill="#CFA1A1"/>
  <path fill-rule="evenodd" clip-rule="evenodd" d="M966.3 66a39 39 0 0 0 2.2 8.1l.2.1.7.6c-.2-1.7-.3-3.5-.3-5.3v-1.7c-.2-3-.5-7.4 1.5-9.1.4-.3 1.3-.6 1.6-.1l.2.4c.2.3-.4.6-1 .7-1.2 2-.8 6.4-.6 9.2l.1 1.5c.1 2.3.3 4.7 1 6.8.7.9 1.3 1.9 1.6 3l.4.4 1.2-.3c0-5 1-10 2.8-14.4l.3-.7c1.2-2.8 3-7 5.6-8.3.4-.2.9-.2 1.2 0l.4.3.1.1c.5.4-1.1 1.1-1.6.7-.2-.1-5 10-5.3 10.6A38 38 0 0 0 977 80a34.5 34.5 0 0 1 .8 0c1.1-.2 2.6-.4 3.3.5l.6-.4c.7-.4 1.4-.8 2-1.4 2.5-2.3 4.4-5.2 6-8.3l2.8-5.9.6-1.4.2-.3c.5-1 1-2 2-2.6.6-.3 2.2 0 1.1.5-1.2.6-1.8 2.4-2.4 4l-.6 1.9a57 57 0 0 1-4.2 7.6c-1.4 2-2.8 3.7-4.6 5.3l-1.6 1-1.5 1c.7.7.7 1.5.7 2.4v.7c.2-.2.6-.3 1-.4l.8-.1c1.3-.8 2.7-1.4 4-2.1l.6-.2 4.1-3.3 1-.7a38 38 0 0 0 9.3-11.5c2.2-4.2 4-10.4.3-14.3-2.9-2.8-5.3-5.7-8-8.7-2.9-3.5-8-3.5-11.8-1l-1 1c-.5.4-1 .9-1.6 1.2l-1.9.3-1 .1c-4.3.8-7.7 2.4-9.7 6.3a22.4 22.4 0 0 0-2 14.8Zm8.8 15.7.1.8c0 .5 1.8.2 1.8-.5l.7.3c.2 0 .4 0 .7.2 1.3.7 1.1 2.5 1 3.8v.4c-.2.8-.4 1.7-.8 2.5a1 1 0 0 0-.5.4c-.9-.3-3 .6-2.3 1.1l1 1h-.1c-.1-.2-.6-.2-1 0-.3-.5-1.7-.3-2.4.1a1 1 0 0 0-.4-.1h-.2c-1.8-1.2-1.6-3.7-1.1-5.6.6-.1 1.6-.8.8-1h-.4c.6-.3 1-.8.4-1 .1.1 0 0 0-.2.3-.6.7-1.1 1.3-1.5.5.2 1.6-.3 1.4-.7Zm-11.8-17.2c.2 1.8.5 3.8 1 6l-3.1-3a22.4 22.4 0 0 0-16.4-4.4c-1.9 0-3.5.5-5.2 1-.6 0-1.2.2-1.8.4-2.3.6-4.4.4-6.5.2-1.4-.1-2.9-.3-4.4-.2-6 .4-8.7 3.6-8.9 9.6 0 2.6.3 5.4 2.2 7.5 1 1 2.2 1.6 3.4 2.3 1 .5 2 1 2.9 1.8a16 16 0 0 1 3 4.1c1.2 2.4 2.4 4.6 6.1 5.3 2.4.5 5 .4 7.6 0-3.6 1.8-7 3.8-10.1 6-4.4 3.2-9.3 8.5-9.9 14.2-.3 2.4.4 3.9 2.2 5.4 1 .8 2.5 1.7 3.7 2.1l1.2.2c.5 0 1 0 1.3.2 1.2.5 2 1.5 2.7 2.6a8.3 8.3 0 0 0 3.2 2.9c2.3.9 5.2 1 7.6.8 5.2-.5 11.1-3.6 15.2-6.7a22 22 0 0 0 6-7.6c-.3 4.2-.7 8.5-.7 12.7 0 4.8 1.4 9.9 6.6 11.4 4.2 1.1 7.2-1 10.2-3.3 2-1.6 4.3-1.5 6.7-1.3 1.3 0 2.6.1 3.9-.1 2-.3 4-1 5.8-2a13 13 0 0 0 6.3-11.4c0-5.8-4-11.4-8.2-15.3l.9.3 4.8 1c2.2.4 4.3.8 6.5 1.4 4.3 1.2 8.9-1 12.6-3.3 2-1.2 3.3-2.7 4.8-4.4l1.6-1.8c1.4-1.3 3-2.8 3.4-4.5.6-3-1.5-5-3.5-6.7l-1.3-1.2c-2.5-2.1-4.8-4-4.8-7.7 0-5.1-2.3-8.6-7.8-9.2-5-.7-9.1 1.5-13 4.5-1.5 1.2-3 2.2-4.4 3a41 41 0 0 0 9.7-13 16 16 0 0 0 1.4-8c-.2-3.2-1-4.3-3.3-6.3a26.5 26.5 0 0 1-3.8-4.3c-2.4-3-4.7-6-8.5-6.6-2-.3-4.1 0-6 .5-1.8.4-2.8 1.2-4 2l-1.6 1c-1.2.8-2.7.9-4.1 1-1.2 0-2.3 0-3.3.4-2.1.8-3.9 2-5.3 3.7a22.1 22.1 0 0 0-4.6 16.8Zm7.4 30.4-.1.1c-1 .9-1.8 1.7-2.3 2.7-1 2-1.1 4.5-1.2 6.8v1.1l-.1 1.7a46.3 46.3 0 0 1-5 11.2 27.3 27.3 0 0 1-14.3 9.1c-3.8 1.1-8.3.4-11-2.5l-1-1.4c-.5-.7-1-1.5-1.8-2-.7-.3-1.5-.5-2.4-.6a8 8 0 0 1-2.7-.9c-3-1.7-3.5-4.4-2.4-7.4 1.8-5.3 6-9.5 10.7-12.4 4-2.5 8.4-4.7 12.8-6.7a90 90 0 0 0 3.3-1l5.6-2 4.5-1.5.7-.3 3-1 .5-.5a94 94 0 0 1-12.9 9.5 64 64 0 0 0-3.6 2.7c-3 2.3-6.3 4.8-10 5.5-1 .2-.8 1.1.3.9 3.9-.8 7.3-3.4 10.6-5.8l2.5-1.9 4-2.6c3.3-2.2 6.5-4.4 9.6-7.1a111 111 0 0 1-7.2 15.2c-1.3 2-3 3.9-4.7 5.7-2 2-4.1 4.1-5.4 6.8-.3.7 1.5.5 1.7 0 1.3-2.7 3.4-5 5.5-7.2 2-2 4-4.1 5.3-6.7 2-3.8 3.9-7.7 5.6-11.7a4 4 0 0 0 1.4 2l.8.5-.3 1.7Zm10.3-5a.6.6 0 0 1 .1.1h.1c.3 0 .4.1.4.2l1.8 1.3a27.6 27.6 0 0 0 9.5 4 34.4 34.4 0 0 0 18.5-.8c.8-.3 1.8.3.7.8a35 35 0 0 1-16.8 1.5c-2.8-.3-5.8-1-8.4-2-1.4-.5-2.7-1.4-4-2.2l-2.1-1.4c.1.2 0 .4-.4.7l.3.3 1.5 1.2 6.2 4.9c1.3.9 2.4 2 3.6 3 1.8 1 3.7 1.8 5.6 2.6 2 .9 4.2 1.1 6.4 1.3l2.7.4c1 .1 1.7.4 2.5.8l2 .7c3.2.8 9.2-2.6 11.3-4.7a50 50 0 0 0 4.8-5.5c2.6-3.8.5-6.1-2.3-8.7l-1.6-1.4c-1.4-1.1-3-2.4-3.7-3.7a7.2 7.2 0 0 1-.5-3.8v-1.4c0-4.8-4.2-7.2-8.7-6.8-3.2.2-5.4 2.1-7.7 4l-1.5 1.3a43.8 43.8 0 0 1-9.5 5.3 131.4 131.4 0 0 0-5.4 2.7c-1.4.8-3.1 1.7-4.4 1.8a12 12 0 0 1-.6 2.5c4.2-.3 8.5-.8 12.6-1.5 5-1 9.7-3.3 14-5.8.7-.3 2.2 0 1.2.6-4 2.2-8.3 4.4-12.7 5.6-5 1.4-10.4 1.8-15.5 2.1Zm-.8 1.2h.1Zm-5.6 2.9h-.5l-.4.4-.3.3c-.2 1.2-.6 2.3-1 3.4a45.6 45.6 0 0 0-1.3 4.2l-1.6 5.3c-.2 2-.2 4-.3 6.1a350 350 0 0 1-.6 9.3c-.6 4.5-1.1 9.2 2.3 12.7 2.7 2.7 6.6 2.2 9.3-.2 1.2-1 2.5-2 4-2.5 1.4-.6 2.5-.6 4-.5 5 .4 9.5.5 12.5-4.3 3.3-5.4 1.4-11.4-2-16.2a31 31 0 0 0-5.5-6l-2.8-2.6-1.1-1.1A35.3 35.3 0 0 1 979 94l-.9-1-.8.3c-.5 4.6 1.2 8.8 2.8 13l.5 1.2c1 2.9 2.2 5.6 4 8l.5.7c.8 1.1 1.9 2.6 3 3 .8.3-.8 1-1.3.9-3.5-1.3-6.2-7.5-7.5-10.7l-.4-1.1c-1.3-3.3-2.7-6.6-3.2-10.1a52.6 52.6 0 0 0 2.8 32c.3.5-1.4 1-1.7.4-5.8-11.8-4.3-24.2-2.2-36.6ZM971 81.6v.3-.2h-.1a5 5 0 0 0-.5-.5l.6.4Zm-5.3-7a15 15 0 0 0 4.4 6.4l-.8-.6c-.5-.3-1-.6-1.3-1l-.8-.6a19 19 0 0 0-6.2-4.1l-1.4-.5c-5.3-2-10-3.9-15.9-3-.8.2-1.5 1.3-.2 1A32.8 32.8 0 0 1 969.6 83h-2.3l-.7-.1-2.5-1a95.5 95.5 0 0 0-11.2-2.5l-2.5-.5a57.3 57.3 0 0 0-16.8-1.7c-.2 0-1.2.3-1 .7l.1.2.2.4c.3.5 1.8 0 1.8-.4 5.6-.3 11.5 1 17 2.2a337.4 337.4 0 0 0 4.7 1l6.4 1.6c-3.3 0-6.6.1-10 .7l-6.2 1.4c-3.5.9-7 1.8-10.5 2-.7 0-2 1-.7 1h.4c3-.3 6.2-1 9.3-1.7l3.7-.9a82.3 82.3 0 0 1 17-1.5l1.4.6.6.3-1.6 1.2-.6.4-2 .7-1.4.5-1.7.5a96.3 96.3 0 0 0-11.9 4.5 28 28 0 0 1-9.9 1.1c-2.6-.2-5-1.2-6.5-3.5l-1-2.3c-.4-1-.8-2-1.6-3-1-1.2-2.4-1.9-3.7-2.6-2-1-4-2-4.8-4.7-.9-2.5-.8-7.4 1-9.7 2-2.7 5.3-2 8.3-1.6 1 .2 1.8.4 2.6.4 2.2.2 4.3-.5 6.4-1a20 20 0 0 1 21.3 4.8 101.3 101.3 0 0 1 5 4.1Zm3.3 9.3c.4 0 .8-.4.9-.6l.1.2-.3.7-.7-.3Z" fill="#52525B"/>
  <path d="M47.7 99.2a15 15 0 0 1-7-.5c-2.2-.9-4-3.1-3.6-5.4.3-1.3 1-2.3 2-3.3 3.5-3.7 8.2-5.9 12.5-8.7 4.3-2.8 8.4-6.7 9.1-11.7.7-4.7-1.5-9.2-2.8-13.8-1.2-4.6-.9-10.4 3.3-12.7 2.2-1.3 5-1.2 7.5-1.2 4-.2 8.1-1 11.7-2.8 10.7-5.6 16-19.4 27.6-22.7 3.4-1 7.7-.4 9.4 2.6.6 1 .8 2 1 3.1 3.3 17.9 2.6 47-11.7 60.8-13.2 12.9-42 14.7-59 16.3ZM149.5 80a14.2 14.2 0 0 1-3-5.6c-.8-3.8 1.5-8 5-9.8 3.4-1.9 7.7-1.8 11.4-.3 2.3 1 5.4 2.2 7 .2.5-.7.6-1.7.7-2.6a45 45 0 0 1 4.1-13.5c.4-.7.8-1.4 1.4-1.7.7-.3 1.4 0 2 0l14.4 3.7c2.8.7 5.7 1.5 7.6 3.6 5 5.3.1 14.1 2.5 21a181 181 0 0 1 15-13c3.6-2.7 8.3-5.6 12.6-3.8 4 1.6 5.6 6.8 4.5 11a23.3 23.3 0 0 1-7.3 10.4c-9.8 9.3-26.4 22.8-40.7 23.1-13.7.3-29.3-12.6-37.2-22.7Z" fill="#F5E38D"/>
  <path fill-rule="evenodd" clip-rule="evenodd" d="m104 74.2.6 4.1a4 4 0 0 0-1.7-.5c-.3 0-.7.2-1 .4a99.3 99.3 0 0 1-10.7-13.5c-3-3.8-6.7-8.6-7.3-12.7-.3-2.2-3.6-1.7-3.3.4.6 4.4 3.8 8.6 6.6 12.3l2.1 3c3 4.2 6.2 8.6 9.9 12.4l-3.6.7a64.2 64.2 0 0 1-19-9.7 54 54 0 0 1-8.3-7.7l-1-1c-2.2-2.6-6.4-7.3-6-9.5.8-3.7 4.3-3 7.9-2 2.1.5 4.3 1 6 .5.7-.2 1.4-.6 1.4-1.4.2-1.7-.3-3.4-.8-5l-.7-2.3c2.6 1.6 5.2 3 6.2-1.7.1-.7-.1-1.5-.4-2.2-.2-.7-.5-1.4-.3-2 .6-2.4.7-2.2 1-1.5.2.5.7 1.3 1.6 1.2l1.1.1c.7.1 1.4.2 2.2-.4 1-.7 1-2 1-3 .1-1.3.2-2.2 2-.8 2.2 1.6 4 8 5.3 12.4a69 69 0 0 0 1 3.5c1 2.8 1.8 6 2.7 9.4a75.2 75.2 0 0 0 5.4 16.5Zm-18.4 8.4-5.8-2c-3.4-1-6.8-2-10.1-3.3L64.4 75l-7.6-3c-1.7-.5-1.2-.3-.2.3 1 .4 2.4 1.2 3 1.6.9 1 .8 2.3-.4 2.9-.4.3-1.3.5-2.3.9l-3 1 .9.6c.8.6.8 1.6.3 2.4-.6 1.1-1.7 1.6-2.6 2l-.8.4.2 1c0 2.5-2.1 3.8-4.1 5-1.7 1-3.2 1.9-3.7 3.4-2.2 7.6 9.1 5.8 14.7 4.8L61 98a80.9 80.9 0 0 0 26.3-7.5l5.5-2.3c-.7-1.1-.4-2 .3-2.9l-1.3-.5c-4.2.8-8.3 1.4-12.6 1.6h-1.1a34 34 0 0 1-10-.4c-.6.3-1.4.2-2-.4l-1.4-1c-1.8-1.2.2-3.8 2-2.7l.4.2c4.3 2.4 11.2 1.4 16.3.7a185 185 0 0 1 2.2-.3ZM98 44.4l-.2-.4-1-3.2c-1.7-5.6-4-13.5-9.6-14-.7-.2-1.4.3-1.7 1-.3.5-.4 1-.5 1.6-.1.6-.2 1-.5 1.5l-.5 1.5-.9-.2c-.6 0-1-.3-1.5-.6-.6-.5-1.2-1-2.4-.5-1.6.7-2 2.7-2.2 4.1-.2 1.5 0 2.5 0 3.2v1l-2-.7-1-.6c-1-.4-2.2.4-2.3 1.4-.1.8.4 2.7.8 4.4.5 2 1 3.8.7 4.3-.5.6-3.6 0-6.6-.8-2.3-.5-4.5-1-5.4-.8-4.9.7-4.5 3.7-2.9 7.7a51 51 0 0 0 20.4 22.4A201.5 201.5 0 0 1 65 71.6c-4.3-2.1-10.6-5.2-13.8-2.3-.4.3-.7 1-.6 1.5.6 2.1 2.4 3.1 4.2 4.1h.1l-.1.1c-2.2.6-4.2 1.2-5.1 3.6-.4.9.1 1.7 1 2.2.4.2-.2.6-1 1-.9.5-1.9 1.1-2.4 1.9-.7 1 0 2.3 1.2 2.6-1.9-.5-8.3 6-9.5 7.6-1 1.3-2.3 3.2-2 5 .9 4.1 6 4.1 9.2 4h1c8-.4 17-.8 24.7-2.8 3.8-1 7.7-2.8 11.6-4.6 4.1-1.9 8.2-3.8 12.3-4.8 3.5 1.5 8.6.6 11.9-.2a10 10 0 0 0 3.7-1.5c1.2 3.3 2.8 6.5 4.4 9.6l1.9 4c4 8.5 8.6 16.9 13.2 25.1a423.5 423.5 0 0 0 46.6 67.7c0 .7.6 1.4 1.3 1.6 8.4 10 17.2 19.6 26.6 28.7a84.5 84.5 0 0 0-34-12l-6.4-1c-6.2-1-12.5-2.1-18.6-1.7h-1.2c-3.2.1-9 .3-9.6 3.6-.6 3 3 5 5.5 6.5l1.3.8a98.3 98.3 0 0 0 26 12.9 59 59 0 0 0 24 1.2l1.3-.1c4.9-.7 10.2-1.4 14.5-3.8l.2.2c1 1 2.8.2 3-.9a307.8 307.8 0 0 0 26.7 22c1.7 1.3 3.7-1.4 2-2.6l-6.9-5.2c3-3 5-8.8 5.9-12a84.4 84.4 0 0 0 2.4-24c0-10.2-2.2-19.3-5.5-28.9l-.5-1.4c-1.1-3.4-2.8-8.7-6-9.7-1-.3-2 .3-2.2 1.4l-1.4 10.6c-1.3 9.8-2.7 19.5-3.5 29.4-.8 9.5.8 18.8 2.7 28a333 333 0 0 1-12.6-11.1c.2-1-.9-2-2-1.8a379.7 379.7 0 0 1-29-31 19 19 0 0 0 2.2-7.1l.3-2c1.5-7.1 2.2-14.4 3-21.6l.3-2.2c1.8-17 3.6-34 4.5-51 4.5-.8 8.7-2.1 10.6-6.8l.3-.8c6-2.5 11.4-5.7 15.5-11l6.2-7.9a131 131 0 0 0 13-17.6l.5-.9c1.9-3 5.2-8.4 1.2-10.4-2.4-1.3-5 0-7.5 1.3-3.2 1.5-6.3 3.1-9.3 0-.8-.9-2-.9-2.7 0-.2.3-.4.4-.6.4-.2-1.2-.6-2.3-1-3.4-.3-1-1.7-1.3-2.5-.7-2.4 1.9-4 5.6-5.6 8.9l-2 4.3c-3 5-6.1 10-9.4 14.9a130.9 130.9 0 0 1 2.3-11c1.6-6.4 3.5-14 2.8-20.4-.5-3.4-1.9-4.3-5.3-3.8-1.2.1-2.3.8-3.4 1.4-1.2.6-2.3 1.3-3.3 1.3-2 .1-2.1 0-2.8-1a17 17 0 0 0-1-1.3c-.7-.7-1.6-.8-2.4-.3l-.8 1c-.4.4-.8 1-1 1l-.7 1.4-1.6-4.4-.1-.3c-1-2.3-1.5-3.3-4-3.9-.7 0-1.2.3-1.6.7-1 1-1.2 2.1-1.5 3.2a6 6 0 0 1-1 2.5c-1.8 3-3 2-4.8.6L167 47c-1.3-.8-2.8.2-2.7 1.6.5 6.2 1.8 12.3 3.4 18.3-3.6-3.3-9.8-7.3-14-6.1-.9.2-1.4.9-1.4 1.9l.5 3.7c-1-.7-2.8.4-2.4 1.7.3 1 .6 1.8 1 2.5l-2.7-.5c-2-.4-3.9-.8-5.9-.5-1.1.2-1.6 1.3-1.3 2.4 2.4 7.7 9.8 14 15.8 19.3l1.5 1.2a99.7 99.7 0 0 0 17.7 12.2c.4 1.4 1.7 2.2 3.5 2.6 1.5 1 3 1.8 4.7 2.5 1 1 2.2 1.5 3.9 1.6a861 861 0 0 1-6.2 63.8l-.3 3.7c-.3 4.4-.8 10.4-2.6 13.6a416.5 416.5 0 0 1-44-63.5c-4.2-7.4-8.3-14.9-12.1-22.5L121 102c-2.7-5.2-5.7-10.9-7.2-16.4l.4-.5c2-2.3 5-6.2 5.5-9.3.1-1.2 0-2.7-.6-3.7.8.4 1.8.3 2.2-.8 2.8-8.1 3.6-17.3 4.5-26.1l.6-6.7c.5-4.5 1.8-20.2-5.2-21.2-1.7-.3-2.3.4-3 1.3l-.9 1c-1.1 1-1.2 1.7-1.3 2v.3a70.8 70.8 0 0 0-1.6-.6c-.4-.1-.7-.5-1-1-.3-.5-.6-1-1-1.3-4.6-2-4.4 2.6-4.3 6.1v1a14 14 0 0 1-4-4.4c-1.5-2-3-4.2-5.4-4.9-1.2-.3-2.3.5-2.2 1.8l.3 8c.2 6 .4 11.7 1.2 17.7Zm9.1 28.8c.4.8.9 1.5 1.4 2.1.4 0 .8.1 1.1.4.4-.7 1-1.3 1.6-1.9a71 71 0 0 0-3.4-31.1c-.7-2 2.3-3.3 3-1.3a71.1 71.1 0 0 1 4 30 3 3 0 0 1 2-.6c.6 0 1 .2 1.4.5v-1.2a82.9 82.9 0 0 0 3.5-20.2 276 276 0 0 1 1-9c.4-3 .8-6 .7-9v-1.2c0-1.7 0-3.7-.6-5l-3.1-3.4-.4.9-.2.5c-.6.4-1 1-1.4 1.5-.7 1.1-1.4 2-3.5 1.3-.7-.3-2.5-3-3-3.9l-.2-.2v1.4c.2 1.6.5 4.2.3 5-.2.8-.9 1.6-1.8 1.4-3-.7-4.8-3-6.5-5.3-1-1.4-2-2.7-3.1-3.6l.2 4.8a154.3 154.3 0 0 0 4.6 35.3l2.4 11.8Zm7.3 5.8-.5.5.1-.4.4-.2Zm2-3.5Zm114 167.8c1.4-2 4.2-7 4.3-7.2 1.4-3 2-6.3 2.5-9.6a108 108 0 0 0 1-19.7 78.5 78.5 0 0 0-5.1-24.4c-.6-2-1.7-5.4-3-7.7l-1 7.3c-1.1 8.9-2.3 17.7-3.1 26.7a107.8 107.8 0 0 0 3.3 33.8l1 .8Zm-53.1-24.8c9 2 20.3 5.4 28.2 11.3-4.5 2.3-10.5 2.8-15.1 3.2l-1.3.1c-7.5.7-15.1.1-22.3-2.3a92.9 92.9 0 0 1-18.6-9.1l-1.6-1c-1.7-.8-3.6-1.8-4.4-3-1.7-2.1-1.4-2.2.5-2.8l.9-.3c4.4-1.4 9.9-.3 14.6.6l3 .6 6.2 1c3.3.4 6.6 1 9.9 1.7Zm-2.8-140.6c1.9 6.2 3.8 12.4 7.3 17.8a51 51 0 0 0 2.6 2.2 683.9 683.9 0 0 1-3.2-29c-.3-2 3-2.6 3.3-.4l1.3 12 1.5 13.8a4.5 4.5 0 0 1 2.6 3l.3.8.5-1.5c.4-1.2 2-1.5 2.8-.5l.4.6c.1-7.8 1.6-15.4 3-23 1.1-5.4 2.2-10.8 2.8-16.4 0-.7.2-1.3.3-1.9.3-2.2.5-3.3-2-4.2-2.2-.7-2.5-.6-3.4.1l-1 .6-1 1.1c-.5.6-1 1.2-1.8 1.3-2.4.4-3.3-1.5-4.3-3.3l-.3-.6-.5.9c-.9 1.4-1.7 2.7-3.8 2.3-1-.3-1.4-1.3-1.8-2.3-.2-.6-.4-1.2-.8-1.6-1.6-1.7-2-1.4-3.2.8-.3.5-.4 1.3-.6 2.1 0 .5-.2 1-.3 1.3-.2.6-.7 1-1.3 1-2.9.5-4.3-.8-6-2.4a141.3 141.3 0 0 0 6.5 25.4Zm-3.2 1c1 3.5 2.2 6.9 3.5 10.2-3-3-5.8-6-8.5-9.3-1.4-1.6-4 .5-2.6 2.1a151.5 151.5 0 0 0 15.5 15.9l.6.8a4 4 0 0 1-1.3-.7c-1.3-.6-2.5-1.3-3.4-1.5-1-.3-2 1-1.8 1.9l.1.8c-3.6-2.2-7-4.6-10.5-7.3a60.7 60.7 0 0 1-17.6-19c1.3.1 2.6.4 3.8.6 1.9.4 3.8.8 5.7.5a1.7 1.7 0 0 0 1.3-2.3c.3-.4.5-.9.5-1.4 0-1-.2-1.8-.3-2.6-.4-2.6-.5-3.5 3.6-1.7 2.1.9 5 2.7 6.6 4.4.6.7 1.6.7 2.2.2a375 375 0 0 0 2.6 8.4Zm26.3 9.4c-.4 3-.5 6.2-.5 9.3l.2-.1c.6-.5 1.1-1 2.2-.9 3.5-2.8 6.6-7.1 8.8-10.5a53 53 0 0 0 7.4-15.4c.4-2 3.7-1.7 3.3.4a56 56 0 0 1-8 17c-2 3.1-4.6 5.8-7.1 8.5l-1.6 1.5c.3.5.5 1 .6 1.7a37.2 37.2 0 0 0 14.7-12.3c2.2-3.1 4.6-6 7-8.9a121.1 121.1 0 0 0 9-11.5c1.4-1.8 3.2-4.1 3.2-6v-1.9h-.7l-1.4.3a16 16 0 0 0-4 1.4c-1.2.6-2.3 1-3.5 1.3-3.4.7-4.6 0-6.4-2l-.7.4c-.7.3-1.3.6-1.5 1.1-1 2-4 .8-3-1.2V58c-1.4 2-2.6 4.6-3.7 7-.8 2.1-1.7 4.1-2.7 5.6l-2.8 4.4a193.2 193.2 0 0 1-8.8 13.2Zm.3 13.6c.2-.2.3-.5.3-.8 0 .1.1.1.4 0l.1.5-.8.3Zm-5.1 0-.2-.4-.2.3.4.1Zm-14-.3h-.4l-.3-.4.2.1.5.3Z" fill="#52525B"/>
  <path d="M1042.9 185c-1-3-2.2-6.4-4.9-8.1-5.5-3.6-12.8 1.7-15.4 7.8-2.5 6-3 13.1-7 18.3-3.9-1.2-6.8-4.5-10.5-6-3.8-1.6-9.6.3-9.1 4.4 0 1 .7 2.1 1.3 3a311 311 0 0 0 63.8 73.6 192 192 0 0 0-74-15.1c-3.6 0-8.6 1.7-7.7 5.1a67.7 67.7 0 0 0 20.8 10.8L981.8 299c-1.4 1.5-2.9 3.2-3.2 5.3-.7 4 3.4 7.4 7.4 7.7a22 22 0 0 0 11.4-3.5l51.4-27a116 116 0 0 0-32.1 75.8 27.2 27.2 0 0 0 21.7-21c2.7 6.4 5.5 13.1 11 17.4 5.5 4.2 14.4 4.8 18.7-.6 2.2-2.8 2.8-6.6 3.3-10.1 2.6-20 5-41.4-4.9-59 2.8 24.4 12 48 26.2 68 2 2.9 4.6 5.9 8 5.9 5.1 0 7.7-6.5 6.9-11.6-.9-5-3.7-9.7-3.7-14.8 6 4.8 15.3 9.3 20.2 3.4 3.9-4.7.7-11.8-3-16.7a114.2 114.2 0 0 0-56-40.4c17.9-1.7 36 1.4 53.8-.9 17.7-2.3 36.5-12 41.3-29.3a52.8 52.8 0 0 0-21.3-1.3 37.3 37.3 0 0 0 24.1-21.4c-34.4-2.6-66.6 17.3-92.1 40.5 21.9-19.7 42.1-43.5 47.9-72.4-6.6-1.4-14 1-18.6 5.9 8-4.5 12.6-14.2 11.2-23.2a35.2 35.2 0 0 0-23.8 15.9c3.7-5.5 5-12.5 3.7-19-6.1-3-12 4.7-14.3 11.1-3 8-8.8 53-18.5 54.2-5 .7-13.2-45.2-15.6-53Z" fill="#F5E38D"/>
  <path fill-rule="evenodd" clip-rule="evenodd" d="M1055 217.8c1 6.4 2 12.8 2.8 19.2.3-3.2.8-6.3 1.3-9.4a122 122 0 0 1 14.7-41c2.7-4.6 10-16.5 17.1-15.7 5.5.7 4 6.8 1.8 12a22 22 0 0 1 10.1-5.3c4.5-1 9.4-.9 11 4.1.4 1.3.4 2.6.4 4 0 .4-.4 1.4-.7 2.5a16 16 0 0 0-.9 3.9c.8 1.4 4 1 6.9.7 1.5-.2 2.9-.3 3.7-.2 5.2.9 6.9 4 6 9-2.9 15-18.9 28.7-30 37.9a189 189 0 0 1-8.5 6.6l.3-.1.2-.1a190.6 190.6 0 0 1 47.7-20.6l.3-.1h.3c6.7-1.8 26.5-6.9 28.9 3.4 1.8 8.1-10.6 14.7-18.8 18.4h.6c5.6.2 12.3.4 11.2 7.8-.6 3.8-4 7.4-6.7 9.8l-1.8 1.4c-.8.5-1.5 1-2 1.6-2.5 2.5-2.4 2.9-2.2 3.4.1.3.3.7-.5 1.8-10.2 14.7-32.6 11.7-49.3 9.5a313 313 0 0 0-6.7-.9l-3.1-.3c-7.2-.8-14.5-1.6-21.5-3.3l2 2.6c4.5 2 8.8 4.8 13.1 7.5 4.2 2.6 8.3 5.3 12.5 7.2 12 5.5 21.5 11 28.8 22.4 2.8 4.4 10.2 17.5 4 22.2-1.7 1.2-3.2 1.4-4.6 1-.6 5-2.6 9.3-8.8 9l-1-.2c.6 5.1 0 10-2.7 13.2-4.5 5.5-13 2-17.3-2a40.2 40.2 0 0 1-8.9-15.5l-1.4-3.4c-2.5-6-5-12-7.3-18.1-2-5.4-3.8-11.1-5.5-16.8-2.8-8.9-5.5-17.8-9.4-26l-1.2-.3 1.9 8.5c3.9 18 7.8 36 4.8 54.6l-.2 1.1c-.9 5.7-2.2 14.3-9.3 14.4-3.2 0-5.8-2-7.5-4.5-1-1.7-1.1-4-1.3-6.1v-.9l-.5 1.4a15 15 0 0 1-3.6 6.7c-2 2-5 3.5-7.8 3.1-3.7-.4-4.5-2.7-4.5-5.6-2.2 5.2-5.1 10-10.3 10.7-8 1-6.4-11.3-5.7-16.7v-1c2.8-23 14.9-41.6 27-60.3l2-3a230 230 0 0 1-9.4 6.2 461.5 461.5 0 0 0-10.3 7c-8.3 5.6-16.8 11.5-26.4 14.6-5.1 1.7-16.8 4.6-20.6-1.1-3.7-5.3 2-12 6.6-16.2-4.6.3-9.5-1-8.8-5.9 1-7.5 15.8-12.3 23.4-14.8l2.5-.8 1.6-.4c2-.5 5-1.1 5.5-2.4-.3.6-4.5.7-6.3.7h-.7c-4 .3-8 .4-12-.4-4.4-.9-17-5.4-14.7-11.8 2-6 14.1-6.1 18.9-5.6 10.3 1.2 19.8 5 29.4 9l3.8 1.5a96.7 96.7 0 0 0 24.5 5.7l2.1.4a7.9 7.9 0 0 1-2.9-3.2c-2.8-1.2-5.4-3-8-4.8l-2.7-2c-6.1-4-12-8.4-17.3-13.5a87 87 0 0 1-23.6-36.7c-2-6.6-6-20.5 2-23.3 3-1 5.5.2 7.7 2.4 2.4 2.5 4.4 5.8 6.4 9 0-3.2-.4-6.3-.7-9.5-.4-3.8-.8-7.7-.7-11.5.1-3.2 1-6.2 4.6-6.7 2.7-.4 4.7 2.2 6.3 4.2 1 1.4 2 2.6 2.8 2.4.8-.3 1.7-2.2 2.6-4 .7-1.6 1.5-3.2 2.2-3.7 1-.8 2.2-1.5 3.5-1.7 5.2-.9 7.7 3.8 9.4 7.8a110 110 0 0 1 7.2 28.8l2.2 15.1Zm14.4 71.3c1.4 2.5 2.6 5.1 3.9 7.6l2.5 5 .8 1.7c1.6 3 3.1 6 4.8 8.9.5.9 1.2 1.8 1.9 2.7 1.7 2.4 3.5 5 3.7 7.6 0 1.6 5 .6 4.8-1.3-.2-2.5-1.4-4.2-2.8-6l-1-1.6c-2.7-4-5-8.3-7.1-12.7l-1.6-3a173.2 173.2 0 0 0-5.9-11.5c2.7 1.5 5.1 3 7.3 4.4 4.9 3.2 9.9 5.7 15 8.3 2.5 1.2 5 2.5 7.6 4a46.2 46.2 0 0 1 21.7 29.9c0 .6.4 4.4 0 4.6-.8.2-1.4-4.6-1.5-5.2 0-1.6-4.9-.5-4.8 1.3l.2 2.4c.3 2.4.7 5.3-.5 6.7-1.8 2.2-4 2-6 .6a55.7 55.7 0 0 0-5.5-14c-.7-1.3-4.4 0-4.6 1.2-.8 4.3 1.4 10.6 5 14.8 2 8.7 2.1 17.7-5.1 16.1-7.3-1.5-11.7-13.6-14.6-21.8a511.7 511.7 0 0 1-13.4-36l-2.5-7.4-2.3-7.3Zm-21.2-29.9-.2-.1a139.7 139.7 0 0 1-17.3-13 100 100 0 0 1-20.5-26 68.4 68.4 0 0 1-7.8-23.4l-.2-.7c-.4-2.2-1.3-6.6 2.5-6.5.7 0 2.3 3 3.1 4.4l.4.8a119 119 0 0 0 7 10c1 1.2 4.5.2 4.7-1.2.9-4.8.4-10.2 0-15.3l-.3-4.7v-.1c-.1-1.2-1-9.9-.5-10.2.8-.4 1.9 1.5 2.8 3l1.3 2a6 6 0 0 0 6.1.3c1.4-.7 2.5-2.6 3.6-4.4 1.5-2.7 3-5.2 5.3-3.7 4 2.6 6.1 13.3 7.3 18.8l.3 1.8c1.2 5.2 1.9 10.6 2.6 16l1.2 8.6.3 1.7a371 371 0 0 1 5.2 45.8c-1-1.8-1.8-4-2.4-5.7a44 44 0 0 0-1-2.3l-.9-2.1c-1.6-3.7-3.3-7.4-4.7-11.2l-.5-1.2c-1.8-4.4-7.7-18.8-6-20.3 2-1.9-2.7-1.9-3.9-.8-3.2 3 2.3 15.9 4.7 21.5l.8 2.1c2.1 5.5 4.6 10.8 7 16.1Zm4.1 13c-4-1-10 .9-15 2.4l-4.7 1.3-3.5.8c-7.2 1.4-18.8 3.7-20.8 9.1-.6 1.6-5.4 2.2-4.8.6 2.5-6.6 11.2-8.6 18-10.3l3.6-.8 12.5-3.2 6-1.5a80.2 80.2 0 0 1-17.3-4.6c-2.6-1-5.3-2-7.9-3.2a124.2 124.2 0 0 0-21.4-7c-2.5-.6-5-1-7.4-1.2l-8 6.5c-.2 2.6 9.5 5.4 11.3 5.8 3.6.7 7.5.6 11 .3 1.2 0 2.4-.3 3.6-.5 2.4-.4 5-.9 7.3-.3.7.2 1.2.7.8 1.4-2 3.3-5.8 4.4-9.4 5.4l-2.7.9-2 .6a57.6 57.6 0 0 0-13 5.6c-1.9 1.3-8 5.9-7.7 8 .5 2.8 6.6 2.6 8.2 1.9 1-.5 4.8-.3 2.8 1.3l-.8.8c-3.4 2.8-7 6-8.2 10.3-1.3 4.3-1 4.4 3.6 5.8l.4.1a15 15 0 0 0 11 0c8.3-2.7 16-8 23.2-13l2.9-2 6.2-4.1c5.3-3.6 10.6-7.2 15.7-11l1.5-1 2.2-1.6 1.8-2.8c.2-.4.6-.6 1-.8Zm14-12.1c-1.6 1-3.4 2.2-5.1 3.5a186.9 186.9 0 0 1 24.2-41.6c1.4-1.6-3.5-1.3-4.5 0a166 166 0 0 0-20 32.3l1-11 .5-4.2c1-10.6 3-21 6.5-31a82 82 0 0 1 15-29.2l.2-.3c1-1.2 4-4.6 4.9-4.4 1 .2.4 4.7.3 5.4a23 23 0 0 1-2.5 6.4l-1.9 4.4c-.6 2 3.8.5 4.4 0 1-.8 2-1.9 3-3 1.1-1.4 2.3-2.8 3.7-3.7 10.6-4.1 15-2.4 13 5.2a18 18 0 0 1-1.2 3.8c0 2.6.1 2.7 3 3.2 1.6.3 3.5.2 5.4.1 5-.3 9.7-.5 8 7a40.3 40.3 0 0 1-6.5 12.5 143.1 143.1 0 0 1-32.4 31.1l-6 4.4-8.3 6a104 104 0 0 0-4.8 3ZM1050 282a210 210 0 0 1-4.9 14l-2.5 7.1-1.5 4c-2.7 7-6 15.6-3.8 22.4.5 1.7 5.3.4 4.8-1.3-2.1-7 1.5-16 4.4-23.6a149 149 0 0 0 4.1-11l1.1-3.1a152.1 152.1 0 0 0 1.6 18.3c.8 6 2.3 17.3 7.3 20.6.5.3 1.5.2 2.4-.1.2 7.2-.5 14.7-2.4 21.5-2.8 10.1-7.6.4-8-4.5-.1-.6 0-1 0-1.6 0-1.2 0-2.2-1-3.5-.8-1.1-3.4-.1-4.1.6-.7.6-1.6 2.5-2.6 4.6-2.2 4.8-5 11-8 8-1-1-.6-3.6-.2-6.3.3-2.2.7-4.6.1-6-.7-1.6-4-.4-4.6.6a21.7 21.7 0 0 0-2.3 5.2l-1 2.5v.2l-.2.4c-1.2 2.8-2.8 7-6 6.9-2.8 0-2.7-1.4-2.5-4l.1-2.2c.3-9.6 2.8-19 6-28 5-13.6 12.9-25.3 20.7-37.2l3-4.5Zm11.2 38.3c.4 1.6.8 3.5 1.6 5v-1.4c-.7-8.8-2.3-17.7-4-26.3v-.5l-2.2-11c0 6 .5 12 1 17.2a80 80 0 0 0 3.2 15.3l.4 1.7Zm.1-48.4 2 .8a139 139 0 0 0 29.8 5.8l6 .8c1 0 1.9.2 2.8.3 7.7 1 15 2 22.9 1.1h.3c5.4-.6 12-1.3 16.2-5.3 1-.9 1.4-2.2 1.8-3.4a9 9 0 0 1 1-2.4c1.3-2 3.2-3.4 5.2-4.8 2.7-2 5.4-4 6.4-7.5 2-7-3.5-7.3-8.8-7.6-1.5 0-3-.1-4.3-.4-1.9-.3-.5-1.9.5-2.3 4.9-2 31.5-16.3 15.6-21.2-11-3.3-27.8 3.8-38.3 8.2l-.9.4c-5.6 2.4-11 5.1-16.3 8 .8.2 1.3.7.4 1.6l-1.2 1.1c-.6.6-2 .8-3.2.7a88.6 88.6 0 0 0-17.8 11.7l-5.3 4-2.6 2a97 97 0 0 1-6.4 4.5c4.9-.7 9.6-2.7 14.3-4.8 2.5-1 5-2.2 7.4-3 6.3-2.2 12.7-3.8 19.2-5.3l.8-.2a94 94 0 0 0 7-2.2c2.6-.9 5.2-1.8 7.8-2.4h.4c1.7-.4 3.7-.8 4.9.6 1.2 1.4-3.4 3.1-4.5 1.9l-8.5 2.7-3.7 1.2-6.1 1.4a108.3 108.3 0 0 0-21.8 7 62.9 62.9 0 0 1-19.4 6c-1.2 0-1.7-.2-1.9-.6l-2.3 1c.4 0 .6.3.6.6Zm16.7-15.6-4 2.3a64.4 64.4 0 0 0-4.8 4.4l.3-.2.2-.2.5-.3 2.3-1.8 4.2-3.1 1.3-1Z" fill="#52525B"/>
  <path d="M143.5 306.4a3 3 0 0 1 2 .6c1 1 .3 2.7-.2 4-2 6 1.7 12.3 6.2 16.7 3.6 3.7 8.6 6.9 13.7 5.8 5-1 8.3-6 9-11.1a35 35 0 0 0-2.2-15c1 .6 2.2.8 3.4.8 5.8.3 11.4-3.3 14.4-8.3 3-5 3.5-11.2 2.3-16.8a13 13 0 0 0-3-6.5c-2.5-2.9-6.6-3.9-10.4-3.5a37 37 0 0 0-10.9 3.3c3.4-1.4-11.7-15.6-16.5-15.4-7.2.2-13.3 6.6-16.6 12.5-7.7 13.8-12.7 30.6 8.8 32.9Z" fill="#81AD9E"/>
  <path fill-rule="evenodd" clip-rule="evenodd" d="m167.6 301-.8-.5c-1-.6-2.5 3-1.2 3.8l3.4 1.7c4 7.2 4.2 23-4.8 23.2-11.2.2-19.4-13-13-22.8.6-.8 1-4.3-.7-2.8-4.5 4-12.1 2.4-16.3-1.5-3-2.9-9.8-9.6 1-13.5 4.2-1.5 9.9 1.2 13.4 3.2 1 .6 2.4-3 1.1-3.8l-1.7-1c-3.4-2-7.2-4.2-8.6-7.8-4.9-13.5 6.6-11.3 11.4-9.8a29 29 0 0 1 10.9 5.6c-1.4 3.6-1.3 8 4.2 7 1.1-.2 1.4-2.1 1.4-3-.1-1-.4-2.1-.8-3.1v-.5l-.1-3 4.2-.8c1.5 0 3.3.7 4.6 1.3a22 22 0 0 1 11 12.6c2 5.6 1.6 6.3-1.3 12.2l-1.4 2.8c-1.6 3.5-1.6 3.7-6.1 3.5-1.4 0-2.8-.3-4-.6l-1.7-2.3c.5-1.2.6-2.9-.4-2.7l-1.6.3c-.5.1-1 .7-1.2 1.4-.3 0-.7.4-1 .9Zm5.5 7.5c2.5 9.4 1.4 22.4-6.8 24.5-7 1.7-15.9-3.8-18.3-10.2a21.2 21.2 0 0 1 0-14.1c-7.2 3-17.2-1.4-19.6-9-1.3-3.9-.2-8.5 2.4-11.6a10 10 0 0 1 8.3-3.5c-1.6-2-2.7-4.3-3-7.3-.4-4 1.2-8 4.3-10.5 5.7-4.8 17.2-1.2 23.1 5 5.9-7.3 15.3-3.1 20.4 3.3 5.3 6.6 9.3 19 4.7 27-2.5 4.4-6.7 6-11.2 5.8 5.2 5.3 11.5 9.5 17.7 13.7l6 4.1c7 5.1 14.3 10.2 21.6 15a36.8 36.8 0 0 1-6.2-17.2c-.3-3.4-.1-6.8 0-10.2 0-2 .2-4 .1-6.1l-.1-3.3c-.2-2.5-.4-4.8.6-7.3.2-.4.8-1.4 1.3-1.1 2.7 1 4.4 3.4 6.1 5.7l2 2.4 2 2.3c2 2.4 4 4.7 5.8 7.4a40.4 40.4 0 0 1 8 19.5c.1 3.1-.8 12.8-3.6 18.1a178.4 178.4 0 0 0 66.8 25c1.3.2.3 4-1.1 3.8A180.1 180.1 0 0 1 236 354c-.6.4-1.3.6-2 .5-.7 0-.7-1.1-.4-2.1a314.4 314.4 0 0 1-6-3.9c-.1 1.1-.8 2.6-1.5 2.6-4.5 11.6-15 12.5-26.4 10.3l-1.1-.3c-8.6-1.7-20-4-26.6-9.4-6-4.9-.2-9.6 5.5-10.5a89 89 0 0 1 44.8 3.9 850.1 850.1 0 0 1-24.9-17.3l-1.8-1.3-3.9-2.7c-6.6-4.6-13.3-9.2-18.6-15.3Zm62.1 40.3 1.5.9a31 31 0 0 0 2.3-7.7l.1-.8c1.4-6.3.6-11.2-2.2-16.9a65.8 65.8 0 0 0-7.6-12l-1.5-2.2c-2.3-3.2-6.2-8.6-7.6-8.8-1.8-.3-1.6 3-1.5 5.3l.1 1.6-.1 3.3c-.2 4.2-.3 8.4.3 12.6a40 40 0 0 0 16.2 24.7Zm-47-4.5a80 80 0 0 1 35.1 5.5c0 .7 0 1.3.3 1.6 3.3 3.2-8.7 6.9-10.2 7-3 .5-6.2.2-9.2-.2l-6.8-1.4a101.8 101.8 0 0 1-20.2-6.6c-3.6-1.7-7.2-3.4-1.4-5 2.5-.8 5.5-.8 8.4-.8h4Z" fill="#52525B"/>
  <path d="M335.4 76.4c-.8-2.3-1.6-4.8-3.7-6.2-4.1-2.7-9.7 1.4-11.6 6-2 4.5-2.3 9.9-5.4 13.8-3-1-5.1-3.4-8-4.6-2.8-1.2-7.2.3-6.8 3.4 0 .8.5 1.6 1 2.3 13 21 29.4 39.8 48.2 55.6a145.3 145.3 0 0 0-56-11.4c-2.7 0-6.4 1.3-5.8 4a52.3 52.3 0 0 0 15.8 8l-14 15.4c-1 1.2-2.1 2.5-2.4 4-.5 3 2.6 5.6 5.6 5.9 3 .2 6-1.3 8.6-2.7l39-20.4a87.9 87.9 0 0 0-24.4 57.4c8-1.3 14.9-8 16.5-16 2 5 4.2 10 8.3 13.2 4.1 3.2 10.9 3.7 14.1-.4 1.7-2.1 2.2-5 2.5-7.7 2-15 3.8-31.3-3.6-44.6 2.1 18.5 9 36.4 19.8 51.5 1.5 2.1 3.4 4.4 6 4.4 4 0 5.9-5 5.2-8.7-.6-3.9-2.8-7.4-2.8-11.3 4.5 3.6 11.6 7 15.3 2.6 3-3.6.6-9-2.2-12.6a86.4 86.4 0 0 0-42.4-30.6c13.5-1.3 27.2 1 40.7-.7 13.4-1.7 27.6-9.1 31.3-22.2a40.4 40.4 0 0 0-16.1-1c8-2.2 15-8.4 18.2-16.1-26-2-50.4 13-69.7 30.6 16.5-15 31.9-33 36.2-54.8-5-1-10.5.7-14 4.5 6-3.4 9.5-10.7 8.4-17.6-7.3 1.3-14 5.7-18 12a19 19 0 0 0 2.8-14.3c-4.6-2.3-9 3.5-10.8 8.4-2.3 6-6.7 40-14 41-3.9.5-10-34.2-11.8-40.1Z" fill="#F5E38D"/>
  <path fill-rule="evenodd" clip-rule="evenodd" d="m344.6 101.2 2 14.5 1-7a92.2 92.2 0 0 1 11.2-31c2-3.6 7.6-12.6 13-12 4.1.5 3 5.1 1.3 9.1 2.1-1.8 4.4-3.3 7.7-4 3.3-.8 7-.7 8.2 3 .3 1 .3 2 .3 3.1l-.5 1.9c-.4 1.2-.8 2.7-.7 3 .6 1 3 .7 5.2.5 1.2-.1 2.2-.3 2.9-.2 3.9.7 5.1 3 4.4 6.8-2 11.5-14.2 21.8-22.5 28.7a143.6 143.6 0 0 1-6.2 4.8 144.2 144.2 0 0 1 36.1-15.6h.4c5.1-1.4 20.2-5.2 22 2.5 1.4 6.2-8 11.2-14.3 14h.4c4.3.1 9.4.3 8.5 6-.4 2.8-3 5.5-5 7.3l-1.4 1c-.6.5-1.1.8-1.5 1.3-1.9 1.9-1.8 2.2-1.6 2.5 0 .3.2.6-.4 1.4-7.7 11.1-24.7 8.9-37.3 7.2l-5.1-.6-2.4-.3c-5.4-.6-11-1.2-16.3-2.5l1.6 2a82 82 0 0 1 9.9 5.6c3.2 2 6.3 4 9.5 5.5a45.2 45.2 0 0 1 21.8 17c2.1 3.3 7.7 13.2 3 16.7a4.2 4.2 0 0 1-3.5.9c-.4 3.7-2 7-6.6 6.6h-.8c.4 3.8 0 7.5-2 10-3.5 4.1-9.9 1.5-13.1-1.5-3.1-3-4.8-7.1-6.4-11l-.2-.3v-.3l-.2-.2-1-2.6a210.6 210.6 0 0 1-9.7-26.4c-2.1-6.7-4.2-13.5-7.2-19.6l-.8-.3 1.4 6.5c3 13.6 6 27.2 3.6 41.3l-.1.8c-.7 4.3-1.7 10.8-7.1 10.9a6.8 6.8 0 0 1-5.6-3.4c-.8-1.3-.9-3-1-4.6v-.7l-.4 1c-.6 2-1.3 3.8-2.7 5.2a7.7 7.7 0 0 1-6 2.3c-2.7-.3-3.3-2-3.3-4.2-1.7 3.9-4 7.6-7.8 8-6 .8-4.9-8.5-4.4-12.6l.1-.7c2-17.5 11.2-31.5 20.4-45.7l1.5-2.3c-2.3 1.7-4.7 3.2-7 4.8a317.8 317.8 0 0 0-8 5.2 80.3 80.3 0 0 1-19.9 11c-3.8 1.3-12.7 3.5-15.6-.8-2.8-4 1.6-9 5-12.2-3.4.2-7.2-.7-6.6-4.5.8-5.7 11.9-9.3 17.7-11.2a127.8 127.8 0 0 0 3-1c1.6-.3 3.8-.7 4.2-1.7-.2.5-3.4.5-4.7.6h-.5c-3 .2-6.2.2-9.2-.4-3.3-.6-12.8-4-11.1-9 1.6-4.4 10.7-4.5 14.3-4.1 7.9.9 15 3.8 22.3 6.7l2.9 1.2a73.2 73.2 0 0 0 20 4.7 6 6 0 0 1-2-2.5c-2.2-.9-4.2-2.3-6.1-3.6l-2-1.5c-4.7-3-9.2-6.4-13.2-10.3a65.9 65.9 0 0 1-17.8-27.7c-1.5-5-4.7-15.5 1.4-17.7 2.3-.8 4.3.2 5.9 1.8a40 40 0 0 1 4.8 6.8c0-2.3-.2-4.7-.5-7.1-.3-3-.6-5.9-.5-8.7 0-2.4.7-4.7 3.4-5.1 2-.3 3.6 1.6 4.8 3.2.8 1 1.5 2 2.1 1.8.6-.2 1.3-1.6 2-3 .6-1.3 1.1-2.4 1.6-2.9a6 6 0 0 1 2.7-1.2c4-.7 5.8 2.8 7.1 5.9 3 7 4.4 14.3 5.5 21.8.5 3.8 1 7.6 1.7 11.4Zm10.8 54a145 145 0 0 1 4.9 9.5l.6 1.3c1.2 2.3 2.3 4.5 3.6 6.7l1.4 2c1.3 1.9 2.7 3.8 2.8 5.8.1 1.2 3.8.5 3.7-1-.1-1.9-1-3.1-2-4.6l-.9-1c-2-3.1-3.7-6.4-5.4-9.7l-1.1-2.3-1.6-3a61 61 0 0 0-2.9-5.7l5.5 3.3c3.7 2.4 7.5 4.3 11.3 6.3l5.8 3a35.9 35.9 0 0 1 14.3 15.8c1 2.2 1.9 4.5 2.1 6.8 0 .5.3 3.4 0 3.5-.6.2-1-3.4-1.1-4 0-1.1-3.7-.3-3.7 1l.2 1.9c.2 1.8.5 4-.3 5-1.4 1.8-3.1 1.7-4.6.5-1-4.2-2.7-8.1-4.1-10.6-.6-1-3.4 0-3.6 1-.6 3.2 1 8 3.8 11.1 1.5 6.6 1.6 13.4-3.9 12.2-5.5-1.1-8.8-10.3-11-16.5L368 190a389 389 0 0 1-10.7-29.3c-.6-1.9-1.1-3.7-1.8-5.5Zm-16-22.7h-.1l-1.9-1.4a75.7 75.7 0 0 1-26.8-28.2 51.7 51.7 0 0 1-5.9-17.6v-.6c-.4-1.7-1.1-5 1.8-5 .5 0 1.7 2.3 2.3 3.4l.3.6a104 104 0 0 0 5.4 7.6c.6 1 3.3.1 3.5-.9a50 50 0 0 0 0-11.6 148 148 0 0 1-.6-11.3c.6-.4 1.4 1 2.1 2.3l1 1.4c1.4 1 3 1 4.6.2 1-.5 1.9-2 2.7-3.3 1.2-2 2.3-4 4-2.8 3 2 4.7 10 5.5 14.2l.3 1.4c.9 4 1.4 8 2 12 .2 2.3.5 4.5.9 6.7l.1 1.2c1.9 11.6 3.7 23 4 34.7-.7-1.4-1.3-3-1.8-4.3l-.7-1.8-.7-1.6-3.6-8.4-.4-1c-1.3-3.3-5.8-14.2-4.5-15.3 1.5-1.4-2-1.4-3-.6-2.4 2.2 1.8 12 3.6 16.3l.6 1.6c1.6 4 3.5 8.1 5.3 12.1Zm3.1 9.9c-3-.7-7.6.6-11.3 1.8l-3.6 1-2.7.5c-5.4 1.1-14.2 2.9-15.7 7-.4 1.2-4 1.6-3.6.4 1.8-5 8.4-6.5 13.6-7.7l2.7-.7 9.5-2.4 4.6-1.1c-4.5-.6-9-2-13.2-3.5l-6-2.4a94.2 94.2 0 0 0-16.2-5.4 49 49 0 0 0-5.6-.9l-6 5c-.2 1.9 7.2 4 8.6 4.3a31.7 31.7 0 0 0 11-.1c1.8-.3 3.7-.7 5.5-.2.6.1 1 .5.6 1-1.5 2.5-4.3 3.3-7 4.1l-2.1.7-1.5.5c-3.3 1-7 2.3-9.9 4.2-1.4 1-6 4.4-5.8 6 .3 2.1 5 2 6.2 1.5.7-.4 3.6-.3 2.1 1l-.6.6c-2.5 2.1-5.3 4.5-6.2 7.8-1 3.2-.7 3.3 2.7 4.4h.3c3.6 1.2 5 1 8.4 0 6.3-2 12-6 17.5-9.8a390.1 390.1 0 0 1 6.9-4.6c4-2.7 8-5.4 12-8.3l1-.8 1.7-1.2 1.3-2.2.8-.5Zm10.5-9.2-3.8 2.7a139 139 0 0 1 18.4-31.5c1-1.3-2.7-1-3.4 0-6 7.2-10.9 15.7-15.1 24.4l.7-8.3.3-3.2c.8-8 2.4-15.8 5-23.5a63 63 0 0 1 11.5-22.3c.7-.9 3-3.4 3.6-3.3.8.2.4 3.6.3 4-.3 1.8-1 3.4-1.9 5-.5 1-1 2.1-1.4 3.3-.5 1.4 2.9.4 3.3 0l2.2-2.3c1-1 1.8-2.1 2.8-2.8 8.1-3.1 11.4-1.8 10 4l-1 2.8c0 2 0 2 2.2 2.4 1.3.3 2.8.2 4.2.1 3.8-.2 7.3-.4 6 5.3-.8 3.4-3 6.6-5 9.4a108.3 108.3 0 0 1-24.4 23.6l-4.6 3.3-6.2 4.6-3.3 2-.4.3Zm-12.2 16.6c-1 3.6-2.4 7.2-3.7 10.6l-2 5.4-1 3c-2.1 5.3-4.6 11.8-3 17 .4 1.2 4 .2 3.7-1-1.6-5.3 1-12.2 3.3-17.9l1.5-3.9 1.6-4.5.9-2.3a115.7 115.7 0 0 0 1.1 13.8c.6 4.6 1.8 13.2 5.6 15.6.3.3 1.1.2 1.8 0 .1 5.4-.4 11.1-1.8 16.2-2.1 7.7-5.8.4-6.1-3.4v-1.1c0-1 0-1.7-.7-2.7-.6-.8-2.6 0-3.2.4-.5.5-1.1 1.9-1.9 3.6-1.7 3.6-3.8 8.2-6 6-.8-.8-.5-2.8-.2-4.8.3-1.7.5-3.5 0-4.5-.4-1.2-3-.4-3.4.4-.9 1.3-1.3 2.6-1.8 4a37.4 37.4 0 0 1-.9 2.3c-.8 2.1-2.1 5.3-4.5 5.2-2.1 0-2-1-1.9-3l.1-1.7a65 65 0 0 1 4.6-21.2 137.5 137.5 0 0 1 17.9-31.5Zm8.4 29c.3 1.2.7 2.6 1.3 3.7l-.1-1a182 182 0 0 0-3-20v-.3l-1.6-8.3c0 4.5.3 9 .7 13a63.7 63.7 0 0 0 2.7 12.8Zm.1-36.6 1.5.6a110 110 0 0 0 22.6 4.3 512.4 512.4 0 0 1 6.6.9c5.8.8 11.3 1.5 17.4.8h.2c4-.5 9.1-1 12.3-4 .7-.7 1-1.6 1.3-2.6.2-.6.4-1.3.8-1.8 1-1.5 2.4-2.6 3.9-3.7 2-1.5 4-3 4.8-5.6 1.5-5.3-2.6-5.5-6.6-5.7-1.2 0-2.3-.2-3.3-.3-1.4-.3-.3-1.5.4-1.8 3.7-1.6 23.9-12.4 11.8-16-8.3-2.6-21 2.8-29 6.2l-.6.3a129 129 0 0 0-12.4 6c.6.2 1 .6.3 1.2l-1 .9c-.4.4-1.5.6-2.3.5-4.7 2-9.3 5.6-13.5 8.9l-4 3-2 1.4c-1.5 1.2-3.1 2.5-4.8 3.5 3.7-.5 7.3-2 10.8-3.6a121 121 0 0 1 20.2-6.3l.5-.2c1.8-.4 3.6-1 5.4-1.6 2-.7 3.9-1.4 5.9-1.8h.3c1.2-.4 2.7-.7 3.7.4.9 1-2.6 2.4-3.4 1.4l-6.5 2-2.7 1-4.7 1c-2.7.7-5.5 1.3-8.1 2.1-2.9.9-5.6 2-8.4 3.3a52 52 0 0 1-14.7 4.5c-.8 0-1.3-.2-1.4-.5l-1.8.8c.3 0 .5.2.5.5Zm12.7-11.8c-1 .5-2.1 1-3.1 1.7a48 48 0 0 0-3.6 3.3l.7-.6a94.5 94.5 0 0 1 5-3.6l1-.8Z" fill="#52525B"/>
  <path d="M748.9 125.9a25 25 0 0 0 2.8 13.8c1.7 3.6 4.3 7.4 8.2 7.7a10 10 0 0 0 4.2-.8c10.9-3.9 22-18.4 12.8-29.2-8.7-10-26.2-4.6-28 8.5ZM834 94a9.8 9.8 0 0 0-4.3 7.6c-.3 3 .4 6 1.4 8.9 1 3 2.1 5.8 4.2 8 3.3 3.7 8.6 5.2 13.4 4.3 9.2-1.7 18.9-14.1 11.6-22.8-4.3-5.2-20.6-9.3-26.2-6Zm-1.5 104c-1.9 2.4-2 5.8-1.9 8.9 0 2.3.2 4.7 1.2 6.8 2.5 5.8 9.8 7.5 16 8.4 1.6.2 3.1.4 4.6.2a14 14 0 0 0 7-4.2c2.7-2.5 5.3-5.3 6.1-8.8 3.8-15.4-25.9-21-33-11.3Z" fill="#CFA1A1"/>
  <path fill-rule="evenodd" clip-rule="evenodd" d="m840.5 121.6.2.5c.2.6-.4 1.3-1.2 1.7v.6c0 .4-.3.7-.7 1.4-.6 1-3 1.7-4 1.3l-1.6 2-1.8 2a569.4 569.4 0 0 0-46.5 52.5 62 62 0 0 1 22.4-7.2c3.5-.4 14.2-.9 15 4.4.8 4.4-6.4 5-9.6 5.3h-.6c-8.2.8-16 .7-24 .7a1183.7 1183.7 0 0 0-5.6-.1 1284.2 1284.2 0 0 0-34.7 46.2 250.9 250.9 0 0 0 42.2-8.3c7.4-2 14.7-4 22-6.2l15.4-4.4c-.3-3.6 2.2-8.2 3.8-11.1l.1-.2.1-.2c2.4-4.3 5.5-7 9.8-9.2 3-1.5 7.1-2.8 9.7.3a6 6 0 0 1 1.2 4.3 10 10 0 0 1 3.4-.6c2.5 0 4 1.2 4.3 3.8.2 1.9-.6 3.1-1.4 4.4-.4.6-.9 1.3-1.2 2.1 3.6-.1 6.2.7 3.4 5.1-3.2 5.3-8.9 9.7-15.1 10a20.5 20.5 0 0 1-15.5-6c-.8.2-1.6.1-1.9-.4l-16.3 4.7-19.5 5.5A171.5 171.5 0 0 0 807 233c2.3.8 4.6 1.6 6.7 2.8 3.5 2 7.9 6.2 2.8 9.3-4.5 2.6-11.9-.2-15.9-2.5a41 41 0 0 1-13.3-14.7 258.6 258.6 0 0 1-41.4 7.8l-14 19.2a817 817 0 0 0-22.8 32.9c-1.5 2.2-4 5.7-4 7.2.2 1.5-4.3 2.9-4.4 1-.2-2.2.6-3.2 1.7-4.5l.9-1.2a136 136 0 0 0 5.3-7.9l3-4.4c5.4-8.1 11.1-16 16.8-24l26.6-36.3c-2-11-1.3-21.8 0-33-2-.2-3.7-1.5-5.4-2.8l-.5-.5a43.2 43.2 0 0 1-9.2-9.6c-1.9-2.8-7.2-10.9-3.3-13.7 3.7-2.8 7.4.7 10.1 3.2.2 0 .3.2.5.4 3 2.7 6 5.5 7.9 9a19.8 19.8 0 0 1 1.5 4l1.5-7.9 1.9-10.1.8-6.5.8-6.5-.6.1c-2.5.5-2.2-1.2-.9-2-3.6 0-6.9-.5-9.1-4a27.7 27.7 0 0 1-3.2-17.7c.6-2.8 2.3-5.6 5.4-5.8 3-.2 4.2 2 5.5 4.1l.9 1.4 1-2c2-3.3 4-6.9 7.2-7.6 4.3-.9 4.4 3.8 4.5 7.3v.7c.8-.5 1.6-1.2 2.4-1.9 1.9-1.5 3.8-3.2 6.7-2.8 4 .5 4.2 4.2 3.5 7.6a29.2 29.2 0 0 1-18.7 21.2c-.4 2.2-.6 4.6-.9 6.8l-.8 6.6c-.5 3.3-1.2 6.7-1.9 10l-1.7 9.2a128.4 128.4 0 0 0-2 37.6l5.7-7.6a858.1 858.1 0 0 1 38-47.4c-3.8-.7-4.8-5.8-5.5-9.4l-.3-1.2-.5-2.4c-1.4-6-3.4-14.6.7-19.3.7-.8 2.9-1.7 3.9-.9 4.8 4 4.6 13.4 4.4 20.5l.3 2.2c.2 1.7.5 3.6.5 5.3l.9.2a366 366 0 0 1 17.7-18.8l3-3.4c2.5-2.9 5.2-6 8.2-7.4-.6-1-1.4-2-2.3-2.8l-1.9-2.2a20 20 0 0 1-1.7-20.5c1.3-2.5 3.5-5.1 6.5-5.4 3.3-.3 4.4 1.8 5 4.3l1.2-1.2c1.9-2.2 3.8-4.4 6.8-4.4 3.6.1 3.2 3.2 2.7 6l-.2 1.4 1.9-1c2-1 4.3-2.2 6.3-.8 3.1 2.3.3 7.6-2 11l.6-.2c2.2-1.4 4.5-2.8 6.7-1 2.4 2 0 5.2-1.4 7-5.7 7.4-14.8 9-23.5 8.5Zm-26.7 120.2c-.3-1-1-1.8-2-2.6-.1.4-.7.8-1.3 1.1l.9.9 2.4.6Zm-74.6-81.2c.5 0 1.3.5 2 1.1l-.7.3c-.5-.8-1-1.4-1.3-1.4Zm59.7-30.5.3 1.1-.4.3.1-1.4Zm33.3 83.7c2-.6 3.1-3.2.1-2.6l-.3.1c.2-3.3 2.5-7.1 3.9-9.5l.1-.3c2-3.5 4.3-5.9 8.5-5.3 2.8.4 3.2.5 3 3.2l-.4 1.5a6.5 6.5 0 0 0-2.1 3.6c-.3 2 3.6.1 4.1-.4.7-.6 1.4-1.5 1.9-2.5 1.3-1 3.3-1.3 4.1-.2.8 1.2-.4 3.7-.9 4.6l-.6 1.1c-.5.8-1 1.5-1.2 2.5 0 .8 1 1 1.5.9 4.4-.4 2.9 2.5.8 4.6-4 4.3-8.7 5.5-14 3.6-.8-.3-2-1.2-3.3-2.1-2-1.3-4-2.8-5.2-2.8Zm-51.7-93c-.6 7.8-6.7 15-13.8 18.5l.6-2.5c.5-1.5-4-.5-4.5 1l-.3 1c-3.9.1-6.6-1-8.2-5.2-1.3-3.2-2-7.2-2.3-10.6v-3.3l.2-.6.4-1.7.3.4.7 1.4 1.3 1.9c.6 1 1.2 2.1 2.2 3 1.1.8 3.1-.2 4-1 1.1-1.1 2-3 3-4.8 1-1.7 2-3.4 3-4.6.8 1.3.7 3.7.7 5.5v2c0 .7 1.7.5 2 .4a16 16 0 0 0 4.2-2.2c3.4-2.1 7-4.4 6.5 1.3Zm57.5-2.3-.8-.8a19.8 19.8 0 0 1-4.4-8.7c-.7-3-.8-6.8.4-9.7v-.1c.5-1.1 1.7-3.9 3.4-3 .4.2.7 2 .9 3.1l.1.9c.3 1.1 2.7.3 3.2 0 1-.6 1.8-1.4 2.6-2.2a6 6 0 0 1 2.2-2c2.7-1.7 2.3.3 2 2.3l-.3 2.1c0 .8.9 1 1.5.9.7 0 2.2-.7 3.5-1.3 1.3-.5 2.5-1 2.8-1 4.2 1.1-.9 8.3-2.6 10.8-.1.2-.3.3-.3.5-.7.9.7 1.2 1.3 1.2.8 0 2-.5 3.3-1 3.1-1 6.4-2.1 3.7 2-4.9 7-14 6.9-21.5 6h-1Z" fill="#52525B"/>
  <path d="M1143.8 102.8c-8.3 2.2-4.8 15.1 3.5 12.8 8.2-2.2 4.7-15-3.5-12.8Zm56.3-64.8a6.7 6.7 0 0 0-5-.6 7 7 0 0 0-4 3.1l-1.2 2a7 7 0 0 0-.6 5 6.7 6.7 0 0 0 8.2 4.7 7 7 0 0 0 4-3.1l1-2c1-1.4 1.2-3.4.7-5a6.8 6.8 0 0 0-3-4Zm22.7 77.4a7 7 0 0 0-5-.6l-1.6.4a6.9 6.9 0 0 0-4 3.1 6.8 6.8 0 0 0-.7 5 6.7 6.7 0 0 0 3.2 4.1 7 7 0 0 0 5 .7l1.5-.4a6.9 6.9 0 0 0 4-3.2c.9-1.4 1.2-3.4.7-5a6.7 6.7 0 0 0-3.1-4Z" fill="#81AD9E"/>
  <path d="M1163 61a6.8 6.8 0 0 0-5-.6 6.8 6.8 0 0 0-4.1 3 7 7 0 0 0-.7 5.1l.4 1.5a6.9 6.9 0 0 0 3.2 4c1.4.9 3.4 1.2 5 .7a6.7 6.7 0 0 0 4-3.1 7 7 0 0 0 .7-5l-.4-1.6a6.9 6.9 0 0 0-3.1-4Zm47.1 14c-8.3 2.3-4.8 15.2 3.5 13 8.3-2.3 4.8-15.2-3.5-13Z" fill="#CFA1A1"/>
  <path fill-rule="evenodd" clip-rule="evenodd" d="M1196.4 34.3c1-.7 2.4-1 3.4-1.3 2.6-.5 5.7 0 7 2.6 2.4 4.8-1 13-5.1 16a11 11 0 0 1-7.3 1.8c-8 10.8-10.3 29.6-11.2 42.2-.4 6-.1 12.2.5 18.3.3 0 .4 0 .6.2 4.7 4.2 13.6-8.5 15.6-11.7 1.4-2.2 2.5-4.5 3.7-6.8l2.6-5.2c.2-.4.6-.7 1.1-1-4-1-7.1-3.9-7-8.4 0-4.8 5.3-7.2 9.6-7 2.3-.6 4.8-1 7 .2a7 7 0 0 1 3.4 6.7c-.5 5.3-4.8 9-10 8.9l-.2.3-3 5.5a52.2 52.2 0 0 1-12.3 17.2c-2.1 1.7-6.7 5-10.5 5.3a229.9 229.9 0 0 0 5 25.4l.9.4c.6.3.3 1-.3 1.6 1.1 4.1 2.4 8.2 3.7 12.3l.3-.1c10.7-3.3 16-14.5 19-24.4-5.5-1.7-6.6-8-4.7-13 1.7-4.6 7.7-6.2 12-4.2 1.6 0 3.1.7 4 2.3a12 12 0 0 1 1 7.9 10 10 0 0 1-8.4 7.3c-3.8 11.5-10.6 22.3-22.4 26.7 2 5.7 4.2 11.4 6.7 17l.5 1.3c5 11.6 10.4 24 18.3 33.8 1 1.3-3.2 4-4.3 2.5a165 165 0 0 1-20.8-39.7l-.3-.8c-3.8-9.2-6.9-18.6-9.3-28.2-7-3.3-13.5-6.6-19.2-12l-1.1-1.2a49.2 49.2 0 0 1-14-18c-1.3.6-2.9 1-4.6 1-13.1.6-9.9-22.5 3.2-21 .8 0 .8.6.4 1.1 4.7-.6 9.2.6 8.6 7-.3 3.5-1.6 6.7-3.8 9.1.3 0 .5.2.6.5 2.3 7.5 10.8 15.2 16.5 20.3a56 56 0 0 0 12 7.8l-2-9.2c-2.1-11-3.4-22-3-33a28.6 28.6 0 0 1-10.5-8.4c-3-4.3-5.3-9.1-7-14l-2 .2c-6 .1-8-6-7.2-11.2.9-5.6 6.3-8.3 11.4-7.4 2-.5 4.3-.5 5.7 1.3a13 13 0 0 1 1.8 8c-.5 3.3-2.5 5.8-5 7.3 1.3 4.2 3.3 8 5.6 11.8 2 3.4 4.6 5.5 7.6 7.4l.9-7.2c1.8-11 4.3-24.8 11.4-34-1.7-1-2.6-3-3-5.3-.7-5.3 1.8-12.5 7.9-12.8Zm21.3 96.1c.8 0 1.6-.1 2.2-.8 1-1 1-2.8 1-4.1 0-2.8-.8-6.9-4.4-6-1.4.3-1.7-.2-1.4-.9-.9-.2-1.8-.3-2.4 0-.9.7-1 3.5-1 4.6 0 3 1.1 5.6 4 6.7l.3.1c.8-.2 1.6-.2 1.7.4Zm-72.6-32c-4.6 1.6-3.8 14.8 3.3 14.4 4.8-.3 7.2-7.9 5.2-11.8-1.4-2.8-5-1.9-7.4-1.2-1.8.5-1.8-.5-1-1.5Zm62.8-21h.5c.5.1 1.2-.1 1.8-.5 2.5-.2 4.8.7 5.5 3.7a7 7 0 0 1-.3 4c-.7 1.8-1.7 2.1-3.7 1.9-2.4-.4-5-1.4-6.1-3.7-.5-1-1-2.5-.9-3.7.1-1.5 1-2 2-2 .3.3.7.3 1.2.2Zm-43.2-5.4c1.5-1.2 2.1-3.2 1.8-5.4-.2-1.3-.6-3.3-1.3-4.5-.4-.8-1-1-1.7-1.2-.7.4-1.3.5-1.8.4l-.4-.1h-.3c-.7.3-1.3.2-1.5-.3-1 0-1.9.3-2.4 1-.9 1.2-.7 3.1-.6 4.5.2 2.6.9 6.1 3.9 6.6.5.1 1 .2 1.4.1.9-.7 2.2-1.3 3-1Zm30.2-34.5c.7.8 3.1-.2 4-1.4h.4l.5.1c.7.2 1.3.3 2 .8 1 1 1.2 2.4 1.2 3.8 0 2.4-.8 6.2-2.5 8-2.5 3-6.4.8-7.2-2.4a14 14 0 0 1-.4-4.2c0-1 .3-4.7 1.6-4.6h.4Z" fill="#52525B"/>
  <path d="M1320 39.6c-8.4-2-11.5 11-3.2 13s11.5-11 3.2-13Zm26.8 40.5a6.7 6.7 0 0 0-4-3 7 7 0 0 0-5.1.8l-1.9 1.1a6.8 6.8 0 0 0-3 4.2c-.4 1.5-.2 3.6.8 5s2.3 2.7 4 3a7 7 0 0 0 5.1-.8l1.9-1.1a6.9 6.9 0 0 0 3-4.1c.4-1.6.2-3.7-.8-5Zm-10.1 67.4c-8.3-2-11.5 10.9-3.2 13 8.4 2 11.5-11 3.2-13Z" fill="#F5E38D"/>
  <path d="M1297.7 26.2c-8.3-2-11.5 11-3.2 13 8.4 2 11.5-11 3.2-13Zm26.5 94.3c-8.4-2-11.6 10.9-3.2 13 8.3 2 11.5-11 3.2-13Z" fill="#CFA1A1"/>
  <path fill-rule="evenodd" clip-rule="evenodd" d="m1294.3 36.5 1.2.3c-2 8.3-2.3 17.3-2.5 26a306 306 0 0 1-.6 13.2c-.4 6.3-1 12.7 2.2 18.3-2.8 3.2-5 7.8-7 11.9-1 2-1.8 4-2.7 5.5a337.3 337.3 0 0 1-22.9 35l-.7 1-4 5.2c-7.2 9.5-14.6 19.4-23 27.7-1 1 2.8 2.1 3.8 1.1 7.5-7.4 14-16 20.6-24.6l4.4-5.8 3.2-4.2c2.1-1.8 6.3-3.5 9.3-4.7 1-.3 1.7-.7 2.4-1l7-2.8a132 132 0 0 0 19.8 4.7c7.5 1.4 15 2.8 22.2 5.6l-.8 1.3-.1.1c-.7 1.2-1.6 2.7-1.4 4 .4 1.9 2.4 3.3 3.9 4a8 8 0 0 0 6 .9c2.1-.6 4.1-3.3 5.3-5 3-4.4-.3-7.4-4.2-9.2-1.1-.5-3.4 0-3.2.7-1.4 0-2.7.6-3.9 1.5-6.6-2.6-13.4-4.5-20.4-6-2.7-.6-5.5-1-8.3-1.5-4-.6-7.9-1.2-11.7-2.3l4.5-1.7c8-3.1 16-5.7 24.1-7.7a6 6 0 0 0 2 2.4c4.3 3 8.6 1.6 12.2-1.8 1.2-1.1 2.4-2.9 2.2-4.6-.2-2.2-2.3-3.2-4-3.7h-.4c-1.4-4-6.8-1-8.8.8a10.3 10.3 0 0 0-3.2 4.4 206 206 0 0 0-28.2 9l-6.6 2.3c-3.7 1.2-7.6 2.5-11.1 4a311.3 311.3 0 0 0 19-30.4l6.3-10.7.7-1.1 1.6-2.6.6-.2c.9-.2.8-.6.3-1 1.7-2.1 1.8-2 2.1-1.8.3.2.6.5 2-.1 5.4-2.7 11.4-4.6 17.4-6.5l8.7-2.8.3.6c.7 1.6 2.4 2.3 4 3-.8.9 2.8 2 3.8 1 1-.8 2-1.2 3.1-1.6 1-.4 2-.8 2.8-1.4 1.6-1.2 2-3.2 1.8-5.2-.4-4.4-4.6-7.4-8.8-7.7-4.1-.3-6.3 3-7 6.6a13 13 0 0 0-.3 2c-6 2.4-12 4.8-18.3 6.7l-4.8 1.2c-2.5.5-5 1-7.1 2-.6.2-1.2.6-1.8 1a45.2 45.2 0 0 1-.8-19.3v-.3l.9-.1a46 46 0 0 0 10.8-9c1.4-1.5 2.7-3.2 4-5 1.2-1.6 2.4-3.2 3.8-4.6 2.5.8 5 .3 7.2-2 2.2-2.2 3.4-5.5.5-7-1.8-4.8-7.7-6.7-11.5-2.9-1.4 1.4-3.2 4-3 6.1.2 1.9 2 3.3 3.5 4.2a41.5 41.5 0 0 0-3.3 4 69 69 0 0 1-12.5 12.7l.1-2.1.3-6.3c.2-7.4.4-14.9 2-22l.6.3a97.9 97.9 0 0 1 .7.1c.8.2 2 .4 2.6-.3 2.2-2.6 4.2-7.8 2.5-11-2-4-6.6-4.7-10.5-3.7-3.8 1-6.6 3.7-7 7.8-.2 3.8 3 4.5 6 5.1Zm39 45.7.6-.2c1.2-.5.6-1.2-.4-1.6V80c.4-2.6 2-7 5.3-4.8 2.5 1.7 3.8 6 1.5 8.4-.9.9-2 1.3-3.2 1.8-.3 0-.6.2-.9.4h-.1c-1-.5-2-1-2.4-2-.3-.5-.3-1-.4-1.6Zm-40.9-50.9c-.5 2.7 1.7 3.2 3.8 3.6 1-.9 4.1-.2 3.8 1a706 706 0 0 0-.1.6c1.2-1.7 2-4.2 2.4-6.1.2-1.4-.1-2.6-1-3.7-1.2-1.7-3.2-1.4-5-.7-2.2.9-3.5 3-3.9 5.3Zm26.4 19.6c-.1-.8-2.8-1.6-3.7-1l-.4.3a4 4 0 0 1-1.2-1.4c-.5-1.1 0-2.3.5-3.3a9.3 9.3 0 0 1 2.5-3.2c1.8-1.4 3 1.2 3.4 2.7.1.4.7.7 1.4.9 1.2.4-.9 3.4-1.3 3.8-.3.5-.8.8-1.2 1.2Zm1.7 76.2 2.6-.6c2.5-.5 0-2.1-1.6-2l1.1-1.2a24.2 24.2 0 0 1 2.4-2l.3-.2 1.4.5 1 .5c2.5.7 1.3 3.5 0 4.8-.7.8-1.7 1.5-2.6 2.2l-.2.1c-1.3 1-2.2 1-3.5-.2-.6-.6-.9-1.3-.9-1.9Zm12.2 20.8c.8.4 2.4.2 3-.2 1 .8 1.8 2 1.3 3.6a8.5 8.5 0 0 1-2.4 3.5l-.5.6-.5.6c-.8.9-1.4 1.6-2.8.8-2.3-1.3-2.3-2.7-1.1-4.9a15.7 15.7 0 0 1 2.3-3.2l.3-.3c.3-.3.5-.3.6-.3h.1l-.2-.2Z" fill="#52525B"/>
  <path d="M79.6 323.5c-6.6 6.4-8 16.7-6 25.7s7 16.8 12 24.6a57.3 57.3 0 0 0-35.5-10.4c-8 .5-17 4-19.1 11.9-1.5 5.8 1.7 12.1 6.6 15.6 5 3.4 11.2 4.5 17.2 4.5 6.7 0 14-1.5 18.3-6.8-6.3 4.4-9 12.5-9 20.2a24 24 0 0 0 6 16.4c4.3 4.3 11.3 6 16.5 3 4.6-2.5 6.8-7.7 8.3-12.7a98 98 0 0 0 4.3-29.9c-1.6 10.8 0 22.9 8 30.3 8 7.3 23.2 6.6 27.7-3.3a17.8 17.8 0 0 0-2-16.5c-3-5-7.9-8.5-12.8-11.4a85 85 0 0 0-16.6-7.4c11.4 3.7 30.2-3 33.4-15.8 4.3-17-24.8-20.5-30-7.3 6.4-16.5-7.3-50-27.3-30.7Z" fill="#F5E38D"/>
  <path fill-rule="evenodd" clip-rule="evenodd" d="m91.8 371 1.9-1.4c2.2-3.1 5.1-6.4 8.5-9.6 2.7-4 4.7-9 4.7-13.8 0-8.1-2.7-19-9-24.5-7.8-6.5-16.4.3-20.6 7.3a23 23 0 0 0-4.3 15.3 40 40 0 0 0 9.7 24.7l2.1-.5c-.2-3.6.2-7.5.5-11.2l.5-6.4c.1-3.3 0-6.5-.2-9.7-.2-3.8-.3-7.5 0-11.3 0-1.3 4.4-2 4.3-.7v.9c-.2 4 0 8 0 11.9a146.8 146.8 0 0 1-.1 16c-.4 3.8-.7 7.7-.4 11.3 1 .4 1.8 1 2.4 1.6Zm-12.2 12.3c-1-.8-1.6-2.1-1.6-3.6h-.2a21.5 21.5 0 0 1-8.3 8 52.2 52.2 0 0 0-9.6 18c-2.7 9.5-2.2 23.6 10.6 25 12 1.3 14.9-20 15.2-28.3 0-3-.4-10.9-2.3-16.5a310 310 0 0 1-5 16.4 32 32 0 0 1-10.8 16.5c-1.1.9-5.5.7-3.5-.9 6.7-5 9.4-12.7 11.3-20.5.8-3.1 1.8-6.2 2.7-9.2l1.5-5Zm7.5 1h.5-.4Zm1-.2a9 9 0 0 0 1.5-.5l.2.7c-.4-.3-1-.3-1.6-.2Zm-19.8-11c2.6.6 5.3.8 8 .8a3 3 0 0 1 1.2-.9c-3.3-8.8-11.3-13-20.3-14.3-5.7-.9-11.1-1.6-16.7 1.1-4.6 2.2-7.6 8-7.8 13-.5 10.2 12 15.8 20.7 16.6 4.5.4 8.9-.6 12.7-2.8 2.4-2.8 5.1-5.3 8-7.4l1.2-2.8c-2.7 0-5.5 0-8.1-.6-3.3-.7-7.1-2-10.3-3.2l-3.2-1.7c-1.4-.8-2.7-1.6-4.1-2-2.5-.8 1.3-2.8 2.7-2.3 2.6.7 5 1.9 7.3 3 2.8 1.3 5.6 2.6 8.7 3.4Zm23.1 16.2L91 388l.5 5.1c.1 2 .2 4.1.6 6a41 41 0 0 0 6.2 17c6.6 9 25.6 16.2 30.9 1.8 1.6-4.6 3.3-10 1.9-14.9-1.8-6-7.9-10.7-13-13.7a52.7 52.7 0 0 0-18.4-6.6 39 39 0 0 0-6.1-1.6 176 176 0 0 1 .5 2c1.4 4.4 3.4 8.3 6.4 11.9 5.2 6.4 13 15.2 21.2 17.5 2.5.7-1.3 2.7-2.7 2.3-7.5-2-15-9.5-19.9-15.1a47.3 47.3 0 0 1-7.6-10.4Zm3.6-14.6-.3 1.2c7.2 3.8 20.5 3.6 28.2 2.4 11.8-1.9 25.2-7.7 21.6-21.8-2-7.8-6-10.4-14.9-9-6 1-12.1 4.4-17 8-2 1.5-4 3-6.1 4.8a42 42 0 0 1-9.6 10.5l-.4.6 5-1.3 6.3-1.6a34.2 34.2 0 0 0 16.9-10.4c1-1 5.4-1.2 4 .2-3.3 3.7-6.5 7-11.2 9.2-1.5.7-17.3 5.6-22.5 7.2Zm14.7-20.6c.7-1.8 1.2-3.5 1.4-5 1.7-11.2-3.5-29.9-16.1-32.6-12.7-2.8-20 7.4-24.9 17.5-3.5 7.3-2.3 17.3 1.5 25.9a46 46 0 0 0-21.4-4.6c-10.3-.2-21.6 7-22.2 18.1-.6 12.7 16.3 18.5 26.4 18.5 3 0 5.8-.5 8.6-1.3a47.4 47.4 0 0 0-8.5 20.3c-.9 6-1 12.5 3.6 17 3.2 3.1 8 5.3 12.6 5.4 12 .2 16.7-13.5 18.5-23.2 0-.6.2-1.1.3-1.6l.8 2.4a27 27 0 0 0 13.5 15c9 3.8 23.4 5.7 28.2-4.8 3-6.3 5.7-14.5 2.6-21.2-3-6.6-10.1-11.4-16.4-14.4-4.1-2-8.6-3.5-13.2-4.6l2.5.2 2.8.2c6.7.5 13.4-.6 19.9-2.4 12.2-3.4 22.9-11 18.2-25.2-5.2-15.6-23.8-10.2-38.7.4Z" fill="#52525B"/>
</svg>
